<svg width="13" height="13" viewBox="0 0 13 13" fill="none" xmlns="http://www.w3.org/2000/svg">
<path d="M6.50014 6.99377L6.93564 8.27719L8.29325 8.33861L7.17256 9.23516L7.62083 10.58L6.50014 9.6913L5.37945 10.58L5.82772 9.23516L4.70703 8.33861L6.06464 8.27719L6.50014 6.99377Z" fill="#F0C419"/>
<path d="M2.91369 3.98894H2.91346C2.17088 3.98871 1.56885 3.38668 1.56885 2.6441V1.74756C2.31165 1.74756 2.91369 2.3496 2.91369 3.0924V3.98894Z" fill="#F0C419"/>
<path d="M2.06786 6.05761C1.34682 6.23603 0.617904 5.79603 0.43951 5.07499L0.224121 4.20465C0.945164 4.02646 1.67428 4.46622 1.8527 5.18727L2.06786 6.05761Z" fill="#F0C419"/>
<path d="M2.35861 8.11996C1.73931 8.52992 0.904846 8.36023 0.494914 7.74095L0 6.99322C0.619303 6.58327 1.45377 6.75295 1.8637 7.37246L2.35861 8.11996Z" fill="#F0C419"/>
<path d="M3.54803 10.0879C3.17664 10.7312 2.35426 10.9516 1.71099 10.5801L0.93457 10.1319C1.30596 9.4886 2.12834 9.26826 2.77161 9.63967L3.54803 10.0879Z" fill="#F0C419"/>
<path d="M2.46533 4.96614C2.83718 4.3231 3.53179 3.90911 4.23491 4.14872L5.08326 4.4383C4.84365 5.14119 4.07934 5.51664 3.37645 5.2768L2.46533 4.96614Z" fill="#F0C419"/>
<path d="M2.39355 7.97201C3.11236 8.1587 3.84663 7.72747 4.03336 7.00866L4.25885 6.14081C3.54004 5.95411 2.80577 6.38535 2.61905 7.10438L2.39355 7.97201Z" fill="#F0C419"/>
<path d="M10.0864 3.98894H10.0867C10.8292 3.98871 11.4313 3.38668 11.4313 2.6441V1.74756C10.6885 1.74756 10.0864 2.3496 10.0864 3.0924V3.98894Z" fill="#F0C419"/>
<path d="M10.9321 6.05761C11.6532 6.23603 12.3821 5.79603 12.5605 5.07499L12.7759 4.20465C12.0548 4.02646 11.3257 4.46622 11.1473 5.18727L10.9321 6.05761Z" fill="#F0C419"/>
<path d="M10.6416 8.11996C11.2609 8.52992 12.0954 8.36023 12.5053 7.74095L13.0002 6.99322C12.3809 6.58327 11.5464 6.75295 11.1365 7.37246L10.6416 8.11996Z" fill="#F0C419"/>
<path d="M9.45166 10.0879C9.82305 10.7312 10.6454 10.9516 11.2887 10.5801L12.0651 10.1319C11.6937 9.4886 10.8714 9.26826 10.2281 9.63967L9.45166 10.0879Z" fill="#F0C419"/>
<path d="M10.5344 4.96614C10.1626 4.3231 9.46797 3.90911 8.76486 4.14872L7.9165 4.4383C8.15612 5.14119 8.92042 5.51664 9.62331 5.2768L10.5344 4.96614Z" fill="#F0C419"/>
<path d="M10.6065 7.97201C9.8877 8.1587 9.15343 7.72747 8.9667 7.00866L8.74121 6.14081C9.46002 5.95411 10.1943 6.38535 10.381 7.10438L10.6065 7.97201Z" fill="#F0C419"/>
<path d="M4.48268 11.2525C4.43091 11.2525 4.37891 11.2345 4.33676 11.1982C2.4011 9.53424 1.96426 7.80478 1.93872 6.64712C1.90822 5.26262 2.45288 3.94066 3.43283 3.02012C3.52294 2.93562 3.66482 2.93989 3.74952 3.02998C3.83425 3.12032 3.82999 3.26217 3.73967 3.3469C2.85232 4.18048 2.35921 5.37983 2.38701 6.63725C2.41055 7.7037 2.81848 9.30202 4.62885 10.8584C4.72277 10.9391 4.73351 11.0806 4.65285 11.1745C4.60844 11.226 4.54567 11.2525 4.48268 11.2525Z" fill="#B19046"/>
<path d="M8.51726 11.2525C8.56903 11.2525 8.62103 11.2345 8.66318 11.1982C10.5988 9.53424 11.0357 7.80478 11.0612 6.64712C11.0917 5.26262 10.5471 3.94066 9.56711 3.02012C9.477 2.93562 9.33511 2.93989 9.25041 3.02998C9.16568 3.12032 9.16995 3.26217 9.26026 3.3469C10.1476 4.18048 10.6407 5.37983 10.6129 6.63725C10.5894 7.7037 10.1815 9.30202 8.37108 10.8584C8.27716 10.9391 8.26642 11.0806 8.34709 11.1745C8.3915 11.226 8.45426 11.2525 8.51726 11.2525Z" fill="#B19046"/>
</svg>
