<svg width="21" height="21" viewBox="0 0 21 21" fill="none" xmlns="http://www.w3.org/2000/svg">
<path d="M19.0211 8.55011H12.3926V1.9202C12.3927 0.861306 11.531 0 10.471 0C9.41101 0 8.54937 0.861306 8.54937 1.9202V8.55011H1.92163C0.862052 8.55011 0 9.41216 0 10.471C0 11.5295 0.861713 12.3912 1.92163 12.3912H8.54937V19.0211C8.54937 20.0803 9.41067 20.942 10.471 20.942C11.531 20.942 12.3926 20.0803 12.3926 19.0211V12.3912H19.0211C20.0803 12.3912 20.942 11.5295 20.942 10.471C20.9421 9.41216 20.0803 8.55011 19.0211 8.55011Z" fill="white"/>
</svg>
