<svg width="103" height="23" viewBox="0 0 103 23" fill="none" xmlns="http://www.w3.org/2000/svg">
<path d="M22.444 10.7495C22.422 8.928 24.4532 8.04183 24.5461 8.00058C23.3957 6.75554 21.6126 6.58543 20.986 6.57187C19.4885 6.45488 18.0358 7.23705 17.2729 7.23705C16.4948 7.23705 15.32 6.58317 14.0539 6.60238C12.4246 6.62103 10.9004 7.32126 10.0644 8.40862C8.33918 10.6257 9.62587 13.8838 11.2788 15.676C12.1056 16.5542 13.0718 17.5336 14.3364 17.4991C15.5736 17.4618 16.0357 16.9142 17.5287 16.9142C19.008 16.9142 19.442 17.4991 20.7317 17.4771C22.0595 17.4618 22.8955 16.5955 23.6934 15.7099C24.6489 14.7045 25.0326 13.7132 25.0479 13.6623C25.0174 13.6544 22.4699 12.9321 22.444 10.7495ZM20.0077 5.39295C20.6731 4.77524 21.1284 3.93485 21.002 3.08203C20.0389 3.11368 18.8344 3.57654 18.1409 4.18069C17.5272 4.71307 16.979 5.58567 17.1206 6.40628C18.2025 6.46618 19.3133 6.00106 20.0077 5.39295Z" fill="white"/>
<path d="M40.3683 17.3731H38.6392L37.6921 15.164H34.4L33.4978 17.3731H31.8145L35.0769 9.85206H37.0914L40.3683 17.3731ZM37.4066 14.2371L36.5501 12.2732C36.4595 12.0726 36.2889 11.6001 36.0392 10.8563H36.0088C35.9083 11.1762 35.7476 11.6487 35.5276 12.2732L34.6855 14.2371H37.4066ZM48.7416 14.5948C48.7416 15.5172 48.4044 16.2462 47.729 16.7814C47.1245 17.2579 46.3731 17.4958 45.477 17.4958C44.5093 17.4958 43.8134 17.2398 43.3908 16.7266V19.5722H41.7676V13.7324C41.7676 13.1531 41.7471 12.5592 41.7075 11.9499H43.135L43.2256 12.8095H43.2561C43.7974 12.1618 44.6189 11.838 45.7214 11.838C46.5832 11.838 47.3027 12.0906 47.8783 12.5965C48.4531 13.1034 48.7416 13.7691 48.7416 14.5948ZM47.088 14.6389C47.088 14.1111 46.9281 13.6759 46.6068 13.3329C46.2558 12.9762 45.7845 12.7976 45.1937 12.7976C44.7933 12.7976 44.4293 12.8971 44.1042 13.0932C43.7784 13.291 43.5652 13.5493 43.4655 13.8692C43.4209 13.9888 43.3956 14.1119 43.3901 14.236V15.1408C43.3901 15.5347 43.553 15.8676 43.8789 16.14C44.2047 16.4113 44.6281 16.5475 45.1488 16.5475C45.7602 16.5475 46.236 16.3717 46.5764 16.023C46.9174 15.6732 47.088 15.212 47.088 14.6389ZM57.1447 14.5948C57.1447 15.5172 56.8074 16.2462 56.1321 16.7814C55.5268 17.2579 54.7761 17.4958 53.8793 17.4958C52.9116 17.4958 52.2157 17.2398 51.7932 16.7266V19.5722H50.17V13.7324C50.17 13.1531 50.1494 12.5592 50.1098 11.9499H51.5373L51.6279 12.8095H51.6584C52.199 12.1618 53.0205 11.838 54.1237 11.838C54.9848 11.838 55.7042 12.0906 56.2813 12.5965C56.8554 13.1034 57.1447 13.7691 57.1447 14.5948ZM55.4903 14.6389C55.4903 14.1111 55.3296 13.6759 55.0084 13.3329C54.6574 12.9762 54.1876 12.7976 53.5968 12.7976C53.1963 12.7976 52.8324 12.8971 52.5058 13.0932C52.1799 13.291 51.9675 13.5493 51.8678 13.8692C51.8183 14.0184 51.7916 14.1399 51.7916 14.236V15.1408C51.7916 15.5347 51.9553 15.8676 52.2797 16.14C52.6055 16.4107 53.0288 16.5475 53.5511 16.5475C54.1633 16.5475 54.6391 16.3717 54.9787 16.023C55.3198 15.6732 55.4903 15.212 55.4903 14.6389ZM66.5398 15.2634C66.5398 15.9037 66.2383 16.4243 65.6392 16.8261C64.9798 17.2646 64.0593 17.4845 62.8792 17.4845C61.789 17.4845 60.9149 17.3285 60.2556 17.016L60.631 16.0117C61.3428 16.3248 62.1247 16.4808 62.9759 16.4808C63.5881 16.4808 64.0639 16.3779 64.4035 16.1739C64.7438 15.9693 64.9159 15.6958 64.9159 15.3544C64.9159 15.0487 64.7735 14.7926 64.4941 14.5841C64.2131 14.3761 63.7487 14.1823 63.0962 14.0043C61.3223 13.5131 60.4345 12.7948 60.4345 11.8499C60.4345 11.2327 60.7482 10.7275 61.374 10.3324C61.9999 9.93796 62.8298 9.74072 63.8622 9.74072C64.7842 9.74072 65.5524 9.85997 66.1622 10.0979L65.7549 11.0801C65.1808 10.8496 64.5329 10.7343 63.8081 10.7343C63.2356 10.7343 62.7864 10.8388 62.4651 11.0468C62.1948 11.2327 62.0577 11.4594 62.0577 11.7284C62.0577 12.0251 62.2138 12.2715 62.5245 12.4648C62.794 12.6428 63.2858 12.8366 63.9969 13.0446C64.8694 13.3057 65.5105 13.6098 65.9209 13.959C66.3343 14.3083 66.5398 14.744 66.5398 15.2634ZM71.9203 12.8542H70.1311V15.4872C70.1311 16.1569 70.4463 16.4909 71.0783 16.4909C71.3683 16.4909 71.6089 16.4729 71.7993 16.435L71.8442 17.35C71.5244 17.4387 71.1034 17.4834 70.5819 17.4834C69.9408 17.4834 69.4398 17.3381 69.0782 17.0476C68.7181 16.7571 68.5369 16.2705 68.5369 15.5856V12.8519H67.471V11.9477H68.5369V10.9547L70.1311 10.5975V11.9477H71.9203V12.8542ZM79.977 14.6169C79.977 15.4505 79.6557 16.1349 79.0146 16.6701C78.3439 17.2211 77.4516 17.4958 76.3392 17.4958C75.2657 17.4958 74.4122 17.2319 73.7757 16.7046C73.1393 16.1761 72.821 15.5104 72.821 14.7073C72.821 13.8669 73.1499 13.1786 73.8054 12.6434C74.4625 12.1076 75.3472 11.8397 76.4595 11.8397C77.5315 11.8397 78.3926 12.1042 79.0443 12.6321C79.6671 13.1441 79.977 13.8053 79.977 14.6169ZM78.2944 14.6446C78.2944 14.1478 78.1497 13.7217 77.8597 13.3651C77.5193 12.9344 77.0321 12.7191 76.4009 12.7191C75.7507 12.7191 75.252 12.9344 74.9125 13.3651C74.6216 13.7217 74.477 14.1552 74.477 14.6672C74.477 15.1645 74.6216 15.5918 74.9125 15.9473C75.2634 16.3779 75.753 16.5932 76.3872 16.5932C77.0077 16.5932 77.4942 16.3734 77.846 15.9365C78.1444 15.5714 78.2944 15.1425 78.2944 14.6446ZM85.2555 13.0096C85.0866 12.987 84.9154 12.9758 84.7438 12.9762C84.1728 12.9762 83.7312 13.1356 83.4206 13.4566C83.1511 13.7392 83.0155 14.0964 83.0155 14.5276V17.3731H81.3923V13.6578C81.3938 13.0885 81.378 12.5193 81.3451 11.9505H82.759L82.8184 12.9881H82.8633C83.0353 12.6315 83.3049 12.3438 83.6749 12.1285C84.0136 11.9404 84.4251 11.8385 84.8481 11.838C84.9981 11.838 85.1336 11.8459 85.2539 11.8601L85.2555 13.0096ZM92.515 14.405C92.5191 14.5881 92.4992 14.7711 92.4556 14.9515H87.586C87.6042 15.4872 87.8403 15.8975 88.2925 16.1801C88.7029 16.4322 89.2335 16.5588 89.8853 16.5588C90.6063 16.5588 91.2641 16.474 91.8556 16.3027L92.1099 17.1386C91.4186 17.3624 90.6024 17.4737 89.6606 17.4737C88.5278 17.4737 87.6385 17.2262 86.9913 16.7323C86.3457 16.2378 86.0221 15.5731 86.0221 14.7407C86.0221 13.9234 86.3229 13.2424 86.9251 12.6993C87.5555 12.1195 88.4075 11.8295 89.4794 11.8295C90.5324 11.8295 91.3295 12.1195 91.8709 12.6993C92.2995 13.1588 92.515 13.7285 92.515 14.405ZM90.9671 14.0924C90.9786 13.7347 90.872 13.4267 90.6519 13.1661C90.371 12.8304 89.9385 12.6631 89.3592 12.6631C88.8285 12.6631 88.396 12.8265 88.0671 13.1543C87.7969 13.4148 87.6362 13.7279 87.5867 14.0913L90.9671 14.0924Z" fill="white"/>
<path d="M33.9269 7.19375C33.4754 7.19375 33.0849 7.17736 32.7598 7.14967V3.51346C33.2145 3.46132 33.6739 3.43562 34.134 3.4366C35.9955 3.4366 36.8528 4.11648 36.8528 5.22475C36.8528 6.50313 35.8402 7.19375 33.9269 7.19375ZM34.1995 3.90285C33.9482 3.90285 33.7343 3.91416 33.5569 3.94128V6.70546C33.6528 6.71676 33.8371 6.72185 34.0959 6.72185C35.3156 6.72185 36.01 6.20643 36.01 5.24114C36.01 4.38041 35.3819 3.90285 34.1995 3.90285ZM39.5244 7.22145C38.4753 7.22145 37.7954 6.6399 37.7954 5.85038C37.7954 5.02751 38.4897 4.44088 39.5838 4.44088C40.6177 4.44088 41.3128 4.99473 41.3128 5.80686C41.3128 6.6399 40.5964 7.22145 39.5244 7.22145ZM39.5549 4.87379C38.9785 4.87379 38.6093 5.27392 38.6093 5.83342C38.6093 6.38219 38.9861 6.78232 39.5472 6.78232C40.1084 6.78232 40.4852 6.3545 40.4852 5.82212C40.4852 5.27957 40.116 4.87379 39.5549 4.87379ZM47.2955 4.4957L46.1725 7.16097H45.4409L44.9757 6.00354C44.86 5.72042 44.7637 5.43314 44.6871 5.1428H44.6719C44.6133 5.43329 44.5021 5.72435 44.3841 6.00354L43.8892 7.16097H43.15L42.0932 4.4957H42.9132L43.3198 5.76278C43.4157 6.06457 43.4964 6.34941 43.5634 6.61843H43.5786C43.6372 6.39406 43.7332 6.11374 43.874 5.76843L44.3841 4.49627H45.0343L45.5224 5.7413C45.6404 6.0431 45.7363 6.33924 45.8109 6.61899H45.8322C45.884 6.34489 45.9655 6.05383 46.0759 5.7413L46.5121 4.49627L47.2955 4.4957ZM51.4297 7.16097H50.6318V5.63053C50.6318 5.15919 50.3882 4.92296 49.9077 4.92296C49.4349 4.92296 49.1099 5.22475 49.1099 5.57571V7.16097H48.312V5.25753C48.312 5.02186 48.3043 4.76924 48.2823 4.49514H48.9842L49.0215 4.90657H49.0436C49.2583 4.62173 49.6938 4.44088 50.1818 4.44088C50.9356 4.44088 51.4305 4.8687 51.4305 5.56498L51.4297 7.16097ZM53.63 7.16097H52.8314V3.27271H53.63V7.16097ZM56.5392 7.22145C55.4908 7.22145 54.8101 6.6399 54.8101 5.85038C54.8101 5.02751 55.5045 4.44088 56.5978 4.44088C57.6325 4.44088 58.3268 4.99473 58.3268 5.80686C58.3276 6.6399 57.6104 7.22145 56.5392 7.22145ZM56.5688 4.87379C55.9925 4.87379 55.6232 5.27392 55.6232 5.83342C55.6232 6.38219 56.0009 6.78232 56.5605 6.78232C57.1223 6.78232 57.4985 6.3545 57.4985 5.82212C57.4992 5.27957 57.1307 4.87379 56.5688 4.87379ZM61.4727 7.16097L61.4149 6.8541H61.3935C61.1499 7.10107 60.7944 7.22145 60.3436 7.22145C59.7003 7.22145 59.2435 6.88687 59.2435 6.43701C59.2435 5.77917 60.0117 5.43895 61.3418 5.43895V5.38978C61.3418 5.03882 61.0913 4.86305 60.5964 4.86305C60.2424 4.86305 59.9317 4.92918 59.6584 5.06086L59.4962 4.67146C59.8282 4.51774 60.2424 4.44088 60.7289 4.44088C61.6669 4.44088 62.1404 4.80823 62.1404 5.5435V6.52517C62.1404 6.79419 62.1564 7.00273 62.1922 7.16154L61.4727 7.16097ZM61.3631 5.83342C60.4769 5.83342 60.0322 5.9928 60.0322 6.37089C60.0322 6.65064 60.2614 6.78741 60.5797 6.78741C60.9855 6.78741 61.3631 6.55739 61.3631 6.24486V5.83342ZM66.015 7.16097L65.9777 6.73315H65.9556C65.7264 7.05642 65.3412 7.22145 64.8029 7.22145C63.9372 7.22145 63.2962 6.65629 63.2962 5.86112C63.2962 5.02751 63.9608 4.44032 64.8684 4.44032C65.3488 4.44032 65.6891 4.56069 65.881 4.80258H65.897V3.27271H66.6956V6.44266C66.6956 6.70037 66.704 6.94169 66.7253 7.16097H66.015ZM65.897 5.59267C65.897 5.21967 65.5642 4.90148 65.0564 4.90148C64.4648 4.90148 64.1032 5.29088 64.1032 5.83908C64.1032 6.37654 64.4786 6.74446 65.0404 6.74446C65.5422 6.74446 65.897 6.42062 65.897 6.03688V5.59267ZM71.7594 7.22145C70.711 7.22145 70.0311 6.6399 70.0311 5.85038C70.0311 5.02751 70.7255 4.44088 71.8188 4.44088C72.8535 4.44088 73.5478 4.99473 73.5478 5.80686C73.5486 6.6399 72.8321 7.22145 71.7594 7.22145ZM71.7891 4.87379C71.2135 4.87379 70.8442 5.27392 70.8442 5.83342C70.8442 6.38219 71.2211 6.78232 71.7815 6.78232C72.3433 6.78232 72.7195 6.3545 72.7195 5.82212C72.721 5.27957 72.3517 4.87379 71.7891 4.87379ZM77.8388 7.16097H77.0401V5.63053C77.0401 5.15919 76.7965 4.92296 76.3161 4.92296C75.8433 4.92296 75.519 5.22475 75.519 5.57571V7.16097H74.7203V5.25753C74.7203 5.02186 74.7127 4.76924 74.6906 4.49514H75.3926L75.4299 4.90657H75.452C75.6659 4.62173 76.1022 4.44032 76.5894 4.44032C77.3432 4.44032 77.8388 4.86814 77.8388 5.56441V7.16097ZM83.2071 4.93991H82.3293V6.23412C82.3293 6.56361 82.4831 6.72807 82.7937 6.72807C82.9345 6.72807 83.0526 6.71676 83.1477 6.70037L83.1698 7.15024C83.0152 7.19432 82.8082 7.21636 82.5508 7.21636C81.9219 7.21636 81.5458 6.95865 81.5458 6.28385V4.93991H81.022V4.4957H81.5458V4.00741L82.3293 3.83164V4.49514H83.2071V4.93991ZM87.4311 7.16097H86.634V5.64184C86.634 5.16485 86.3911 4.92352 85.9099 4.92352C85.4965 4.92352 85.1113 5.13207 85.1113 5.55424V7.16097H84.3141V3.27271H85.1113V4.87379H85.1272C85.3785 4.5833 85.7424 4.44032 86.2068 4.44032C86.9667 4.44032 87.4311 4.87888 87.4311 5.57571V7.16097ZM91.7586 5.97076H89.3642C89.3794 6.47544 89.8294 6.76028 90.4956 6.76028C90.8496 6.76028 91.1754 6.7162 91.4632 6.63425L91.5873 7.04568C91.2478 7.15532 90.8481 7.21014 90.3829 7.21014C89.2599 7.21014 88.5952 6.68342 88.5952 5.86677C88.5952 5.04955 89.2759 4.43523 90.293 4.43523C91.2105 4.43523 91.7861 4.93991 91.7861 5.70231C91.7912 5.79228 91.782 5.88239 91.7586 5.97076ZM91.027 5.54859C91.027 5.13715 90.7476 4.84666 90.2375 4.84666C89.7791 4.84666 89.4167 5.1428 89.3649 5.54859H91.027Z" fill="white"/>
</svg>
