<svg width="24" height="24" viewBox="0 0 24 24" fill="none" xmlns="http://www.w3.org/2000/svg">
<g clip-path="url(#clip0_146_171)">
<path d="M20.46 11.992C20.46 11.974 20.46 11.954 20.46 11.933C20.46 10.243 19.953 8.67201 19.084 7.36201L19.103 7.39301L7.34598 19.133C8.64198 20.003 10.236 20.521 11.952 20.521H11.978H11.977H12.006C13.188 20.521 14.312 20.271 15.327 19.822L15.275 19.843C18.349 18.528 20.463 15.529 20.463 12.036C20.463 12.021 20.463 12.006 20.463 11.991V11.993L20.46 11.992ZM4.88398 16.654L16.657 4.89701C15.367 4.00801 13.771 3.47701 12.05 3.47701C12.025 3.47701 12 3.47701 11.976 3.47701H11.98C11.961 3.47701 11.939 3.47701 11.916 3.47701C10.37 3.47701 8.92398 3.90001 7.68498 4.63601L7.72298 4.61501C5.17898 6.12501 3.49998 8.85901 3.49998 11.984C3.49998 13.72 4.01798 15.336 4.90798 16.684L4.88798 16.652L4.88398 16.654ZM23.95 11.992V12.027C23.95 13.705 23.6 15.3 22.969 16.745L22.999 16.669C21.157 21.029 16.917 24.032 11.975 24.032C7.03298 24.032 2.79298 21.028 0.980977 16.747L0.951977 16.669C0.350977 15.29 0.000976562 13.684 0.000976562 11.995C0.000976562 10.306 0.350977 8.70001 0.981977 7.24401L0.951977 7.32101C2.79398 2.96101 7.03398 -0.0419922 11.976 -0.0419922C16.918 -0.0419922 21.158 2.96201 22.97 7.24301L22.999 7.32101C23.6 8.68601 23.951 10.278 23.951 11.952V11.993V11.991L23.95 11.992Z" fill="white"/>
</g>
<defs>
<clipPath id="clip0_146_171">
<rect width="24" height="24" fill="white"/>
</clipPath>
</defs>
</svg>
