<svg width="17" height="16" viewBox="0 0 17 16" fill="none" xmlns="http://www.w3.org/2000/svg">
<g clip-path="url(#clip0_89_628)">
<path d="M15.6902 9.87792C16.407 8.87206 16.7852 7.70992 16.7852 6.51046C16.7852 3.06752 13.675 0.266724 9.85184 0.266724C7.21984 0.266724 4.78571 1.63792 3.62678 3.76379C1.90544 4.90112 0.785178 6.73446 0.785178 8.80006C0.785178 9.99979 1.16331 11.1617 1.88011 12.1673C1.74411 13.6547 1.38411 14.7571 0.863311 15.2782C0.782244 15.3593 0.761978 15.483 0.813178 15.5857C0.858778 15.6771 0.951844 15.7334 1.05184 15.7334C1.06411 15.7334 1.07664 15.7326 1.08918 15.7307C1.18224 15.7177 3.33771 15.4073 4.90704 14.5081C5.79504 14.8635 6.74011 15.0438 7.71878 15.0438C9.99211 15.0438 12.0132 14.0534 13.2782 12.5267C14.7481 13.1899 16.4084 13.431 16.4814 13.4414C16.494 13.443 16.5065 13.4441 16.5188 13.4441C16.6188 13.4441 16.7118 13.3878 16.7574 13.2963C16.8086 13.1937 16.7884 13.0699 16.7073 12.9889C16.186 12.4675 15.826 11.3651 15.6902 9.87792ZM7.71851 14.5105C6.94758 14.5105 6.19984 14.3883 5.48784 14.151C6.37744 13.5934 6.37798 13.5497 6.37718 13.3987C6.37664 13.3057 6.32624 13.2171 6.24651 13.1694C6.12678 13.0974 5.97318 13.1305 5.89291 13.2419C5.76171 13.3446 5.22571 13.6881 4.74784 13.983C3.76091 14.579 2.44251 14.9209 1.66544 15.0835C2.14464 14.2371 2.34144 13.0507 2.42011 12.1139C2.42544 12.0497 2.40731 11.9854 2.36891 11.9334C1.68171 11.0014 1.31851 9.91792 1.31851 8.80006C1.31851 6.87552 2.39211 5.17179 4.03184 4.13659C4.13611 4.07072 4.24198 4.00752 4.34998 3.94752C4.37291 3.93472 4.39558 3.92166 4.41878 3.90912C4.53158 3.84832 4.64651 3.79179 4.76278 3.73766C4.80464 3.71819 4.84651 3.69872 4.88918 3.67979C5.00651 3.62806 5.12491 3.57899 5.24518 3.53366C5.28758 3.51766 5.33104 3.50352 5.37398 3.48832C5.46811 3.45526 5.56304 3.42406 5.65878 3.39499C5.70384 3.38112 5.74891 3.36672 5.79451 3.35392C5.91904 3.31872 6.04518 3.28752 6.17211 3.25926C6.21771 3.24912 6.26384 3.24006 6.30998 3.23072C6.42224 3.20832 6.53504 3.18806 6.64864 3.17099C6.67824 3.16646 6.70731 3.16086 6.73718 3.15686C6.87611 3.13766 7.01638 3.12379 7.15744 3.11286C7.19691 3.10966 7.23664 3.10726 7.27638 3.10486C7.41958 3.09606 7.56331 3.09019 7.70811 3.08992C7.71184 3.08992 7.71531 3.08966 7.71904 3.08966C11.0273 3.08966 13.7577 5.34112 14.086 8.21686C14.1073 8.40886 14.1185 8.60326 14.1185 8.80006C14.1185 8.92886 14.1118 9.05712 14.1022 9.18486C14.0998 9.21819 14.0969 9.25126 14.0937 9.28459C14.0825 9.40272 14.0684 9.52032 14.0492 9.63686C14.0476 9.64672 14.0465 9.65686 14.0449 9.66699C14.0241 9.78886 13.9972 9.90939 13.9676 10.0294C13.9585 10.0662 13.9489 10.1027 13.939 10.139C13.9105 10.2449 13.879 10.3499 13.8438 10.4539C13.8348 10.4809 13.8254 10.5075 13.8158 10.5342C13.7793 10.6361 13.739 10.7369 13.6961 10.8371C13.679 10.8766 13.6617 10.9161 13.6438 10.9553C13.5958 11.0601 13.5454 11.1641 13.4902 11.2662C13.4748 11.295 13.4577 11.3233 13.4414 11.3521C13.3932 11.4377 13.3425 11.5225 13.2894 11.6059C13.2662 11.6425 13.243 11.679 13.219 11.715C13.1532 11.8134 13.0846 11.9105 13.0118 12.0059C11.8596 13.5161 9.91691 14.5105 7.71851 14.5105ZM13.6102 12.0915C13.6217 12.075 13.6313 12.0574 13.6428 12.0409C13.7041 11.9505 13.7628 11.8585 13.819 11.7649C13.8518 11.7102 13.8825 11.6545 13.9134 11.599C13.9454 11.5419 13.9764 11.4846 14.0062 11.4267C14.035 11.371 14.0638 11.3153 14.0908 11.259C14.1294 11.1782 14.1657 11.0961 14.2004 11.0134C14.2281 10.9475 14.2542 10.8811 14.2796 10.8145C14.3078 10.7401 14.335 10.6651 14.3604 10.5894C14.3772 10.5385 14.3934 10.4875 14.4086 10.4363C14.4337 10.3531 14.4566 10.2689 14.478 10.1843C14.4876 10.1462 14.4985 10.1086 14.5073 10.0702C14.535 9.95046 14.558 9.82939 14.578 9.70726C14.5841 9.66939 14.5886 9.63152 14.594 9.59339C14.6073 9.49846 14.6185 9.40299 14.627 9.30699C14.6305 9.26832 14.6342 9.22992 14.6369 9.19099C14.6457 9.06166 14.6518 8.93152 14.6518 8.80006C14.6518 5.35712 11.5417 2.55632 7.71851 2.55632C7.70358 2.55632 7.68918 2.55739 7.67424 2.55739C7.56251 2.55792 7.45131 2.56059 7.34091 2.56592C7.28918 2.56832 7.23798 2.57312 7.18651 2.57659C7.11344 2.58166 7.04038 2.58646 6.96784 2.59366C6.90678 2.59952 6.84624 2.60726 6.78544 2.61472C6.72438 2.62219 6.66331 2.62966 6.60251 2.63846C6.53584 2.64806 6.46944 2.65926 6.40331 2.67046C6.35104 2.67952 6.29878 2.68912 6.24704 2.69926C6.17558 2.71312 6.10438 2.72779 6.03371 2.74379C5.99024 2.75366 5.94758 2.76432 5.90438 2.77472C5.82731 2.79339 5.75051 2.81259 5.67424 2.83366C5.64704 2.84112 5.62038 2.84966 5.59344 2.85766C5.30971 2.94006 5.03238 3.03872 4.76198 3.15419C4.74331 3.16219 4.72438 3.16966 4.70571 3.17766C4.68144 3.18832 4.65664 3.19739 4.63264 3.20832C5.82038 1.72032 7.76811 0.800057 9.85184 0.800057C13.3806 0.800057 16.2518 3.36166 16.2518 6.51046C16.2518 7.62806 15.8886 8.71152 15.2014 9.64379C15.163 9.69579 15.1449 9.76006 15.1505 9.82432C15.2289 10.7611 15.4254 11.9473 15.9049 12.7937C15.3217 12.6713 14.4345 12.4478 13.6102 12.0915Z" fill="#E30039"/>
</g>
<defs>
<clipPath id="clip0_89_628">
<rect width="16" height="16" fill="white" transform="translate(0.785156)"/>
</clipPath>
</defs>
</svg>
