<svg width="100" height="100" viewBox="0 0 100 100" fill="none" xmlns="http://www.w3.org/2000/svg">
<g clip-path="url(#clip0_74_571)">
<rect x="18.9999" y="9.00024" width="62" height="72" fill="white"/>
<path d="M6.84363 0.781494L14.6991 88.9713L49.9475 98.7995L85.2944 88.9354L93.1561 0.781494H6.84363ZM76.8366 20.9862L74.2218 50.3651L74.2296 50.5237L74.2186 50.8885V50.8854L72.3608 71.4276L72.1561 73.2526L49.9999 79.3807V79.3815L49.9827 79.3963L27.8647 73.2338L26.3671 56.2502H37.2132L37.9827 64.8862L50.003 68.144L49.9999 68.1502V68.1487L62.0647 64.8448L63.3397 50.7815H38.1186L37.9022 48.4042L37.4093 42.8346L37.1507 39.844H64.2983L65.2858 28.9065H23.9374L23.721 26.5307L23.2288 20.9596L22.9694 17.969H77.0952L76.8366 20.9862Z" fill="#1572B6"/>
</g>
<defs>
<clipPath id="clip0_74_571">
<rect width="100" height="100" fill="white" transform="translate(-0.00012207 0.000244141)"/>
</clipPath>
</defs>
</svg>
