<svg width="100" height="100" viewBox="0 0 100 100" fill="none" xmlns="http://www.w3.org/2000/svg">
<g clip-path="url(#clip0_74_592)">
<path d="M35.5468 100.781C44.8436 100.781 52.3436 93.2812 52.3436 83.9844V67.1875H35.5468C26.2499 67.1875 18.7499 74.6875 18.7499 83.9844C18.7499 93.2812 26.2499 100.781 35.5468 100.781Z" fill="#0ACF83"/>
<path d="M18.7499 50.3906C18.7499 41.0938 26.2499 33.5938 35.5468 33.5938H52.3436V67.1875H35.5468C26.2499 67.1875 18.7499 59.6875 18.7499 50.3906Z" fill="#A259FF"/>
<path d="M18.7499 16.7969C18.7499 7.5 26.2499 0 35.5468 0H52.3436V33.5938H35.5468C26.2499 33.5938 18.7499 26.0938 18.7499 16.7969Z" fill="#F24E1E"/>
<path d="M52.3436 0H69.1405C78.4374 0 85.9374 7.5 85.9374 16.7969C85.9374 26.0938 78.4374 33.5938 69.1405 33.5938H52.3436V0Z" fill="#FF7262"/>
<path d="M85.9374 50.3906C85.9374 59.6875 78.4374 67.1875 69.1405 67.1875C59.8436 67.1875 52.3436 59.6875 52.3436 50.3906C52.3436 41.0938 59.8436 33.5938 69.1405 33.5938C78.4374 33.5938 85.9374 41.0938 85.9374 50.3906Z" fill="#1ABCFE"/>
</g>
<defs>
<clipPath id="clip0_74_592">
<rect width="100" height="100" fill="white"/>
</clipPath>
</defs>
</svg>
