<svg width="45" height="29" viewBox="0 0 45 29" fill="none" xmlns="http://www.w3.org/2000/svg">
<path d="M40.6962 20.0439C40.5431 19.8147 40.263 19.6718 39.9655 19.6718H35.5875V19.3123C35.5875 18.8905 35.2052 18.5472 34.7359 18.5472H30.8114C33.8821 13.6783 37.5791 6.24511 36.2911 4.72331C35.3497 3.61022 28.5001 0.0684234 21.7589 0.00143909C14.9596 -0.080198 8.29574 3.33286 7.58142 4.79919C6.75867 6.48583 9.79215 13.1356 13.1644 18.5472H9.14107C8.67182 18.5472 8.28953 18.8905 8.28953 19.3123V19.6718H4.56319C4.2656 19.6718 3.98551 19.8147 3.83192 20.0449C3.67268 20.2851 3.67211 20.5839 3.82966 20.8246L5.90205 23.9912L3.82966 27.1573C3.67099 27.398 3.67211 27.6968 3.83248 27.9381C3.98551 28.1678 4.2656 28.3101 4.56319 28.3101H11.3772C11.5596 28.3101 11.7335 28.2589 11.8792 28.1631L14.5383 26.4225C14.6326 26.3608 14.6863 26.2687 14.7009 26.1703H19.1597C19.1625 26.1729 19.1636 26.1771 19.167 26.1803C20.2111 27.0924 21.0469 27.4812 21.9605 27.4812C22.7437 27.4812 23.6427 27.049 24.7009 26.1703H29.8277C29.8418 26.2687 29.896 26.3613 29.9903 26.4225L32.6494 28.1631C32.7968 28.2594 32.9702 28.3101 33.1514 28.3101H39.9655C40.263 28.3101 40.5431 28.1673 40.6967 27.937C40.8554 27.6973 40.8571 27.3991 40.6995 27.1573L38.6266 23.9907L40.7001 20.8231C40.8577 20.5834 40.856 20.2851 40.6962 20.0439ZM8.3076 5.10428C8.83502 4.02259 15.1662 0.695878 21.7499 0.741406C28.2646 0.806297 34.8777 4.25128 35.6626 5.18016C36.3893 6.03944 33.9753 12.1774 29.8842 18.5477H27.9315C30.2992 14.6092 33.6879 7.5199 32.5997 6.19173C31.7945 5.20947 26.6265 2.75303 21.8244 2.70384C21.7753 2.70331 21.7262 2.70331 21.6759 2.70331C16.9026 2.70331 11.873 5.04515 11.2959 6.26709C10.5895 7.76429 13.558 14.3502 16.0488 18.5477H14.0883C10.1598 12.3401 7.75534 6.23621 8.3076 5.10428ZM12.0272 6.5638C12.3897 5.79715 16.8812 3.44328 21.6674 3.44328C21.7166 3.44328 21.7663 3.44328 21.816 3.4438C26.6457 3.49299 31.4173 5.97141 31.9645 6.63916C32.4924 7.28389 30.4421 12.9901 27.015 18.5482H16.9619V18.5477C13.8833 13.4815 11.5749 7.52095 12.0272 6.5638ZM11.3767 27.5712H4.56262C4.53664 27.5712 4.51745 27.5602 4.51123 27.5419L6.70955 24.1838C6.78691 24.0661 6.78691 23.918 6.70955 23.8002L4.51067 20.4337C4.51801 20.4233 4.53721 20.4118 4.56319 20.4118H8.28953V25.4063C8.28953 25.8281 8.67182 26.1708 9.14107 26.1708H13.5354L11.3767 27.5712ZM21.9605 26.7418C21.4563 26.7418 20.961 26.5644 20.3884 26.1703H23.4304C22.8595 26.544 22.3597 26.7418 21.9605 26.7418ZM9.14051 25.4309C9.1055 25.4309 9.08686 25.412 9.08686 25.4057V19.3128H9.08743C9.08743 19.306 9.1055 19.2872 9.14107 19.2872H34.7359C34.7709 19.2872 34.7896 19.306 34.7896 19.3128V25.4057C34.7896 25.4125 34.7715 25.4309 34.7359 25.4309H9.14051ZM37.8191 23.7997C37.7412 23.9174 37.7412 24.0655 37.8191 24.1833L40.018 27.5492C40.0106 27.5597 39.9914 27.5707 39.9655 27.5707L33.1102 27.5592L30.9875 26.1698H34.7354C35.2046 26.1698 35.5869 25.8265 35.5869 25.4052V20.4107H39.9655C39.9914 20.4107 40.0106 20.4222 40.018 20.4405L37.8191 23.7997Z" fill="#FFC400"/>
<path d="M44.0193 8.05362C43.9736 7.8715 43.7839 7.74905 43.5873 7.7705C43.4072 7.78934 39.1495 8.25248 37.0223 10.8633C34.8856 13.4851 35.7862 17.1698 35.8258 17.3247C35.8314 17.3487 35.845 17.3691 35.8557 17.3906C35.863 17.4047 35.8664 17.4199 35.8755 17.4335C35.9014 17.4728 35.9342 17.5062 35.9726 17.5335C35.9737 17.5345 35.9748 17.5361 35.976 17.5371C35.9952 17.5502 36.0166 17.557 36.037 17.5664C36.0539 17.5743 36.0686 17.5847 36.0861 17.59C36.1279 17.6031 36.1708 17.6099 36.2137 17.6099C36.2284 17.6099 36.2431 17.6093 36.2583 17.6078C36.4379 17.5889 40.6956 17.1253 42.8233 14.515C44.9595 11.8937 44.0589 8.20956 44.0193 8.05362ZM42.1858 14.0696C40.8469 15.7128 38.4691 16.4246 37.1392 16.7066L41.3309 11.4829C41.4624 11.3191 41.4257 11.0873 41.249 10.9653C41.0711 10.8429 40.8215 10.8779 40.6905 11.0412L36.4644 16.3089C36.334 15.1283 36.3233 12.9482 37.6587 11.3092C39.2365 9.37289 42.2626 8.72764 43.309 8.55757C43.4671 9.48802 43.7455 12.1564 42.1858 14.0696Z" fill="#FFC400"/>
<path d="M8.02739 18.0055C8.0703 18.0055 8.11322 17.9987 8.15501 17.9851C8.17308 17.9799 8.18776 17.9694 8.20413 17.9616C8.22446 17.9521 8.24592 17.9453 8.26512 17.9322C8.26625 17.9312 8.26738 17.9296 8.26851 17.9286C8.30691 17.9014 8.33966 17.8679 8.36563 17.8286C8.37467 17.815 8.37806 17.7999 8.3854 17.7857C8.39613 17.7637 8.40911 17.7439 8.41533 17.7198C8.45485 17.5644 9.35552 13.8797 7.21876 11.2579C5.09216 8.64707 0.833884 8.18394 0.65375 8.1651C0.452723 8.14208 0.266942 8.2661 0.221767 8.44822C0.18224 8.60364 -0.718431 12.2883 1.41833 14.9096C3.54606 17.5204 7.80377 17.9841 7.98334 18.0029C7.99802 18.005 8.01271 18.0055 8.02739 18.0055ZM7.77497 16.7025L3.55001 11.4369C3.41957 11.2731 3.16942 11.2385 2.99154 11.3605C2.81479 11.4824 2.77865 11.7142 2.90966 11.878L7.10131 17.1023C5.77148 16.8197 3.39416 16.1085 2.05473 14.4648C0.495074 12.551 0.773463 9.88314 0.931574 8.95321C1.97737 9.12329 5.00407 9.76802 6.5818 11.7043C7.91389 13.3391 7.90429 15.5203 7.77497 16.7025Z" fill="#FFC400"/>
<path d="M14.6236 9.21855C14.5632 9.0223 14.343 8.90665 14.1301 8.96474C13.9184 9.02073 13.7958 9.22587 13.8562 9.42159C14.2188 10.5954 14.6762 11.8158 15.2166 13.0487C15.2792 13.1921 15.4289 13.2795 15.5859 13.2795C15.6361 13.2795 15.6869 13.2706 15.7361 13.2523C15.9399 13.1753 16.0387 12.9597 15.9552 12.7703C15.4261 11.5614 14.9777 10.3667 14.6236 9.21855Z" fill="#FFC400"/>
<path d="M14.0606 8.68853C14.2758 8.64405 14.4113 8.44676 14.3633 8.24738C14.2673 7.85018 14.186 7.38338 14.3046 6.93386C14.3571 6.73552 14.2261 6.53509 14.0115 6.48695C13.8043 6.44089 13.5818 6.55969 13.5293 6.75802C13.3717 7.35565 13.4688 7.92763 13.5846 8.40856C13.6258 8.58073 13.7907 8.69795 13.9731 8.69795C14.0025 8.69795 14.0313 8.69481 14.0606 8.68853Z" fill="#FFC400"/>
<path d="M19.3572 17.0536H25.2017C25.4219 17.0536 25.6009 16.8883 25.6009 16.6836V14.942C25.6004 14.7369 25.4214 14.5721 25.2011 14.5721H23.886V7.15983C23.886 7.04052 23.8239 6.92905 23.7194 6.85945C23.615 6.78932 23.4811 6.77153 23.3586 6.80973L19.3222 8.07511C19.1602 8.12639 19.0512 8.26717 19.0512 8.42573V10.2756C19.0512 10.3923 19.1105 10.5022 19.2116 10.5718C19.3126 10.642 19.4436 10.6634 19.5633 10.6305L20.7972 10.294V14.5726H19.3572C19.1364 14.5726 18.958 14.738 18.958 14.942V16.6836C18.958 16.8877 19.1364 17.0536 19.3572 17.0536ZM19.7553 15.311H21.1953C21.4155 15.311 21.5945 15.1456 21.5945 14.941V9.79838C21.5945 9.68168 21.5352 9.57179 21.4347 9.50219C21.3336 9.43259 21.2026 9.41061 21.0829 9.44358L19.8491 9.78007V8.68948L23.087 7.67425V14.9405C23.087 15.1446 23.2654 15.3105 23.4862 15.3105H24.8014V16.3131H19.7553V15.311Z" fill="#FFC400"/>
</svg>
