<svg width="19" height="13" viewBox="0 0 19 13" fill="none" xmlns="http://www.w3.org/2000/svg">
<path d="M13.7626 5.55636C15.2945 5.55636 16.5408 4.31006 16.5408 2.77818C16.5408 1.24629 15.2945 0 13.7626 0C12.2307 0 10.9844 1.24629 10.9844 2.77818C10.9844 4.31006 12.2307 5.55636 13.7626 5.55636ZM13.7626 0.854824C14.8231 0.854824 15.6859 1.71764 15.6859 2.77818C15.6859 3.83871 14.8231 4.70153 13.7626 4.70153C12.702 4.70153 11.8392 3.83871 11.8392 2.77818C11.8392 1.71764 12.702 0.854824 13.7626 0.854824Z" fill="#FFC400"/>
<path d="M13.7628 6.58203C12.2931 6.58203 10.8917 7.21417 9.9179 8.31634C9.76164 8.49325 9.77831 8.76333 9.95521 8.91963C10.1322 9.0759 10.4022 9.05918 10.5585 8.88232C11.2751 8.07126 12.2694 7.56589 13.3354 7.45857V7.88089C13.3354 8.11695 13.5268 8.30831 13.7628 8.30831C13.9988 8.30831 14.1902 8.11695 14.1902 7.88089V7.4581C16.347 7.67321 18.0369 9.49839 18.0369 11.7109C18.0369 11.9469 18.2283 12.1383 18.4643 12.1383C18.7003 12.1383 18.8917 11.9469 18.8917 11.7109C18.8917 8.88288 16.5909 6.58203 13.7628 6.58203Z" fill="#FFC400"/>
<path d="M5.12894 5.55636C6.66083 5.55636 7.90712 4.31006 7.90712 2.77818C7.90712 1.24629 6.66083 0 5.12894 0C3.59706 0 2.35077 1.24629 2.35077 2.77818C2.35077 4.31006 3.59706 5.55636 5.12894 5.55636ZM5.12894 0.854824C6.18948 0.854824 7.0523 1.71764 7.0523 2.77818C7.0523 3.83871 6.18948 4.70153 5.12894 4.70153C4.06841 4.70153 3.20559 3.83871 3.20559 2.77818C3.20559 1.71764 4.06841 0.854824 5.12894 0.854824Z" fill="#FFC400"/>
<path d="M5.12895 6.58203C2.30085 6.58203 8.58307e-06 8.88288 8.58307e-06 11.711C8.58307e-06 11.947 0.191361 12.1384 0.427421 12.1384C0.66348 12.1384 0.854833 11.947 0.854833 11.711C0.854833 9.49848 2.54473 7.6733 4.70154 7.45818V7.88098C4.70154 8.11704 4.89289 8.30839 5.12895 8.30839C5.36501 8.30839 5.55636 8.11704 5.55636 7.88098V7.45818C7.71317 7.6733 9.40307 9.49848 9.40307 11.711C9.40307 11.947 9.59447 12.1384 9.83048 12.1384C10.0665 12.1384 10.2579 11.947 10.2579 11.711C10.2579 8.88288 7.95705 6.58203 5.12895 6.58203Z" fill="#FFC400"/>
<path d="M5.12893 8.73584C4.89288 8.73584 4.70152 8.92719 4.70152 9.16325V11.7277C4.70152 11.9638 4.89288 12.1551 5.12893 12.1551C5.36499 12.1551 5.55635 11.9638 5.55635 11.7277V9.16325C5.55635 8.92719 5.36499 8.73584 5.12893 8.73584Z" fill="#FFC400"/>
<path d="M13.7628 8.73584C13.5268 8.73584 13.3354 8.92719 13.3354 9.16325V11.7277C13.3354 11.9638 13.5268 12.1551 13.7628 12.1551C13.9988 12.1551 14.1902 11.9638 14.1902 11.7277V9.16325C14.1902 8.92719 13.9988 8.73584 13.7628 8.73584Z" fill="#FFC400"/>
</svg>
