<svg width="19" height="13" viewBox="0 0 19 13" fill="none" xmlns="http://www.w3.org/2000/svg">
<path d="M13.7626 5.55636C15.2944 5.55636 16.5407 4.31006 16.5407 2.77818C16.5407 1.24629 15.2944 0 13.7626 0C12.2307 0 10.9844 1.24629 10.9844 2.77818C10.9844 4.31006 12.2307 5.55636 13.7626 5.55636ZM13.7626 0.854824C14.8231 0.854824 15.6859 1.71764 15.6859 2.77818C15.6859 3.83871 14.8231 4.70153 13.7626 4.70153C12.702 4.70153 11.8392 3.83871 11.8392 2.77818C11.8392 1.71764 12.702 0.854824 13.7626 0.854824Z" fill="#FFC400"/>
<path d="M13.7628 6.58203C12.2931 6.58203 10.8917 7.21417 9.91789 8.31634C9.76163 8.49325 9.7783 8.76333 9.9552 8.91963C10.1322 9.0759 10.4022 9.05918 10.5585 8.88232C11.2751 8.07126 12.2694 7.56589 13.3353 7.45857V7.88089C13.3353 8.11695 13.5267 8.30831 13.7628 8.30831C13.9988 8.30831 14.1902 8.11695 14.1902 7.88089V7.4581C16.347 7.67321 18.0369 9.49839 18.0369 11.7109C18.0369 11.9469 18.2283 12.1383 18.4643 12.1383C18.7003 12.1383 18.8917 11.9469 18.8917 11.7109C18.8917 8.88288 16.5909 6.58203 13.7628 6.58203Z" fill="#FFC400"/>
<path d="M5.12889 5.55636C6.66077 5.55636 7.90706 4.31006 7.90706 2.77818C7.90706 1.24629 6.66077 0 5.12889 0C3.597 0 2.35071 1.24629 2.35071 2.77818C2.35071 4.31006 3.597 5.55636 5.12889 5.55636ZM5.12889 0.854824C6.18942 0.854824 7.05224 1.71764 7.05224 2.77818C7.05224 3.83871 6.18942 4.70153 5.12889 4.70153C4.06835 4.70153 3.20553 3.83871 3.20553 2.77818C3.20553 1.71764 4.06835 0.854824 5.12889 0.854824Z" fill="#FFC400"/>
<path d="M5.12894 6.58203C2.30084 6.58203 0 8.88288 0 11.711C0 11.947 0.191352 12.1384 0.427412 12.1384C0.663472 12.1384 0.854824 11.947 0.854824 11.711C0.854824 9.49848 2.54473 7.6733 4.70153 7.45818V7.88098C4.70153 8.11704 4.89288 8.30839 5.12894 8.30839C5.365 8.30839 5.55636 8.11704 5.55636 7.88098V7.45818C7.71316 7.6733 9.40306 9.49848 9.40306 11.711C9.40306 11.947 9.59446 12.1384 9.83048 12.1384C10.0665 12.1384 10.2579 11.947 10.2579 11.711C10.2579 8.88288 7.95704 6.58203 5.12894 6.58203Z" fill="#FFC400"/>
<path d="M5.12895 8.73584C4.89289 8.73584 4.70154 8.92719 4.70154 9.16325V11.7277C4.70154 11.9638 4.89289 12.1551 5.12895 12.1551C5.36501 12.1551 5.55636 11.9638 5.55636 11.7277V9.16325C5.55636 8.92719 5.36501 8.73584 5.12895 8.73584Z" fill="#FFC400"/>
<path d="M13.7627 8.73584C13.5267 8.73584 13.3353 8.92719 13.3353 9.16325V11.7277C13.3353 11.9638 13.5267 12.1551 13.7627 12.1551C13.9988 12.1551 14.1902 11.9638 14.1902 11.7277V9.16325C14.1902 8.92719 13.9988 8.73584 13.7627 8.73584Z" fill="#FFC400"/>
</svg>
