<svg width="32" height="32" viewBox="0 0 32 32" fill="none" xmlns="http://www.w3.org/2000/svg">
<ellipse cx="15.7703" cy="16.1971" rx="15.3758" ry="15.8029" fill="white"/>
<path fill-rule="evenodd" clip-rule="evenodd" d="M11.8623 30.7332C11.8623 30.349 11.8487 29.3326 11.841 27.9826C7.45446 28.9593 6.52894 25.8146 6.52894 25.8146C5.81157 23.9465 4.77763 23.4492 4.77763 23.4492C3.34579 22.4456 4.88606 22.4664 4.88606 22.4664C6.46892 22.5806 7.3015 24.1331 7.3015 24.1331C8.70816 26.6038 10.9919 25.8911 11.8913 25.4771C12.0346 24.4319 12.4422 23.7192 12.8923 23.3152C9.39068 22.9072 5.70895 21.5195 5.70895 15.3234C5.70895 13.5585 6.3237 12.1152 7.33248 10.9846C7.1708 10.5756 6.62866 8.93179 7.48737 6.70529C7.48737 6.70529 8.81175 6.27052 11.8235 8.363C13.0811 8.00466 14.4307 7.824 15.7725 7.81804C17.1114 7.824 18.4599 8.00466 19.7204 8.363C22.7303 6.27052 24.0527 6.70529 24.0527 6.70529C24.9134 8.93079 24.3722 10.5746 24.2096 10.9846C25.2203 12.1152 25.8302 13.5585 25.8302 15.3234C25.8302 21.5354 22.1426 22.9022 18.6294 23.3023C19.1967 23.8016 19.7001 24.7882 19.7001 26.2971C19.7001 28.459 19.6798 30.2031 19.6798 30.7332C19.6798 31.166 19.9644 31.6682 20.765 31.5104C27.0258 29.3683 31.5401 23.3112 31.5401 16.1701C31.5401 7.23933 24.4787 0 15.7696 0C7.0614 0 0 7.23933 0 16.1701C0.000968163 23.3132 4.51914 29.3742 10.7857 31.5124C11.5738 31.6603 11.8623 31.161 11.8623 30.7332Z" fill="black"/>
</svg>
