<svg width="127" height="127" viewBox="0 0 127 127" fill="none" xmlns="http://www.w3.org/2000/svg">
<path d="M63.5 127C98.5701 127 127 98.5701 127 63.5C127 28.4299 98.5701 0 63.5 0C28.4299 0 0 28.4299 0 63.5C0 98.5701 28.4299 127 63.5 127Z" fill="#616161"/>
<path d="M63.5 103.908C41.1803 103.908 23.0923 85.8197 23.0923 63.5C23.0923 41.1803 41.1803 23.0923 63.5 23.0923C74.6547 23.0923 84.7554 27.6156 92.0724 34.9276L108.4 18.5997C96.9079 7.10729 81.0303 0 63.5 0C28.4292 0 0 28.4292 0 63.5C0 98.5708 28.4292 127 63.5 127C81.0354 127 96.9079 119.893 108.405 108.405L92.0776 92.0776C84.7554 99.3844 74.6547 103.908 63.5 103.908Z" fill="#9E9E9E"/>
<path d="M103.907 63.5004H83.7007C83.7007 52.3456 74.6541 43.2939 63.4943 43.2939C52.3344 43.2939 43.293 52.3405 43.293 63.5004C43.293 68.9344 45.442 73.862 48.9368 77.5L48.9215 77.5154L73.9377 102.532L73.9429 102.537C91.1968 97.9316 103.907 82.2024 103.907 63.5004Z" fill="#424242"/>
<path d="M126.995 63.5H103.902C103.902 82.2021 91.1871 97.9312 73.9434 102.536L91.7756 120.369C112.652 109.966 126.995 88.4088 126.995 63.5Z" fill="#616161"/>
<path d="M63.5 126.273C28.552 126.273 0.204674 98.0384 0.00511686 63.1365C0.00511686 63.2593 0 63.377 0 63.4998C0 98.5706 28.4292 127 63.5 127C98.5708 127 127 98.5706 127 63.4998C127 63.377 126.995 63.2593 126.995 63.1365C126.795 98.0384 98.4429 126.273 63.5 126.273Z" fill="#212121" fill-opacity="0.1"/>
<path d="M73.9492 102.536L74.5121 103.099C91.4693 98.3099 103.908 82.724 103.908 64.2215V63.5C103.908 82.2021 91.193 97.9312 73.9492 102.536Z" fill="white" fill-opacity="0.05"/>
<path d="M115.454 57.7261H63.4974C60.3096 57.7261 57.7256 60.3101 57.7256 63.4979C57.7256 66.6857 60.3096 69.2697 63.4974 69.2697H115.449C118.636 69.2697 121.22 66.6857 121.22 63.4979C121.226 60.3101 118.642 57.7261 115.454 57.7261Z" fill="#9E9E9E"/>
<path opacity="0.5" d="M115.454 57.7261H63.4974C60.3096 57.7261 57.7256 60.3101 57.7256 63.4979C57.7256 66.6857 60.3096 69.2697 63.4974 69.2697H115.449C118.636 69.2697 121.22 66.6857 121.22 63.4979C121.226 60.3101 118.642 57.7261 115.454 57.7261Z" fill="#BDBDBD"/>
<path d="M11.5427 67.8291C13.9335 67.8291 15.8716 65.891 15.8716 63.5002C15.8716 61.1095 13.9335 59.1714 11.5427 59.1714C9.15196 59.1714 7.21387 61.1095 7.21387 63.5002C7.21387 65.891 9.15196 67.8291 11.5427 67.8291Z" fill="#BDBDBD"/>
<path d="M63.4988 15.8728C65.8895 15.8728 67.8276 13.9347 67.8276 11.5439C67.8276 9.15318 65.8895 7.21509 63.4988 7.21509C61.108 7.21509 59.1699 9.15318 59.1699 11.5439C59.1699 13.9347 61.108 15.8728 63.4988 15.8728Z" fill="#BDBDBD"/>
<path d="M63.4988 119.781C65.8895 119.781 67.8276 117.843 67.8276 115.452C67.8276 113.061 65.8895 111.123 63.4988 111.123C61.108 111.123 59.1699 113.061 59.1699 115.452C59.1699 117.843 61.108 119.781 63.4988 119.781Z" fill="#BDBDBD"/>
<path d="M26.699 31.0903C29.0897 31.0903 31.0278 29.1522 31.0278 26.7615C31.0278 24.3707 29.0897 22.4326 26.699 22.4326C24.3082 22.4326 22.3701 24.3707 22.3701 26.7615C22.3701 29.1522 24.3082 31.0903 26.699 31.0903Z" fill="#BDBDBD"/>
<path d="M26.699 104.629C29.0897 104.629 31.0278 102.691 31.0278 100.301C31.0278 97.9098 29.0897 95.9717 26.699 95.9717C24.3082 95.9717 22.3701 97.9098 22.3701 100.301C22.3701 102.691 24.3082 104.629 26.699 104.629Z" fill="#BDBDBD"/>
<path d="M100.301 104.629C102.691 104.629 104.629 102.691 104.629 100.3C104.629 97.9095 102.691 95.9714 100.301 95.9714C97.9098 95.9714 95.9717 97.9095 95.9717 100.3C95.9717 102.691 97.9098 104.629 100.301 104.629Z" fill="#757575"/>
<path d="M63.5003 58.4498H115.452C118.517 58.4498 121.024 60.8444 121.203 63.8634C121.208 63.7406 121.223 63.6229 121.223 63.5001C121.223 60.3123 118.639 57.7283 115.452 57.7283H63.5003C60.3125 57.7283 57.7285 60.3123 57.7285 63.5001C57.7285 63.6229 57.7336 63.7406 57.749 63.8634C57.9281 60.8444 60.4302 58.4498 63.5003 58.4498Z" fill="white" fill-opacity="0.2"/>
<path d="M121.203 63.8584C121.014 66.8722 118.511 69.272 115.452 69.272H63.5003C60.4353 69.272 57.9281 66.8773 57.749 63.8584C57.7336 63.9812 57.7285 64.0989 57.7285 64.2166C57.7285 67.4044 60.3125 69.9884 63.5003 69.9884H115.452C118.639 69.9884 121.223 67.4044 121.223 64.2166C121.223 64.0989 121.218 63.9812 121.203 63.8584Z" fill="#212121" fill-opacity="0.2"/>
<path d="M63.4995 23.8137C74.6542 23.8137 84.7549 28.337 92.0719 35.6489L108.753 18.9578C108.63 18.835 108.512 18.7122 108.395 18.5945L92.0719 34.9223C84.7549 27.6104 74.6542 23.0871 63.4995 23.0871C41.1798 23.0871 23.0918 41.1751 23.0918 63.4948C23.0918 63.6176 23.0969 63.7353 23.0969 63.8581C23.2914 41.7073 41.3026 23.8137 63.4995 23.8137Z" fill="#212121" fill-opacity="0.1"/>
<path d="M63.5 127C98.5701 127 127 98.5701 127 63.5C127 28.4299 98.5701 0 63.5 0C28.4299 0 0 28.4299 0 63.5C0 98.5701 28.4299 127 63.5 127Z" fill="url(#paint0_radial_101_1414)"/>
<defs>
<radialGradient id="paint0_radial_101_1414" cx="0" cy="0" r="1" gradientUnits="userSpaceOnUse" gradientTransform="translate(18.6218 18.4772) scale(126.781)">
<stop stop-color="white" stop-opacity="0.1"/>
<stop offset="1" stop-color="white" stop-opacity="0"/>
</radialGradient>
</defs>
</svg>
