<svg width="89" height="64" viewBox="0 0 89 64" fill="none" xmlns="http://www.w3.org/2000/svg">
<rect x="22" y="10" width="44.9396" height="44.9396" rx="22.4698" stroke="white" stroke-width="2"/>
<path d="M42.2652 22.3699C42.032 22.4666 41.9753 22.7111 42.0661 23.2683C42.1059 23.5413 42.1513 23.8199 42.1685 23.8881C42.1913 23.9961 42.1629 24.0189 41.924 24.07C41.7763 24.0985 41.4009 24.2008 41.0882 24.2975C40.7755 24.3886 40.5025 24.4509 40.4856 24.4284C40.4628 24.4055 40.3548 24.0985 40.2355 23.7403C40.1103 23.3537 39.9682 23.0354 39.8887 22.9556C39.6385 22.7054 39.1837 22.8363 39.0983 23.1831C39.0813 23.257 39.1721 23.6323 39.3258 24.0703C39.4623 24.491 39.5759 24.8378 39.5647 24.8491C39.559 24.8547 39.2689 25.0025 38.922 25.1731L38.2966 25.4858L37.9554 24.7978C37.5403 23.9448 37.4151 23.7914 37.165 23.7914C37.0626 23.7914 36.9148 23.8424 36.8294 23.9106C36.5906 24.0982 36.6303 24.3144 37.0795 25.2069L37.4717 25.9973L37.1478 26.2418C36.9715 26.3726 36.6873 26.5943 36.5223 26.7364L36.2209 26.9922L35.5785 26.3554C34.9928 25.7813 34.9189 25.7244 34.7255 25.7244C34.4525 25.7244 34.2365 25.9291 34.2365 26.1848C34.2365 26.3382 34.3276 26.4634 34.8733 27.015C35.3566 27.504 35.4987 27.6802 35.4589 27.7372C35.4248 27.7826 35.2827 27.9532 35.1406 28.1238C34.9928 28.2887 34.7311 28.6299 34.5493 28.8801C33.4405 30.4324 32.7468 32.1265 32.2181 34.566C32.1953 34.6684 32.1499 34.6796 31.8087 34.6796C31.4903 34.6796 31.3707 34.7081 31.1604 34.833C30.0237 35.5042 29.5858 37.2838 30.2341 38.6314C30.6207 39.4443 31.2633 39.922 31.9 39.8653C32.0763 39.8541 32.2582 39.8256 32.3038 39.8027C32.3721 39.7742 32.4291 39.8879 32.5768 40.3487C33.293 42.6229 34.7712 44.5787 36.7953 45.9376C37.8928 46.671 39.513 47.3362 40.9232 47.6377C42.8565 48.0415 45.4322 48.1153 47.4394 47.8139C50.2426 47.3932 52.642 46.2105 54.3418 44.4137C56.1783 42.4804 57.1165 40.1721 57.2927 37.1927L57.3325 36.5275H57.4859C57.7247 36.5275 58.1852 36.2774 58.3956 36.0441C58.8958 35.47 59.1234 34.4975 58.9528 33.656C58.754 32.6953 58.2024 31.9108 57.4633 31.5468C57.088 31.3593 57.0085 31.3421 56.7127 31.3649C56.5308 31.3818 56.343 31.4103 56.2976 31.4331C56.235 31.456 56.1214 31.2798 55.8315 30.6825C55.1835 29.3465 54.3646 28.2149 53.3072 27.2028C52.8467 26.7592 51.7323 25.8837 51.5617 25.8211C51.5163 25.8098 51.6127 25.5538 51.8516 25.0592C52.2382 24.2631 52.2497 24.178 52.0165 23.9163C51.88 23.7685 51.6071 23.7513 51.4196 23.8822C51.3513 23.9276 51.1466 24.2575 50.976 24.6043C50.7998 24.9568 50.6461 25.247 50.6404 25.2582C50.6292 25.2755 49.8275 24.8945 49.7762 24.8488C49.7705 24.8432 49.8785 24.4907 50.015 24.064C50.1628 23.6148 50.2538 23.2451 50.231 23.1828C50.1571 22.9668 49.9696 22.8247 49.7589 22.8247C49.4634 22.8247 49.3551 22.9781 49.105 23.7344C48.9857 24.0925 48.8718 24.4109 48.8493 24.4394C48.8095 24.4735 47.8826 24.2177 47.8826 24.1664C47.8826 24.1608 47.9737 23.8878 48.0817 23.5638C48.3547 22.7621 48.349 22.5518 48.0476 22.3981C47.6325 22.1821 47.4675 22.3355 47.172 23.2282C47.0412 23.6148 46.9103 23.9332 46.8819 23.9332C46.8534 23.9332 46.5065 23.8822 46.1087 23.8252L45.3809 23.7172V23.1713C45.3752 22.6028 45.3411 22.5004 45.1135 22.3809C44.9144 22.2729 44.7554 22.3013 44.5792 22.4776C44.4198 22.6369 44.4142 22.6651 44.4142 23.1541V23.6659L44.2608 23.7C44.1131 23.7228 43.317 23.7967 43.1918 23.7967C43.1633 23.7967 43.0951 23.541 43.0384 23.2282C42.9304 22.5856 42.8735 22.4435 42.6747 22.3696C42.5041 22.3016 42.4358 22.3016 42.2652 22.3699ZM44.4145 25.2129C44.4145 25.8098 44.4884 26.0715 44.6703 26.1454C44.8693 26.2193 45.1023 26.1795 45.2387 26.0374C45.3696 25.9065 45.3809 25.8611 45.3809 25.2983C45.3809 24.8604 45.3978 24.7013 45.4547 24.7013C45.5969 24.7013 46.5294 24.8663 46.5635 24.8948C46.5804 24.9176 46.535 25.1164 46.4611 25.344C46.3531 25.7021 46.3416 25.7819 46.4042 25.9012C46.5122 26.1003 46.6374 26.1742 46.8477 26.1798C47.1091 26.1798 47.2741 25.9979 47.4278 25.5202C47.496 25.3042 47.5643 25.1224 47.5643 25.1164C47.604 25.071 48.5081 25.4007 48.5081 25.4576C48.5081 25.4974 48.4567 25.6908 48.3888 25.884C48.2864 26.1854 48.2808 26.2537 48.349 26.3902C48.4401 26.5836 48.6959 26.7142 48.8834 26.6688C49.0937 26.6118 49.2246 26.4528 49.3326 26.1172C49.3896 25.9466 49.4406 25.8045 49.4462 25.7932C49.4575 25.7819 49.6281 25.8614 49.8328 25.9582L50.2025 26.1457L49.9809 26.5892C49.7135 27.118 49.7023 27.2716 49.9239 27.4933C50.2423 27.806 50.5722 27.6467 50.8621 27.0384C50.9588 26.845 51.0552 26.6916 51.0896 26.6916C51.2318 26.6972 52.221 27.4989 52.801 28.0846C54.3305 29.6082 55.3028 31.3821 55.8997 33.7418C56.275 35.2143 56.4059 36.4936 56.3035 37.6478C56.1727 39.1375 55.9054 40.1211 55.2743 41.3892C54.0006 43.9533 51.8231 45.7272 48.9857 46.5063C46.5181 47.1831 43.0043 47.2113 40.5251 46.5633C38.66 46.08 37.108 45.1988 35.8455 43.9138C35.2429 43.294 35.0326 43.0326 34.6175 42.4128C33.3951 40.5593 32.8548 38.3643 33.0367 36.0106C33.2414 33.3555 34.2193 30.8136 35.766 28.8976C35.9595 28.6531 36.147 28.4371 36.1811 28.4199C36.2096 28.397 36.3971 28.5391 36.5906 28.7326C36.8692 29.0112 36.9771 29.0794 37.1193 29.0794C37.375 29.0794 37.4717 29.0284 37.5685 28.8406C37.6993 28.5905 37.6311 28.4311 37.2445 28.0276L36.9033 27.6695L37.3922 27.2886C37.6596 27.0782 37.8984 26.9248 37.9209 26.9417C37.9382 26.9646 38.0233 27.101 38.1028 27.2488C38.336 27.6752 38.6713 27.7719 38.9558 27.4876C39.1152 27.3283 39.098 27.0838 38.8989 26.6916L38.7283 26.3504L39.3024 26.0662C39.6207 25.9068 39.8824 25.7819 39.8937 25.7932C39.8993 25.8045 39.9507 25.9525 40.0073 26.1228C40.1266 26.4982 40.2233 26.6174 40.4337 26.6631C40.6156 26.7029 40.9114 26.578 40.968 26.4356C41.025 26.2822 41.0078 26.0374 40.917 25.7816C40.8716 25.6508 40.8319 25.503 40.8319 25.4633C40.8319 25.3665 42.259 24.9173 42.3385 24.9912C42.3498 25.0081 42.3955 25.2244 42.4296 25.4689C42.4806 25.8045 42.5319 25.9522 42.6287 26.049C42.8162 26.2308 43.1233 26.2252 43.3167 26.0317C43.476 25.8724 43.4701 25.9522 43.3565 25.0482L43.3167 24.7696L43.709 24.7298C44.0558 24.7013 44.2208 24.6788 44.3742 24.6503C44.3973 24.65 44.4145 24.9001 44.4145 25.2129ZM57.2361 32.4339C57.7307 32.741 58.106 33.7358 58.049 34.5832C58.0149 35.038 57.8956 35.2997 57.6452 35.4475C57.3666 35.6181 57.2755 35.5952 57.2358 35.3451C57.1049 34.5547 56.9002 33.5712 56.7524 33.0594C56.6616 32.7294 56.5821 32.4283 56.5821 32.3942C56.5821 32.2746 57.0254 32.3031 57.2361 32.4339ZM32.0422 36.9541C32.0594 37.6707 32.0932 38.3869 32.1217 38.5346C32.1786 38.8417 32.116 38.9156 31.8033 38.9156C31.1951 38.9156 30.7684 37.9092 30.9221 36.8402C31.0301 36.0839 31.3998 35.5893 31.8318 35.6291L32.0193 35.646L32.0422 36.9541Z" fill="white"/>
<path d="M47.3142 27.6409C45.7903 27.9082 44.4086 28.8974 43.6526 30.2791C42.5667 32.2521 42.8679 34.4979 44.4374 36.1241C45.4551 37.1759 46.7175 37.7331 48.1105 37.7331C49.1226 37.7387 50.0153 37.4717 50.8399 36.9201C51.3971 36.5448 52.1305 35.8001 52.4204 35.3168C52.9663 34.4071 53.2618 33.2927 53.2051 32.3999C53.1597 31.7006 52.9948 31.0751 52.7105 30.5292C52.3693 29.8697 52.1818 29.6195 51.67 29.1077C50.658 28.1013 49.4184 27.5895 48.0426 27.6067C47.718 27.6124 47.394 27.6296 47.3142 27.6409ZM49.435 28.7553C50.0094 28.9428 50.5779 29.284 50.9873 29.6878C51.2831 29.9777 51.7208 30.5521 51.6754 30.5918C51.6412 30.6259 44.227 31.3537 44.1985 31.3253C44.1416 31.2742 44.6362 30.3643 44.8979 30.0346C45.3981 29.4148 46.3363 28.8407 47.1721 28.6585C47.7919 28.522 48.8665 28.5677 49.435 28.7553ZM52.1643 32.0302C52.1984 32.2518 52.2097 32.4509 52.1872 32.4681C52.153 32.5023 49.7424 32.7696 49.4466 32.7752C49.3442 32.7752 49.3329 32.7355 49.3329 32.4171C49.3329 32.2237 49.3101 32.0077 49.2875 31.9338C49.2478 31.8258 49.259 31.8086 49.4012 31.8029C49.4866 31.8029 50.1118 31.746 50.7829 31.6721C51.4537 31.6039 52.0281 31.5641 52.0507 31.5869C52.0789 31.6039 52.1243 31.8086 52.1643 32.0302ZM47.4619 32.2293C47.4391 32.3886 47.4507 32.5592 47.5017 32.7126C47.5471 32.8378 47.5812 32.9458 47.5756 32.9515C47.5756 32.9515 46.7795 33.0366 45.8129 33.139C44.5222 33.2755 44.0558 33.3039 44.0389 33.2583C44.022 33.2185 44.0161 33.0025 44.0277 32.7693L44.0446 32.3486L45.7503 32.1723C46.6884 32.07 47.4673 31.9905 47.4789 31.9848C47.4904 31.9848 47.4791 32.0928 47.4619 32.2293ZM52.062 33.8953C51.7038 35.1349 50.6918 36.1638 49.4578 36.5564C47.6726 37.1248 45.7906 36.5507 44.7899 35.1464C44.5454 34.7996 44.2781 34.3163 44.3122 34.2822C44.3632 34.2368 52.1189 33.4861 52.1358 33.5259C52.1471 33.5484 52.113 33.719 52.062 33.8953Z" fill="white"/>
<path d="M37.9952 30.0514C37.5572 30.1253 36.949 30.3469 36.5793 30.5689C36.3974 30.6712 36.039 30.9724 35.772 31.2397C35.3513 31.6548 35.2433 31.8082 34.9932 32.32C34.6294 33.0647 34.5211 33.5083 34.5098 34.293C34.5042 34.9354 34.5781 35.3448 34.8113 35.8795C35.4596 37.3692 37.0798 38.4038 38.7574 38.4038C39.4338 38.4038 39.9685 38.2845 40.5201 38.0116C41.6232 37.4656 42.4249 36.4821 42.7774 35.2425C42.9708 34.566 42.9592 33.5424 42.7489 32.917C42.2937 31.5527 41.1508 30.5235 39.6383 30.1253C39.2348 30.0173 38.3874 29.9776 37.9952 30.0514ZM39.5475 31.0409C40.0023 31.1602 40.5936 31.4789 40.8553 31.7459L41.0657 31.9619L38.2853 32.9626C36.7499 33.5142 35.4821 33.969 35.4593 33.969C35.4023 33.969 35.4762 33.5371 35.607 33.1332C35.9197 32.161 36.784 31.3821 37.8928 31.0635C38.3364 30.9386 39.1096 30.9273 39.5475 31.0409ZM41.7932 33.2128C41.8614 33.4062 41.9125 33.5994 41.9125 33.6391C41.9125 33.6845 41.4122 33.8949 40.656 34.1678C39.9623 34.418 39.3822 34.6283 39.3597 34.6399C39.3368 34.6455 39.3312 34.5547 39.3425 34.4408C39.3537 34.293 39.314 34.1394 39.2288 33.9631L39.0923 33.7014L40.3489 33.2466C41.0369 32.9965 41.6167 32.8087 41.6395 32.8259C41.6567 32.8434 41.7306 33.0196 41.7932 33.2128ZM37.4207 34.4467C37.4207 34.6515 37.5231 34.8847 37.6765 35.0493L37.813 35.1914L36.9033 35.5211C36.3971 35.703 35.9595 35.8394 35.9197 35.8282C35.8571 35.8053 35.6355 35.2879 35.5898 35.0606C35.5785 35.0093 35.8628 34.8731 36.4541 34.6512C36.9374 34.4693 37.3525 34.3215 37.381 34.3156C37.4038 34.3103 37.4207 34.3729 37.4207 34.4467ZM41.8786 35.0606C41.4523 36.6755 39.6896 37.7615 38.0465 37.4146C37.5744 37.3179 36.8867 37.0052 36.6989 36.8004L36.5737 36.6696L39.2006 35.7202C40.645 35.1971 41.8558 34.7707 41.8959 34.7648C41.941 34.7651 41.941 34.8446 41.8786 35.0606Z" fill="white"/>
<path d="M47.3029 38.8591C44.0962 39.1946 41.2078 40.9799 39.5531 43.6466C39.4564 43.8 39.3656 43.9196 39.3484 43.9196C39.2802 43.9196 39.1778 43.6068 39.1437 43.2772C39.0867 42.7485 38.8253 42.5494 38.4215 42.7313C37.8017 43.0155 38.3874 44.5904 39.3425 45.1933C39.6608 45.3924 40.2124 45.5686 40.5195 45.5686C40.855 45.5686 41.0598 45.3867 41.0598 45.0853C41.0598 44.7895 40.855 44.602 40.5367 44.602C40.1216 44.602 40.116 44.5622 40.4969 43.9709C42.8963 40.2636 47.394 38.7911 51.5389 40.3719C52.0732 40.5766 52.0391 40.6505 51.3855 40.7188C50.7942 40.7814 50.5894 41.1736 50.9591 41.5433C51.1241 41.7139 51.1469 41.7139 51.4822 41.6798C52.4091 41.583 53.2903 40.844 53.5802 39.9227C53.7962 39.2234 53.654 38.8027 53.1992 38.8027C52.8752 38.8027 52.7672 38.9504 52.693 39.5076C52.6758 39.6269 52.6533 39.7352 52.642 39.7465C52.6307 39.7634 52.3634 39.667 52.0563 39.5474C51.4196 39.2916 50.6461 39.0753 49.9183 38.9504C49.2872 38.8418 47.9396 38.7964 47.3029 38.8591Z" fill="white"/>
<path fill-rule="evenodd" clip-rule="evenodd" d="M52.7064 20.589C52.7091 20.6372 52.7055 20.6863 52.6933 20.735L51.9101 23.8386C51.7651 23.7682 51.5662 23.78 51.4196 23.8823C51.3513 23.9277 51.1466 24.2576 50.976 24.6045C50.8265 24.9034 50.6933 25.1576 50.6528 25.2347L50.6528 25.2348L50.6404 25.2584C50.6292 25.2756 49.8275 24.8947 49.7762 24.849C49.7705 24.8433 49.8785 24.4908 50.015 24.0642C50.1628 23.615 50.2538 23.2453 50.231 23.183C50.1571 22.967 49.9696 22.8249 49.759 22.8249C49.4634 22.8249 49.3551 22.9783 49.105 23.7346C48.9858 24.0927 48.8718 24.411 48.8493 24.4395C48.8095 24.4736 47.8826 24.2179 47.8826 24.1666C47.8826 24.1612 47.9651 23.9138 48.0662 23.6106L48.0817 23.564C48.3547 22.7623 48.349 22.5519 48.0476 22.3982C47.6325 22.1822 47.4675 22.3356 47.172 23.2284C47.0412 23.615 46.9103 23.9334 46.8819 23.9334C46.8595 23.9334 46.6401 23.9018 46.3539 23.8606L46.3537 23.8606L46.1087 23.8254L45.3809 23.7174V23.1714C45.3752 22.603 45.3411 22.5006 45.1135 22.381C44.9145 22.273 44.7554 22.3015 44.5792 22.4777C44.4199 22.6371 44.4142 22.6653 44.4142 23.1542V23.666L44.2608 23.7001C44.1131 23.723 43.317 23.7969 43.1918 23.7969C43.1633 23.7969 43.0951 23.5411 43.0384 23.2284C42.9304 22.5857 42.8735 22.4436 42.6747 22.3697C42.5041 22.3018 42.4358 22.3018 42.2652 22.37C42.032 22.4668 41.9754 22.7113 42.0661 23.2685C42.1059 23.5414 42.1513 23.82 42.1685 23.8883C42.1914 23.9963 42.1629 24.0191 41.924 24.0701C41.7763 24.0986 41.4009 24.201 41.0882 24.2977C40.7755 24.3888 40.5025 24.4511 40.4856 24.4285C40.4628 24.4057 40.3548 24.0986 40.2355 23.7405C40.1103 23.3539 39.9682 23.0355 39.8887 22.9557C39.6386 22.7056 39.1837 22.8365 39.0983 23.1833C39.0814 23.2572 39.1721 23.6325 39.3258 24.0704L39.3526 24.1529L39.3526 24.1529C39.4768 24.5356 39.5752 24.8387 39.5647 24.8493C39.559 24.8549 39.2689 25.0027 38.922 25.1733L38.3409 25.4638H38.2856L37.9554 24.7979C37.5717 24.0095 37.4357 23.8188 37.2198 23.7944L36.4547 20.7509C36.4421 20.7009 36.4385 20.6504 36.4416 20.601C36.0195 20.4692 35.7125 20.0779 35.7125 19.6168C35.7125 19.0478 36.1797 18.5849 36.754 18.5849C37.3284 18.5849 37.7956 19.0478 37.7956 19.6168C37.7956 19.9372 37.6474 20.2239 37.4153 20.4133L38.7815 21.7769C39.1267 22.1215 39.6058 22.3191 40.096 22.3191C40.6756 22.3191 41.2282 22.0465 41.5761 21.5896L43.8213 18.6426C43.6327 18.4559 43.5159 18.1979 43.5159 17.9134C43.5159 17.3444 43.9831 16.8816 44.5574 16.8816C45.1318 16.8816 45.599 17.3444 45.599 17.9134C45.599 18.1894 45.4884 18.4398 45.3097 18.6252L45.3116 18.6275L47.5404 21.5826C47.8883 22.0438 48.4429 22.3192 49.0241 22.3192C49.5187 22.3192 49.9839 22.1284 50.3337 21.7818L51.7084 20.4199C51.4714 20.2306 51.3193 19.9411 51.3193 19.6168C51.3193 19.0478 51.7865 18.5849 52.3608 18.5849C52.9352 18.5849 53.4024 19.0478 53.4024 19.6168C53.4024 20.0656 53.1111 20.4473 52.7064 20.589ZM47.5643 25.1166C47.6016 25.074 48.3993 25.3614 48.4981 25.4442L47.4506 25.4495C47.4876 25.336 47.5223 25.2376 47.5434 25.1778C47.5564 25.1408 47.5643 25.1186 47.5643 25.1166ZM46.4611 25.3442C46.449 25.3843 46.4381 25.421 46.4284 25.4546L45.3804 25.4598C45.3807 25.4113 45.3809 25.3578 45.3809 25.2985C45.3809 24.8605 45.3978 24.7015 45.4547 24.7015C45.5969 24.7015 46.5294 24.8665 46.5635 24.895C46.5804 24.9178 46.535 25.1166 46.4611 25.3442ZM44.4145 25.213C44.4145 25.3043 44.4162 25.3877 44.4198 25.4638H43.409C43.4014 25.4024 43.3925 25.3324 43.3823 25.2524L43.3823 25.2521L43.3565 25.0483L43.3167 24.7697L43.709 24.73C44.0558 24.7015 44.2208 24.679 44.3742 24.6505C44.3973 24.6502 44.4145 24.9003 44.4145 25.213ZM42.3385 24.9914C42.3497 25.0082 42.3948 25.2215 42.4289 25.4638H40.8319L40.8319 25.4634C40.8319 25.3667 42.259 24.9175 42.3385 24.9914Z" fill="#FFC400"/>
<rect width="5" height="41" rx="2.5" fill="white"/>
<rect x="84" y="23" width="5" height="41" rx="2.5" fill="white"/>
</svg>
