<svg width="100" height="100" viewBox="0 0 100 100" fill="none" xmlns="http://www.w3.org/2000/svg">
<rect x="18.9999" y="11.0001" width="62" height="72" fill="white"/>
<path d="M7.05615 1.56262L14.8726 89.1353L49.9476 98.8236L85.1194 89.1462L92.9437 1.56262H7.05615ZM76.6858 22.2962L76.196 27.8993L75.9804 30.4689H34.8358L35.8179 41.4064H75.0022L74.7397 44.1181L72.214 72.3361L72.028 74.1095L49.9999 80.1634V80.165L49.9733 80.179L27.9601 74.3798L26.4655 57.8126H37.2585L38.0233 66.3431L49.9663 69.5314H49.9999V69.1048L61.996 66.0775L63.2491 52.3439H25.9851L23.3421 22.565L23.0851 19.5314H76.9437L76.6858 22.2962Z" fill="#E44D26"/>
</svg>
