<svg width="25" height="25" viewBox="0 0 25 25" fill="none" xmlns="http://www.w3.org/2000/svg">
<path d="M18.1598 2.14447H13.4541V0H7.06404V2.14447H2.3584V5.53047H18.1598V2.14447ZM8.75704 1.693H11.7611V2.14447H8.75704V1.693Z" fill="white"/>
<path d="M16.6566 12.0942L16.976 7.22339H3.54297L4.61611 23.5891H11.0592C10.2206 22.4002 9.72728 20.951 9.72728 19.3887C9.72728 15.4869 12.8026 12.2899 16.6566 12.0942Z" fill="white"/>
<path d="M17.0311 13.7778C13.9371 13.7778 11.4199 16.295 11.4199 19.3889C11.4199 22.4829 13.9371 25.0001 17.0311 25.0001C20.1251 25.0001 22.6423 22.483 22.6423 19.3889C22.6423 16.2949 20.1251 13.7778 17.0311 13.7778ZM20.0884 21.2492L18.8913 22.4463L17.0311 20.5861L15.1709 22.4463L13.9738 21.2492L15.834 19.3889L13.9738 17.5287L15.1709 16.3316L17.0311 18.1918L18.8913 16.3316L20.0884 17.5287L18.2282 19.3889L20.0884 21.2492Z" fill="white"/>
</svg>
