<svg width="24" height="24" viewBox="0 0 24 24" fill="none" xmlns="http://www.w3.org/2000/svg">
<path d="M6.3428 4.93865C6.73333 5.32917 6.73333 5.96233 6.3428 6.35286C3.2176 9.47806 3.2176 14.545 6.3428 17.6702C6.73333 18.0607 6.73333 18.6939 6.3428 19.0844C5.95228 19.4749 5.31911 19.4749 4.92859 19.0844C1.02234 15.1782 1.02234 8.84489 4.92859 4.93865C5.31911 4.54812 5.95228 4.54812 6.3428 4.93865ZM19.0744 4.93865C22.9806 8.84489 22.9806 15.1782 19.0744 19.0844C18.6838 19.4749 18.0507 19.4749 17.6602 19.0844C17.2696 18.6939 17.2696 18.0607 17.6602 17.6702C20.7854 14.545 20.7854 9.47806 17.6602 6.35286C17.2696 5.96233 17.2696 5.32917 17.6602 4.93865C18.0507 4.54812 18.6838 4.54812 19.0744 4.93865ZM9.30945 7.81202C9.69998 8.20255 9.69998 8.83571 9.30945 9.22624C7.77849 10.7572 7.77849 13.2394 9.30945 14.7703C9.69998 15.1609 9.69998 15.794 9.30945 16.1846C8.91893 16.5751 8.28576 16.5751 7.89524 16.1846C5.58323 13.8725 5.58323 10.124 7.89524 7.81202C8.28576 7.4215 8.91893 7.4215 9.30945 7.81202ZM16.2678 7.81202C18.5798 10.124 18.5798 13.8725 16.2678 16.1846C15.8772 16.5751 15.2441 16.5751 14.8536 16.1846C14.463 15.794 14.463 15.1609 14.8536 14.7703C16.3845 13.2394 16.3845 10.7572 14.8536 9.22624C14.463 8.83571 14.463 8.20255 14.8536 7.81202C15.2441 7.4215 15.8772 7.4215 16.2678 7.81202ZM12.0815 10.5814C12.9099 10.5814 13.5815 11.253 13.5815 12.0814C13.5815 12.9099 12.9099 13.5814 12.0815 13.5814C11.2531 13.5814 10.5815 12.9099 10.5815 12.0814C10.5815 11.253 11.2531 10.5814 12.0815 10.5814Z" fill="#FFC400"/>
</svg>
