<svg width="10" height="15" viewBox="0 0 10 15" fill="none" xmlns="http://www.w3.org/2000/svg">
<path d="M7.75 5.51224V2.6431C7.75 1.18578 6.51625 0 5 0C3.48375 0 2.25 1.18578 2.25 2.6431V5.51224C0.896 6.43862 0 8.02603 0 9.82759C0 12.6797 2.243 15 5 15C7.757 15 10 12.6797 10 9.82759C10 8.02603 9.104 6.43862 7.75 5.51224ZM2.75 5.21302V2.6431C2.75 1.47103 3.75925 0.517241 5 0.517241C6.24075 0.517241 7.25 1.47103 7.25 2.6431V5.21328C7.203 5.18871 7.155 5.16698 7.1075 5.14397C7.00925 5.09638 6.9095 5.0519 6.808 5.01078C6.74275 4.9844 6.67725 4.95957 6.61125 4.93603C6.54625 4.91302 6.48175 4.89 6.41575 4.86983C6.3065 4.83621 6.196 4.8075 6.08475 4.78164C6.0365 4.77052 5.988 4.75991 5.93925 4.75009C5.8085 4.72397 5.677 4.70276 5.5445 4.6875C5.5145 4.68414 5.4845 4.68207 5.4545 4.67922C5.30325 4.66448 5.152 4.65517 5 4.65517C4.848 4.65517 4.69675 4.66448 4.546 4.67897C4.516 4.68181 4.48575 4.68388 4.456 4.68724C4.3235 4.7025 4.192 4.72371 4.06125 4.74983C4.0125 4.7594 3.964 4.77026 3.91575 4.78138C3.8045 4.80724 3.694 4.83595 3.58475 4.86957C3.51875 4.88974 3.454 4.91302 3.38925 4.93578C3.32325 4.95931 3.2575 4.98414 3.1925 5.01052C3.09075 5.05138 2.99125 5.09612 2.893 5.14371C2.845 5.16672 2.797 5.18845 2.75 5.21302ZM6 10.3448C6 10.9153 5.5515 11.3793 5 11.3793C4.4485 11.3793 4 10.9153 4 10.3448V8.7931C4 8.22259 4.4485 7.75862 5 7.75862C5.5515 7.75862 6 8.22259 6 8.7931V10.3448Z" fill="white"/>
</svg>
