<svg width="13" height="12" viewBox="0 0 13 12" fill="none" xmlns="http://www.w3.org/2000/svg">
<g clip-path="url(#clip0_89_864)">
<path d="M10.8106 9.92827H10.7815V9.36101C10.7815 9.00617 10.4928 8.71751 10.138 8.71751H9.83976V5.62334C9.83976 3.99138 8.51207 2.6637 6.88012 2.6637C5.24817 2.6637 3.92048 3.99138 3.92048 5.62334V8.71751H3.62229C3.26744 8.71751 2.97879 9.00619 2.97879 9.36101V9.92827H2.94965C2.59481 9.92827 2.30615 10.2169 2.30615 10.5718V11.4081C2.30615 11.5567 2.4266 11.6771 2.57521 11.6771H11.1851C11.3337 11.6771 11.4541 11.5567 11.4541 11.4081V10.5718C11.4541 10.2169 11.1654 9.92827 10.8106 9.92827ZM4.45858 5.62334C4.45858 4.2881 5.54489 3.20182 6.8801 3.20182C8.21533 3.20182 9.30161 4.28813 9.30161 5.62334V8.71751H7.14916V7.22534L8.00578 7.5109C8.03357 7.52016 8.06228 7.5247 8.09083 7.5247C8.14661 7.5247 8.20179 7.50736 8.24817 7.47392C8.31832 7.42336 8.35992 7.34213 8.35992 7.25567V5.23772C8.35992 5.15124 8.31834 5.07002 8.24817 5.01947C8.17802 4.96889 8.08778 4.95511 8.00578 4.98249L6.8801 5.35767L5.75442 4.98244C5.67241 4.95511 5.5822 4.96884 5.51203 5.01942C5.44188 5.06998 5.40028 5.15121 5.40028 5.23767V7.25562C5.40028 7.3421 5.44186 7.42331 5.51203 7.47387C5.55843 7.50731 5.61361 7.52466 5.66936 7.52466C5.69791 7.52466 5.72664 7.52011 5.75442 7.51085L6.61104 7.22529V8.71746H4.45856V5.62334H4.45858ZM7.14916 6.6581V6.55158V5.83519L7.82182 5.61099V6.88233L7.14916 6.6581ZM6.61104 5.83519V6.55158V6.6581L5.93838 6.88231V5.61096L6.61104 5.83519ZM3.51686 9.36101C3.51686 9.30288 3.56414 9.25561 3.62226 9.25561H10.138C10.1961 9.25561 10.2434 9.30288 10.2434 9.36101V9.92827H3.51686V9.36101ZM10.916 11.139H10.916H2.84423V10.5718C2.84423 10.5137 2.8915 10.4664 2.94963 10.4664H10.8106C10.8688 10.4664 10.916 10.5137 10.916 10.5718V11.139H10.916Z" fill="#E30039"/>
<path d="M3.38212 5.60988C3.38212 5.46129 3.26165 5.34082 3.11305 5.34082H1.14895C1.00035 5.34082 0.879883 5.46129 0.879883 5.60988C0.879883 5.75848 1.00035 5.87895 1.14895 5.87895H3.11308C3.26167 5.87895 3.38212 5.7585 3.38212 5.60988Z" fill="#E30039"/>
<path d="M12.6106 5.34082H10.6465C10.4979 5.34082 10.3774 5.46129 10.3774 5.60988C10.3774 5.75848 10.4979 5.87895 10.6465 5.87895H12.6106C12.7592 5.87895 12.8797 5.75848 12.8797 5.60988C12.8797 5.46129 12.7593 5.34082 12.6106 5.34082Z" fill="#E30039"/>
<path d="M6.8799 1.39913C7.0285 1.39913 7.14897 1.27866 7.14897 1.13006V0.591938C7.14897 0.443345 7.0285 0.322876 6.8799 0.322876C6.73131 0.322876 6.61084 0.443345 6.61084 0.591938V1.13006C6.61084 1.27868 6.73131 1.39913 6.8799 1.39913Z" fill="#E30039"/>
<path d="M2.3997 3.33389L2.86571 3.60295C2.90808 3.62739 2.95433 3.63902 3.00001 3.63902C3.09298 3.63902 3.18343 3.59079 3.23326 3.50447C3.30758 3.37577 3.26347 3.21122 3.13477 3.13694L2.66876 2.86788C2.54009 2.79358 2.37551 2.83767 2.30124 2.96636C2.22692 3.09506 2.27103 3.25961 2.3997 3.33389Z" fill="#E30039"/>
<path d="M8.62872 2.58076C8.67109 2.60523 8.71733 2.61683 8.76301 2.61683C8.85599 2.61683 8.94644 2.5686 8.99626 2.48228L9.97832 0.781301C10.0526 0.652606 10.0085 0.488051 9.87983 0.413778C9.75116 0.339481 9.58661 0.383567 9.51231 0.512262L8.53023 2.21324C8.45594 2.34189 8.50002 2.50644 8.62872 2.58076Z" fill="#E30039"/>
<path d="M4.76324 2.48229C4.81307 2.56861 4.90349 2.61685 4.99649 2.61685C5.04212 2.61685 5.08841 2.60522 5.13079 2.58078C5.25948 2.50648 5.30357 2.34193 5.22927 2.21325L4.24722 0.512278C4.1729 0.383559 4.00837 0.339473 3.87969 0.413793C3.751 0.48809 3.70691 0.652645 3.78121 0.781317L4.76324 2.48229Z" fill="#E30039"/>
<path d="M10.7596 3.63903C10.8052 3.63903 10.8515 3.6274 10.8938 3.60295L11.3599 3.33389C11.4886 3.2596 11.5326 3.09504 11.4583 2.96637C11.384 2.83765 11.2195 2.79359 11.0908 2.86788L10.6248 3.13695C10.4961 3.21124 10.452 3.3758 10.5263 3.50447C10.5761 3.59077 10.6666 3.63903 10.7596 3.63903Z" fill="#E30039"/>
</g>
<defs>
<clipPath id="clip0_89_864">
<rect width="12" height="12" fill="white" transform="translate(0.879883)"/>
</clipPath>
</defs>
</svg>

