<svg width="29" height="25" viewBox="0 0 29 25" fill="none" xmlns="http://www.w3.org/2000/svg">
<path d="M17.4208 0.160964C16.9784 -0.0757536 16.4417 -0.0498145 16.0242 0.228442L8.20422 5.44176H1.36045C0.609117 5.44176 0 6.05088 0 6.80221V17.6858C0 18.4371 0.609117 19.0462 1.36045 19.0462H8.20422L16.0242 24.2596C16.2518 24.4113 16.5149 24.488 16.7788 24.488C16.9989 24.488 17.2195 24.4347 17.4207 24.327C17.8631 24.0903 18.1392 23.6293 18.1392 23.1276V1.36042C18.1393 0.858692 17.8631 0.397682 17.4208 0.160964ZM15.4184 20.5855L9.37076 16.5538C9.14728 16.4048 8.88471 16.3253 8.61616 16.3253H2.72089V8.16266H8.61616C8.88471 8.16266 9.14728 8.08312 9.37076 7.93419L15.4184 3.90246V20.5855Z" fill="white"/>
<path d="M27.319 12.244L28.6017 10.9613C29.133 10.43 29.133 9.56869 28.6017 9.03739C28.0705 8.50609 27.209 8.50609 26.6777 9.03739L25.3951 10.32L24.1125 9.03739C23.5812 8.50609 22.7197 8.50609 22.1885 9.03739C21.6572 9.56869 21.6572 10.43 22.1885 10.9613L23.4711 12.244L22.1885 13.5266C21.6572 14.0579 21.6572 14.9192 22.1885 15.4505C22.4542 15.7162 22.8023 15.849 23.1505 15.849C23.4987 15.849 23.8469 15.7162 24.1125 15.4505L25.3951 14.1679L26.6777 15.4505C26.9434 15.7162 27.2915 15.849 27.6396 15.849C27.9878 15.849 28.336 15.7162 28.6016 15.4505C29.1329 14.9192 29.1329 14.0579 28.6016 13.5266L27.319 12.244Z" fill="white"/>
</svg>
