<svg width="100" height="100" viewBox="0 0 100 100" fill="none" xmlns="http://www.w3.org/2000/svg">
<g clip-path="url(#clip0_74_574)">
<path d="M58.9061 0.234497C58.203 0.234497 57.4999 0.390747 56.8749 0.625122C58.203 1.4845 58.9061 2.65637 59.2968 3.9845C59.2968 4.14075 59.3749 4.297 59.3749 4.45325C59.3749 4.6095 59.453 4.76575 59.453 4.922C59.5311 7.18762 58.828 7.50012 58.3592 8.82825C57.578 10.547 57.8124 12.422 58.7499 13.9064C58.828 14.0626 58.9061 14.297 59.0624 14.4532C58.0467 7.89075 63.5155 6.95325 64.5311 4.922C64.6093 3.12512 63.1249 1.95325 61.953 1.09387C60.7811 0.390747 59.8436 0.234497 58.9061 0.234497ZM67.1093 1.64075C67.0311 2.26575 67.1093 2.1095 67.0311 2.422C67.0311 2.65637 67.0311 2.89075 66.953 3.12512C66.8749 3.3595 66.8749 3.51575 66.7968 3.75012C66.7186 3.9845 66.6405 4.14075 66.5624 4.37512C66.4843 4.53137 66.4061 4.68762 66.328 4.922C66.2499 5.00012 66.1718 5.15637 66.0936 5.2345C66.0155 5.31262 66.0155 5.39075 65.9374 5.46887C65.7811 5.62512 65.703 5.8595 65.5468 6.01575L65.078 6.4845C64.9218 6.64075 64.7655 6.797 64.6093 6.87512C64.0624 7.26575 63.4374 7.57825 62.8905 7.96887C62.7343 8.12512 62.4999 8.20325 62.3436 8.3595C62.1874 8.51575 62.0311 8.59387 61.8749 8.75012L61.4061 9.21887C61.2499 9.37512 61.0936 9.53137 61.0155 9.76575C60.8592 9.922 60.7811 10.1564 60.6249 10.3126C60.5467 10.547 60.4686 10.7032 60.3124 10.9376C60.2342 11.172 60.1561 11.3282 60.078 11.5626C59.9999 11.797 59.9217 12.0314 59.9217 12.1876C59.9217 12.2657 59.9217 12.422 59.8436 12.5001C59.8436 12.5782 59.8436 12.7345 59.7655 12.8126V13.9064C59.7655 14.1407 59.7655 14.297 59.8436 14.5314C59.8436 14.7657 59.9218 14.922 59.9999 15.1564C60.078 15.3907 60.1561 15.547 60.2342 15.7814C60.3124 15.9376 60.3905 16.0157 60.3905 16.172L54.453 13.9064C53.4374 13.5939 52.4999 13.3595 51.4843 13.1251C50.9374 12.9689 50.3905 12.8907 49.8436 12.7345C48.2811 12.422 46.7186 12.1876 45.1561 12.0314H44.9999C43.4374 11.8751 41.953 11.797 40.3905 11.797C39.2186 11.797 38.1249 11.8751 37.0311 11.9532C35.4686 12.0314 33.9061 12.2657 32.3436 12.5001L31.1718 12.7345C30.3905 12.8907 29.6093 13.047 28.828 13.2814C28.4374 13.3595 28.0468 13.5157 27.6561 13.5939C27.2655 13.7501 26.8749 13.9064 26.5624 14.0626C26.2499 14.2189 26.0155 14.297 25.703 14.4532C25.6249 14.4532 25.6249 14.4532 25.5468 14.5314C25.3124 14.6876 25.078 14.7657 24.8436 14.922C24.7655 14.922 24.6874 15.0001 24.6874 15.0001C24.3749 15.1564 24.1405 15.3126 23.9061 15.3907C23.7499 15.4689 23.5155 15.547 23.3593 15.6251C23.2811 15.7032 23.203 15.7032 23.1249 15.7814C22.8905 15.9376 22.6561 16.0157 22.4218 16.172C22.1874 16.3282 21.953 16.4064 21.7968 16.5626C21.6405 16.7189 21.4061 16.797 21.2499 16.9532C21.2499 16.9532 21.1718 16.9532 21.1718 17.0314C21.0155 17.1095 20.8593 17.2657 20.703 17.422L20.6249 17.5001C20.4686 17.5782 20.3905 17.7345 20.2343 17.8126C20.1561 17.8126 20.1561 17.8907 20.078 17.8907C19.9218 17.9689 19.8436 18.1251 19.6874 18.2032C19.6874 18.2814 19.6093 18.2814 19.6093 18.2814L19.1405 18.7501L19.0624 18.8282L18.5936 19.297C18.5936 19.297 18.5936 19.3751 18.5155 19.3751L18.1249 19.7657C18.0468 19.8439 17.9686 19.8439 17.9686 19.922L17.4999 20.3907C17.4999 20.4689 17.4218 20.4689 17.4218 20.547L16.7968 21.172L16.7186 21.2501C16.328 21.7189 15.8593 22.1095 15.3905 22.5001C14.9218 22.8907 14.453 23.2814 13.9061 23.672C13.3593 24.0626 12.8905 24.3751 12.3436 24.6876C11.7968 25.0001 11.2499 25.2345 10.703 25.4689C10.1561 25.7032 9.60925 25.9376 9.06238 26.0939C7.96863 26.3282 6.87488 26.797 5.93738 26.8751C5.93738 26.4845 5.703 26.5626 5.46863 26.5626C5.23425 26.6407 4.99988 26.6407 4.84363 26.7189C4.60925 26.797 4.453 26.8751 4.21863 26.9532C3.98425 27.0314 3.828 27.1095 3.59363 27.2657C3.43738 27.422 3.203 27.5001 3.04675 27.6564C2.8905 27.8126 2.65613 27.9689 2.49988 28.1251C2.34363 28.2814 2.10925 28.4376 1.953 28.5939C1.79675 28.7501 1.6405 28.9064 1.48425 29.1407C1.328 29.3751 1.17175 29.5314 1.09363 29.7657C0.937378 29.922 0.859253 30.1564 0.703003 30.3907C0.624878 30.6251 0.468628 30.8595 0.390503 31.0939L0.156128 31.797C0.0780029 32.0314 0.0780029 32.1876 -0.00012207 32.422V32.5001C-0.0782471 32.7345 -0.0782471 33.047 -0.0782471 33.2032C-0.00012207 33.1251 -0.00012207 33.2814 -0.00012207 33.4376V33.7501C-0.00012207 33.9064 0.0780029 34.0626 0.0780029 34.2189C0.156128 34.3751 0.156128 34.5314 0.234253 34.6876C0.312378 34.8439 0.390503 35.0001 0.546753 35.1564C0.624878 35.3126 0.781128 35.4689 0.859253 35.6251C1.0155 35.7814 1.17175 35.9376 1.328 36.0157C1.48425 36.172 1.6405 36.3282 1.79675 36.4064C2.42175 36.9532 2.578 37.1095 3.35925 37.5782C3.5155 37.6564 3.59363 37.7345 3.74988 37.8126H3.828V37.9689C3.828 38.2032 3.90613 38.3595 3.98425 38.5939C4.06238 38.8282 4.1405 39.0626 4.21863 39.2189L4.453 39.6876C4.453 39.7657 4.53113 39.7657 4.53113 39.8439C4.60925 40.0782 4.7655 40.2345 4.84363 40.3907C4.99988 40.547 5.078 40.7814 5.23425 40.9376L5.703 41.4064L6.17175 41.8751H6.24988C6.40613 42.0314 6.56238 42.1095 6.71863 42.2657C6.87488 42.422 7.10925 42.5001 7.2655 42.5782C7.42175 42.6564 7.65613 42.8126 7.8905 42.8907C8.04675 42.9689 8.203 43.047 8.43738 43.047C8.43738 43.047 8.5155 43.047 8.5155 43.1251C8.59363 43.1251 8.74988 43.2032 8.828 43.2032C8.74988 44.6095 8.74988 45.9376 8.90613 46.4064C9.1405 46.9532 10.3124 45.3126 11.4061 43.5157C11.2499 45.3126 11.1718 47.422 11.4061 48.047C11.7186 48.672 13.203 46.6407 14.6093 44.4532C32.8905 40.2345 49.6093 52.8907 51.4061 70.7814C51.0936 67.9689 47.6561 66.4064 46.0155 66.797C45.2343 68.672 43.9061 71.172 41.7968 72.6564C41.953 70.9376 41.8749 69.2189 41.5624 67.5001C41.0155 69.8439 39.9217 72.1095 38.3592 73.9845C35.9374 74.1407 33.4374 72.9689 32.1874 71.172C32.1093 71.0939 32.0311 70.9376 31.953 70.8595C31.8749 70.7032 31.7968 70.4689 31.7186 70.3126C31.6405 70.1564 31.5624 69.922 31.5624 69.7657V69.2189V68.8282C31.5624 68.672 31.6405 68.4376 31.7186 68.2814C31.7968 68.1251 31.7968 67.8907 31.8749 67.7345C31.953 67.5782 32.0311 67.3439 32.1874 67.1876C32.6561 65.9376 32.6561 64.922 31.7968 64.3751L31.328 64.1407C31.2499 64.1407 31.0936 64.0626 31.0155 64.0626C30.9374 64.0626 30.8593 63.9845 30.7811 63.9845C30.6249 63.9064 30.3905 63.9064 30.2343 63.8282C30.078 63.7501 29.8436 63.7501 29.6874 63.7501C29.5311 63.7501 29.2968 63.672 29.1405 63.672H28.7499C28.5155 63.672 28.3593 63.672 28.203 63.7501C28.0468 63.7501 27.8124 63.8282 27.6561 63.8282C27.4999 63.9064 27.2655 63.9064 27.1093 63.9845C26.953 64.0626 26.7968 64.1407 26.5624 64.2189L26.0936 64.4532C20.078 68.3595 23.6718 77.5782 27.7343 80.2345C26.1718 80.547 24.6093 80.8595 24.1405 81.172L24.0624 81.2501C25.1561 81.9532 26.328 82.5001 27.578 82.9689C29.2186 83.5157 31.0155 83.9845 31.7968 84.2189C33.9061 84.6876 36.0936 84.8439 38.2811 84.6876C49.6874 83.9064 59.0624 75.1564 60.7811 63.7501C60.8593 63.9845 60.8593 64.2189 60.9374 64.4532C61.0155 64.922 61.0936 65.3907 61.1718 65.9376C61.2499 66.172 61.2499 66.4064 61.2499 66.6407V66.7189C61.2499 66.9532 61.328 67.1876 61.328 67.422C61.328 67.7345 61.4061 67.9689 61.4061 68.2814V71.5626C61.4061 71.797 61.328 71.9532 61.328 72.1876V72.422C61.328 72.6564 61.2499 72.8907 61.2499 73.2032C61.1718 73.4376 61.1717 73.672 61.0936 73.9064V73.9845C61.0155 74.2189 61.0155 74.4532 60.9374 74.6876V74.7657C60.8593 75.0001 60.8593 75.2345 60.7811 75.4689V75.547L60.5468 76.2501V76.3282C60.4686 76.5626 60.3905 76.8751 60.3124 77.1095C60.2342 77.3439 60.1561 77.5782 59.9999 77.8907C59.9218 78.1251 59.8436 78.4376 59.6874 78.672C59.6093 78.9064 59.453 79.1407 59.3749 79.4532C59.2968 79.6876 59.1405 79.922 59.0624 80.1564C59.0624 80.2345 58.9843 80.3126 58.9843 80.3126C58.9843 80.3126 58.9843 80.3907 58.9061 80.3907C57.2655 83.7501 54.7655 86.7189 51.6405 89.0626C51.4061 89.2189 51.2499 89.3751 51.0155 89.5314C50.9374 89.6095 50.8592 89.6095 50.8592 89.6876C50.703 89.8439 50.4686 89.922 50.3124 90.0782L50.3905 90.2345C50.7811 90.1564 51.0936 90.1564 51.4843 90.0782C52.1874 90.0001 52.8124 89.8439 53.5155 89.6876C53.6718 89.6876 53.9061 89.6095 54.0624 89.5314C54.2186 89.5314 54.2967 89.4532 54.453 89.4532C54.6092 89.4532 54.8436 89.3751 54.9999 89.3751C55.1561 89.297 55.3124 89.297 55.4686 89.2189C58.0468 88.5939 60.5467 87.7345 62.9686 86.7189C58.828 92.3439 53.3592 96.8751 46.953 99.8439C49.9217 99.6095 52.8905 99.1407 55.7811 98.2814C66.1718 95.2345 74.9218 88.2032 80.1561 78.7501C79.0624 84.6876 76.7186 90.3907 73.203 95.3907C75.703 93.7501 77.9686 91.797 80.078 89.6876C85.8593 83.672 89.6874 75.9376 90.9374 67.7345C91.7968 71.797 92.1093 76.0157 91.7186 80.1564C110.391 54.1407 93.2811 27.1876 86.0936 20.0782C86.0936 20.0001 86.0155 20.0001 86.0155 19.922C86.0155 20.2345 86.0155 20.547 85.9374 20.8595C85.8593 21.4845 85.7811 22.0314 85.703 22.5782C85.5468 23.1251 85.3905 23.7501 85.2343 24.297C85.078 24.8439 84.8436 25.3907 84.6093 25.9376C84.3749 26.4845 84.1405 27.0314 83.828 27.5001C83.5155 27.9689 83.203 28.5157 82.8905 28.9845C82.578 29.4532 82.1874 29.922 81.7968 30.3907C81.4061 30.8595 81.0155 31.2501 80.5468 31.7189C80.3124 31.9532 80.078 32.1876 79.7655 32.3439C79.5311 32.5001 79.3749 32.6564 79.1405 32.8907C78.6718 33.2814 78.203 33.5939 77.6561 33.9064C77.1874 34.2189 76.6405 34.5314 76.0936 34.7657L74.453 35.4689C73.9061 35.7032 73.3593 35.8595 72.8124 36.0157C72.2655 36.172 71.6405 36.3282 71.0936 36.4064C70.4686 36.4845 69.9218 36.5626 69.3749 36.6407C68.9843 36.6407 68.5155 36.7189 68.1249 36.7189C67.4999 36.7189 66.953 36.6407 66.4061 36.6407C65.7811 36.5626 65.2343 36.4845 64.6874 36.4064C64.0624 36.3282 63.5155 36.172 62.9686 35.9376C63.5155 35.8595 64.1405 35.8595 64.6874 35.7032C65.3124 35.6251 65.8593 35.4689 66.4061 35.3126C66.953 35.1564 67.578 35.0001 68.0468 34.7657L69.6874 34.0626C70.2343 33.8282 70.703 33.5157 71.2499 33.2032C71.7186 32.8907 72.2655 32.5001 72.7343 32.1876C73.203 31.797 73.6718 31.4064 74.0624 31.0157C74.5311 30.6251 74.9218 30.1564 75.3124 29.7657C75.703 29.297 76.0936 28.8282 76.4061 28.3595C76.4843 28.2814 76.4843 28.2032 76.5624 28.1251C76.7968 27.7345 77.1093 27.2657 77.3436 26.8751C77.6561 26.3282 77.8905 25.8595 78.1249 25.3126C78.3593 24.7657 78.5936 24.2189 78.7499 23.672L79.2186 22.0314C79.2968 21.4064 79.453 20.8595 79.453 20.3126C79.5311 19.6876 79.5311 19.1407 79.5311 18.5939C79.5311 18.2032 79.5311 17.7345 79.453 17.3439C79.3749 16.7189 79.2968 16.172 79.2186 15.6251C79.1405 15.0001 78.9843 14.4532 78.828 13.9064C78.6718 13.3595 78.4374 12.8126 78.2811 12.2657C78.0468 11.7189 77.8124 11.172 77.578 10.7032C77.2655 10.1564 77.0311 9.68762 76.7186 9.14075C76.4061 8.672 76.0155 8.20325 75.703 7.7345C75.3124 7.26575 74.9218 6.87512 74.5311 6.40637C74.2968 6.172 74.0624 5.93762 73.828 5.78137C72.6561 4.84387 71.4843 4.06262 70.2343 3.28137C70.078 3.20325 69.9218 3.12512 69.6874 3.047C68.6718 2.18762 67.8905 1.95325 67.1093 1.64075Z" fill="#DF234F"/>
</g>
<defs>
<clipPath id="clip0_74_574">
<rect width="100" height="100" fill="white"/>
</clipPath>
</defs>
</svg>
