<svg width="7" height="10" viewBox="0 0 7 10" fill="none" xmlns="http://www.w3.org/2000/svg">
<path d="M1.89956 0.383493C1.84985 0.307251 1.84584 0.209877 1.88924 0.129865C1.93254 0.0498526 2.01628 0 2.1073 0H4.89275C4.98377 0 5.06745 0.0498526 5.11081 0.129865C5.15416 0.209927 5.1502 0.307251 5.10049 0.383493L4.75837 0.908161C4.61536 1.14234 4.45985 1.53601 4.41654 1.87381H4.02253L4.12527 1.65198C4.18286 1.52767 4.12874 1.38025 4.00443 1.32271C3.88012 1.26512 3.73265 1.31928 3.67515 1.44354L3.51265 1.7945L3.27137 1.15157C3.22326 1.02334 3.0803 0.958361 2.95202 1.00653C2.82379 1.05464 2.75881 1.19765 2.80697 1.32588L3.01264 1.87381H2.54397C2.47686 1.35897 2.14446 0.766143 2.11082 0.707312L1.89956 0.383493ZM2.52125 5.54683C2.52125 5.8146 2.73887 6.03222 3.00634 6.03222H3.25198V5.06175H3.00634C2.73887 5.06175 2.52125 5.27937 2.52125 5.54683ZM3.74802 7.49877H3.99352C4.26108 7.49877 4.47875 7.28106 4.47875 7.01349C4.47875 6.74593 4.26108 6.52826 3.99352 6.52826H3.74802V7.49877ZM7 6.97569C7 8.76077 5.6262 9.91417 3.5 9.91417C1.3738 9.91417 0 8.76077 0 6.97569C0 5.62918 0.799229 3.57064 2.09044 2.59273C2.09351 2.5904 2.09664 2.58817 2.09981 2.58599C2.16479 2.54095 2.25795 2.46242 2.34302 2.36986H2.98302L2.84224 2.67384C2.78465 2.79814 2.83877 2.94557 2.96308 3.00311C2.99681 3.01874 3.03228 3.02613 3.06715 3.02613C3.1608 3.02613 3.25044 2.97285 3.2924 2.88227L3.49296 2.44918L3.73423 3.0921C3.77158 3.19166 3.86608 3.25307 3.96648 3.25307C3.9954 3.25307 4.02487 3.24796 4.05359 3.2372C4.18182 3.18908 4.2468 3.04607 4.19863 2.91784L3.99297 2.36986H4.61129C4.64309 2.40111 4.67657 2.42963 4.71045 2.45389C6.08028 3.33219 7 5.49956 7 6.97569ZM3.74802 6.03222V5.06175H4.72677C4.86373 5.06175 4.97479 4.95069 4.97479 4.81373C4.97479 4.67677 4.86373 4.56571 4.72677 4.56571H3.74802V4.38708C3.74802 4.25012 3.63696 4.13906 3.5 4.13906C3.36304 4.13906 3.25198 4.25012 3.25198 4.38708V4.56571H3.00634C2.46535 4.56571 2.02521 5.00585 2.02521 5.54713C2.02521 6.08812 2.46535 6.52826 3.00634 6.52826H3.25198V7.49877H2.27323C2.13627 7.49877 2.02521 7.60984 2.02521 7.7468C2.02521 7.88376 2.13627 7.99482 2.27323 7.99482H3.25198V8.25262C3.25198 8.38957 3.36304 8.50064 3.5 8.50064C3.63696 8.50064 3.74802 8.38957 3.74802 8.25262V7.99482H3.99352C4.5346 7.99482 4.97479 7.55458 4.97479 7.01349C4.97479 6.47241 4.5346 6.03222 3.99352 6.03222H3.74802V6.03222Z" fill="white"/>
</svg>
