<svg width="104" height="23" viewBox="0 0 104 23" fill="none" xmlns="http://www.w3.org/2000/svg">
<path fill-rule="evenodd" clip-rule="evenodd" d="M5.20365 2.85275C4.97015 3.07723 4.83594 3.42272 4.83594 3.87166V19.8404C4.83594 20.2893 4.97015 20.6348 5.21238 20.8515L5.27566 20.8993L15.2792 11.9517V11.7506L5.26694 2.80493L5.20365 2.85275Z" fill="url(#paint0_linear_101_1437)"/>
<path fill-rule="evenodd" clip-rule="evenodd" d="M18.6091 14.9467L15.2725 11.9612V11.7523L18.6102 8.76685L18.6823 8.80686L22.63 10.8134C23.7604 11.3834 23.7604 12.3223 22.63 12.9001L18.6823 14.9066C18.6812 14.9066 18.6091 14.9467 18.6091 14.9467Z" fill="url(#paint1_linear_101_1437)"/>
<path fill-rule="evenodd" clip-rule="evenodd" d="M18.6786 14.9068L15.2699 11.8569L5.20312 20.8612C5.57084 21.2145 6.18951 21.2545 6.88129 20.909L18.6786 14.9068Z" fill="url(#paint2_linear_101_1437)"/>
<path fill-rule="evenodd" clip-rule="evenodd" d="M18.6786 8.8077L6.88129 2.81332C6.1906 2.46002 5.57084 2.50784 5.20312 2.86114L15.2688 11.8566L18.6786 8.8077Z" fill="url(#paint3_linear_101_1437)"/>
<path opacity="0.2" fill-rule="evenodd" clip-rule="evenodd" d="M18.6077 14.8416L6.89106 20.7959C6.23637 21.1326 5.65262 21.1092 5.27618 20.8037L5.21289 20.8603L5.27618 20.9082C5.65262 21.2127 6.23637 21.2371 6.89106 20.9003L18.6884 14.906L18.6077 14.8416Z" fill="black"/>
<path opacity="0.12" fill-rule="evenodd" clip-rule="evenodd" d="M22.6271 12.7958L18.5986 14.8424L18.6706 14.9068L22.6184 12.9002C23.1836 12.6114 23.4618 12.2346 23.4618 11.8569C23.4258 12.2024 23.1388 12.5313 22.6271 12.7958Z" fill="black"/>
<path opacity="0.25" fill-rule="evenodd" clip-rule="evenodd" d="M6.88181 2.91743L22.6269 10.9184C23.1386 11.1751 23.4256 11.5118 23.4703 11.8573C23.4703 11.4805 23.1921 11.1029 22.6269 10.814L6.88181 2.813C5.7514 2.23523 4.83594 2.71638 4.83594 3.87192V3.97635C4.83594 2.82081 5.7514 2.34747 6.88181 2.91743Z" fill="white"/>
<path fill-rule="evenodd" clip-rule="evenodd" d="M26.9397 11.3502C26.9397 8.79218 29.3435 6.70947 32.2033 6.70947C33.7844 6.70947 34.9093 7.2648 35.7582 7.98799L34.7588 8.88197C34.1521 8.37252 33.3294 7.97725 32.2022 7.97725C30.1138 7.97725 28.4815 9.48121 28.4815 11.3492C28.4815 13.2172 30.1138 14.7231 32.2011 14.7231C33.5552 14.7231 34.3256 14.2371 34.8199 13.794C35.2247 13.4319 35.4898 12.9117 35.5924 12.1983H32.2033V10.9335H36.9738C37.0239 11.1599 37.0501 11.4312 37.0501 11.725C37.0501 12.6746 36.7588 13.8526 35.8215 14.6909C34.9093 15.54 33.7462 15.9929 32.2022 15.9929C29.3413 15.9929 26.9375 13.9121 26.9375 11.3521L26.9397 11.3502ZM40.9062 10.0151C39.0589 10.0151 37.551 11.2721 37.551 13.0025C37.551 14.7241 39.0578 15.9899 40.9062 15.9899C42.7546 15.9899 44.2593 14.7221 44.2593 13.0015C44.2593 11.2711 42.7535 10.0141 40.9062 10.0151ZM40.9062 14.8149C39.8947 14.8149 39.0207 14.0683 39.0207 13.0035C39.0207 11.928 39.8936 11.1921 40.9062 11.1921C41.9177 11.1921 42.7906 11.927 42.7906 13.0035C42.7906 14.0673 41.9188 14.8149 40.9062 14.8149ZM48.2223 10.0151C46.375 10.0151 44.8692 11.2721 44.8692 13.0025C44.8692 14.7241 46.375 15.9899 48.2223 15.9899C50.0696 15.9899 51.5753 14.7221 51.5753 13.0015C51.5753 11.2711 50.0706 10.0141 48.2223 10.0151ZM48.2223 14.8149C47.2108 14.8149 46.3368 14.0683 46.3368 13.0035C46.3368 11.928 47.2097 11.1921 48.2223 11.1921C49.2337 11.1921 50.1077 11.927 50.1077 13.0035C50.1077 14.0673 49.2337 14.8149 48.2223 14.8149ZM57.2012 10.1966V10.6826H57.151C56.8226 10.3303 56.1897 10.0141 55.3932 10.0141C53.7227 10.0141 52.1896 11.3277 52.1896 13.0152C52.1896 14.689 53.7216 15.9919 55.3932 15.9919C56.1897 15.9919 56.8226 15.6757 57.151 15.3136H57.2012V15.743C57.2012 16.8859 56.5182 17.4978 55.4172 17.4978C54.5181 17.4978 53.9616 16.92 53.7336 16.435L52.4548 16.9103C52.8214 17.7018 53.7969 18.6758 55.4161 18.6758C57.1357 18.6758 58.5913 17.7691 58.5913 15.5625V10.1956L57.2012 10.1966ZM55.5187 14.8149C54.5072 14.8149 53.6572 14.0556 53.6572 13.0152C53.6572 11.9631 54.5061 11.1931 55.5187 11.1931C56.5182 11.1931 57.3027 11.9621 57.3027 13.0152C57.3038 14.0556 56.5193 14.8149 55.5187 14.8149ZM59.605 7.02666H61.0736V15.8103H59.605V7.02666ZM65.0988 14.8149C64.3525 14.8149 63.82 14.5084 63.4807 13.9101L67.9478 12.2559L67.7939 11.9162C67.5168 11.2497 66.6679 10.0151 64.9341 10.0151C63.2134 10.0151 61.7829 11.2262 61.7829 13.0035C61.7829 14.6773 63.2003 15.9909 65.0988 15.9909C66.6308 15.9909 67.5168 15.1545 67.8834 14.6665L66.7443 13.9882C66.3635 14.4869 65.8441 14.8158 65.0988 14.8149ZM64.9843 11.1696C65.5658 11.1696 66.059 11.4302 66.2238 11.803L63.2363 12.9127C63.1992 11.7581 64.2368 11.1696 64.9843 11.1696Z" fill="white"/>
<path fill-rule="evenodd" clip-rule="evenodd" d="M74.3931 7.02661H70.8818V15.8103H72.3472V12.4832H74.3942C76.0189 12.4832 77.6163 11.4311 77.6163 9.75443C77.6163 8.08065 76.02 7.02759 74.3964 7.02759L74.3931 7.02661ZM74.4313 11.2603H72.3472V8.24852H74.4313C75.5268 8.24852 76.1509 9.0615 76.1509 9.75443C76.1509 10.4357 75.5268 11.2603 74.4313 11.2603ZM79.8892 15.8103V7.02661H78.4238V15.8103H79.8892ZM86.472 15.7947V12.4276C86.472 10.868 85.1691 9.99843 83.4877 9.99843C82.4282 9.99843 81.3294 10.4171 80.8744 11.3433L82.1751 11.8284C82.4533 11.3433 82.9705 11.1842 83.515 11.1842C84.2722 11.1842 85.0426 11.5912 85.0546 12.3154V12.4061C84.7894 12.2705 84.222 12.0665 83.5259 12.0665C82.1238 12.0665 80.6966 12.7555 80.6966 14.0438C80.6966 15.2198 81.8466 15.9762 83.1353 15.9762C84.1217 15.9762 84.664 15.5809 85.0044 15.1183H85.0546V15.7966H86.4709L86.472 15.7947ZM83.3131 14.8129C82.833 14.8129 82.1631 14.5982 82.1631 14.0682C82.1631 13.3899 82.9978 13.1283 83.7179 13.1283C84.3628 13.1283 84.665 13.2523 85.0579 13.4221C84.9455 14.2107 84.2002 14.8031 83.3131 14.8129ZM91.6254 10.1907L89.945 13.9979H89.8949L88.1512 10.1907H86.5724L89.1867 15.5136L87.6951 18.4737H89.2238L93.2534 10.1907H91.6254Z" fill="white"/>
<defs>
<linearGradient id="paint0_linear_101_1437" x1="14.3809" y1="3.70001" x2="-1.38184" y2="8.39564" gradientUnits="userSpaceOnUse">
<stop stop-color="#00A0FF"/>
<stop offset="0.007" stop-color="#00A1FF"/>
<stop offset="0.26" stop-color="#00BEFF"/>
<stop offset="0.512" stop-color="#00D2FF"/>
<stop offset="0.76" stop-color="#00DFFF"/>
<stop offset="1" stop-color="#00E3FF"/>
</linearGradient>
<linearGradient id="paint1_linear_101_1437" x1="24.101" y1="11.8572" x2="4.56321" y2="11.8572" gradientUnits="userSpaceOnUse">
<stop stop-color="#FFE000"/>
<stop offset="0.409" stop-color="#FFBD00"/>
<stop offset="0.775" stop-color="#FFA500"/>
<stop offset="1" stop-color="#FF9C00"/>
</linearGradient>
<linearGradient id="paint2_linear_101_1437" x1="16.8251" y1="13.5161" x2="5.96682" y2="33.9478" gradientUnits="userSpaceOnUse">
<stop stop-color="#FF3A44"/>
<stop offset="1" stop-color="#C31162"/>
</linearGradient>
<linearGradient id="paint3_linear_101_1437" x1="2.66906" y1="-2.45865" x2="7.51284" y2="6.66569" gradientUnits="userSpaceOnUse">
<stop stop-color="#32A071"/>
<stop offset="0.069" stop-color="#2DA771"/>
<stop offset="0.476" stop-color="#15CF74"/>
<stop offset="0.801" stop-color="#06E775"/>
<stop offset="1" stop-color="#00F076"/>
</linearGradient>
</defs>
</svg>
