<svg width="17" height="14" viewBox="0 0 17 14" fill="none" xmlns="http://www.w3.org/2000/svg">
<path d="M12.3654 5.14404C12.3654 5.29147 12.3068 5.43286 12.2025 5.53712C12.0983 5.64137 11.9569 5.69994 11.8095 5.69994C11.662 5.69994 11.5206 5.64137 11.4164 5.53712C11.3121 5.43286 11.2536 5.29147 11.2536 5.14404C11.2536 4.9966 11.3121 4.85521 11.4164 4.75095C11.5206 4.6467 11.662 4.58813 11.8095 4.58813C11.9569 4.58813 12.0983 4.6467 12.2025 4.75095C12.3068 4.85521 12.3654 4.9966 12.3654 5.14404ZM10.6976 6.81174C10.8451 6.81174 10.9865 6.75317 11.0907 6.64892C11.195 6.54466 11.2536 6.40327 11.2536 6.25584C11.2536 6.1084 11.195 5.96701 11.0907 5.86275C10.9865 5.7585 10.8451 5.69994 10.6976 5.69994C10.5502 5.69994 10.4088 5.7585 10.3046 5.86275C10.2003 5.96701 10.1417 6.1084 10.1417 6.25584C10.1417 6.40327 10.2003 6.54466 10.3046 6.64892C10.4088 6.75317 10.5502 6.81174 10.6976 6.81174ZM13.4772 6.25584C13.4772 6.40327 13.4186 6.54466 13.3143 6.64892C13.2101 6.75317 13.0687 6.81174 12.9213 6.81174C12.7738 6.81174 12.6324 6.75317 12.5282 6.64892C12.4239 6.54466 12.3654 6.40327 12.3654 6.25584C12.3654 6.1084 12.4239 5.96701 12.5282 5.86275C12.6324 5.7585 12.7738 5.69994 12.9213 5.69994C13.0687 5.69994 13.2101 5.7585 13.3143 5.86275C13.4186 5.96701 13.4772 6.1084 13.4772 6.25584ZM11.8095 7.92354C11.9569 7.92354 12.0983 7.86497 12.2025 7.76072C12.3068 7.65647 12.3654 7.51507 12.3654 7.36764C12.3654 7.2202 12.3068 7.07881 12.2025 6.97456C12.0983 6.8703 11.9569 6.81174 11.8095 6.81174C11.662 6.81174 11.5206 6.8703 11.4164 6.97456C11.3121 7.07881 11.2536 7.2202 11.2536 7.36764C11.2536 7.51507 11.3121 7.65647 11.4164 7.76072C11.5206 7.86497 11.662 7.92354 11.8095 7.92354ZM4.58275 4.58813H5.69455V5.69994H6.80635V6.81174H5.69455V7.92354H4.58275V6.81174H3.47095V5.69994H4.58275V4.58813Z" fill="white"/>
<path d="M2.97148 2.0678C2.95249 1.99721 2.94761 1.92356 2.95712 1.85108C2.96663 1.7786 2.99035 1.70871 3.0269 1.6454C3.06346 1.58209 3.11215 1.52662 3.17017 1.48216C3.2282 1.43769 3.29443 1.40511 3.36506 1.38627L5.51306 0.810358C5.5869 0.790679 5.66401 0.786437 5.73957 0.797898C5.81512 0.809358 5.88751 0.836273 5.95219 0.876964C6.01688 0.917654 6.07248 0.971245 6.11553 1.03439C6.15858 1.09753 6.18814 1.16888 6.20237 1.24396C6.9306 1.15613 7.70331 1.11388 8.47378 1.11388C9.27428 1.11388 10.0781 1.15946 10.8308 1.25397C10.8438 1.17774 10.8726 1.10507 10.9152 1.04059C10.9579 0.976115 11.0136 0.921249 11.0786 0.8795C11.1437 0.837751 11.2168 0.810038 11.2932 0.798133C11.3696 0.786228 11.4476 0.790391 11.5223 0.810358L13.6703 1.38627C13.7523 1.40821 13.8282 1.44862 13.8921 1.50441C13.956 1.56019 14.0063 1.62987 14.0392 1.70811C14.072 1.78634 14.0865 1.87106 14.0815 1.95576C14.0766 2.04046 14.0523 2.12291 14.0106 2.19677C14.1662 2.29683 14.3063 2.40802 14.4253 2.52698C14.8789 2.98059 15.2925 3.69437 15.6427 4.49709C15.9985 5.31204 16.3086 6.26596 16.5377 7.23879C16.7667 8.21161 16.9157 9.21779 16.9424 10.1361C16.9691 11.0434 16.8768 11.9172 16.5777 12.5932C16.4413 12.8967 16.2125 13.1493 15.924 13.3151C15.6355 13.4808 15.302 13.5511 14.9711 13.516C14.264 13.4415 13.7315 13.078 13.289 12.6566C13.0166 12.3987 12.7375 12.0718 12.4674 11.7583C12.3273 11.5937 12.1894 11.4336 12.0582 11.288C11.2488 10.3941 10.2827 9.59025 8.47378 9.59025C6.66488 9.59025 5.69873 10.3941 4.88934 11.288C4.75703 11.4336 4.62028 11.5937 4.4802 11.7583C4.21003 12.0718 3.93097 12.3975 3.65858 12.6566C3.21608 13.0791 2.68353 13.4415 1.97642 13.516C1.64556 13.5511 1.31206 13.4808 1.02355 13.3151C0.735037 13.1493 0.506256 12.8967 0.369869 12.5932C0.0696833 11.9172 -0.0214844 11.0423 0.00408703 10.1361C0.0307702 9.21779 0.181975 8.21272 0.409894 7.23879C0.638925 6.26596 0.950229 5.31204 1.30489 4.49709C1.65511 3.69437 2.0687 2.98059 2.5212 2.52698C2.66655 2.38442 2.82812 2.25941 3.00261 2.15452C2.98982 2.12616 2.9794 2.09678 2.97148 2.06669V2.0678ZM5.23511 2.52587C4.26006 2.73155 3.60187 3.01839 3.30836 3.31302C3.0015 3.61988 2.65573 4.18356 2.32441 4.94181C1.97293 5.76631 1.69465 6.62013 1.49279 7.49339C1.27954 8.3705 1.1533 9.2665 1.11589 10.1684C1.09143 11.0078 1.18482 11.6893 1.38606 12.1429C1.42727 12.2313 1.4951 12.3045 1.58004 12.3524C1.66498 12.4002 1.76276 12.4203 1.85968 12.4098C2.22324 12.372 2.53788 12.1885 2.89254 11.8516C3.12825 11.6271 3.33727 11.3814 3.5763 11.1023C3.72417 10.9289 3.88316 10.7432 4.06549 10.5419C4.98384 9.52687 6.22572 8.47956 8.47378 8.47956C10.7218 8.47956 11.9637 9.52687 12.8821 10.5419C13.0644 10.7432 13.2234 10.9289 13.3713 11.1023C13.6092 11.3814 13.8193 11.6271 14.055 11.8516C14.4086 12.1885 14.7232 12.372 15.0879 12.4109C15.1849 12.4213 15.2828 12.4011 15.3678 12.353C15.4527 12.305 15.5205 12.2315 15.5615 12.1429C15.7616 11.6893 15.8561 11.0089 15.8317 10.1684C15.7943 9.2665 15.668 8.3705 15.4548 7.49339C15.2529 6.62013 14.9746 5.76632 14.6232 4.94181C14.2918 4.18356 13.945 3.61877 13.6392 3.31302C13.3457 3.01839 12.6875 2.73155 11.7125 2.52587C10.7674 2.32685 9.62561 2.22568 8.47378 2.22568C7.32196 2.22568 6.18014 2.32685 5.23511 2.52587Z" fill="white"/>
</svg>
