<svg width="16" height="16" viewBox="0 0 16 16" fill="none" xmlns="http://www.w3.org/2000/svg">
<path d="M14.5324 6.53242H9.46815V1.46706C9.4682 0.658051 8.80984 0 8 0C7.19016 0 6.53185 0.658051 6.53185 1.46706V6.53242H1.46815C0.658621 6.53242 0 7.19104 0 8C0 8.8087 0.658362 9.46706 1.46815 9.46706H6.53185V14.5324C6.53185 15.3417 7.1899 16 8 16C8.80984 16 9.46815 15.3416 9.46815 14.5324V9.46706H14.5324C15.3417 9.46706 16 8.8087 16 8C16.0001 7.19104 15.3417 6.53242 14.5324 6.53242Z" fill="white"/>
</svg>
