<svg width="309" height="492" viewBox="0 0 309 492" fill="none" xmlns="http://www.w3.org/2000/svg">
<path fill-rule="evenodd" clip-rule="evenodd" d="M73.7998 358C73.7998 337.013 90.813 320 111.8 320C132.787 320 149.8 337.013 149.8 358C149.8 378.987 132.787 396 111.8 396C90.813 396 73.7998 378.987 73.7998 358ZM106.766 329.274C106.234 329.494 106.104 330.053 106.312 331.325C106.402 331.948 106.506 332.584 106.545 332.74C106.597 332.986 106.532 333.039 105.987 333.155C105.65 333.22 104.793 333.454 104.079 333.675C103.365 333.883 102.742 334.025 102.703 333.973C102.651 333.921 102.404 333.22 102.132 332.403C101.846 331.52 101.522 330.793 101.34 330.611C100.769 330.04 99.7306 330.339 99.5355 331.13C99.4969 331.299 99.7042 332.156 100.055 333.156L100.116 333.344L100.116 333.344C100.4 334.218 100.624 334.91 100.6 334.934C100.587 334.947 99.925 335.284 99.1331 335.674L97.7052 336.388L96.9261 334.817C95.9785 332.869 95.6926 332.519 95.1216 332.519C94.8879 332.519 94.5505 332.636 94.3554 332.791C93.8101 333.22 93.9009 333.713 94.9265 335.751L95.822 337.556L95.0823 338.114C94.6799 338.412 94.0309 338.918 93.6543 339.243L92.9661 339.827L91.4995 338.373C90.1623 337.062 89.9936 336.932 89.552 336.932C88.9288 336.932 88.4356 337.4 88.4356 337.984C88.4356 338.334 88.6436 338.62 89.8893 339.879C90.9928 340.995 91.3173 341.398 91.2265 341.528C91.1486 341.631 90.8241 342.021 90.4997 342.41C90.1623 342.787 89.5649 343.566 89.1496 344.137C86.6182 347.681 85.0344 351.549 83.8273 357.119C83.7751 357.352 83.6715 357.378 82.8925 357.378C82.1656 357.378 81.8926 357.443 81.4124 357.728C78.8172 359.261 77.8174 363.324 79.2975 366.401C80.1802 368.257 81.6474 369.347 83.1011 369.218C83.5035 369.192 83.9187 369.127 84.0231 369.075C84.1789 369.01 84.3089 369.269 84.6463 370.321C86.2815 375.514 89.6563 379.979 94.2775 383.081C96.7832 384.756 100.482 386.275 103.702 386.963C108.116 387.885 113.997 388.054 118.579 387.365C124.979 386.405 130.457 383.705 134.338 379.602C138.531 375.188 140.673 369.918 141.076 363.116L141.166 361.597H141.517C142.062 361.597 143.113 361.026 143.593 360.494C144.736 359.183 145.255 356.962 144.866 355.041C144.412 352.848 143.152 351.057 141.465 350.226C140.608 349.797 140.427 349.758 139.751 349.81C139.336 349.849 138.907 349.914 138.804 349.966C138.661 350.018 138.401 349.616 137.739 348.252C136.26 345.202 134.39 342.618 131.976 340.308C130.925 339.295 128.38 337.296 127.991 337.153C127.887 337.127 128.107 336.543 128.653 335.414C129.535 333.596 129.562 333.402 129.029 332.804C128.718 332.467 128.095 332.428 127.666 332.726C127.511 332.83 127.043 333.583 126.654 334.375C126.313 335.056 126.009 335.636 125.916 335.813L125.916 335.814L125.916 335.814L125.916 335.814L125.888 335.868C125.862 335.907 124.032 335.038 123.914 334.933C123.902 334.92 124.148 334.116 124.46 333.142C124.797 332.116 125.005 331.272 124.953 331.13C124.784 330.637 124.356 330.312 123.875 330.312C123.2 330.312 122.953 330.662 122.382 332.389C122.11 333.207 121.85 333.933 121.798 333.999C121.707 334.076 119.591 333.492 119.591 333.375C119.591 333.363 119.78 332.798 120.011 332.105L120.046 332C120.669 330.169 120.656 329.689 119.968 329.338C119.02 328.845 118.644 329.195 117.969 331.233C117.67 332.116 117.371 332.843 117.306 332.843C117.255 332.843 116.754 332.771 116.1 332.677L115.541 332.596L113.879 332.35V331.103C113.867 329.805 113.789 329.572 113.269 329.299C112.815 329.052 112.451 329.117 112.049 329.52C111.685 329.883 111.672 329.948 111.672 331.064V332.233L111.322 332.31C110.985 332.363 109.167 332.531 108.882 332.531C108.817 332.531 108.661 331.947 108.531 331.233C108.285 329.766 108.155 329.442 107.701 329.273C107.311 329.118 107.156 329.118 106.766 329.274ZM111.673 335.764C111.673 337.127 111.842 337.725 112.257 337.894C112.712 338.062 113.243 337.971 113.555 337.647C113.854 337.348 113.879 337.245 113.879 335.96C113.879 334.96 113.918 334.597 114.048 334.597C114.373 334.597 116.502 334.973 116.58 335.038C116.618 335.09 116.514 335.544 116.346 336.064C116.099 336.882 116.073 337.064 116.216 337.336C116.462 337.791 116.748 337.959 117.228 337.972C117.825 337.972 118.202 337.557 118.553 336.466C118.656 336.14 118.759 335.848 118.817 335.684C118.846 335.6 118.864 335.549 118.864 335.544C118.955 335.441 121.019 336.193 121.019 336.323C121.019 336.414 120.902 336.856 120.747 337.297C120.513 337.985 120.5 338.141 120.656 338.452C120.864 338.894 121.448 339.192 121.876 339.088C122.356 338.958 122.655 338.595 122.902 337.829C123.032 337.44 123.148 337.115 123.161 337.089C123.187 337.064 123.576 337.245 124.044 337.466L124.888 337.894L124.382 338.907C123.771 340.114 123.746 340.465 124.252 340.971C124.979 341.685 125.732 341.321 126.394 339.933C126.614 339.491 126.835 339.141 126.913 339.141C127.238 339.154 129.496 340.984 130.82 342.321C134.312 345.799 136.532 349.85 137.895 355.237C138.752 358.599 139.051 361.52 138.817 364.155C138.518 367.556 137.908 369.802 136.467 372.697C133.559 378.551 128.588 382.601 122.11 384.38C116.476 385.925 108.453 385.99 102.793 384.51C98.535 383.407 94.9915 381.395 92.1092 378.461C90.7334 377.046 90.2531 376.449 89.3054 375.034C86.5145 370.802 85.281 365.791 85.6962 360.417C86.1636 354.355 88.3963 348.552 91.9276 344.177C92.3693 343.619 92.7974 343.126 92.8753 343.086C92.9403 343.034 93.3684 343.359 93.8101 343.8C94.4462 344.437 94.6928 344.592 95.0172 344.592C95.6012 344.592 95.822 344.476 96.0428 344.047C96.3415 343.476 96.1857 343.112 95.3031 342.191L94.5241 341.373L95.6404 340.504C96.2508 340.023 96.7961 339.673 96.8476 339.712C96.8869 339.764 97.0813 340.075 97.2628 340.413C97.7952 341.386 98.5607 341.607 99.2103 340.958C99.5741 340.594 99.5348 340.036 99.0803 339.141L98.6908 338.362L100.002 337.713C100.728 337.349 101.326 337.064 101.352 337.089C101.364 337.115 101.482 337.453 101.611 337.842C101.883 338.699 102.104 338.971 102.584 339.076C103 339.166 103.675 338.881 103.804 338.556C103.935 338.206 103.895 337.647 103.688 337.063C103.584 336.764 103.494 336.427 103.494 336.336C103.494 336.115 106.752 335.09 106.933 335.258C106.959 335.297 107.063 335.791 107.141 336.349C107.258 337.115 107.375 337.453 107.596 337.673C108.024 338.089 108.725 338.076 109.167 337.634C109.192 337.609 109.215 337.587 109.236 337.567C109.299 337.505 109.348 337.458 109.382 337.403C109.491 337.226 109.457 336.962 109.316 335.854C109.299 335.713 109.279 335.558 109.258 335.389L109.167 334.752L110.062 334.662C110.854 334.597 111.231 334.545 111.581 334.48C111.634 334.479 111.673 335.051 111.673 335.764ZM140.946 352.251C142.075 352.952 142.932 355.223 142.802 357.158C142.724 358.197 142.452 358.794 141.88 359.131C141.244 359.521 141.036 359.469 140.946 358.898C140.647 357.093 140.179 354.847 139.842 353.679C139.635 352.926 139.453 352.238 139.453 352.16C139.453 351.887 140.465 351.952 140.946 352.251ZM83.4256 362.571C83.4649 364.207 83.5421 365.842 83.6071 366.18C83.7372 366.881 83.5943 367.049 82.8803 367.049C81.4916 367.049 80.5175 364.752 80.8684 362.311C81.115 360.584 81.959 359.455 82.9453 359.546L83.3734 359.585L83.4256 362.571ZM109.934 347.331C111.66 344.176 114.814 341.918 118.293 341.308C118.476 341.282 119.215 341.243 119.956 341.23C123.097 341.19 125.928 342.359 128.238 344.657C129.407 345.825 129.835 346.396 130.614 347.902C131.263 349.149 131.639 350.576 131.743 352.173C131.872 354.211 131.198 356.756 129.951 358.833C129.29 359.936 127.615 361.636 126.343 362.493C124.46 363.753 122.422 364.362 120.111 364.349C116.931 364.349 114.049 363.077 111.725 360.676C108.142 356.963 107.454 351.836 109.934 347.331ZM126.68 345.981C125.745 345.059 124.447 344.28 123.135 343.852C121.837 343.424 119.384 343.32 117.969 343.631C116.061 344.047 113.919 345.358 112.777 346.773C112.179 347.525 111.05 349.603 111.18 349.72C111.245 349.785 128.172 348.123 128.25 348.045C128.354 347.954 127.355 346.643 126.68 345.981ZM129.419 352.329C129.47 352.29 129.445 351.835 129.367 351.329C129.275 350.823 129.172 350.356 129.107 350.317C129.056 350.265 127.744 350.356 126.213 350.511C124.681 350.68 123.253 350.81 123.058 350.81C122.734 350.823 122.708 350.862 122.799 351.109C122.85 351.278 122.902 351.771 122.902 352.212C122.902 352.939 122.928 353.03 123.162 353.03C123.837 353.017 129.341 352.407 129.419 352.329ZM118.721 352.887C118.605 352.537 118.578 352.147 118.631 351.784C118.67 351.472 118.696 351.225 118.669 351.225C118.654 351.233 118.074 351.295 117.182 351.389C116.505 351.461 115.648 351.553 114.723 351.654L110.828 352.056L110.79 353.016C110.763 353.549 110.777 354.042 110.816 354.133C110.854 354.237 111.919 354.172 114.866 353.861C117.073 353.627 118.89 353.432 118.89 353.432C118.903 353.42 118.825 353.173 118.721 352.887ZM123.188 361.663C126.005 360.767 128.315 358.417 129.133 355.587C129.25 355.185 129.327 354.795 129.302 354.744C129.263 354.653 111.556 356.367 111.439 356.471C111.361 356.548 111.972 357.652 112.53 358.444C114.815 361.65 119.112 362.961 123.188 361.663ZM97.0167 346.811C96.0168 346.98 94.6282 347.486 93.7841 347.993C93.3689 348.227 92.5506 348.914 91.9409 349.524C90.9804 350.472 90.7338 350.822 90.1628 351.991C89.3323 353.691 89.085 354.704 89.0593 356.496C89.0464 357.962 89.2151 358.897 89.7475 360.118C91.2276 363.519 94.9269 365.881 98.7569 365.881C100.301 365.881 101.522 365.609 102.781 364.985C105.3 363.739 107.13 361.493 107.935 358.663C108.377 357.119 108.35 354.782 107.87 353.354C106.831 350.239 104.221 347.889 100.768 346.98C99.8468 346.734 97.9122 346.643 97.0167 346.811ZM100.561 349.071C101.599 349.343 102.949 350.07 103.547 350.68L104.027 351.173L97.6792 353.458C94.1736 354.717 91.2791 355.756 91.2269 355.756C91.0969 355.756 91.2656 354.77 91.5643 353.848C92.2783 351.628 94.2515 349.85 96.783 349.122C97.7957 348.837 99.561 348.811 100.561 349.071ZM105.688 354.029C105.844 354.471 105.96 354.912 105.96 355.003C105.96 355.106 104.818 355.587 103.092 356.21C101.508 356.781 100.184 357.261 100.132 357.287C100.08 357.3 100.067 357.093 100.093 356.833C100.118 356.496 100.028 356.145 99.8333 355.742L99.5217 355.145L102.39 354.106C103.961 353.535 105.285 353.107 105.337 353.146C105.376 353.186 105.545 353.588 105.688 354.029ZM95.7052 356.846C95.7052 357.314 95.9389 357.846 96.2891 358.222L96.6007 358.547L94.5238 359.299C93.3682 359.715 92.369 360.026 92.2783 360C92.1353 359.948 91.6293 358.767 91.525 358.248C91.4993 358.131 92.1482 357.82 93.4983 357.313C94.6017 356.898 95.5494 356.561 95.6145 356.547C95.6666 356.535 95.7052 356.678 95.7052 356.846ZM105.883 358.248C104.91 361.935 100.885 364.414 97.1339 363.622C96.0561 363.402 94.4859 362.688 94.0571 362.22L93.7713 361.922L99.7689 359.754C103.067 358.56 105.831 357.586 105.922 357.573C106.025 357.573 106.025 357.755 105.883 358.248ZM100.574 377.851C104.352 371.762 110.946 367.686 118.268 366.92C119.721 366.777 122.798 366.881 124.239 367.129C125.901 367.414 127.667 367.908 129.12 368.492C129.821 368.765 130.432 368.985 130.457 368.946C130.483 368.92 130.535 368.673 130.574 368.401C130.743 367.129 130.99 366.791 131.73 366.791C132.768 366.791 133.093 367.752 132.599 369.349C131.938 371.452 129.926 373.139 127.81 373.36C127.044 373.438 126.992 373.438 126.615 373.048C125.771 372.204 126.239 371.309 127.589 371.166C129.081 371.01 129.159 370.841 127.939 370.374C118.476 366.765 108.207 370.127 102.729 378.591C101.859 379.941 101.872 380.032 102.82 380.032C103.546 380.032 104.014 380.46 104.014 381.135C104.014 381.823 103.546 382.239 102.78 382.239C102.079 382.239 100.82 381.836 100.093 381.382C97.9125 380.005 96.5754 376.41 97.9904 375.761C98.9124 375.346 99.5092 375.8 99.6392 377.007C99.7171 377.76 99.9508 378.474 100.107 378.474C100.146 378.474 100.353 378.201 100.574 377.851Z" fill="white"/>
<path d="M68.216 346.64C68.216 351.285 67.1413 355.515 64.992 359.328C62.8427 363.072 59.6533 366.053 55.424 368.272C51.264 370.491 46.2027 371.6 40.24 371.6H31.088V395H8V321.368H40.24C49.2533 321.368 56.152 323.656 60.936 328.232C65.7893 332.808 68.216 338.944 68.216 346.64ZM37.64 353.4C42.424 353.4 44.816 351.147 44.816 346.64C44.816 342.133 42.424 339.88 37.64 339.88H31.088V353.4H37.64Z" fill="white"/>
<path d="M228.116 395H205.028L180.588 357.976V395H157.5V321.368H180.588L205.028 359.016V321.368H228.116V395Z" fill="white"/>
<path d="M283.683 346.536C282.782 345.08 281.499 343.971 279.835 343.208C278.171 342.376 276.16 341.96 273.803 341.96C269.366 341.96 265.934 343.416 263.507 346.328C261.08 349.171 259.867 353.088 259.867 358.08C259.867 363.835 261.219 368.133 263.923 370.976C266.627 373.819 270.787 375.24 276.403 375.24C281.742 375.24 286.04 373.091 289.299 368.792H270.891V352.464H308.435V375.552C305.246 381.029 300.843 385.744 295.227 389.696C289.611 393.579 282.504 395.52 273.907 395.52C266.28 395.52 259.624 393.96 253.939 390.84C248.323 387.651 243.99 383.213 240.939 377.528C237.958 371.843 236.467 365.36 236.467 358.08C236.467 350.8 237.958 344.317 240.939 338.632C243.99 332.947 248.323 328.544 253.939 325.424C259.555 322.235 266.142 320.64 273.699 320.64C283.336 320.64 291.171 322.963 297.203 327.608C303.304 332.253 306.91 338.563 308.019 346.536H283.683Z" fill="white"/>
<path d="M8.85659 439.345C9.07074 431.138 11.5334 424.862 16.2447 420.517C21.0273 416.172 27.773 414 36.4817 414C42.1209 414 46.9392 414.931 50.9367 416.793C54.9341 418.655 57.9322 421.172 59.9309 424.345C62.001 427.517 63.036 431.103 63.036 435.103C63.036 439.931 61.8582 443.724 59.5026 446.483C57.147 449.172 54.5058 451 51.5791 451.966V452.379C60.145 455.483 64.428 461.241 64.428 469.655C64.428 474.069 63.3572 477.966 61.2158 481.345C59.0743 484.724 56.0048 487.345 52.0074 489.207C48.0814 491.069 43.4058 492 37.9807 492C28.701 492 21.4199 489.862 16.1376 485.586C10.8553 481.31 8.14277 474.621 8 465.517H31.128C30.9852 468 31.3421 469.897 32.1987 471.207C33.1267 472.448 34.6971 473.069 36.91 473.069C38.1949 473.069 39.2656 472.621 40.1222 471.724C40.9788 470.759 41.4071 469.517 41.4071 468C41.4071 466.069 40.7289 464.621 39.3727 463.655C38.0878 462.621 35.8749 462.103 32.7341 462.103H28.7724V443.586H32.627C37.481 443.862 39.908 442 39.908 438C39.908 436.276 39.5154 435 38.7302 434.172C38.0164 433.345 37.0884 432.931 35.9463 432.931C33.3051 432.931 31.9846 435.069 31.9846 439.345H8.85659Z" fill="white"/>
<path d="M148.078 418.034L120.881 469.034V491.276H97.1106V469.034L69.9138 418.034H97.1106L109.21 444L121.309 418.034H148.078Z" fill="white"/>
<path d="M202.093 480.207H176.824L173.076 491.276H148.128L175.86 418.034H203.271L230.896 491.276H205.841L202.093 480.207ZM196.311 462.931L189.459 442.552L182.606 462.931H196.311Z" fill="white"/>
<path d="M309 491.276H285.23L260.067 454.448V491.276H236.297V418.034H260.067L285.23 455.483V418.034H309V491.276Z" fill="white"/>
<rect width="301" height="298" rx="149" fill="#151B26"/>
<rect x="20.1515" y="20" width="260.698" height="258" rx="129" stroke="#E30039" stroke-width="10"/>
<path d="M137.784 91.3362C136.439 91.8885 136.113 93.2843 136.636 96.4656C136.865 98.0241 137.127 99.6147 137.226 100.004C137.358 100.621 137.194 100.751 135.817 101.043C134.964 101.205 132.8 101.79 130.996 102.342C129.193 102.862 127.619 103.218 127.521 103.089C127.39 102.959 126.767 101.205 126.079 99.1608C125.357 96.9535 124.537 95.1358 124.079 94.6801C122.636 93.2521 120.013 93.9992 119.521 95.9794C119.423 96.4012 119.947 98.5441 120.833 101.044C121.62 103.447 122.275 105.427 122.21 105.491C122.178 105.523 120.504 106.367 118.504 107.341L114.897 109.127L112.93 105.198C110.536 100.328 109.814 99.4521 108.371 99.4521C107.781 99.4521 106.929 99.7435 106.436 100.133C105.059 101.204 105.288 102.439 107.879 107.534L110.141 112.047L108.272 113.443C107.256 114.19 105.617 115.455 104.665 116.267L102.927 117.727L99.2224 114.092C95.8448 110.814 95.4187 110.488 94.3031 110.488C92.7289 110.488 91.4833 111.657 91.4833 113.118C91.4833 113.993 92.0086 114.708 95.1552 117.857C97.9425 120.649 98.7621 121.655 98.5328 121.981C98.336 122.24 97.5165 123.214 96.6969 124.188C95.8448 125.13 94.3356 127.078 93.2867 128.506C86.8926 137.369 82.8921 147.041 79.8431 160.969C79.7113 161.554 79.4495 161.618 77.4818 161.618C75.6459 161.618 74.9563 161.781 73.7432 162.494C67.1882 166.326 64.6627 176.486 68.4013 184.181C70.6308 188.822 74.3369 191.549 78.0088 191.226C79.0252 191.162 80.074 190.999 80.3376 190.868C80.7311 190.706 81.0596 191.355 81.9117 193.985C86.0422 206.97 94.5666 218.137 106.239 225.895C112.569 230.083 121.913 233.881 130.045 235.602C141.194 237.907 156.048 238.329 167.623 236.608C183.789 234.206 197.626 227.454 207.429 217.195C218.02 206.157 223.431 192.977 224.447 175.966L224.676 172.168H225.561C226.938 172.168 229.594 170.74 230.807 169.409C233.692 166.131 235.004 160.578 234.02 155.774C232.874 150.289 229.693 145.81 225.431 143.731C223.266 142.661 222.808 142.563 221.102 142.693C220.053 142.79 218.97 142.952 218.708 143.083C218.347 143.213 217.692 142.207 216.02 138.797C212.283 131.169 207.561 124.708 201.463 118.93C198.807 116.397 192.38 111.398 191.396 111.041C191.135 110.976 191.691 109.514 193.068 106.691C195.298 102.146 195.364 101.659 194.019 100.165C193.232 99.3217 191.658 99.2234 190.577 99.9705C190.183 100.23 189.003 102.113 188.019 104.094C187.002 106.106 186.116 107.763 186.084 107.827C186.019 107.925 181.395 105.75 181.099 105.49C181.067 105.457 181.69 103.445 182.477 101.009C183.329 98.4442 183.854 96.3335 183.722 95.9778C183.296 94.7445 182.215 93.9331 181 93.9331C179.296 93.9331 178.671 94.8089 177.229 99.1269C176.541 101.172 175.884 102.989 175.754 103.152C175.525 103.347 170.179 101.886 170.179 101.593C170.179 101.561 170.705 100.003 171.328 98.1528C172.902 93.5757 172.869 92.3746 171.131 91.4971C168.737 90.2639 167.786 91.1397 166.082 96.2369C165.327 98.4442 164.572 100.262 164.408 100.262C164.244 100.262 162.244 99.9705 159.949 99.6452L155.752 99.0286V95.9117C155.719 92.666 155.523 92.0816 154.21 91.3989C153.062 90.7823 152.145 90.9449 151.129 91.9511C150.21 92.8608 150.177 93.0217 150.177 95.8134V98.7356L149.293 98.9304C148.441 99.0608 143.85 99.4826 143.128 99.4826C142.964 99.4826 142.57 98.0224 142.243 96.2369C141.62 92.5677 141.292 91.7563 140.145 91.3345C139.162 90.9466 138.768 90.9466 137.784 91.3362ZM150.179 107.568C150.179 110.976 150.605 112.47 151.654 112.892C152.802 113.314 154.145 113.087 154.932 112.276C155.687 111.529 155.752 111.269 155.752 108.056C155.752 105.556 155.849 104.648 156.178 104.648C156.998 104.648 162.375 105.589 162.572 105.752C162.67 105.883 162.408 107.018 161.982 108.317C161.359 110.361 161.292 110.817 161.653 111.498C162.276 112.635 162.998 113.057 164.211 113.089C165.719 113.089 166.67 112.05 167.556 109.323C167.95 108.09 168.344 107.051 168.344 107.018C168.573 106.758 173.786 108.64 173.786 108.966C173.786 109.193 173.49 110.297 173.099 111.4C172.508 113.121 172.476 113.511 172.869 114.29C173.395 115.394 174.869 116.14 175.951 115.88C177.164 115.555 177.919 114.647 178.541 112.731C178.87 111.757 179.164 110.946 179.197 110.881C179.262 110.817 180.246 111.271 181.426 111.823L183.558 112.894L182.28 115.426C180.738 118.445 180.673 119.323 181.951 120.588C183.787 122.374 185.69 121.464 187.362 117.991C187.92 116.887 188.476 116.011 188.674 116.011C189.494 116.043 195.198 120.62 198.543 123.964C207.364 132.663 212.971 142.791 216.414 156.264C218.578 164.671 219.333 171.975 218.742 178.565C217.988 187.071 216.446 192.686 212.807 199.926C205.461 214.566 192.904 224.694 176.541 229.143C162.31 233.007 142.046 233.167 127.749 229.468C116.993 226.708 108.043 221.677 100.762 214.34C97.2872 210.802 96.074 209.309 93.6803 205.77C86.6308 195.188 83.515 182.656 84.5638 169.218C85.7445 154.058 91.3841 139.546 100.304 128.606C101.419 127.21 102.501 125.977 102.698 125.878C102.862 125.748 103.943 126.559 105.059 127.664C106.665 129.255 107.288 129.644 108.108 129.644C109.583 129.644 110.141 129.353 110.698 128.28C111.453 126.852 111.059 125.943 108.83 123.639L106.862 121.594L109.682 119.419C111.224 118.218 112.601 117.342 112.731 117.439C112.83 117.569 113.321 118.349 113.78 119.192C115.125 121.626 117.058 122.179 118.699 120.556C119.618 119.646 119.519 118.25 118.371 116.011L117.387 114.063L120.698 112.44C122.534 111.53 124.043 110.817 124.108 110.881C124.14 110.946 124.436 111.791 124.763 112.764C125.451 114.906 126.009 115.587 127.222 115.848C128.271 116.075 129.977 115.362 130.304 114.549C130.632 113.673 130.533 112.276 130.009 110.815C129.747 110.068 129.518 109.225 129.518 108.998C129.518 108.446 137.748 105.881 138.207 106.303C138.272 106.399 138.535 107.634 138.732 109.03C139.026 110.946 139.322 111.789 139.88 112.342C140.962 113.38 142.733 113.348 143.848 112.243C144.767 111.334 144.733 111.789 144.077 106.628L143.848 105.037L146.11 104.81C148.11 104.648 149.062 104.519 149.946 104.356C150.08 104.355 150.179 105.783 150.179 107.568ZM224.12 148.796C226.973 150.55 229.137 156.23 228.808 161.068C228.612 163.665 227.924 165.159 226.48 166.002C224.873 166.976 224.348 166.846 224.118 165.418C223.364 160.905 222.183 155.29 221.331 152.367C220.808 150.484 220.349 148.764 220.349 148.569C220.349 147.887 222.905 148.049 224.12 148.796ZM78.8284 174.604C78.9276 178.695 79.1227 182.785 79.287 183.628C79.6155 185.382 79.2545 185.803 77.451 185.803C73.9434 185.803 71.4829 180.057 72.3692 173.954C72.992 169.636 75.124 166.812 77.6153 167.039L78.6967 167.136L78.8284 174.604Z" fill="#E30039"/>
<path d="M166.901 121.43C158.113 122.956 150.144 128.604 145.785 136.493C139.522 147.758 141.259 160.58 150.31 169.865C156.179 175.87 163.46 179.051 171.493 179.051C177.329 179.083 182.478 177.559 187.233 174.41C190.446 172.267 194.676 168.015 196.348 165.255C199.496 160.062 201.2 153.699 200.873 148.602C200.612 144.609 199.66 141.038 198.021 137.921C196.053 134.155 194.972 132.727 192.021 129.805C186.184 124.059 179.035 121.137 171.101 121.235C169.229 121.267 167.361 121.366 166.901 121.43ZM179.131 127.793C182.444 128.863 185.722 130.811 188.083 133.117C189.789 134.772 192.313 138.052 192.051 138.279C191.855 138.473 149.097 142.629 148.933 142.466C148.604 142.175 151.457 136.979 152.966 135.097C155.851 131.558 161.261 128.281 166.081 127.24C169.655 126.461 175.853 126.722 179.131 127.793ZM194.871 146.491C195.068 147.756 195.133 148.893 195.003 148.991C194.806 149.186 180.904 150.712 179.198 150.745C178.608 150.745 178.543 150.518 178.543 148.7C178.543 147.596 178.411 146.362 178.281 145.94C178.052 145.324 178.117 145.226 178.936 145.193C179.429 145.193 183.034 144.868 186.904 144.446C190.773 144.057 194.086 143.83 194.216 143.96C194.378 144.057 194.64 145.226 194.871 146.491ZM167.753 147.628C167.621 148.537 167.688 149.511 167.982 150.387C168.244 151.102 168.441 151.719 168.408 151.751C168.408 151.751 163.817 152.237 158.243 152.821C150.8 153.601 148.11 153.763 148.012 153.502C147.915 153.275 147.881 152.042 147.947 150.711L148.045 148.309L157.882 147.302C163.292 146.718 167.784 146.264 167.85 146.232C167.917 146.232 167.852 146.848 167.753 147.628ZM194.281 157.139C192.216 164.217 186.379 170.092 179.263 172.333C168.968 175.579 158.114 172.301 152.343 164.283C150.933 162.303 149.392 159.543 149.588 159.348C149.883 159.089 194.609 154.803 194.707 155.03C194.772 155.159 194.575 156.133 194.281 157.139Z" fill="white"/>
<path d="M113.159 135.194C110.633 135.616 107.126 136.881 104.994 138.148C103.945 138.733 101.878 140.452 100.338 141.978C97.9119 144.348 97.289 145.224 95.8466 148.146C93.7489 152.398 93.1243 154.93 93.0593 159.411C93.0268 163.079 93.4529 165.416 94.7978 168.469C98.5364 176.974 107.88 182.881 117.555 182.881C121.456 182.881 124.539 182.2 127.72 180.642C134.082 177.525 138.705 171.909 140.738 164.832C141.853 160.97 141.787 155.125 140.573 151.554C137.949 143.765 131.358 137.889 122.635 135.616C120.308 134.999 115.421 134.772 113.159 135.194ZM122.111 140.843C124.734 141.524 128.144 143.344 129.653 144.868L130.867 146.101L114.832 151.815C105.978 154.964 98.6664 157.561 98.5347 157.561C98.2062 157.561 98.6322 155.095 99.3868 152.789C101.19 147.238 106.174 142.791 112.569 140.972C115.127 140.259 119.586 140.194 122.111 140.843ZM135.062 153.243C135.456 154.348 135.75 155.451 135.75 155.678C135.75 155.937 132.865 157.138 128.504 158.696C124.503 160.124 121.158 161.325 121.028 161.391C120.896 161.424 120.864 160.905 120.929 160.255C120.994 159.411 120.765 158.534 120.274 157.527L119.486 156.033L126.733 153.436C130.701 152.008 134.044 150.936 134.176 151.034C134.275 151.134 134.701 152.14 135.062 153.243ZM109.846 160.289C109.846 161.457 110.437 162.789 111.321 163.729L112.108 164.54L106.862 166.423C103.943 167.461 101.419 168.24 101.19 168.176C100.829 168.045 99.551 165.091 99.2875 163.793C99.2225 163.5 100.862 162.723 104.272 161.456C107.059 160.417 109.453 159.574 109.617 159.54C109.749 159.509 109.846 159.867 109.846 160.289ZM135.555 163.793C133.096 173.014 122.931 179.214 113.455 177.234C110.733 176.681 106.767 174.896 105.683 173.727L104.961 172.98L120.111 167.559C128.44 164.573 135.423 162.138 135.654 162.105C135.914 162.106 135.914 162.56 135.555 163.793Z" fill="white"/>
<path d="M166.836 185.48C148.343 187.396 131.686 197.589 122.143 212.814C121.585 213.69 121.062 214.373 120.963 214.373C120.569 214.373 119.979 212.587 119.782 210.705C119.453 207.686 117.946 206.55 115.617 207.588C112.043 209.211 115.42 218.203 120.928 221.645C122.764 222.782 125.945 223.788 127.716 223.788C129.651 223.788 130.832 222.749 130.832 221.028C130.832 219.339 129.651 218.269 127.815 218.269C125.422 218.269 125.389 218.042 127.586 214.666C141.423 193.499 167.361 185.092 191.264 194.118C194.346 195.286 194.149 195.708 190.38 196.098C186.97 196.455 185.789 198.695 187.921 200.805C188.872 201.779 189.004 201.779 190.938 201.585C196.283 201.032 201.365 196.813 203.036 191.553C204.282 187.56 203.462 185.158 200.839 185.158C198.971 185.158 198.348 186.002 197.92 189.183C197.821 189.864 197.691 190.482 197.626 190.547C197.561 190.643 196.019 190.093 194.248 189.41C190.576 187.95 186.116 186.715 181.919 186.002C178.279 185.382 170.508 185.122 166.836 185.48Z" fill="#E30039"/>
<mask id="path-10-inside-1_48_653" fill="white">
<path fill-rule="evenodd" clip-rule="evenodd" d="M197.999 81.1673C198.015 81.4425 197.994 81.7227 197.923 82.001L193.407 99.7212C192.57 99.3189 191.423 99.3861 190.577 99.9705C190.183 100.23 189.003 102.113 188.019 104.094C187.157 105.8 186.388 107.251 186.155 107.692C186.113 107.771 186.089 107.817 186.084 107.827C186.019 107.925 181.395 105.75 181.099 105.489C181.067 105.457 181.69 103.445 182.477 101.009C183.329 98.4442 183.854 96.3335 183.722 95.9777C183.296 94.7445 182.215 93.9331 181 93.9331C179.296 93.9331 178.671 94.8089 177.229 99.1268C176.541 101.171 175.884 102.989 175.754 103.152C175.525 103.347 170.179 101.886 170.179 101.593C170.179 101.563 170.656 100.146 171.24 98.4126L171.328 98.1528C172.902 93.5756 172.869 92.3746 171.131 91.4971C168.737 90.2639 167.786 91.1397 166.082 96.2369C165.327 98.4442 164.572 100.262 164.408 100.262C164.279 100.262 163.014 100.082 161.364 99.8464L161.363 99.8464C160.915 99.7825 160.439 99.7146 159.949 99.6452L155.752 99.0286V95.9117C155.719 92.666 155.523 92.0815 154.21 91.3989C153.062 90.7823 152.145 90.9449 151.129 91.9511C150.21 92.8608 150.177 93.0217 150.177 95.8134V98.7355L149.293 98.9303C148.441 99.0608 143.85 99.4826 143.128 99.4826C142.964 99.4826 142.57 98.0224 142.243 96.2369C141.62 92.5677 141.292 91.7563 140.145 91.3345C139.162 90.9465 138.768 90.9466 137.784 91.3362C136.439 91.8884 136.113 93.2843 136.636 96.4656C136.865 98.0241 137.127 99.6147 137.226 100.004C137.358 100.621 137.194 100.751 135.817 101.043C134.964 101.205 132.8 101.79 130.997 102.342C129.193 102.862 127.619 103.218 127.521 103.089C127.39 102.959 126.767 101.205 126.079 99.1607C125.357 96.9535 124.537 95.1358 124.079 94.6801C122.636 93.2521 120.013 93.9991 119.521 95.9794C119.423 96.4012 119.947 98.5441 120.833 101.044L120.987 101.516C121.704 103.7 122.271 105.431 122.21 105.491C122.178 105.523 120.504 106.367 118.504 107.341L115.153 109H114.834L112.93 105.198C110.718 100.698 109.933 99.6083 108.689 99.4686L104.276 82.0919C104.204 81.8061 104.183 81.5181 104.201 81.2357C101.767 80.4835 99.9961 78.2493 99.9961 75.6164C99.9961 72.3678 102.69 69.7252 106.003 69.7252C109.315 69.7252 112.009 72.3678 112.009 75.6164C112.009 77.4459 111.155 79.0827 109.816 80.1641L117.695 87.9495C119.686 89.9173 122.449 91.0454 125.276 91.0454C128.618 91.0454 131.805 89.4887 133.812 86.8804L146.759 70.0544C145.671 68.9883 144.998 67.5153 144.998 65.8912C144.998 62.6426 147.692 60 151.004 60C154.317 60 157.011 62.6426 157.011 65.8912C157.011 67.4667 156.373 68.8967 155.343 69.9549C155.345 69.958 155.348 69.9608 155.35 69.9638L155.354 69.9679L168.207 86.8404C170.213 89.4737 173.412 91.0458 176.763 91.0458C179.616 91.0458 182.299 89.9562 184.316 87.9775L192.244 80.2018C190.877 79.1208 190 77.4683 190 75.6164C190 72.3678 192.694 69.7252 196.006 69.7252C199.318 69.7252 202.013 72.3678 202.013 75.6164C202.013 78.179 200.333 80.3586 197.999 81.1673ZM168.344 107.017C168.559 106.774 173.159 108.415 173.729 108.888L167.688 108.918C167.901 108.27 168.101 107.708 168.223 107.367C168.298 107.156 168.344 107.029 168.344 107.017ZM161.982 108.317C161.912 108.546 161.849 108.755 161.793 108.947L155.749 108.977C155.751 108.7 155.752 108.394 155.752 108.056C155.752 105.556 155.849 104.648 156.178 104.648C156.998 104.648 162.375 105.589 162.572 105.752C162.67 105.882 162.408 107.017 161.982 108.317ZM150.179 107.568C150.179 108.089 150.189 108.565 150.21 109H144.38C144.337 108.652 144.286 108.255 144.228 107.802L144.227 107.794L144.226 107.792C144.181 107.439 144.131 107.052 144.077 106.628L143.848 105.037L146.11 104.81C148.11 104.648 149.062 104.519 149.946 104.356C150.08 104.355 150.179 105.783 150.179 107.568ZM138.207 106.303C138.271 106.398 138.532 107.616 138.728 109H129.518L129.518 108.998C129.518 108.445 137.748 105.881 138.207 106.303Z"/>
</mask>
<path fill-rule="evenodd" clip-rule="evenodd" d="M197.999 81.1673C198.015 81.4425 197.994 81.7227 197.923 82.001L193.407 99.7212C192.57 99.3189 191.423 99.3861 190.577 99.9705C190.183 100.23 189.003 102.113 188.019 104.094C187.157 105.8 186.388 107.251 186.155 107.692C186.113 107.771 186.089 107.817 186.084 107.827C186.019 107.925 181.395 105.75 181.099 105.489C181.067 105.457 181.69 103.445 182.477 101.009C183.329 98.4442 183.854 96.3335 183.722 95.9777C183.296 94.7445 182.215 93.9331 181 93.9331C179.296 93.9331 178.671 94.8089 177.229 99.1268C176.541 101.171 175.884 102.989 175.754 103.152C175.525 103.347 170.179 101.886 170.179 101.593C170.179 101.563 170.656 100.146 171.24 98.4126L171.328 98.1528C172.902 93.5756 172.869 92.3746 171.131 91.4971C168.737 90.2639 167.786 91.1397 166.082 96.2369C165.327 98.4442 164.572 100.262 164.408 100.262C164.279 100.262 163.014 100.082 161.364 99.8464L161.363 99.8464C160.915 99.7825 160.439 99.7146 159.949 99.6452L155.752 99.0286V95.9117C155.719 92.666 155.523 92.0815 154.21 91.3989C153.062 90.7823 152.145 90.9449 151.129 91.9511C150.21 92.8608 150.177 93.0217 150.177 95.8134V98.7355L149.293 98.9303C148.441 99.0608 143.85 99.4826 143.128 99.4826C142.964 99.4826 142.57 98.0224 142.243 96.2369C141.62 92.5677 141.292 91.7563 140.145 91.3345C139.162 90.9465 138.768 90.9466 137.784 91.3362C136.439 91.8884 136.113 93.2843 136.636 96.4656C136.865 98.0241 137.127 99.6147 137.226 100.004C137.358 100.621 137.194 100.751 135.817 101.043C134.964 101.205 132.8 101.79 130.997 102.342C129.193 102.862 127.619 103.218 127.521 103.089C127.39 102.959 126.767 101.205 126.079 99.1607C125.357 96.9535 124.537 95.1358 124.079 94.6801C122.636 93.2521 120.013 93.9991 119.521 95.9794C119.423 96.4012 119.947 98.5441 120.833 101.044L120.987 101.516C121.704 103.7 122.271 105.431 122.21 105.491C122.178 105.523 120.504 106.367 118.504 107.341L115.153 109H114.834L112.93 105.198C110.718 100.698 109.933 99.6083 108.689 99.4686L104.276 82.0919C104.204 81.8061 104.183 81.5181 104.201 81.2357C101.767 80.4835 99.9961 78.2493 99.9961 75.6164C99.9961 72.3678 102.69 69.7252 106.003 69.7252C109.315 69.7252 112.009 72.3678 112.009 75.6164C112.009 77.4459 111.155 79.0827 109.816 80.1641L117.695 87.9495C119.686 89.9173 122.449 91.0454 125.276 91.0454C128.618 91.0454 131.805 89.4887 133.812 86.8804L146.759 70.0544C145.671 68.9883 144.998 67.5153 144.998 65.8912C144.998 62.6426 147.692 60 151.004 60C154.317 60 157.011 62.6426 157.011 65.8912C157.011 67.4667 156.373 68.8967 155.343 69.9549C155.345 69.958 155.348 69.9608 155.35 69.9638L155.354 69.9679L168.207 86.8404C170.213 89.4737 173.412 91.0458 176.763 91.0458C179.616 91.0458 182.299 89.9562 184.316 87.9775L192.244 80.2018C190.877 79.1208 190 77.4683 190 75.6164C190 72.3678 192.694 69.7252 196.006 69.7252C199.318 69.7252 202.013 72.3678 202.013 75.6164C202.013 78.179 200.333 80.3586 197.999 81.1673ZM168.344 107.017C168.559 106.774 173.159 108.415 173.729 108.888L167.688 108.918C167.901 108.27 168.101 107.708 168.223 107.367C168.298 107.156 168.344 107.029 168.344 107.017ZM161.982 108.317C161.912 108.546 161.849 108.755 161.793 108.947L155.749 108.977C155.751 108.7 155.752 108.394 155.752 108.056C155.752 105.556 155.849 104.648 156.178 104.648C156.998 104.648 162.375 105.589 162.572 105.752C162.67 105.882 162.408 107.017 161.982 108.317ZM150.179 107.568C150.179 108.089 150.189 108.565 150.21 109H144.38C144.337 108.652 144.286 108.255 144.228 107.802L144.227 107.794L144.226 107.792C144.181 107.439 144.131 107.052 144.077 106.628L143.848 105.037L146.11 104.81C148.11 104.648 149.062 104.519 149.946 104.356C150.08 104.355 150.179 105.783 150.179 107.568ZM138.207 106.303C138.271 106.398 138.532 107.616 138.728 109H129.518L129.518 108.998C129.518 108.445 137.748 105.881 138.207 106.303Z" fill="#FFC400"/>
<path d="M197.923 82.001L198.892 82.248L198.893 82.2467L197.923 82.001ZM197.999 81.1673L197.672 80.2224L196.958 80.4697L197.001 81.224L197.999 81.1673ZM193.407 99.7212L192.973 100.622L194.074 101.152L194.376 99.9682L193.407 99.7212ZM190.577 99.9705L191.127 100.806L191.136 100.8L191.145 100.793L190.577 99.9705ZM188.019 104.094L188.911 104.544L188.914 104.539L188.019 104.094ZM186.155 107.692L185.271 107.224V107.224L186.155 107.692ZM186.084 107.827L186.918 108.379L186.95 108.33L186.976 108.278L186.084 107.827ZM181.099 105.489L180.396 106.2L180.416 106.221L180.438 106.24L181.099 105.489ZM182.477 101.009L181.528 100.694L181.525 100.701L182.477 101.009ZM183.722 95.9777L182.777 96.3043L182.781 96.3147L182.785 96.325L183.722 95.9777ZM177.229 99.1268L178.177 99.4457L178.177 99.4437L177.229 99.1268ZM175.754 103.152L176.402 103.914L176.475 103.852L176.535 103.776L175.754 103.152ZM171.24 98.4126L172.188 98.7317L172.188 98.7317L171.24 98.4126ZM171.328 98.1528L170.382 97.8276L170.38 97.8337L171.328 98.1528ZM171.131 91.4971L170.673 92.3861L170.68 92.3898L171.131 91.4971ZM166.082 96.2369L167.028 96.5604L167.03 96.554L166.082 96.2369ZM161.364 99.8464L161.505 98.8564L161.496 98.8552L161.488 98.8541L161.364 99.8464ZM161.363 99.8464L161.222 100.836L161.231 100.838L161.239 100.839L161.363 99.8464ZM159.949 99.6452L159.804 100.635L159.809 100.635L159.949 99.6452ZM155.752 99.0286H154.752V99.8924L155.607 100.018L155.752 99.0286ZM155.752 95.9117H156.752L156.752 95.9016L155.752 95.9117ZM154.21 91.3989L153.737 92.2799L153.749 92.286L154.21 91.3989ZM151.129 91.9511L150.425 91.2405L150.425 91.2405L151.129 91.9511ZM150.177 98.7355L150.392 99.7121L151.177 99.5393V98.7355H150.177ZM149.293 98.9303L149.444 99.9188L149.476 99.9139L149.508 99.9069L149.293 98.9303ZM142.243 96.2369L141.257 96.4043L141.26 96.4169L142.243 96.2369ZM140.145 91.3345L139.779 92.2648L139.789 92.269L139.8 92.273L140.145 91.3345ZM137.784 91.3362L137.416 90.4064L137.404 90.4111L137.784 91.3362ZM136.636 96.4656L137.625 96.32L137.624 96.3116L137.623 96.3032L136.636 96.4656ZM137.226 100.004L138.204 99.7954L138.2 99.7764L138.195 99.7575L137.226 100.004ZM135.817 101.043L136.004 102.025L136.014 102.023L136.023 102.021L135.817 101.043ZM130.997 102.342L131.274 103.303L131.281 103.301L131.289 103.298L130.997 102.342ZM127.521 103.089L128.318 102.485L128.275 102.429L128.225 102.378L127.521 103.089ZM126.079 99.1607L125.128 99.4717L125.131 99.4796L126.079 99.1607ZM124.079 94.6801L124.784 93.9708L124.782 93.9695L124.079 94.6801ZM119.521 95.9794L118.55 95.7379L118.548 95.746L118.546 95.7541L119.521 95.9794ZM120.833 101.044L121.783 100.733L121.779 100.722L121.775 100.71L120.833 101.044ZM120.987 101.516L120.037 101.827L120.037 101.827L120.987 101.516ZM122.21 105.491L122.914 106.202L122.914 106.202L122.21 105.491ZM118.504 107.341L118.066 106.442L118.061 106.445L118.504 107.341ZM115.153 109V110H115.387L115.596 109.896L115.153 109ZM114.834 109L113.94 109.448L114.216 110H114.834V109ZM112.93 105.198L112.032 105.639L112.035 105.646L112.93 105.198ZM108.689 99.4686L107.72 99.7148L107.89 100.385L108.577 100.462L108.689 99.4686ZM104.276 82.0919L103.307 82.3377L103.307 82.338L104.276 82.0919ZM104.201 81.2357L105.199 81.3004L105.25 80.5132L104.496 80.2803L104.201 81.2357ZM109.816 80.1641L109.188 79.3863L108.318 80.0892L109.114 80.8754L109.816 80.1641ZM117.695 87.9495L118.398 87.2382L118.398 87.2382L117.695 87.9495ZM133.812 86.8804L133.019 86.2706L133.019 86.2706L133.812 86.8804ZM146.759 70.0544L147.552 70.6642L148.093 69.9611L147.459 69.3402L146.759 70.0544ZM155.343 69.9549L154.626 69.2571L154.024 69.8757L154.548 70.5619L155.343 69.9549ZM155.35 69.9638L156.135 69.3443L156.122 69.3273L156.108 69.3108L155.35 69.9638ZM155.354 69.9679L156.149 69.3619L156.144 69.3552L156.139 69.3485L155.354 69.9679ZM168.207 86.8404L169.003 86.2344L169.003 86.2344L168.207 86.8404ZM184.316 87.9775L183.616 87.2636L183.615 87.2636L184.316 87.9775ZM192.244 80.2018L192.944 80.9158L193.754 80.1214L192.864 79.4176L192.244 80.2018ZM173.729 108.888L173.734 109.888L176.483 109.874L174.367 108.118L173.729 108.888ZM168.344 107.017L167.595 106.355L167.344 106.639V107.017H168.344ZM167.688 108.918L166.738 108.605L166.303 109.925L167.693 109.918L167.688 108.918ZM168.223 107.367L167.281 107.031V107.031L168.223 107.367ZM161.793 108.947L161.798 109.947L162.544 109.943L162.753 109.227L161.793 108.947ZM161.982 108.317L161.032 108.005L161.028 108.015L161.025 108.025L161.982 108.317ZM155.749 108.977L154.749 108.969L154.741 109.982L155.754 109.977L155.749 108.977ZM162.572 105.752L163.373 105.153L163.301 105.057L163.209 104.981L162.572 105.752ZM150.21 109V110H151.258L151.209 108.953L150.21 109ZM144.38 109L143.388 109.123L143.497 110H144.38V109ZM144.228 107.802L145.22 107.674L145.22 107.674L144.228 107.802ZM144.227 107.794L145.219 107.666L145.218 107.664L144.227 107.794ZM144.226 107.792L143.235 107.919L143.235 107.921L144.226 107.792ZM144.077 106.628L145.069 106.502L145.068 106.494L145.067 106.485L144.077 106.628ZM143.848 105.037L143.748 104.042L142.709 104.146L142.858 105.18L143.848 105.037ZM146.11 104.81L146.029 103.813L146.02 103.814L146.01 103.815L146.11 104.81ZM149.946 104.356L149.934 103.356L149.849 103.357L149.766 103.373L149.946 104.356ZM138.728 109V110H139.88L139.718 108.86L138.728 109ZM138.207 106.303L139.036 105.744L138.971 105.646L138.884 105.567L138.207 106.303ZM129.518 109L128.518 109.003L128.522 110H129.518V109ZM129.518 108.998H128.518L128.518 109.001L129.518 108.998ZM198.893 82.2467C198.991 81.8574 199.018 81.4741 198.997 81.1105L197.001 81.224C197.011 81.411 196.996 81.588 196.954 81.7553L198.893 82.2467ZM194.376 99.9682L198.892 82.248L196.954 81.754L192.438 99.4743L194.376 99.9682ZM191.145 100.793C191.697 100.412 192.462 100.377 192.973 100.622L193.84 98.8201C192.678 98.2612 191.148 98.3602 190.008 99.1477L191.145 100.793ZM188.914 104.539C189.393 103.575 189.919 102.637 190.368 101.915C190.594 101.553 190.793 101.256 190.952 101.042C191.032 100.935 191.094 100.858 191.139 100.808C191.195 100.745 191.188 100.765 191.127 100.806L190.027 99.1353C189.867 99.2403 189.737 99.3761 189.65 99.4734C189.551 99.5839 189.448 99.7125 189.347 99.8489C189.143 100.123 188.912 100.469 188.67 100.858C188.185 101.638 187.628 102.632 187.123 103.649L188.914 104.539ZM187.039 108.16C187.273 107.718 188.045 106.26 188.911 104.544L187.126 103.643C186.269 105.341 185.504 106.785 185.271 107.224L187.039 108.16ZM186.976 108.278C186.973 108.284 186.972 108.286 186.976 108.278C186.979 108.272 186.984 108.264 186.99 108.253C187.001 108.231 187.018 108.2 187.039 108.16L185.271 107.224C185.234 107.294 185.202 107.355 185.191 107.376L186.976 108.278ZM180.438 106.24C180.532 106.323 180.64 106.388 180.687 106.416C180.755 106.457 180.834 106.502 180.918 106.547C181.087 106.639 181.303 106.751 181.545 106.872C182.031 107.116 182.647 107.414 183.253 107.698C183.858 107.982 184.461 108.258 184.921 108.457C185.148 108.556 185.353 108.642 185.508 108.701C185.582 108.728 185.668 108.76 185.748 108.782C185.782 108.792 185.858 108.813 185.949 108.823C185.989 108.828 186.089 108.838 186.214 108.821C186.292 108.81 186.67 108.753 186.918 108.379L185.25 107.275C185.495 106.904 185.869 106.849 185.941 106.839C186.059 106.823 186.15 106.833 186.18 106.837C186.22 106.841 186.25 106.848 186.263 106.851C186.279 106.854 186.289 106.857 186.292 106.858C186.298 106.859 186.277 106.853 186.218 106.831C186.107 106.789 185.937 106.718 185.717 106.623C185.283 106.434 184.699 106.168 184.103 105.888C183.508 105.608 182.909 105.319 182.443 105.085C182.209 104.968 182.015 104.867 181.874 104.79C181.803 104.752 181.752 104.723 181.72 104.703C181.667 104.672 181.703 104.689 181.761 104.739L180.438 106.24ZM181.525 100.701C181.131 101.922 180.777 103.039 180.525 103.856C180.399 104.264 180.298 104.602 180.229 104.843C180.195 104.962 180.166 105.067 180.146 105.149C180.137 105.187 180.125 105.238 180.116 105.29C180.112 105.311 180.103 105.364 180.1 105.429C180.098 105.459 180.095 105.528 180.107 105.615C180.11 105.641 180.138 105.945 180.396 106.2L181.803 104.779C182.059 105.033 182.087 105.335 182.09 105.358C182.101 105.442 182.098 105.508 182.097 105.532C182.094 105.587 182.087 105.627 182.086 105.632C182.083 105.649 182.082 105.652 182.088 105.626C182.099 105.582 182.12 105.506 182.152 105.393C182.215 105.172 182.312 104.849 182.436 104.445C182.685 103.639 183.036 102.532 183.428 101.316L181.525 100.701ZM182.785 96.325C182.728 96.1734 182.745 96.0761 182.742 96.1555C182.741 96.1986 182.734 96.2782 182.715 96.4021C182.677 96.6474 182.605 96.9918 182.498 97.4243C182.285 98.2847 181.948 99.4277 181.528 100.694L183.426 101.324C183.857 100.025 184.21 98.8306 184.439 97.9056C184.553 97.4454 184.641 97.0351 184.692 96.7044C184.717 96.5403 184.736 96.3766 184.741 96.2262C184.745 96.112 184.749 95.871 184.66 95.6304L182.785 96.325ZM181 94.9331C181.748 94.9331 182.477 95.4348 182.777 96.3043L184.668 95.6512C184.116 94.0542 182.682 92.9331 181 92.9331V94.9331ZM178.177 99.4437C178.909 97.2545 179.383 96.1097 179.826 95.4973C180.026 95.221 180.186 95.1052 180.317 95.0437C180.458 94.9783 180.656 94.9331 181 94.9331V92.9331C180.493 92.9331 179.973 92.9974 179.472 93.2311C178.963 93.4687 178.556 93.8417 178.206 94.3242C177.551 95.2291 176.992 96.6812 176.281 98.81L178.177 99.4437ZM176.535 103.776C176.641 103.643 176.714 103.481 176.736 103.433C176.777 103.343 176.822 103.234 176.87 103.115C176.967 102.875 177.087 102.557 177.222 102.188C177.492 101.447 177.831 100.473 178.177 99.4457L176.281 98.808C175.939 99.8252 175.606 100.782 175.343 101.502C175.211 101.863 175.1 102.158 175.015 102.368C174.972 102.475 174.94 102.551 174.918 102.599C174.876 102.69 174.899 102.62 174.973 102.527L176.535 103.776ZM169.179 101.593C169.179 101.971 169.382 102.215 169.448 102.29C169.535 102.387 169.625 102.452 169.676 102.487C169.784 102.561 169.9 102.619 169.991 102.661C170.182 102.749 170.429 102.842 170.691 102.933C171.223 103.117 171.921 103.328 172.614 103.519C173.309 103.711 174.019 103.89 174.577 104.01C174.853 104.069 175.112 104.117 175.32 104.144C175.42 104.157 175.538 104.169 175.652 104.17C175.708 104.17 175.793 104.167 175.89 104.15C175.953 104.139 176.185 104.098 176.402 103.914L175.107 102.39C175.309 102.218 175.516 102.185 175.546 102.18C175.609 102.169 175.651 102.17 175.655 102.17C175.666 102.17 175.645 102.17 175.578 102.161C175.449 102.144 175.253 102.109 174.995 102.054C174.487 101.945 173.818 101.777 173.147 101.592C172.476 101.406 171.823 101.209 171.346 101.043C171.103 100.959 170.93 100.891 170.828 100.844C170.772 100.818 170.774 100.815 170.803 100.835C170.815 100.843 170.875 100.884 170.941 100.959C170.988 101.011 171.179 101.234 171.179 101.593H169.179ZM170.292 98.0935C170.001 98.9599 169.735 99.7486 169.543 100.324C169.446 100.612 169.368 100.848 169.313 101.016C169.286 101.099 169.263 101.168 169.247 101.219C169.24 101.243 169.232 101.269 169.225 101.292C169.222 101.302 169.217 101.32 169.211 101.341C169.209 101.35 169.204 101.37 169.199 101.394C169.197 101.406 169.193 101.426 169.19 101.452C169.187 101.47 169.179 101.524 169.179 101.593H171.179C171.179 101.662 171.172 101.715 171.17 101.733C171.166 101.758 171.162 101.777 171.16 101.788C171.156 101.81 171.152 101.826 171.15 101.832C171.148 101.84 171.147 101.845 171.146 101.847C171.146 101.849 171.146 101.85 171.145 101.85C171.145 101.851 171.145 101.851 171.145 101.851C171.145 101.851 171.145 101.85 171.146 101.849C171.146 101.847 171.147 101.845 171.148 101.842C171.15 101.836 171.152 101.829 171.155 101.819C171.167 101.78 171.187 101.72 171.213 101.639C171.266 101.478 171.343 101.246 171.439 100.959C171.631 100.385 171.896 99.5989 172.188 98.7317L170.292 98.0935ZM170.38 97.8337L170.292 98.0935L172.188 98.7317L172.275 98.4719L170.38 97.8337ZM170.68 92.3898C171.043 92.5728 171.215 92.7235 171.307 92.8505C171.387 92.9612 171.462 93.1296 171.472 93.4668C171.494 94.2352 171.181 95.5048 170.382 97.8276L172.273 98.478C173.049 96.2236 173.506 94.6041 173.471 93.4084C173.452 92.7635 173.292 92.181 172.926 91.6767C172.572 91.1886 172.088 90.8601 171.581 90.6044L170.68 92.3898ZM167.03 96.554C167.452 95.2912 167.817 94.3243 168.158 93.5977C168.505 92.8595 168.793 92.4455 169.031 92.2232C169.231 92.0358 169.378 91.996 169.546 92.0003C169.773 92.0062 170.12 92.1011 170.673 92.3861L171.589 90.6082C170.945 90.2765 170.276 90.0185 169.597 90.001C168.86 89.9819 168.214 90.2484 167.664 90.7629C167.152 91.2426 166.733 91.9262 166.348 92.7473C165.957 93.58 165.563 94.6339 165.133 95.9198L167.03 96.554ZM164.408 101.262C164.831 101.262 165.092 101.006 165.131 100.969C165.217 100.888 165.279 100.804 165.315 100.753C165.392 100.644 165.462 100.518 165.522 100.402C165.646 100.161 165.791 99.8352 165.947 99.4608C166.261 98.7056 166.646 97.6783 167.028 96.5604L165.135 95.9134C164.763 97.0028 164.393 97.988 164.1 98.6933C163.952 99.0493 163.831 99.3162 163.744 99.4851C163.698 99.574 163.676 99.6069 163.677 99.6058C163.679 99.6033 163.685 99.594 163.697 99.5802C163.707 99.5674 163.729 99.5424 163.761 99.5123C163.77 99.5037 164.006 99.2618 164.408 99.2618V101.262ZM161.222 100.836C162.047 100.954 162.778 101.058 163.319 101.133C163.59 101.17 163.816 101.201 163.984 101.222C164.11 101.238 164.296 101.262 164.408 101.262V99.2618C164.456 99.2618 164.435 99.2632 164.236 99.2379C164.079 99.2181 163.862 99.1888 163.593 99.1517C163.057 99.0776 162.331 98.9741 161.505 98.8564L161.222 100.836ZM161.239 100.839L161.24 100.839L161.488 98.8541L161.487 98.8541L161.239 100.839ZM159.809 100.635C160.298 100.705 160.774 100.773 161.222 100.836L161.504 98.8564C161.057 98.7925 160.58 98.7246 160.089 98.6551L159.809 100.635ZM155.607 100.018L159.804 100.635L160.094 98.6558L155.897 98.0392L155.607 100.018ZM154.752 95.9117V99.0286H156.752V95.9117H154.752ZM153.749 92.286C154.043 92.4389 154.198 92.5486 154.297 92.6462C154.38 92.7287 154.451 92.8303 154.515 93.0169C154.67 93.4729 154.735 94.2579 154.752 95.9217L156.752 95.9016C156.736 94.3197 156.687 93.1897 156.408 92.3713C156.254 91.9208 156.028 91.5455 155.704 91.225C155.395 90.9195 155.034 90.7002 154.672 90.5117L153.749 92.286ZM151.832 92.6617C152.26 92.238 152.569 92.0914 152.796 92.0508C153.009 92.0128 153.294 92.0419 153.737 92.2798L154.683 90.5179C153.978 90.1392 153.231 89.9413 152.444 90.082C151.672 90.2201 151.014 90.6579 150.425 91.2405L151.832 92.6617ZM151.177 95.8134C151.177 94.3575 151.193 93.7701 151.28 93.414C151.332 93.2023 151.386 93.103 151.832 92.6617L150.425 91.2405C149.952 91.7088 149.531 92.1449 149.337 92.9389C149.178 93.5886 149.177 94.4776 149.177 95.8134H151.177ZM151.177 98.7355V95.8134H149.177V98.7355H151.177ZM149.508 99.9069L150.392 99.7121L149.962 97.7589L149.078 97.9537L149.508 99.9069ZM143.128 100.483C143.546 100.483 144.933 100.371 146.252 100.251C147.585 100.131 148.981 99.9898 149.444 99.9188L149.141 97.9419C148.753 98.0014 147.427 98.1367 146.071 98.2595C144.702 98.3835 143.432 98.4826 143.128 98.4826V100.483ZM141.26 96.4169C141.426 97.3282 141.612 98.1684 141.781 98.7914C141.865 99.0982 141.951 99.378 142.036 99.5939C142.076 99.6959 142.133 99.8259 142.208 99.9461C142.244 100.004 142.311 100.103 142.414 100.198C142.501 100.279 142.747 100.483 143.128 100.483V98.4826C143.488 98.4826 143.712 98.6747 143.775 98.733C143.854 98.8066 143.895 98.8724 143.904 98.8866C143.925 98.92 143.921 98.9219 143.896 98.8591C143.851 98.7455 143.788 98.5486 143.712 98.2672C143.561 97.7137 143.387 96.931 143.227 96.0568L141.26 96.4169ZM139.8 92.273C140 92.3467 140.104 92.4144 140.179 92.4855C140.256 92.5591 140.355 92.6883 140.47 92.9588C140.719 93.5456 140.942 94.5448 141.257 96.4042L143.229 96.0695C142.922 94.2598 142.669 93.0187 142.311 92.1771C142.123 91.7333 141.886 91.3512 141.56 91.0393C141.231 90.725 140.864 90.5332 140.491 90.396L139.8 92.273ZM138.152 92.2659C138.617 92.0818 138.817 92.0438 138.965 92.0437C139.114 92.0437 139.314 92.0814 139.779 92.2648L140.512 90.4042C139.993 90.1996 139.504 90.0434 138.964 90.0437C138.424 90.0441 137.935 90.2009 137.416 90.4064L138.152 92.2659ZM137.623 96.3032C137.365 94.7345 137.346 93.7519 137.485 93.1355C137.55 92.8456 137.644 92.671 137.737 92.557C137.828 92.446 137.957 92.3463 138.164 92.2612L137.404 90.4111C136.939 90.6022 136.522 90.8841 136.19 91.2895C135.861 91.692 135.653 92.1687 135.534 92.6945C135.305 93.7094 135.384 95.0154 135.649 96.628L137.623 96.3032ZM138.195 99.7575C138.112 99.4304 137.858 97.9022 137.625 96.32L135.647 96.6111C135.873 98.1459 136.142 99.799 136.257 100.251L138.195 99.7575ZM136.023 102.021C136.371 101.948 136.676 101.877 136.927 101.801C137.164 101.729 137.444 101.626 137.684 101.448C137.969 101.236 138.173 100.936 138.24 100.561C138.294 100.255 138.241 99.9692 138.204 99.7954L136.249 100.213C136.261 100.27 136.263 100.294 136.264 100.3C136.264 100.305 136.26 100.269 136.271 100.211C136.282 100.146 136.309 100.067 136.359 99.9885C136.407 99.9124 136.46 99.8658 136.491 99.8426C136.534 99.8108 136.523 99.8338 136.346 99.8874C136.183 99.9368 135.951 99.9923 135.61 100.064L136.023 102.021ZM131.289 103.298C133.089 102.747 135.209 102.177 136.004 102.025L135.629 100.06C134.72 100.234 132.511 100.833 130.704 101.386L131.289 103.298ZM126.724 103.693C126.942 103.98 127.234 104.058 127.314 104.078C127.43 104.107 127.534 104.113 127.597 104.115C127.727 104.119 127.862 104.106 127.974 104.092C128.209 104.063 128.507 104.007 128.833 103.936C129.492 103.792 130.359 103.567 131.274 103.303L130.719 101.381C129.83 101.638 129.009 101.85 128.406 101.982C128.101 102.049 127.873 102.09 127.729 102.107C127.653 102.117 127.634 102.115 127.653 102.116C127.66 102.116 127.718 102.117 127.8 102.138C127.844 102.149 128.113 102.214 128.318 102.485L126.724 103.693ZM125.131 99.4796C125.476 100.505 125.807 101.463 126.069 102.184C126.199 102.544 126.316 102.853 126.411 103.086C126.458 103.201 126.505 103.309 126.549 103.4C126.57 103.445 126.597 103.498 126.627 103.55C126.646 103.582 126.711 103.694 126.818 103.8L128.225 102.378C128.279 102.432 128.313 102.479 128.326 102.497C128.341 102.52 128.351 102.536 128.355 102.542C128.361 102.553 128.36 102.553 128.351 102.533C128.333 102.495 128.304 102.429 128.263 102.33C128.183 102.133 128.076 101.852 127.949 101.501C127.694 100.802 127.37 99.8612 127.027 98.8419L125.131 99.4796ZM123.374 95.3894C123.372 95.3878 123.396 95.4126 123.445 95.4828C123.491 95.5492 123.548 95.6393 123.613 95.7555C123.746 95.9883 123.899 96.2968 124.067 96.6722C124.403 97.4216 124.776 98.3943 125.129 99.4716L127.029 98.8498C126.66 97.7199 126.262 96.6801 125.893 95.855C125.708 95.443 125.526 95.0737 125.353 94.7686C125.191 94.4832 124.999 94.1851 124.784 93.9708L123.374 95.3894ZM120.491 96.2209C120.799 94.9818 122.492 94.5166 123.375 95.3908L124.782 93.9695C122.78 91.9876 119.227 93.0165 118.55 95.7379L120.491 96.2209ZM121.775 100.71C121.341 99.4839 120.998 98.3525 120.777 97.4856C120.666 97.0507 120.589 96.6954 120.547 96.4349C120.525 96.3039 120.514 96.2107 120.51 96.1511C120.505 96.069 120.517 96.1096 120.495 96.2047L118.546 95.7541C118.5 95.9547 118.507 96.1546 118.515 96.2801C118.524 96.4282 118.545 96.5911 118.573 96.7594C118.629 97.0975 118.72 97.5133 118.839 97.9793C119.077 98.9144 119.439 100.105 119.89 101.379L121.775 100.71ZM121.938 101.204L121.783 100.733L119.883 101.356L120.037 101.827L121.938 101.204ZM122.914 106.202C123.165 105.954 123.199 105.661 123.205 105.614C123.218 105.518 123.215 105.439 123.213 105.4C123.208 105.319 123.195 105.246 123.186 105.203C123.168 105.108 123.14 104.998 123.11 104.889C123.049 104.665 122.957 104.36 122.844 104.001C122.618 103.28 122.295 102.294 121.938 101.204L120.037 101.827C120.396 102.922 120.715 103.894 120.936 104.6C121.047 104.954 121.13 105.229 121.181 105.415C121.207 105.511 121.219 105.563 121.223 105.583C121.226 105.597 121.219 105.57 121.216 105.521C121.215 105.499 121.211 105.434 121.223 105.348C121.228 105.311 121.26 105.025 121.507 104.781L122.914 106.202ZM118.942 108.24C119.945 107.752 120.867 107.295 121.543 106.957C121.88 106.788 122.158 106.648 122.355 106.547C122.453 106.496 122.534 106.454 122.593 106.423C122.622 106.408 122.651 106.392 122.676 106.378C122.688 106.371 122.706 106.361 122.726 106.348C122.736 106.343 122.753 106.332 122.774 106.317C122.78 106.313 122.845 106.27 122.914 106.202L121.507 104.78C121.575 104.713 121.638 104.671 121.641 104.669C121.659 104.657 121.673 104.648 121.679 104.645C121.69 104.637 121.697 104.634 121.695 104.635C121.691 104.637 121.678 104.644 121.654 104.657C121.608 104.682 121.537 104.718 121.442 104.767C121.254 104.864 120.982 105.001 120.647 105.169C119.978 105.504 119.063 105.956 118.066 106.442L118.942 108.24ZM115.596 109.896L118.948 108.237L118.061 106.445L114.709 108.104L115.596 109.896ZM114.834 110H115.153V108H114.834V110ZM112.035 105.646L113.94 109.448L115.728 108.552L113.824 104.75L112.035 105.646ZM108.577 100.462C108.827 100.49 109.111 100.571 109.641 101.291C110.208 102.06 110.92 103.376 112.032 105.639L113.827 104.757C112.728 102.521 111.941 101.041 111.251 100.105C110.526 99.1201 109.795 98.5865 108.8 98.4749L108.577 100.462ZM103.307 82.338L107.72 99.7148L109.658 99.2225L105.245 81.8458L103.307 82.338ZM103.203 81.171C103.179 81.5467 103.206 81.9403 103.307 82.3377L105.246 81.8461C105.201 81.6719 105.187 81.4895 105.199 81.3004L103.203 81.171ZM98.9961 75.6164C98.9961 78.7123 101.076 81.3168 103.906 82.1911L104.496 80.2803C102.457 79.6502 100.996 77.7863 100.996 75.6164H98.9961ZM106.003 68.7252C102.157 68.7252 98.9961 71.7973 98.9961 75.6164H100.996C100.996 72.9383 103.224 70.7252 106.003 70.7252V68.7252ZM113.009 75.6164C113.009 71.7973 109.849 68.7252 106.003 68.7252V70.7252C108.781 70.7252 111.009 72.9383 111.009 75.6164H113.009ZM110.445 80.9419C112.004 79.6822 113.009 77.7658 113.009 75.6164H111.009C111.009 77.1259 110.305 78.4832 109.188 79.3863L110.445 80.9419ZM118.398 87.2382L110.519 79.4528L109.114 80.8754L116.992 88.6607L118.398 87.2382ZM125.276 90.0454C122.709 90.0454 120.2 89.019 118.398 87.2382L116.992 88.6607C119.172 90.8156 122.189 92.0454 125.276 92.0454V90.0454ZM133.019 86.2706C131.205 88.6288 128.313 90.0454 125.276 90.0454V92.0454C128.923 92.0454 132.405 90.3485 134.604 87.4902L133.019 86.2706ZM145.967 69.4445L133.019 86.2706L134.604 87.4903L147.552 70.6642L145.967 69.4445ZM143.998 65.8912C143.998 67.7984 144.79 69.5247 146.059 70.7685L147.459 69.3402C146.553 68.4519 145.998 67.2323 145.998 65.8912H143.998ZM151.004 59C147.158 59 143.998 62.0722 143.998 65.8912H145.998C145.998 63.2131 148.226 61 151.004 61V59ZM158.011 65.8912C158.011 62.0722 154.851 59 151.004 59V61C153.783 61 156.011 63.2131 156.011 65.8912H158.011ZM156.059 70.6527C157.26 69.4195 158.011 67.7434 158.011 65.8912H156.011C156.011 67.19 155.487 68.3738 154.626 69.2571L156.059 70.6527ZM156.108 69.3108C156.1 69.3013 156.093 69.2938 156.09 69.2907C156.089 69.2899 156.089 69.2891 156.088 69.2887C156.088 69.2885 156.088 69.2882 156.088 69.2881C156.087 69.2874 156.088 69.2885 156.087 69.2878C156.087 69.2875 156.088 69.2885 156.089 69.2898C156.091 69.2923 156.098 69.2992 156.105 69.3084C156.113 69.3178 156.125 69.3312 156.137 69.3478L154.548 70.5619C154.574 70.5966 154.598 70.6222 154.604 70.629C154.605 70.631 154.607 70.6327 154.607 70.6331C154.608 70.6339 154.607 70.6332 154.607 70.6324C154.605 70.6308 154.6 70.6248 154.593 70.6168L156.108 69.3108ZM156.139 69.3485L156.135 69.3443L154.565 70.5833L154.569 70.5874L156.139 69.3485ZM169.003 86.2344L156.149 69.3619L154.558 70.5739L167.412 87.4464L169.003 86.2344ZM176.763 90.0458C173.719 90.0458 170.817 88.6158 169.003 86.2344L167.412 87.4464C169.61 90.3316 173.104 92.0458 176.763 92.0458V90.0458ZM183.615 87.2636C181.787 89.0569 179.357 90.0458 176.763 90.0458V92.0458C179.875 92.0458 182.81 90.8555 185.016 88.6914L183.615 87.2636ZM191.543 79.4879L183.616 87.2636L185.016 88.6914L192.944 80.9158L191.543 79.4879ZM189 75.6164C189 77.7933 190.033 79.7278 191.623 80.9861L192.864 79.4176C191.722 78.5139 191 77.1433 191 75.6164H189ZM196.006 68.7252C192.16 68.7252 189 71.7973 189 75.6164H191C191 72.9383 193.228 70.7252 196.006 70.7252V68.7252ZM203.013 75.6164C203.013 71.7973 199.852 68.7252 196.006 68.7252V70.7252C198.785 70.7252 201.013 72.9383 201.013 75.6164H203.013ZM198.326 82.1121C201.038 81.1727 203.013 78.6313 203.013 75.6164H201.013C201.013 77.7267 199.628 79.5444 197.672 80.2224L198.326 82.1121ZM174.367 108.118C174.197 107.977 173.966 107.855 173.787 107.766C173.581 107.664 173.333 107.553 173.065 107.44C172.528 107.214 171.873 106.965 171.235 106.741C170.599 106.517 169.96 106.311 169.456 106.175C169.209 106.108 168.967 106.051 168.764 106.02C168.668 106.005 168.539 105.99 168.406 105.994C168.341 105.995 168.237 106.002 168.118 106.034C168.014 106.062 167.787 106.138 167.595 106.355L169.093 107.68C168.914 107.882 168.708 107.947 168.634 107.966C168.546 107.99 168.48 107.992 168.46 107.993C168.418 107.994 168.412 107.989 168.462 107.997C168.554 108.011 168.712 108.046 168.935 108.106C169.372 108.224 169.96 108.412 170.571 108.628C171.181 108.842 171.797 109.077 172.289 109.284C172.536 109.388 172.743 109.481 172.898 109.558C173.08 109.648 173.118 109.681 173.09 109.657L174.367 108.118ZM167.693 109.918L173.734 109.888L173.724 107.888L167.683 107.918L167.693 109.918ZM167.281 107.031C167.159 107.373 166.956 107.945 166.738 108.605L168.638 109.231C168.847 108.595 169.044 108.043 169.165 107.702L167.281 107.031ZM167.344 107.017C167.344 106.979 167.346 106.947 167.348 106.925C167.35 106.903 167.352 106.884 167.355 106.87C167.359 106.843 167.363 106.821 167.366 106.809C167.369 106.796 167.371 106.785 167.373 106.778C167.375 106.77 167.377 106.764 167.378 106.76C167.38 106.751 167.382 106.745 167.383 106.743C167.383 106.741 167.384 106.74 167.383 106.741C167.382 106.746 167.377 106.761 167.367 106.789C167.348 106.844 167.319 106.924 167.281 107.031L169.165 107.702C169.202 107.599 169.234 107.51 169.256 107.446C169.267 107.415 169.278 107.382 169.287 107.354C169.291 107.341 169.298 107.319 169.305 107.295C169.308 107.283 169.314 107.261 169.32 107.233C169.321 107.229 169.344 107.135 169.344 107.017H167.344ZM162.753 109.227C162.808 109.041 162.869 108.835 162.938 108.608L161.025 108.025C160.955 108.257 160.891 108.47 160.833 108.667L162.753 109.227ZM155.754 109.977L161.798 109.947L161.788 107.947L155.744 107.977L155.754 109.977ZM154.752 108.056C154.752 108.393 154.751 108.696 154.749 108.969L156.749 108.985C156.751 108.704 156.752 108.396 156.752 108.056H154.752ZM156.178 103.648C155.502 103.648 155.175 104.163 155.059 104.421C154.941 104.688 154.884 105.002 154.849 105.294C154.775 105.901 154.752 106.811 154.752 108.056H156.752C156.752 106.801 156.777 106.006 156.834 105.535C156.865 105.286 156.894 105.218 156.886 105.236C156.882 105.246 156.69 105.648 156.178 105.648V103.648ZM163.209 104.981C163.077 104.872 162.942 104.819 162.918 104.809C162.866 104.788 162.815 104.771 162.777 104.759C162.697 104.734 162.606 104.71 162.514 104.687C162.327 104.641 162.082 104.588 161.805 104.531C161.248 104.417 160.521 104.282 159.78 104.154C159.038 104.025 158.273 103.9 157.64 103.808C157.042 103.721 156.471 103.648 156.178 103.648V105.648C156.294 105.648 156.703 105.692 157.351 105.787C157.962 105.876 158.708 105.997 159.437 106.124C160.167 106.251 160.873 106.382 161.405 106.491C161.673 106.545 161.887 106.592 162.035 106.629C162.111 106.647 162.156 106.66 162.177 106.667C162.189 106.671 162.18 106.668 162.159 106.66C162.149 106.655 162.126 106.646 162.095 106.63C162.071 106.617 162.008 106.583 161.935 106.523L163.209 104.981ZM162.932 108.628C163.152 107.958 163.333 107.32 163.448 106.821C163.505 106.574 163.55 106.341 163.574 106.145C163.585 106.05 163.595 105.934 163.592 105.817C163.59 105.759 163.585 105.675 163.565 105.581C163.548 105.502 163.504 105.328 163.373 105.153L161.771 106.351C161.653 106.192 161.618 106.043 161.608 105.995C161.595 105.932 161.593 105.888 161.593 105.876C161.592 105.851 161.594 105.855 161.588 105.905C161.577 106 161.549 106.155 161.499 106.372C161.401 106.798 161.238 107.376 161.032 108.005L162.932 108.628ZM151.209 108.953C151.189 108.537 151.179 108.077 151.179 107.568H149.179C149.179 108.101 149.189 108.594 149.211 109.047L151.209 108.953ZM144.38 110H150.21V108H144.38V110ZM143.236 107.929C143.294 108.383 143.345 108.777 143.388 109.123L145.373 108.877C145.329 108.526 145.278 108.127 145.22 107.674L143.236 107.929ZM143.235 107.922L143.236 107.929L145.22 107.674L145.219 107.666L143.235 107.922ZM143.235 107.921L143.235 107.924L145.218 107.664L145.218 107.662L143.235 107.921ZM143.085 106.754C143.139 107.179 143.189 107.567 143.235 107.919L145.218 107.664C145.173 107.311 145.123 106.926 145.069 106.502L143.085 106.754ZM142.858 105.18L143.088 106.771L145.067 106.485L144.838 104.895L142.858 105.18ZM146.01 103.815L143.748 104.042L143.948 106.032L146.21 105.805L146.01 103.815ZM149.766 103.373C148.926 103.527 148.011 103.652 146.029 103.813L146.191 105.807C148.21 105.643 149.197 105.511 150.127 105.34L149.766 103.373ZM151.179 107.568C151.179 106.66 151.154 105.832 151.11 105.221C151.089 104.92 151.061 104.646 151.024 104.435C151.007 104.337 150.98 104.205 150.934 104.077C150.913 104.02 150.865 103.899 150.773 103.774C150.698 103.675 150.425 103.35 149.934 103.356L149.959 105.356C149.484 105.362 149.228 105.049 149.169 104.97C149.093 104.867 149.061 104.779 149.055 104.764C149.04 104.721 149.043 104.714 149.054 104.777C149.073 104.889 149.095 105.084 149.115 105.363C149.155 105.912 149.179 106.69 149.179 107.568H151.179ZM139.718 108.86C139.617 108.149 139.5 107.48 139.399 106.973C139.348 106.72 139.3 106.5 139.259 106.332C139.239 106.249 139.218 106.169 139.197 106.1C139.186 106.065 139.173 106.023 139.156 105.979C139.148 105.957 139.11 105.853 139.036 105.744L137.377 106.861C137.338 106.803 137.315 106.754 137.306 106.735C137.296 106.712 137.289 106.695 137.286 106.688C137.28 106.673 137.279 106.668 137.283 106.679C137.289 106.7 137.3 106.741 137.317 106.808C137.349 106.938 137.39 107.128 137.437 107.364C137.531 107.836 137.642 108.468 137.738 109.14L139.718 108.86ZM129.518 110H138.728V108H129.518V110ZM128.518 109.001L128.518 109.003L130.518 108.997L130.518 108.994L128.518 109.001ZM138.884 105.567C138.698 105.395 138.496 105.33 138.392 105.303C138.274 105.273 138.165 105.263 138.083 105.259C137.919 105.25 137.746 105.263 137.588 105.281C137.266 105.318 136.866 105.395 136.434 105.493C135.564 105.69 134.466 105.997 133.394 106.33C132.322 106.663 131.252 107.031 130.44 107.356C130.039 107.516 129.674 107.677 129.397 107.826C129.264 107.899 129.112 107.989 128.981 108.095C128.916 108.148 128.823 108.231 128.738 108.345C128.662 108.448 128.518 108.676 128.518 108.998H130.518C130.518 109.285 130.39 109.475 130.345 109.536C130.292 109.608 130.245 109.645 130.241 109.648C130.23 109.657 130.256 109.636 130.348 109.586C130.524 109.491 130.805 109.364 131.183 109.213C131.929 108.914 132.945 108.564 133.987 108.24C135.03 107.916 136.075 107.625 136.877 107.443C137.282 107.351 137.6 107.293 137.816 107.268C137.868 107.262 137.908 107.259 137.939 107.257C137.971 107.255 137.985 107.256 137.984 107.256C137.983 107.256 137.975 107.256 137.961 107.254C137.948 107.252 137.924 107.248 137.891 107.24C137.845 107.228 137.687 107.184 137.53 107.039L138.884 105.567Z" fill="#151B26" mask="url(#path-10-inside-1_48_653)"/>
</svg>
