<svg width="76" height="76" viewBox="0 0 76 76" fill="none" xmlns="http://www.w3.org/2000/svg">
<rect y="0.00012207" width="76" height="76" rx="38" fill="white"/>
<path d="M32.9662 9.27379C32.4338 9.49462 32.3044 10.0528 32.5117 11.325C32.6025 11.9482 32.7061 12.5842 32.7454 12.74C32.7976 12.9866 32.7325 13.0388 32.1872 13.1553C31.8499 13.2203 30.993 13.454 30.279 13.6748C29.565 13.8828 28.9418 14.0251 28.9032 13.9736C28.851 13.9214 28.6045 13.2203 28.3321 12.4027C28.0463 11.52 27.7218 10.7932 27.5403 10.611C26.9692 10.0399 25.9308 10.3387 25.7357 11.1305C25.6971 11.2992 25.9043 12.1561 26.2552 13.156C26.5668 14.1165 26.8263 14.9084 26.8005 14.9341C26.7877 14.947 26.1252 15.2843 25.3333 15.6738L23.9053 16.3878L23.1263 14.8169C22.1787 12.8694 21.8928 12.5192 21.3217 12.5192C21.088 12.5192 20.7507 12.6357 20.5556 12.7915C20.0103 13.2196 20.1011 13.7135 21.1267 15.7511L22.0222 17.5557L21.2825 18.1138C20.8801 18.4126 20.2311 18.9186 19.8545 19.2431L19.1663 19.827L17.6997 18.3733C16.3625 17.0625 16.1938 16.9325 15.7522 16.9325C15.129 16.9325 14.6358 17.3999 14.6358 17.9838C14.6358 18.334 14.8438 18.6199 16.0895 19.8791C17.193 20.9955 17.5175 21.3979 17.4267 21.5279C17.3488 21.6316 17.0243 22.0211 16.6999 22.4106C16.3625 22.7872 15.765 23.5662 15.3498 24.1373C12.8184 27.6814 11.2346 31.5494 10.0275 37.1189C9.97532 37.3526 9.87168 37.3784 9.09267 37.3784C8.36583 37.3784 8.09283 37.4434 7.61256 37.7286C5.01745 39.2609 4.01761 43.3239 5.49772 46.4006C6.38037 48.2567 7.84762 49.3473 9.30131 49.2179C9.70369 49.1922 10.1189 49.1272 10.2233 49.075C10.3791 49.01 10.5091 49.2694 10.8465 50.3214C12.4817 55.5137 15.8565 59.9791 20.4777 63.0816C22.9834 64.7561 26.6827 66.2748 29.9024 66.9631C34.3163 67.885 40.1968 68.0537 44.7794 67.3654C51.1794 66.4049 56.6576 63.7048 60.5384 59.6025C64.7315 55.1885 66.8734 49.9184 67.2758 43.1159L67.3666 41.5972H67.7168C68.2621 41.5972 69.3134 41.0262 69.7937 40.4937C70.9358 39.183 71.4553 36.9624 71.0658 35.0413C70.612 32.8479 69.3527 31.0569 67.6653 30.2257C66.8084 29.7976 66.6268 29.7583 65.9515 29.8105C65.5362 29.8491 65.1074 29.9141 65.0038 29.9663C64.8609 30.0184 64.6014 29.6161 63.9396 28.2525C62.4602 25.2021 60.5905 22.6185 58.1763 20.3079C57.125 19.2952 54.5807 17.2962 54.1912 17.1533C54.0875 17.1275 54.3077 16.5429 54.853 15.4137C55.7356 13.5963 55.762 13.4019 55.2296 12.8044C54.918 12.467 54.2948 12.4278 53.8667 12.7265C53.7109 12.8301 53.2435 13.5834 52.854 14.3753C52.4516 15.18 52.1007 15.8425 52.0878 15.8683C52.0621 15.9075 50.2318 15.0378 50.1146 14.9334C50.1017 14.9206 50.3483 14.1158 50.6599 13.1417C50.9972 12.1161 51.2052 11.2721 51.153 11.1299C50.9843 10.6367 50.5562 10.3122 50.0753 10.3122C49.4006 10.3122 49.1533 10.6625 48.5823 12.3891C48.31 13.2068 48.0499 13.9336 47.9984 13.9986C47.9076 14.0765 45.7914 13.4926 45.7914 13.3754C45.7914 13.3626 45.9994 12.7394 46.2459 11.9996C46.8692 10.1693 46.8563 9.68903 46.168 9.33814C45.2204 8.845 44.8437 9.19521 44.169 11.2335C43.8703 12.1161 43.5716 12.843 43.5065 12.843C43.4415 12.843 42.6496 12.7265 41.7412 12.5964L40.0796 12.3499V11.1034C40.0667 9.80555 39.9888 9.57185 39.4693 9.29885C39.0147 9.05228 38.6516 9.11731 38.2493 9.51968C37.8855 9.88345 37.8726 9.9478 37.8726 11.0642V12.2327L37.5224 12.3106C37.1851 12.3627 35.3676 12.5314 35.0817 12.5314C35.0167 12.5314 34.8609 11.9475 34.7315 11.2335C34.485 9.76626 34.3549 9.44178 33.901 9.27311C33.5115 9.11798 33.3557 9.11799 32.9662 9.27379ZM37.8733 15.7646C37.8733 17.1275 38.042 17.725 38.4572 17.8937C38.9118 18.0624 39.4435 17.9716 39.7551 17.6471C40.0538 17.3484 40.0796 17.2447 40.0796 15.9597C40.0796 14.9599 40.1182 14.5968 40.2483 14.5968C40.5727 14.5968 42.7018 14.9734 42.7797 15.0384C42.8183 15.0906 42.7147 15.5445 42.546 16.064C42.2994 16.8816 42.273 17.0639 42.4159 17.3362C42.6625 17.7907 42.9484 17.9594 43.4286 17.9723C44.0254 17.9723 44.4021 17.557 44.753 16.4664C44.9088 15.9733 45.0646 15.558 45.0646 15.5445C45.1553 15.4408 47.2194 16.1934 47.2194 16.3235C47.2194 16.4142 47.1022 16.8559 46.9471 17.2969C46.7134 17.9851 46.7005 18.1409 46.8563 18.4525C47.0642 18.8942 47.6482 19.1923 48.0763 19.0886C48.5566 18.9586 48.8553 18.5955 49.1019 17.8293C49.2319 17.4398 49.3484 17.1154 49.3613 17.0896C49.387 17.0639 49.7766 17.2454 50.244 17.4662L51.088 17.8944L50.582 18.9071C49.9716 20.1142 49.9459 20.4651 50.4519 20.9711C51.1788 21.6851 51.932 21.3213 52.5938 19.9327C52.8147 19.491 53.0348 19.1408 53.1134 19.1408C53.4379 19.1536 55.6963 20.984 57.0206 22.3212C60.5126 25.7996 62.7325 29.8498 64.0954 35.2371C64.9523 38.599 65.251 41.52 65.0173 44.1551C64.7186 47.5563 64.1083 49.8019 62.6674 52.6971C59.7594 58.5511 54.7879 62.6013 48.31 64.3801C42.6761 65.9253 34.6536 65.9896 28.9933 64.5102C24.7352 63.4067 21.1917 61.3949 18.3094 58.461C16.9336 57.046 16.4533 56.4492 15.5056 55.0341C12.7147 50.8024 11.4812 45.791 11.8964 40.4172C12.3638 34.3551 14.5965 28.5519 18.1278 24.1772C18.5695 23.6191 18.9976 23.1259 19.0755 23.0866C19.1405 23.0345 19.5686 23.3589 20.0103 23.8006C20.6464 24.4367 20.893 24.5925 21.2174 24.5925C21.8013 24.5925 22.0222 24.476 22.243 24.0472C22.5417 23.4761 22.3859 23.1124 21.5033 22.1911L20.7243 21.3735L21.8406 20.5037C22.451 20.0234 22.9963 19.6732 23.0478 19.7118C23.087 19.764 23.2815 20.0756 23.463 20.4129C23.9954 21.3863 24.7609 21.6072 25.4105 20.9582C25.7743 20.5945 25.735 20.0363 25.2805 19.1408L24.891 18.3618L26.2017 17.7128C26.9286 17.3491 27.526 17.0639 27.5518 17.0896C27.5647 17.1154 27.6818 17.4534 27.8112 17.8422C28.0835 18.6991 28.3044 18.9714 28.7846 19.0757C29.1999 19.1665 29.8753 18.8813 30.0046 18.5562C30.1347 18.206 30.0954 17.6471 29.8881 17.0632C29.7845 16.7645 29.6937 16.4271 29.6937 16.3363C29.6937 16.1155 32.952 15.0899 33.1335 15.2586C33.1593 15.2972 33.2636 15.791 33.3415 16.3492C33.458 17.1153 33.5752 17.4527 33.796 17.6735C34.2242 18.0888 34.9253 18.0759 35.3669 17.6342C35.7307 17.2705 35.7171 17.4527 35.4577 15.3887L35.3669 14.7526L36.2625 14.6618C37.0543 14.5968 37.431 14.5453 37.7812 14.4803C37.834 14.4796 37.8733 15.0506 37.8733 15.7646ZM67.1464 32.2511C68.2756 32.9523 69.1325 35.2236 69.0025 37.1582C68.9246 38.1967 68.6523 38.7941 68.0805 39.1315C67.4445 39.521 67.2365 39.4688 67.1457 38.8978C66.847 37.0932 66.3796 34.8476 66.0422 33.6791C65.835 32.9258 65.6534 32.2383 65.6534 32.1604C65.6534 31.8874 66.6655 31.9524 67.1464 32.2511ZM9.62579 42.5713C9.66508 44.2072 9.7423 45.8425 9.80733 46.1798C9.93739 46.8809 9.79446 47.0496 9.08048 47.0496C7.69181 47.0496 6.71772 44.7519 7.06861 42.3112C7.31518 40.5845 8.15922 39.4553 9.14551 39.546L9.57363 39.5847L9.62579 42.5713Z" fill="#151B26"/>
<path d="M44.4935 21.3077C41.0144 21.918 37.8597 24.1765 36.1337 27.3311C33.6545 31.8358 34.342 36.9631 37.9255 40.6759C40.2489 43.0773 43.1313 44.3494 46.3116 44.3494C48.6223 44.3623 50.6605 43.7526 52.543 42.4933C53.8152 41.6364 55.4897 39.9362 56.1515 38.8327C57.3979 36.7558 58.0726 34.2115 57.9433 32.1732C57.8396 30.5765 57.463 29.1486 56.814 27.9022C56.035 26.3963 55.6069 25.8253 54.4384 24.6568C52.1278 22.359 49.2976 21.1905 46.1565 21.2298C45.4154 21.2427 44.6757 21.282 44.4935 21.3077ZM49.3356 23.852C50.647 24.2801 51.9449 25.0591 52.8797 25.9811C53.5551 26.6429 54.5542 27.9543 54.4506 28.0451C54.3727 28.123 37.4452 29.7847 37.3802 29.7196C37.2501 29.6031 38.3793 27.5255 38.9768 26.773C40.1189 25.3579 42.2608 24.0471 44.169 23.6312C45.5841 23.3196 48.0377 23.4239 49.3356 23.852ZM55.5669 31.3291C55.6448 31.8352 55.6706 32.2897 55.6191 32.329C55.5412 32.4069 50.0373 33.0172 49.362 33.0301C49.1283 33.0301 49.1025 32.9393 49.1025 32.2125C49.1025 31.7708 49.0504 31.2777 48.9989 31.109C48.9081 30.8624 48.9339 30.8231 49.2583 30.8102C49.4534 30.8102 50.8807 30.6802 52.413 30.5115C53.9446 30.3557 55.256 30.2649 55.3075 30.3171C55.3719 30.3557 55.4755 30.8231 55.5669 31.3291ZM44.8309 31.7837C44.7787 32.1474 44.8051 32.5369 44.9216 32.8872C45.0253 33.173 45.1032 33.4196 45.0903 33.4325C45.0903 33.4325 43.2728 33.6269 41.0659 33.8606C38.1192 34.1722 37.0543 34.2372 37.0157 34.1329C36.9771 34.0421 36.9636 33.549 36.99 33.0165L37.0286 32.056L40.9229 31.6536C43.0649 31.4199 44.843 31.2384 44.8695 31.2255C44.8959 31.2255 44.8701 31.4721 44.8309 31.7837ZM55.3332 35.5873C54.5156 38.4174 52.205 40.7666 49.3877 41.6628C45.3118 42.9607 41.0151 41.65 38.7302 38.4439C38.172 37.652 37.5617 36.5485 37.6396 36.4706C37.7561 36.3669 55.4633 34.6531 55.5019 34.7439C55.5277 34.7954 55.4498 35.1849 55.3332 35.5873Z" fill="#151B26"/>
<path d="M23.2169 26.8117C22.217 26.9803 20.8284 27.4864 19.9843 27.993C19.5691 28.2267 18.7508 28.9143 18.1411 29.5246C17.1806 30.4723 16.934 30.8225 16.3629 31.991C15.5325 33.6913 15.2852 34.704 15.2595 36.4957C15.2466 37.9623 15.4153 38.8971 15.9477 40.1178C17.4278 43.519 21.1271 45.8811 24.9571 45.8811C26.5016 45.8811 27.7222 45.6088 28.9815 44.9856C31.5001 43.7392 33.3304 41.4936 34.1352 38.6634C34.5768 37.119 34.5504 34.7819 34.0701 33.354C33.031 30.2393 30.4217 27.8894 26.9683 26.9803C26.047 26.7338 24.1124 26.643 23.2169 26.8117ZM26.761 29.0708C27.7995 29.3431 29.1495 30.0706 29.747 30.6803L30.2273 31.1734L23.8794 33.4583C20.3738 34.7176 17.4793 35.756 17.4271 35.756C17.2971 35.756 17.4658 34.7697 17.7645 33.8478C18.4785 31.628 20.4517 29.8498 22.9832 29.1223C23.9959 28.8371 25.7612 28.8113 26.761 29.0708ZM31.8882 34.0293C32.044 34.471 32.1606 34.912 32.1606 35.0028C32.1606 35.1064 31.0185 35.5867 29.2918 36.2099C27.708 36.7809 26.3837 37.2612 26.3322 37.2876C26.2801 37.3005 26.2672 37.0932 26.2929 36.8331C26.3187 36.4957 26.2279 36.1449 26.0335 35.7425L25.7219 35.145L28.5907 34.1066C30.1616 33.5355 31.4852 33.1067 31.5373 33.146C31.5766 33.186 31.7453 33.5884 31.8882 34.0293ZM21.9054 36.8466C21.9054 37.314 22.1391 37.8465 22.4893 38.2224L22.8009 38.5469L20.724 39.2995C19.5684 39.7147 18.5692 40.0263 18.4785 40.0006C18.3355 39.9484 17.8295 38.7671 17.7252 38.2482C17.6995 38.131 18.3484 37.8201 19.6985 37.3134C20.8019 36.8981 21.7496 36.5608 21.8146 36.5472C21.8668 36.535 21.9054 36.678 21.9054 36.8466ZM32.0833 38.2482C31.1099 41.9353 27.0855 44.4145 23.3341 43.6227C22.2563 43.4018 20.6861 42.6878 20.2573 42.2204L19.9714 41.9217L25.9691 39.754C29.2667 38.5598 32.0312 37.5864 32.1226 37.5728C32.2256 37.5735 32.2256 37.755 32.0833 38.2482Z" fill="#151B26"/>
<path d="M44.4679 46.9202C37.1466 47.6863 30.5521 51.7622 26.7743 57.8507C26.5534 58.2009 26.3461 58.4739 26.3069 58.4739C26.1511 58.4739 25.9174 57.7599 25.8395 57.0073C25.7094 55.8002 25.1126 55.3457 24.1907 55.7609C22.7756 56.4099 24.1128 60.0055 26.2933 61.382C27.0202 61.8365 28.2794 62.2389 28.9806 62.2389C29.7467 62.2389 30.2141 61.8236 30.2141 61.1354C30.2141 60.46 29.7467 60.0319 29.0198 60.0319C28.0722 60.0319 28.0593 59.9412 28.9291 58.5911C34.4072 50.127 44.6759 46.7651 54.1391 50.3743C55.3591 50.8417 55.2812 51.0103 53.7889 51.1661C52.4389 51.3091 51.9715 52.2046 52.8155 53.0486C53.1921 53.4381 53.2443 53.4381 54.0097 53.3602C56.1259 53.1394 58.1378 51.452 58.7996 49.3487C59.2928 47.752 58.9683 46.7915 57.9298 46.7915C57.1901 46.7915 56.9436 47.1288 56.7742 48.401C56.7349 48.6733 56.6834 48.9206 56.6577 48.9463C56.632 48.9849 56.0216 48.7648 55.3205 48.4918C53.8668 47.9079 52.1008 47.414 50.4392 47.1288C48.9984 46.8809 45.9216 46.7773 44.4679 46.9202Z" fill="#151B26"/>
</svg>
