<svg width="100" height="100" viewBox="0 0 100 100" fill="none" xmlns="http://www.w3.org/2000/svg">
<path d="M14.4999 7.00024L8.49988 14.5002L6.49988 19.5002V32.0002L14.4999 61.5002L22.9999 71.5002H27.9999L31.9999 69.5002L39.9999 73.0002L48.4999 71.5002L49.9999 88.5002L53.4999 94.0002L60.4999 96.5002L68.4999 94.0002L73.9999 88.5002L77.4999 69.5002H82.9999L94.9999 64.0002V59.0002L91.9999 57.0002L85.9999 59.0002L83.9999 57.0002L88.4999 48.5002L94.9999 26.0002V16.5002L90.9999 11.0002L85.9999 7.00024L78.9999 5.00024L70.4999 3.50024L61.4999 5.00024H53.4999L45.4999 6.00024L39.9999 7.00024L30.4999 5.00024H22.9999L14.4999 7.00024Z" fill="white"/>
<path fill-rule="evenodd" clip-rule="evenodd" d="M97.2952 59.9877C96.9436 57.7081 95.0288 56.2151 92.8014 56.1143C91.9952 56.0776 91.1764 56.162 90.3725 56.2643C89.4014 56.3877 88.4421 56.6065 87.4733 56.751C86.8038 56.851 86.1249 56.8971 85.4561 56.9659L85.4397 56.8792C86.6882 54.5213 87.9889 52.1893 89.1702 49.7979C90.0757 47.9635 90.8507 46.0627 91.6514 44.1776C92.9764 41.0541 94.035 37.8338 94.9116 34.5612C95.7514 31.4276 96.4702 28.2596 96.696 25.0088C96.7866 23.7104 96.8491 22.4065 96.8421 21.1065C96.8358 20.0698 96.7241 19.0315 96.6202 17.9979C96.503 16.8135 96.1452 15.6909 95.6499 14.6104C94.9967 13.187 93.9843 12.019 92.9186 10.9096C92.0655 10.0213 91.1272 9.21196 90.1967 8.40337C88.8702 7.24946 87.3788 6.32837 85.8296 5.5104C84.0746 4.57784 82.2153 3.85666 80.2905 3.36196C79.1241 3.06431 77.9311 2.84321 76.7499 2.60728C76.3249 2.52134 75.8991 2.34399 75.4741 2.34399H67.4733C67.1842 2.34399 66.8975 2.49321 66.6061 2.52603C64.6905 2.73931 62.7975 3.10024 60.9593 3.66978C60.2718 3.88306 59.6436 3.74868 58.9905 3.68853C58.4897 3.64243 57.9975 3.50806 57.4968 3.48306C55.5889 3.38774 53.6788 3.2479 51.7718 3.26821C49.9444 3.28696 48.1358 3.58774 46.3671 4.09009C44.8866 4.5104 43.4382 5.02368 42.1116 5.80181C41.5436 6.13462 41.0936 6.07212 40.5061 5.90259C38.5319 5.33306 36.5436 4.7979 34.5382 4.34868C33.2882 4.06899 32.003 3.92993 30.7264 3.79634C29.5015 3.66903 28.2718 3.5924 27.0405 3.56665C25.8389 3.54087 24.6288 3.54165 23.4327 3.6479C21.5276 3.81352 19.6497 4.21045 17.8405 4.82993C15.8368 5.51409 13.9646 6.53527 12.3046 7.84946C10.6116 9.18931 9.25378 10.8252 8.1616 12.6932C7.01082 14.6643 6.22175 16.7745 5.73113 18.9909C5.4655 20.1917 5.29753 21.426 5.1155 22.6456C5.05847 23.0252 5.68738 23.4049 4.90613 23.7831V29.0909C5.68738 29.444 5.06863 29.7963 5.11394 30.1502C5.22253 31.001 5.31863 31.8588 5.46238 32.7034C5.68972 34.0401 5.95925 35.3729 6.23425 36.701C6.6161 38.5573 7.01873 40.4092 7.44207 42.2565C7.75144 43.6002 8.10378 44.9362 8.47253 46.2651C9.03582 48.2948 9.5905 50.3284 10.2272 52.3354C10.8186 54.2002 11.496 56.0385 12.1678 57.8768C13.0983 60.4198 14.2124 62.8807 15.5483 65.2393C16.7038 67.2815 18.0241 69.194 19.7952 70.7674C20.9624 71.8042 22.2616 72.601 23.7741 72.9995C24.9624 73.312 26.1702 73.3495 27.3866 73.1002C28.7725 72.8183 30.0672 72.1981 31.1553 71.2948C31.2827 71.1901 31.4225 71.1104 31.5733 71.3026C32.1475 72.0299 32.9163 72.5151 33.7202 72.9346C35.8897 74.0659 38.2538 74.4049 40.6553 74.5432C41.2366 74.5768 41.8241 74.4932 42.41 74.4768C43.5514 74.4456 44.6608 74.2229 45.7522 73.9073C46.3241 73.7416 46.8827 73.5315 47.4647 73.3354C47.4952 73.9549 47.5343 74.5518 47.5522 75.1487L47.6335 78.4034C47.6483 78.8987 47.6678 79.3956 47.7139 79.8885C47.8319 81.1596 47.9475 82.4315 48.0991 83.6987C48.2046 84.5721 48.3139 85.4526 48.5194 86.3049C48.9313 88.0256 49.4955 89.7062 50.2053 91.3268C50.8849 92.8999 51.9293 94.2884 53.2522 95.3776C54.9866 96.812 57.0194 97.4237 59.2147 97.537C60.1225 97.5846 61.0561 97.5401 61.9499 97.3776C63.3704 97.1251 64.7755 96.7925 66.1585 96.3815C68.9639 95.5346 71.3889 94.0721 73.2007 91.7088C74.2319 90.362 75.0788 88.9049 75.6225 87.2963C76.071 85.9674 76.4936 84.6252 76.8296 83.2651C77.0952 82.1932 77.2264 81.0877 77.3882 79.9932C77.4952 79.269 77.5592 78.5377 77.6264 77.8081C77.7358 76.6229 77.8475 75.4385 77.9264 74.251C77.9811 73.4245 77.9788 72.594 78.0116 71.7659C78.0218 71.5135 78.0624 71.2627 78.0858 71.0112C78.1077 70.7784 78.2249 70.6979 78.4624 70.7018C79.2991 70.7143 80.1374 70.7362 80.9717 70.6987C81.9069 70.6565 82.8507 70.6167 83.771 70.462C85.0823 70.2429 86.3831 69.9648 87.6694 69.6284C89.1874 69.2315 90.5796 68.5206 91.9194 67.7104C93.4803 66.7674 94.903 65.6612 96.0577 64.2362C97.0616 62.9932 97.5374 61.5565 97.2952 59.9877ZM94.6296 60.7549C94.578 61.4698 94.2507 62.0823 93.7757 62.6057C91.5342 65.0768 88.7225 66.576 85.5061 67.3143C84.2843 67.594 83.0233 67.7393 81.7725 67.8549C80.7039 67.9489 79.6303 67.9742 78.5585 67.9307C77.7725 67.901 76.9928 67.7213 76.1897 67.6057C76.1093 68.3401 76.0327 69.1049 75.9397 69.8682L75.5655 72.794C75.4522 73.7213 75.3639 74.6518 75.2475 75.5784C75.1335 76.4776 74.9913 77.3737 74.8717 78.2729C74.76 79.1104 74.678 79.9518 74.5538 80.7877C74.3624 82.069 74.1796 83.3534 73.9296 84.6245C73.6296 86.144 73.1694 87.6159 72.4186 88.9862C71.503 90.6588 70.2046 91.9331 68.5522 92.8768C66.8491 93.8503 64.9874 94.3565 63.0999 94.7799C61.7639 95.0799 60.3874 95.1292 59.0342 95.0073C56.6874 94.7948 54.6843 93.7909 53.1702 91.9713C51.7249 90.2346 50.7468 88.244 50.3968 85.9909C50.2334 84.9183 50.1054 83.8406 50.0132 82.7596C49.9095 81.5583 49.8316 80.3549 49.7796 79.1502C49.7103 77.622 49.659 76.093 49.6257 74.5635C49.5843 72.6838 49.571 70.8042 49.5444 68.9245L49.5397 68.8526C48.5835 69.426 47.6436 70.0542 46.6468 70.5713C45.4818 71.174 44.2065 71.5336 42.8983 71.6284C41.8686 71.7065 40.8257 71.7776 39.8007 71.6956C38.1202 71.5604 36.4413 71.2971 34.9366 70.4698C34.3264 70.1338 33.6897 69.7252 33.2694 69.1885C32.2616 67.9026 32.7444 66.2776 34.2639 65.4956C35.3139 64.9542 36.46 64.7284 37.5983 64.4651C38.5891 64.2403 39.5694 63.9721 40.5366 63.6612C41.4913 63.3487 42.0936 62.5745 42.6882 61.8151L43.6303 60.6034C43.2374 60.562 42.8671 60.5198 42.4968 60.4854C41.3725 60.3792 40.2999 60.0698 39.2741 59.6151C38.396 59.2268 38.3827 59.1846 37.7389 59.8831C36.6639 61.0502 35.6186 62.2448 34.5655 63.4315C33.7905 64.3041 33.0202 65.1823 32.2491 66.0573C31.485 66.9229 30.7694 67.8377 29.9468 68.6432C28.7249 69.8393 27.2522 70.5588 25.4952 70.4776C24.3678 70.426 23.3358 70.0307 22.4077 69.3846C20.4921 68.0502 19.2014 66.1838 18.0264 64.2237C16.521 61.712 15.3655 59.0362 14.3764 56.287C13.6921 54.387 13.0046 52.4854 12.4069 50.5581C11.7577 48.4635 11.1882 46.3424 10.628 44.2221C10.2096 42.6202 9.82357 41.01 9.47019 39.3924C9.05813 37.5554 8.67683 35.7117 8.32644 33.862C8.09363 32.6127 7.95847 31.3456 7.77019 30.0877C7.51628 28.3924 7.46941 26.6815 7.5616 24.9792C7.64363 23.4456 7.86394 21.9159 8.08269 20.3924C8.38582 18.2846 9.08035 16.2956 10.0796 14.4174C10.6913 13.2667 11.4507 12.2206 12.3288 11.2487C13.7702 9.65337 15.5147 8.50024 17.4553 7.63462C18.8116 7.02993 20.2444 6.66587 21.7046 6.38149C23.8718 5.95962 26.0585 5.97603 28.246 6.02134C29.2022 6.04087 30.1546 6.21509 31.11 6.30962C33.1671 6.51431 35.1835 6.94712 37.1741 7.48149C38.6249 7.87056 40.046 8.37446 41.485 8.81196C41.6296 8.85571 41.8413 8.85181 41.9593 8.77446C43.9093 7.50181 46.0405 6.66196 48.3069 6.18149C49.1671 5.99946 50.0546 5.91978 50.9343 5.86353C52.0038 5.79556 53.0819 5.73306 54.1491 5.79478C55.4319 5.86821 56.7085 6.05728 57.9835 6.23228C58.6022 6.31665 59.2061 6.53149 59.8264 6.59009C60.1233 6.61821 60.4382 6.40103 60.7522 6.32837C62.353 5.95884 63.9468 5.54712 65.5616 5.25493C66.7639 5.03774 67.9921 4.9354 69.2147 4.86509C70.578 4.78696 71.9514 4.72993 73.3139 4.79556C75.0392 4.881 76.7532 5.12234 78.435 5.51665C80.5264 6.00337 82.5327 6.7104 84.4397 7.69165C85.8647 8.42446 87.2194 9.27446 88.4389 10.3198C89.2382 11.0057 90.0561 11.6831 90.778 12.4471C91.6686 13.3893 92.5772 14.3323 93.1358 15.5393C93.5561 16.4495 93.8561 17.3917 93.9389 18.3885C94.0421 19.6276 94.1671 20.8713 94.1553 22.112C94.1444 23.2987 93.9827 24.4846 93.8679 25.6682C93.6069 28.3666 93.0202 31.0065 92.3077 33.6112C91.7117 35.7628 91.037 37.8918 90.285 39.994C89.5983 41.9323 88.8061 43.8354 88.0053 45.7307C87.4159 47.1346 86.7753 48.5165 86.085 49.8737C84.7749 52.4409 83.4124 54.9815 81.8366 57.3995C81.5647 57.8174 81.3069 58.2456 81.0413 58.6721C81.7288 59.1362 82.5077 59.2995 83.2921 59.3838C84.0382 59.4651 84.7991 59.5135 85.5444 59.4581C86.7374 59.3698 87.9264 59.1995 89.1124 59.0331C90.2874 58.869 91.4389 58.5346 92.6452 58.6229C93.8499 58.7104 94.7116 59.626 94.6296 60.7549ZM77.4319 58.1354C76.9202 57.4745 76.3983 56.8213 75.8975 56.1526C75.1116 55.1026 74.5468 53.9299 73.9796 52.7518C73.4421 51.6354 72.7827 50.5784 72.2163 49.4745C71.228 47.5487 70.2218 45.6292 69.3116 43.6659C68.1671 41.1995 67.2647 38.6456 66.9803 35.9135C66.86 34.7573 66.8296 33.6026 67.0632 32.4573C67.4374 30.6284 68.3928 29.1979 69.9991 28.2167C71.4889 27.3065 73.1491 27.0127 74.8499 26.9206C75.9053 26.8635 76.9655 26.9104 78.0608 26.9104L78.0241 26.7252C77.3428 25.301 76.7061 23.8526 75.9608 22.462C74.9092 20.4995 73.5639 18.7299 72.0655 17.0893C70.9553 15.8745 69.753 14.7471 68.4358 13.751C67.1405 12.7706 65.7757 11.8948 64.3194 11.1784C62.5827 10.3245 60.7741 9.66431 58.8764 9.24321C57.053 8.83853 55.2178 8.59087 53.3475 8.57056C51.7522 8.55337 50.1671 8.62524 48.6132 8.9854C46.2678 9.52837 44.1225 10.494 42.2561 12.0581C41.2235 12.9241 40.3008 13.9132 39.5085 15.0034C38.5741 16.287 37.8202 17.6729 37.1757 19.126C36.2913 21.1198 35.6843 23.1948 35.2694 25.3276C35.0616 26.3909 34.8991 27.4635 34.7335 28.5354C34.6757 28.9104 34.671 29.294 34.6374 29.7237C34.9257 29.5737 35.1335 29.4581 35.346 29.3549L36.0374 29.0448C38.3757 27.9752 40.7983 27.287 43.4022 27.3659C44.5085 27.3995 45.5671 27.6182 46.5507 28.1026C48.4374 29.0331 49.5413 30.6151 50.021 32.6174C50.3522 33.9995 50.5788 35.4088 50.7991 36.8143C50.9718 37.912 51.1483 39.0213 51.1686 40.1284C51.1975 41.7463 51.1155 43.3674 51.0272 44.9846C50.9514 46.3597 50.6669 47.7154 50.1835 49.0049C49.3085 51.3432 48.3335 53.6432 47.4225 55.9682C47.1218 56.7362 46.8905 57.5315 46.6061 58.376C47.0452 58.376 47.4014 58.3729 47.7577 58.3776C47.8968 58.3799 48.0389 58.3838 48.1733 58.4159C49.2202 58.6627 50.128 59.137 50.8725 59.9424C51.8655 61.0143 52.3866 62.2651 52.4132 63.7127C52.428 64.5151 52.3436 65.3198 52.3475 66.1221C52.3639 69.8612 52.3921 73.6002 52.4233 77.3385C52.4288 77.9495 52.4593 78.5612 52.503 79.1713C52.5944 80.4487 52.6866 81.7268 52.8116 83.001C52.8991 83.9049 53.021 84.8073 53.1639 85.7049C53.3663 86.9768 53.9452 88.1088 54.6022 89.1909C55.1678 90.1213 55.903 90.912 56.8718 91.4573C58.5178 92.3838 60.2905 92.4612 62.0772 92.1198C63.2843 91.8893 64.4694 91.519 65.6413 91.137C66.7937 90.7672 67.8459 90.1381 68.7171 89.2979C69.5382 88.5018 70.121 87.5315 70.5139 86.4604C71.2764 84.3831 71.5139 82.1956 71.8296 80.0252C71.9475 79.2127 72.0499 78.3979 72.1577 77.5838C72.2803 76.6573 72.4046 75.7315 72.5233 74.8057C72.6108 74.1159 72.6905 73.4245 72.7749 72.7346C72.8952 71.744 73.0225 70.7542 73.1374 69.7627C73.2257 68.9963 73.3007 68.2268 73.3788 67.4588C73.4796 66.4776 73.5882 65.4963 73.6749 64.5135C73.7421 63.7674 73.7147 63.0081 73.8468 62.276C74.0897 60.9338 74.7241 59.7916 75.9139 59.0534C76.4116 58.7448 76.9733 58.5416 77.5257 58.2807L77.4319 58.1354ZM32.4343 52.626C31.8409 51.2306 31.4834 49.7464 31.3764 48.2338C31.2764 46.8081 31.446 45.3877 31.5921 43.9682C31.7343 42.5932 31.8522 41.212 31.8936 39.8307C31.9624 37.5604 31.8093 35.2932 31.7007 33.0245C31.635 31.6737 31.7921 30.3065 31.9124 28.9526C32.021 27.7331 32.1561 26.5104 32.3866 25.3088C32.7733 23.2924 33.2866 21.3049 34.0163 19.3784C34.7093 17.5518 35.5053 15.7729 36.6296 14.1713C37.3999 13.0729 38.2741 12.0463 39.1139 10.9729L38.8647 10.8846C36.1319 10.0167 33.3546 9.33853 30.4983 9.04243C29.1475 8.90259 27.7921 8.82056 26.4374 8.74009C26.0218 8.71509 25.5999 8.77134 25.1827 8.81118C24.1499 8.90962 23.1046 8.94868 22.0882 9.14243C20.3585 9.47134 18.6991 10.0245 17.1624 10.9252C15.7827 11.7338 14.6241 12.7792 13.6538 14.0331C12.5819 15.4174 11.8608 16.9831 11.3428 18.6526C10.7311 20.6221 10.4397 22.6487 10.3608 24.694C10.2921 26.487 10.2577 28.2901 10.5671 30.076C10.7975 31.4057 10.9514 32.7495 11.2053 34.0737C11.5514 35.8792 11.9225 37.6807 12.3514 39.4674C12.9647 42.0252 13.5772 44.587 14.3038 47.1135C14.9991 49.5346 15.7835 51.9338 16.6335 54.3042C17.3288 56.2385 18.1327 58.137 18.9796 60.0104C19.5311 61.2307 20.1991 62.4049 20.8991 63.5479C21.6436 64.7612 22.4905 65.9127 23.6397 66.7932C25.0897 67.9049 26.2124 68.0776 27.6858 66.8581C28.3171 66.3354 28.8507 65.6901 29.3999 65.0752C30.2725 64.0987 31.1147 63.0956 31.9835 62.1159C33.0897 60.8674 34.21 59.6323 35.3218 58.3901C35.5569 58.1276 35.7827 57.8573 36.0116 57.5917L35.6335 57.2596C34.2605 55.9509 33.1715 54.3737 32.4343 52.626ZM74.378 15.4627C75.287 16.5195 76.1495 17.6153 76.9632 18.7471C78.5257 20.9417 79.7741 23.3112 80.6936 25.8463C81.1007 26.9635 81.4257 28.0917 81.2803 29.3143C81.1796 30.1706 81.1882 31.0393 81.1124 31.9002C81.0491 32.6167 80.9358 33.3292 80.8428 34.0432C80.7038 35.1198 80.5022 36.1932 80.4421 37.2745C80.385 38.3034 80.4444 39.3432 80.5093 40.3745C80.5749 41.4221 80.7163 42.4651 80.8124 43.5112C80.921 44.6971 81.0671 45.8831 81.1007 47.0713C81.128 48.0471 81.0413 49.0291 80.9561 50.0034C80.8546 51.1768 80.5569 52.3127 80.1132 53.4026C79.8014 54.1698 79.4288 54.9135 79.0764 55.6815L79.2178 55.8315L79.4327 55.9979L79.6491 55.6104C81.4766 52.7343 83.1009 49.734 84.51 46.6315C85.4117 44.6287 86.2679 42.6058 87.078 40.5643C88.3468 37.3893 89.3507 34.1252 90.1272 30.7963C90.4757 29.3018 90.7421 27.7846 90.9788 26.2674C91.1632 25.0815 91.3171 23.8815 91.3514 22.6846C91.3882 21.4151 91.3178 20.1354 91.2007 18.869C91.1132 17.9127 90.8772 16.9502 90.278 16.1729C89.3147 14.9213 88.2749 13.7245 86.996 12.7776C85.9194 11.9799 84.8468 11.162 83.6913 10.4909C81.8593 9.42837 79.8764 8.72056 77.8046 8.23853C75.7827 7.76743 73.7343 7.56431 71.6725 7.52134C70.4569 7.49556 69.2358 7.62603 68.0225 7.74009C66.9233 7.84321 65.8311 8.01899 64.7241 8.16431C65.9116 8.83228 67.0827 9.42603 68.1874 10.126C70.51 11.5971 72.5913 13.3674 74.378 15.4627ZM44.2022 56.6518C44.953 54.251 45.9757 51.9588 46.9663 49.6526C47.7694 47.7823 48.2085 45.812 48.3546 43.7885C48.4272 42.7909 48.4069 41.7807 48.3577 40.7799C48.3088 39.6666 48.2066 38.5562 48.0514 37.4526C47.8436 36.0456 47.6069 34.6377 47.2741 33.2565C46.9132 31.762 46.003 30.7213 44.4436 30.3377C43.4936 30.1042 42.5499 30.1135 41.5897 30.2651C39.2444 30.6346 37.0975 31.4987 35.0975 32.7643C34.6952 33.019 34.4741 33.2245 34.5436 33.8018C34.6905 35.0245 34.7225 36.2667 34.7171 37.501C34.7093 39.2479 34.635 40.9948 34.5686 42.7409C34.5468 43.3096 34.4647 43.8752 34.4038 44.4417C34.31 45.3088 34.1296 46.1752 34.135 47.0409C34.1405 47.9331 34.2319 48.8463 34.4483 49.7104C35.1358 52.4502 36.5921 54.6924 38.9788 56.2745C40.4468 57.2471 42.071 57.7377 43.8538 57.8307C43.9749 57.4213 44.0827 57.0346 44.2022 56.6518ZM41.4007 33.1463C41.0866 32.487 41.2663 31.9409 41.9944 31.6877C42.1718 31.6252 42.3546 31.5588 42.5389 31.5409C42.7921 31.5159 43.0499 31.5346 43.3061 31.5346C44.2296 31.5393 45.1178 31.6682 45.8803 32.2557C46.3694 32.6323 46.5007 33.1323 46.1842 33.6456C45.735 34.3737 45.0499 34.7393 44.2085 34.8096C42.8827 34.9198 41.9522 34.3018 41.4007 33.1463ZM78.1507 32.9057C78.2569 32.0276 78.3421 31.1471 78.4507 30.269C78.4944 29.9159 78.3085 29.8206 78.0124 29.812C77.0811 29.7862 76.1499 29.7534 75.2186 29.7362C74.1686 29.7174 73.1468 29.8862 72.1749 30.2854C71.0967 30.7292 70.2757 31.4401 69.9405 32.6135C69.6953 33.4789 69.6176 34.3831 69.7116 35.2776C69.8421 36.6608 70.1555 38.0206 70.6436 39.3213C71.2952 41.0565 71.9772 42.7909 72.7921 44.4534C73.896 46.7042 75.1452 48.8831 76.3178 51.0995C76.6311 51.6909 76.8944 52.3081 77.221 52.9987C77.8794 51.6257 78.2391 50.1287 78.2764 48.6065C78.3085 47.3487 78.2077 46.0854 78.1343 44.8268C78.0882 44.0565 77.9796 43.2909 77.9046 42.5221C77.7999 41.451 77.6413 40.3807 77.6171 39.3073C77.5928 38.2159 77.6702 37.1182 77.7639 36.0284C77.8522 34.9831 78.0249 33.9463 78.1507 32.9057ZM76.0499 32.0604C75.7038 33.0159 74.9639 33.5549 74.0046 33.7135C73.11 33.8604 72.3264 33.5299 71.7436 32.8167C71.3288 32.3088 71.4874 31.7073 72.1093 31.3643C72.8233 30.969 73.6085 30.869 74.5343 30.8088C74.7858 30.8549 75.1647 30.8932 75.5249 30.9963C76.0475 31.144 76.2405 31.537 76.0499 32.0604ZM48.3764 61.4823C47.8647 61.0643 47.1882 61.0401 46.7014 61.4987C46.0975 62.069 45.5663 62.7213 45.035 63.3643C44.4218 64.1073 43.8468 64.8799 43.0553 65.4557C41.9038 66.2924 40.5616 66.6393 39.2124 66.9674C38.1397 67.2284 37.0624 67.4706 35.9866 67.7213L35.9733 67.8604C36.2928 68.0081 36.6022 68.1924 36.935 68.2979C38.5757 68.8174 40.2444 69.076 41.978 68.9291C43.2296 68.8229 44.4218 68.5502 45.5514 68.0143C47.1061 67.2776 48.3022 66.1104 49.3194 64.7526C49.4897 64.526 49.5671 64.1909 49.5874 63.8987C49.6569 62.8666 49.1327 62.0995 48.3764 61.4823ZM88.8069 61.8932C87.4866 62.0346 86.1647 62.1846 84.8405 62.2604C84.2014 62.2971 83.553 62.1752 82.9077 62.1229C81.8257 62.0354 80.7694 61.7948 79.8546 61.2167C79.3249 60.8831 78.885 60.8456 78.3225 61.0346C77.5194 61.3049 76.8639 61.7159 76.6702 62.5862C76.5382 63.1745 76.4905 63.7838 76.4374 64.3862C76.4272 64.4924 76.56 64.6877 76.6616 64.7143C77.2811 64.8776 77.9038 65.0706 78.5374 65.1276C79.3155 65.1979 80.1077 65.1752 80.8913 65.1362C81.7374 65.094 82.5889 65.0393 83.4225 64.8987C85.3874 64.569 87.2882 64.0315 88.9764 62.9174C89.585 62.5151 90.1882 62.1041 90.7928 61.6971L90.7429 61.6112C90.0975 61.7073 89.4553 61.8245 88.8069 61.8932Z" fill="#336791"/>
</svg>
