<svg width="20" height="20" viewBox="0 0 20 20" fill="none" xmlns="http://www.w3.org/2000/svg">
<g clip-path="url(#clip0_487_5)">
<path d="M19.9653 9.37726C19.8589 9.08983 19.54 8.94416 19.2526 9.05046C18.4652 9.34182 17.6619 9.58987 16.8509 9.80248L15.4453 3.01855C15.1303 1.41214 13.4412 0.356951 11.7521 0.943605C10.6221 1.34914 9.37791 1.34914 8.24791 0.943605C6.64938 0.396323 4.9406 1.29009 4.55081 3.01855L3.14914 9.80248C2.33412 9.58987 1.53485 9.34182 0.747397 9.05046C0.459976 8.94416 0.141056 9.08983 0.0347498 9.37726C-0.0715567 9.66468 0.0741226 9.9836 0.361544 10.0899C6.68088 12.3578 13.3113 12.3657 19.6385 10.0899C19.9259 9.9836 20.0716 9.66468 19.9653 9.37726ZM4.23189 10.0623L4.74767 7.57398H6.14934C6.45645 7.57398 6.7045 7.32593 6.7045 7.01883C6.7045 6.71172 6.45645 6.46367 6.14934 6.46367H4.97997L5.20833 5.35336H7.5392C7.84631 5.35336 8.09436 5.10531 8.09436 4.7982C8.09436 4.49109 7.84631 4.24304 7.5392 4.24304H5.44063L5.64537 3.24691C5.81861 2.37677 6.78718 1.62475 7.87781 1.99486C9.24798 2.48702 10.7599 2.48702 12.1301 1.99486C13.2837 1.62082 14.1971 2.41615 14.3625 3.24691L15.7721 10.0623C11.9883 10.8852 8.01168 10.8852 4.23189 10.0623Z" fill="#FFC400"/>
<path d="M17.725 15.7319C17.4021 14.3618 15.8784 13.3184 14.0515 13.3184C12.3073 13.3184 10.8465 14.2633 10.4331 15.539C10.13 15.4681 9.87797 15.4681 9.5748 15.539C9.16138 14.2633 7.69671 13.3145 5.9525 13.3145C4.12166 13.3145 2.59794 14.3578 2.27902 15.728C2.03491 15.7871 1.84985 16.0036 1.84985 16.2674C1.84985 16.5312 2.03491 16.7478 2.27902 16.8068C2.60187 18.177 4.1256 19.2204 5.9525 19.2204C7.84239 19.2204 9.40549 18.1061 9.65354 16.669C9.92915 16.5745 10.0748 16.5706 10.3465 16.6651C10.5906 18.1061 12.1577 19.2204 14.0515 19.2204C15.8823 19.2204 17.4021 18.177 17.725 16.8068C17.9691 16.7478 18.1541 16.5312 18.1541 16.2674C18.1541 16.0115 17.9691 15.791 17.725 15.7319ZM5.9525 18.114C4.5272 18.114 3.3224 17.2714 3.3224 16.2753C3.3224 15.2792 4.5272 14.4326 5.9525 14.4326C7.37779 14.4326 8.5826 15.2752 8.5826 16.2753C8.5826 17.2754 7.37779 18.114 5.9525 18.114ZM14.0475 18.114C12.6222 18.114 11.4174 17.2714 11.4174 16.2753C11.4174 15.2792 12.6222 14.4326 14.0475 14.4326C15.4728 14.4326 16.6776 15.2752 16.6776 16.2753C16.6776 17.2754 15.4728 18.114 14.0475 18.114Z" fill="#FFC400"/>
</g>
<defs>
<clipPath id="clip0_487_5">
<rect width="20" height="20" fill="white"/>
</clipPath>
</defs>
</svg>
