<svg width="15" height="14" viewBox="0 0 15 14" fill="none" xmlns="http://www.w3.org/2000/svg">
<g clip-path="url(#clip0_89_632)">
<path d="M14.7608 6.56406C14.6864 6.36286 14.4632 6.26088 14.262 6.3353C13.7108 6.53925 13.1485 6.71288 12.5808 6.86171L11.5968 2.11296C11.3763 0.988475 10.194 0.249841 9.01162 0.660499C8.22062 0.944377 7.3497 0.944377 6.5587 0.660499C5.43972 0.277402 4.24358 0.903036 3.97072 2.11296L2.98955 6.86171C2.41904 6.71288 1.85955 6.53925 1.30833 6.3353C1.10714 6.26088 0.883896 6.36286 0.809481 6.56406C0.735067 6.76525 0.837042 6.98849 1.03824 7.06291C5.46177 8.65042 10.103 8.65593 14.5321 7.06291C14.7333 6.98849 14.8352 6.76525 14.7608 6.56406ZM3.74748 7.04362L4.10853 5.30176H5.0897C5.30467 5.30176 5.47831 5.12813 5.47831 4.91315C5.47831 4.69818 5.30467 4.52454 5.0897 4.52454H4.27114L4.43099 3.74733H6.0626C6.27757 3.74733 6.45121 3.57369 6.45121 3.35872C6.45121 3.14374 6.27757 2.97011 6.0626 2.97011H4.5936L4.73692 2.27282C4.85819 1.66372 5.53618 1.1373 6.29962 1.39638C7.25874 1.74089 8.31708 1.74089 9.27621 1.39638C10.0837 1.13455 10.7232 1.69128 10.8389 2.27282L11.8256 7.04362C9.17699 7.61964 6.39333 7.61964 3.74748 7.04362Z" fill="#FFC400"/>
<path d="M13.1927 11.0124C12.9667 10.0533 11.9 9.32295 10.6212 9.32295C9.40027 9.32295 8.37776 9.98441 8.08837 10.8774C7.87615 10.8278 7.69976 10.8278 7.48754 10.8774C7.19815 9.98441 6.17288 9.32019 4.95193 9.32019C3.67035 9.32019 2.60374 10.0506 2.38049 11.0097C2.20961 11.051 2.08008 11.2026 2.08008 11.3873C2.08008 11.5719 2.20961 11.7235 2.38049 11.7648C2.60649 12.724 3.6731 13.4543 4.95193 13.4543C6.27486 13.4543 7.36903 12.6744 7.54266 11.6684C7.73559 11.6022 7.83756 11.5995 8.02773 11.6656C8.19861 12.6744 9.29554 13.4543 10.6212 13.4543C11.9028 13.4543 12.9667 12.724 13.1927 11.7648C13.3635 11.7235 13.4931 11.5719 13.4931 11.3873C13.4931 11.2081 13.3635 11.0538 13.1927 11.0124ZM4.95193 12.6799C3.95422 12.6799 3.11086 12.0901 3.11086 11.3928C3.11086 10.6955 3.95422 10.1029 4.95193 10.1029C5.94964 10.1029 6.793 10.6927 6.793 11.3928C6.793 12.0928 5.94964 12.6799 4.95193 12.6799ZM10.6185 12.6799C9.62076 12.6799 8.77739 12.0901 8.77739 11.3928C8.77739 10.6955 9.62076 10.1029 10.6185 10.1029C11.6162 10.1029 12.4595 10.6927 12.4595 11.3928C12.4595 12.0928 11.6162 12.6799 10.6185 12.6799Z" fill="#FFC400"/>
</g>
<defs>
<clipPath id="clip0_89_632">
<rect width="14" height="14" fill="white" transform="translate(0.785156)"/>
</clipPath>
</defs>
</svg>
