<svg width="226" height="226" viewBox="0 0 226 226" fill="none" xmlns="http://www.w3.org/2000/svg">
<path d="M45.2001 22.6001H22.6001V45.2001H45.2001V22.6001Z" fill="white"/>
<path d="M158.2 0V11.3H146.9V22.6H158.2V67.8H169.5V79.1H158.2V90.4H169.5H180.8V67.8H214.7V79.1H226V67.8V0H158.2ZM214.7 56.5H169.5V11.3H214.7V56.5Z" fill="white"/>
<path d="M203.4 22.6001H180.8V45.2001H203.4V22.6001Z" fill="white"/>
<path d="M45.2001 180.8H22.6001V203.4H45.2001V180.8Z" fill="white"/>
<path d="M169.5 158.2H158.2V169.5H169.5V158.2Z" fill="white"/>
<path d="M113 214.7H101.7V226H113V214.7Z" fill="white"/>
<path d="M124.3 169.5H113V180.8H124.3V169.5Z" fill="white"/>
<path d="M124.3 192.1H113V203.4H124.3V192.1Z" fill="white"/>
<path d="M226 135.6H214.7V146.9H226V135.6Z" fill="white"/>
<path d="M11.3 135.6H0V146.9H11.3V135.6Z" fill="white"/>
<path d="M11.3 79.1001H0V90.4001H11.3V79.1001Z" fill="white"/>
<path d="M124.3 11.3V22.6H101.7V33.9001H135.6V22.6V11.3H124.3Z" fill="white"/>
<path d="M214.7 90.3999V101.7H192.1V113H158.2V101.7H146.9V113H124.3V124.3H158.2V135.6H135.6H124.3V124.3H113V135.6H101.7V124.3H90.4001V135.6H79.1001V146.9H101.7V158.2H113V146.9H135.6V158.2H124.3V169.5H135.6V192.1H146.9V203.4H158.2V192.1H192.1V169.5H203.4V158.2H192.1V135.6H169.5V124.3H192.1V135.6H203.4V124.3H214.7V113H226V101.7V90.3999H214.7ZM180.8 146.9V180.8H146.9V146.9H180.8Z" fill="white"/>
<path d="M146.9 67.8H135.6V79.1H124.3V90.4V101.7H135.6V90.4H146.9V79.1H158.2V67.8H146.9Z" fill="white"/>
<path d="M146.9 214.7H124.3V226H146.9V214.7Z" fill="white"/>
<path d="M101.7 11.3H90.3999V22.6H101.7V11.3Z" fill="white"/>
<path d="M192.1 90.3999H180.8V101.7H192.1V90.3999Z" fill="white"/>
<path d="M203.4 79.1001H192.1V90.4001H203.4V79.1001Z" fill="white"/>
<path d="M56.5002 135.6H45.2002V146.9H56.5002V135.6Z" fill="white"/>
<path d="M67.8 214.7V169.5H79.1V158.2V146.9H67.8V158.2H33.9V146.9H22.6H11.3V158.2H0V226H67.8H90.4V214.7H67.8ZM56.5 214.7H11.3V169.5H56.5V214.7Z" fill="white"/>
<path d="M79.0998 67.8H67.7998V79.1H79.0998V67.8Z" fill="white"/>
<path d="M79.1 0H67.8H0V67.8H11.3V79.1H22.6V67.8H33.9V79.1H45.2V67.8H67.8V45.2H79.1V33.9H67.8V11.3H79.1H90.4V0H79.1ZM56.5 56.5H11.3V11.3H56.5V56.5Z" fill="white"/>
<path d="M146.9 33.8999H135.6V45.1999H146.9V33.8999Z" fill="white"/>
<path d="M124.3 0H113V11.3H124.3V0Z" fill="white"/>
<path d="M135.6 67.8V56.5H124.3V45.2H113V56.5H90.4V45.2H79.1V56.5V67.8H90.4V90.4H56.5V79.0999H45.2V90.4H11.3V101.7H33.9V113H0V124.3H33.9V135.6H45.2V124.3H56.5V135.6H67.8V124.3H90.4V113H79.1V101.7H90.4H101.7V113H113H124.3V101.7H113V90.4H101.7V67.8H135.6V67.8ZM67.8 113H45.2V101.7H67.8V113Z" fill="white"/>
<path d="M101.7 180.8V169.5V158.2H90.4001V169.5H79.1001V180.8H90.4001V192.1H79.1001V203.4H101.7V192.1H113V180.8H101.7Z" fill="white"/>
<path d="M203.4 203.4V192.1H192.1V203.4H158.2V214.7H180.8V226H192.1V214.7H214.7V226H226V214.7V203.4H203.4Z" fill="white"/>
<path d="M214.7 158.2V169.5H203.4V180.8H226V169.5V158.2H214.7Z" fill="white"/>
</svg>
