<svg width="100" height="100" viewBox="0 0 100 100" fill="none" xmlns="http://www.w3.org/2000/svg">
<path d="M49.9999 58.9065C54.9187 58.9065 58.9061 54.919 58.9061 50.0002C58.9061 45.0815 54.9187 41.094 49.9999 41.094C45.0811 41.094 41.0936 45.0815 41.0936 50.0002C41.0936 54.919 45.0811 58.9065 49.9999 58.9065Z" fill="#61DAFB"/>
<path d="M83.828 35.3127C82.1093 34.6877 80.3124 34.0627 78.4374 33.5159C78.9061 31.6409 79.2968 29.7659 79.6093 27.969C81.2499 17.6565 79.453 10.3909 74.453 7.57837C72.9686 6.71899 71.328 6.32837 69.453 6.32837C63.9843 6.32837 57.0311 10.3909 49.9999 17.1877C42.9686 10.3909 36.0155 6.32837 30.5468 6.32837C28.6718 6.32837 27.0311 6.71899 25.5468 7.57837C20.5468 10.469 18.7499 17.7346 20.3905 27.969C20.703 29.7659 21.0936 31.6409 21.5624 33.5159C19.6874 34.0627 17.8905 34.6096 16.1718 35.3127C6.40613 39.0627 1.09363 44.219 1.09363 50.0002C1.09363 55.7815 6.48425 60.9377 16.1718 64.6877C17.8905 65.3127 19.6874 65.9377 21.5624 66.4846C21.0936 68.3596 20.703 70.2346 20.3905 72.0315C18.7499 82.344 20.5468 89.6096 25.5468 92.4221C27.0311 93.2815 28.6718 93.6721 30.5468 93.6721C36.0936 93.6721 43.0468 89.6096 49.9999 82.8127C57.0311 89.6096 63.9843 93.6721 69.453 93.6721C71.328 93.6721 72.9686 93.2815 74.453 92.4221C79.453 89.5315 81.2499 82.2659 79.6093 72.0315C79.2968 70.2346 78.9061 68.3596 78.4374 66.4846C80.3124 65.9377 82.1093 65.3909 83.828 64.6877C93.5936 60.9377 98.9061 55.7815 98.9061 50.0002C98.9061 44.219 93.5936 39.0627 83.828 35.3127ZM72.2655 11.4846C75.4686 13.3596 76.5624 19.1409 75.2343 27.344C74.9999 28.9846 74.6093 30.7034 74.1405 32.5002C70.078 31.5627 65.7811 30.9377 61.2499 30.5471C58.5936 26.7971 55.8593 23.4377 53.1249 20.3909C58.9061 14.6877 64.7655 10.7815 69.5311 10.7815C70.5468 10.7815 71.4843 11.0159 72.2655 11.4846ZM63.5155 57.8127C62.1093 60.3127 60.4686 62.8127 58.7499 65.3127C55.8592 65.5471 52.9686 65.6252 49.9999 65.6252C46.953 65.6252 44.0624 65.5471 41.2499 65.3127C39.5311 62.8127 37.9686 60.3127 36.5624 57.8127C35.078 55.2346 33.6718 52.5784 32.4218 50.0002C33.6718 47.4221 35.078 44.7659 36.5624 42.1877C37.9686 39.6877 39.6093 37.1877 41.328 34.6877C44.2186 34.4534 47.1092 34.3752 50.078 34.3752C53.1249 34.3752 56.0155 34.4534 58.828 34.6877C60.5468 37.1877 62.1093 39.6877 63.5155 42.1877C64.9999 44.7659 66.4061 47.4221 67.6561 50.0002C66.328 52.5784 64.9999 55.1565 63.5155 57.8127ZM69.9999 55.2346C71.1718 57.969 72.1093 60.6252 72.9686 63.2815C70.3124 63.9065 67.4999 64.3752 64.5311 64.7659C65.4686 63.2815 66.4843 61.719 67.3436 60.0784C68.2811 58.4377 69.1405 56.7971 69.9999 55.2346ZM49.9999 76.4065C48.1249 74.3752 46.328 72.1877 44.6092 69.9221C46.4061 70.0002 48.203 70.0784 49.9999 70.0784C51.7968 70.0784 53.5936 70.0002 55.3905 69.9221C53.6718 72.1877 51.8749 74.3752 49.9999 76.4065ZM35.4686 64.6877C32.4999 64.2971 29.6874 63.8284 27.0311 63.2034C27.8905 60.6252 28.828 57.8909 29.9999 55.1565C30.8593 56.719 31.7186 58.3596 32.6561 59.9221C33.5936 61.6409 34.5311 63.1252 35.4686 64.6877ZM29.9999 44.7659C28.828 42.0315 27.8905 39.3752 27.0311 36.719C29.6874 36.094 32.4999 35.6252 35.4686 35.2346C34.5311 36.719 33.5155 38.2815 32.6561 39.9221C31.7186 41.5627 30.8593 43.2034 29.9999 44.7659ZM49.9999 23.594C51.8749 25.6252 53.6718 27.8127 55.3905 30.0784C53.5936 30.0002 51.7968 29.9221 49.9999 29.9221C48.203 29.9221 46.4061 30.0002 44.6092 30.0784C46.328 27.8127 48.1249 25.6252 49.9999 23.594ZM67.3436 40.0002L64.5311 35.3127C67.4999 35.7034 70.3124 36.1721 72.9686 36.7971C72.1093 39.3752 71.1718 42.1096 69.9999 44.844C69.1405 43.2034 68.2811 41.5627 67.3436 40.0002ZM24.7655 27.344C23.4374 19.1409 24.5311 13.3596 27.7343 11.4846C28.5155 11.0159 29.453 10.7815 30.4686 10.7815C35.1561 10.7815 41.0155 14.6096 46.8749 20.3909C44.1405 23.3596 41.4061 26.7971 38.7499 30.5471C34.2186 30.9377 29.9218 31.6409 25.8593 32.5002C25.3905 30.7034 25.078 28.9846 24.7655 27.344ZM5.46863 50.0002C5.46863 46.3284 9.92175 42.4221 17.7343 39.5315C19.2968 38.9065 21.0155 38.3596 22.7343 37.8909C23.9843 41.7971 25.5468 45.9377 27.4218 50.0784C25.5468 54.219 23.9061 58.2815 22.7343 62.1877C11.953 59.0627 5.46863 54.3752 5.46863 50.0002ZM27.7343 88.5159C24.5311 86.6409 23.4374 80.8596 24.7655 72.6565C24.9999 71.0159 25.3905 69.2971 25.8593 67.5002C29.9218 68.4377 34.2186 69.0627 38.7499 69.4534C41.4061 73.2034 44.1405 76.5627 46.8749 79.6096C41.0936 85.3127 35.2343 89.219 30.4686 89.219C29.453 89.219 28.5155 88.9846 27.7343 88.5159ZM75.2343 72.6565C76.5624 80.8596 75.4686 86.6409 72.2655 88.5159C71.4843 88.9846 70.5468 89.219 69.5311 89.219C64.8436 89.219 58.9843 85.3909 53.1249 79.6096C55.8593 76.6409 58.5936 73.2034 61.2499 69.4534C65.7811 69.0627 70.078 68.3596 74.1405 67.5002C74.6093 69.2971 74.9218 71.0159 75.2343 72.6565ZM82.2655 60.469C80.703 61.094 78.9843 61.6409 77.2655 62.1096C76.0155 58.2034 74.453 54.0627 72.578 49.9221C74.453 45.7815 76.0936 41.719 77.2655 37.8127C88.0468 40.9377 94.5311 45.6252 94.5311 50.0002C94.5311 53.6721 89.9999 57.5784 82.2655 60.469Z" fill="#61DAFB"/>
</svg>
