<svg width="20" height="20" viewBox="0 0 20 20" fill="none" xmlns="http://www.w3.org/2000/svg">
<path d="M18.2959 20L11.4131 13.1164C9.93629 14.1662 8.11897 14.623 6.32129 14.3961C4.5236 14.1693 2.87675 13.2754 1.70713 11.8916C0.537504 10.5078 -0.069527 8.7351 0.00634255 6.92485C0.0822121 5.1146 0.835445 3.39892 2.11676 2.11783C3.39772 0.836193 5.1135 0.0825872 6.92399 0.00639584C8.73448 -0.0697955 10.5075 0.53699 11.8916 1.70647C13.2758 2.87596 14.17 4.52277 14.397 6.32048C14.624 8.11819 14.1672 9.93557 13.1172 11.4124L20 18.296L18.2971 19.9988L18.2959 20ZM7.22557 2.40927C6.11765 2.40901 5.0435 2.79063 4.1841 3.48982C3.32471 4.18901 2.7326 5.16304 2.50753 6.24779C2.28247 7.33254 2.43821 8.46172 2.94851 9.44506C3.45882 10.4284 4.29249 11.2058 5.30907 11.6463C6.32566 12.0868 7.46301 12.1634 8.5295 11.8633C9.59599 11.5632 10.5264 10.9046 11.1641 9.99862C11.8017 9.09263 12.1075 7.99455 12.03 6.88942C11.9525 5.78428 11.4964 4.73962 10.7386 3.93146L11.4673 4.65402L10.6459 3.83512L10.6314 3.82067C10.1853 3.37183 9.65458 3.01597 9.06995 2.77369C8.48531 2.53142 7.85841 2.40755 7.22557 2.40927Z" fill="#757575"/>
</svg>
