<svg width="7" height="8" viewBox="0 0 7 8" fill="none" xmlns="http://www.w3.org/2000/svg">
<path d="M6.07288 1.02757L3.28753 0.0225012C3.24597 0.00750884 3.20314 0 3.15958 0C3.11582 0 3.07238 0.00758469 3.03061 0.0227288L0.25525 1.0278C0.10525 1.08221 0 1.22472 0 1.38431V3.76567C0 4.29733 0.171363 4.82907 0.49839 5.34607C0.749064 5.74232 1.09796 6.13091 1.52996 6.50111C2.25227 7.12008 2.96898 7.47711 2.99909 7.492C3.05208 7.51822 3.11038 7.53137 3.168 7.53137C3.22476 7.53137 3.28189 7.51863 3.33428 7.49314C3.36439 7.47848 4.08076 7.127 4.80376 6.51049C5.23619 6.14178 5.57985 5.75319 5.8307 5.35555C6.1576 4.83744 6.32055 4.30254 6.32055 3.76567V1.38431C6.32057 1.22447 6.22324 1.08178 6.07288 1.02757ZM0.606775 3.7639V1.66785C0.606775 1.58806 0.655671 1.51679 0.730684 1.48958L3.08983 0.631324C3.11086 0.623714 3.135 0.618102 3.16029 0.618102V3.7657H5.73177C5.73193 3.7657 5.7321 3.76911 5.7321 3.77128C5.7316 4.45717 5.38614 5.13693 4.70546 5.7988C4.1739 6.31569 3.56999 6.68459 3.25934 6.85861C3.23055 6.87476 3.18559 6.88237 3.16031 6.88237C3.16031 6.82339 3.16031 3.79839 3.16031 3.76471L0.606775 3.7639Z" fill="white"/>
</svg>
