<svg width="100" height="100" viewBox="0 0 100 100" fill="none" xmlns="http://www.w3.org/2000/svg">
<g clip-path="url(#clip0_74_588)">
<path d="M49.9618 0.000976562C22.4188 0.000976562 0.000854492 22.4189 0.000854492 49.9619C0.000854492 77.5049 22.4188 99.9229 49.9618 99.9229C77.5048 99.9229 99.9227 77.5049 99.9227 49.9619C99.9227 22.4189 77.5048 0.000976562 49.961 0.000976562H49.9618ZM49.9618 8.34395C72.9962 8.34395 91.5805 26.9275 91.5805 49.9619C91.5805 72.9971 72.9962 91.5807 49.9618 91.5807C26.9274 91.5807 8.34304 72.9971 8.34304 49.9619C8.34304 26.9275 26.9274 8.34395 49.9618 8.34395Z" fill="white"/>
<path fill-rule="evenodd" clip-rule="evenodd" d="M37.8045 47.4344C48.7451 38.4969 59.4467 29.2485 70.6256 20.5719C64.7623 29.5821 58.7318 38.4727 52.8686 47.4821C47.8396 47.5055 42.81 47.5055 37.8045 47.4344ZM47.0529 52.4157C52.1061 52.4157 57.135 52.4156 62.1639 52.4875C51.1521 61.3781 40.4982 70.6977 29.2959 79.35C35.1592 70.3399 41.1896 61.4258 47.0529 52.4157Z" fill="white"/>
</g>
<defs>
<clipPath id="clip0_74_588">
<rect width="100" height="100" fill="white"/>
</clipPath>
</defs>
</svg>
