<svg width="20" height="19" viewBox="0 0 20 19" fill="none" xmlns="http://www.w3.org/2000/svg">
<g clip-path="url(#clip0_92_1199)">
<path d="M17.0647 2.78372C15.1746 0.988161 12.6672 0 9.99491 0C7.3226 0 4.8152 0.988161 2.92514 2.78372C-0.728136 6.25433 -0.981836 11.8097 2.29512 15.5575C1.97377 16.1721 1.45791 16.8871 0.692582 17.2446C0.324718 17.4173 0.11753 17.7909 0.180955 18.1765C0.24438 18.5622 0.557276 18.8634 0.963196 18.9237C1.15347 18.9518 1.42408 18.9799 1.75389 18.9799C2.63761 18.9799 3.93994 18.7831 5.27186 17.8712C6.75601 18.6304 8.37969 19 9.99068 19C12.5784 19 15.1408 18.048 17.0689 16.2163C18.959 14.4207 19.9991 12.0387 19.9991 9.5C19.9991 6.96131 18.9547 4.57928 17.0647 2.78372ZM16.2571 15.449C13.4029 18.1605 8.98434 18.6987 5.50865 16.7586C5.28032 16.63 4.99702 16.6702 4.8152 16.8429C4.79829 16.851 4.78138 16.863 4.76869 16.8751C3.62281 17.7186 2.49808 17.8953 1.75389 17.8953H1.74966C2.60802 17.3008 3.14924 16.4171 3.46637 15.7302C3.51711 15.6137 3.52556 15.4932 3.49597 15.3808C3.48328 15.2723 3.43677 15.1638 3.35643 15.0755C0.261293 11.7535 0.42197 6.69218 3.72852 3.55095C7.18307 0.269133 12.8025 0.269133 16.2528 3.55095C19.7116 6.83277 19.7116 12.1672 16.2571 15.449Z" fill="#151B26"/>
<path d="M9.99499 10.1669C10.3826 10.1669 10.6969 9.86833 10.6969 9.50006C10.6969 9.13179 10.3826 8.83325 9.99499 8.83325C9.60734 8.83325 9.29309 9.13179 9.29309 9.50006C9.29309 9.86833 9.60734 10.1669 9.99499 10.1669Z" fill="#151B26"/>
<path d="M13.6145 10.1669C14.0021 10.1669 14.3164 9.86833 14.3164 9.50006C14.3164 9.13179 14.0021 8.83325 13.6145 8.83325C13.2268 8.83325 12.9126 9.13179 12.9126 9.50006C12.9126 9.86833 13.2268 10.1669 13.6145 10.1669Z" fill="#151B26"/>
<path d="M6.37549 10.1669C6.76314 10.1669 7.07739 9.86833 7.07739 9.50006C7.07739 9.13179 6.76314 8.83325 6.37549 8.83325C5.98784 8.83325 5.67358 9.13179 5.67358 9.50006C5.67358 9.86833 5.98784 10.1669 6.37549 10.1669Z" fill="#151B26"/>
</g>
<defs>
<clipPath id="clip0_92_1199">
<rect width="20" height="19" fill="white"/>
</clipPath>
</defs>
</svg>
