<svg width="32" height="26" viewBox="0 0 32 26" fill="none" xmlns="http://www.w3.org/2000/svg">
<path d="M10.0634 26.0008C22.1389 26.0008 28.7437 15.9964 28.7437 7.32052C28.7437 7.03639 28.7437 6.75352 28.7245 6.47189C30.0094 5.54246 31.1186 4.39177 32 3.07352C30.8018 3.60446 29.5306 3.95258 28.2291 4.10646C29.5994 3.28621 30.6256 1.99508 31.1155 0.475082C29.8268 1.23977 28.4167 1.77877 26.9466 2.06871C25.7052 0.748644 23.9714 -0.000793457 22.1595 -0.000793457C18.5544 -0.000793457 15.5879 2.96571 15.5879 6.57071C15.5879 7.07083 15.6451 7.56939 15.7581 8.05652C10.4819 7.79208 5.55931 5.29646 2.22719 1.19702C0.494437 4.17989 1.391 8.04552 4.25981 9.96114C3.21512 9.93021 2.19287 9.64833 1.28 9.13939V9.22258C1.28087 12.336 3.49544 15.042 6.54719 15.6585C5.58069 15.922 4.56638 15.9605 3.58275 15.7711C4.44069 18.4389 6.91469 20.2778 9.7165 20.3305C7.39213 22.1571 4.51919 23.1494 1.56288 23.1465C1.0405 23.1455 0.518625 23.1138 0 23.0517C3.00213 24.9783 6.49625 26.0005 10.0634 25.9957" fill="#1DA1F2"/>
</svg>
