<svg width="100" height="100" viewBox="0 0 100 100" fill="none" xmlns="http://www.w3.org/2000/svg">
<g clip-path="url(#clip0_74_583)">
<rect width="100" height="100" fill="white"/>
<path d="M1.56238 49.9298V98.7579H99.2186V1.10168H1.56238V49.9298ZM80.2577 46.0236C82.5967 46.5663 84.7225 47.7897 86.3671 49.5392C87.2724 50.4817 88.0595 51.5311 88.7108 52.6642C88.7108 52.7892 84.4921 55.6407 81.9218 57.2345C81.828 57.297 81.453 56.8907 81.0389 56.2736C80.5697 55.4639 79.903 54.7864 79.1011 54.3041C78.2992 53.8218 77.3881 53.5506 76.453 53.5157C73.4921 53.3126 71.5858 54.8673 71.6014 57.422C71.577 58.058 71.7226 58.6891 72.0233 59.2501C72.6718 60.6017 73.8827 61.4064 77.6796 63.047C84.6718 66.0548 87.6639 68.0392 89.5233 70.8595C91.6014 73.9845 92.0624 79.0314 90.6561 82.7657C89.0936 86.8282 85.2655 89.5861 79.8514 90.5001C77.3787 90.7833 74.8802 90.7571 72.4139 90.422C68.65 89.8114 65.1779 88.0193 62.4999 85.3048C61.6014 84.3126 59.8514 81.7267 59.9608 81.5392C60.246 81.3275 60.5463 81.1369 60.8593 80.9689L64.453 78.9064L67.2577 77.2814L67.8436 78.1486C68.8325 79.5631 70.0909 80.7684 71.5468 81.6954C74.6718 83.3361 78.9374 83.1095 81.0468 81.2111C81.755 80.5154 82.1968 79.5934 82.2953 78.6056C82.3938 77.6177 82.1427 76.6266 81.5858 75.8048C80.8046 74.7189 79.2421 73.8048 74.8749 71.8986C69.8358 69.7267 67.6639 68.3829 65.6796 66.2423C64.4408 64.8297 63.5261 63.1631 62.9999 61.3595C62.6073 59.2989 62.5493 57.1885 62.828 55.1095C63.8671 50.2423 67.5155 46.8439 72.8436 45.8361C75.3111 45.5307 77.8106 45.5992 80.2577 46.0392V46.0236ZM57.3358 50.1173V54.1173H44.6561V90.2345H35.6639V54.1095H22.953V50.2032C22.9189 48.8585 22.9554 47.5129 23.0624 46.172C23.1093 46.1095 30.8749 46.0782 40.2499 46.0939H57.2889L57.3358 50.1173Z" fill="#007ACC"/>
</g>
<defs>
<clipPath id="clip0_74_583">
<rect width="100" height="100" fill="white"/>
</clipPath>
</defs>
</svg>
