<svg width="14" height="21" viewBox="0 0 14 21" fill="none" xmlns="http://www.w3.org/2000/svg">
<path d="M10.85 7.71714V3.70034C10.85 1.66009 9.12275 0 7 0C4.87725 0 3.15 1.66009 3.15 3.70034C3.15 3.90057 3.30645 4.06241 3.5 4.06241C3.69355 4.06241 3.85 3.90057 3.85 3.70034C3.85 2.05945 5.26295 0.724138 7 0.724138C8.73705 0.724138 10.15 2.05945 10.15 3.70034V7.29859L10.1503 7.30112C9.2022 6.804 8.134 6.51724 7 6.51724C3.1402 6.51724 0 9.76572 0 13.7586C0 17.7515 3.1402 21 7 21C10.8598 21 14 17.7515 14 13.7586C14 11.2364 12.7456 9.01407 10.85 7.71714ZM8.4 14.4828C8.4 15.2815 7.7721 15.931 7 15.931C6.2279 15.931 5.6 15.2815 5.6 14.4828V12.3103C5.6 11.5116 6.2279 10.8621 7 10.8621C7.7721 10.8621 8.4 11.5116 8.4 12.3103V14.4828Z" fill="#32333E"/>
</svg>
