<svg width="10" height="15" viewBox="0 0 10 15" fill="none" xmlns="http://www.w3.org/2000/svg">
<path d="M7.75 5.51224V2.6431C7.75 1.18578 6.51625 0 5 0C3.48375 0 2.25 1.18578 2.25 2.6431C2.25 2.78612 2.36175 2.90172 2.5 2.90172C2.63825 2.90172 2.75 2.78612 2.75 2.6431C2.75 1.47103 3.75925 0.517241 5 0.517241C6.24075 0.517241 7.25 1.47103 7.25 2.6431V5.21328L7.25025 5.21509C6.573 4.86 5.81 4.65517 5 4.65517C2.243 4.65517 0 6.97552 0 9.82759C0 12.6797 2.243 15 5 15C7.757 15 10 12.6797 10 9.82759C10 8.02603 9.104 6.43862 7.75 5.51224ZM6 10.3448C6 10.9153 5.5515 11.3793 5 11.3793C4.4485 11.3793 4 10.9153 4 10.3448V8.7931C4 8.22259 4.4485 7.75862 5 7.75862C5.5515 7.75862 6 8.22259 6 8.7931V10.3448Z" fill="white"/>
</svg>
