<svg width="20" height="17" viewBox="0 0 20 17" fill="none" xmlns="http://www.w3.org/2000/svg">
<g clip-path="url(#clip0_101_1391)">
<path d="M14.753 12.05L17.6952 14.9935C17.7806 15.0789 17.7806 15.2179 17.6952 15.3033C17.6532 15.3453 17.5971 15.367 17.541 15.367C17.4849 15.367 17.4288 15.3453 17.3867 15.3033L14.4445 12.361C14.3591 12.2756 14.3591 12.1367 14.4445 12.0513C14.5286 11.9646 14.6676 11.9646 14.753 12.05Z" fill="white"/>
<path d="M13.2538 12.5535C13.1977 12.5535 13.1416 12.5318 13.0996 12.4897L12.7783 12.1685C12.4074 11.7975 12.4074 11.1945 12.7783 10.8248L13.2169 10.3863C13.3966 10.2066 13.635 10.1084 13.8887 10.1084C14.1424 10.1084 14.3807 10.2078 14.5605 10.3863L14.8817 10.7076C14.9672 10.793 14.9672 10.9319 14.8817 11.0173L13.4081 12.491C13.366 12.5318 13.3099 12.5535 13.2538 12.5535ZM14.2507 10.6935C14.1538 10.5966 14.0251 10.5431 13.8874 10.5431C13.751 10.5431 13.621 10.5966 13.5241 10.6935L13.0855 11.1321C12.8854 11.3322 12.8854 11.6573 13.0855 11.8574L13.2538 12.0257L14.419 10.8605L14.2507 10.6935Z" fill="white"/>
<path d="M16.674 16.063L13.5699 12.9588C13.4845 12.8734 13.4845 12.7345 13.5699 12.6491C13.6553 12.5637 13.7942 12.5637 13.8796 12.6491L16.9302 15.7022L18.2764 15.8832L18.0954 14.5371L15.1812 11.6229C15.0958 11.5374 15.0958 11.3985 15.1812 11.3131C15.2666 11.2277 15.4056 11.2277 15.491 11.3131L18.4562 14.2808C18.4906 14.3152 18.5123 14.3586 18.5186 14.4057L18.7481 16.1089C18.757 16.1764 18.7341 16.244 18.6856 16.2925C18.6448 16.3332 18.5888 16.3562 18.5314 16.3562C18.5212 16.3562 18.5123 16.3549 18.5021 16.3536L16.7989 16.1242C16.7518 16.1191 16.7072 16.0974 16.674 16.063Z" fill="white"/>
</g>
<path d="M3.59668 4.67913C3.59668 5.73775 4.45806 6.59913 5.51702 6.59913C6.57599 6.59913 7.43737 5.73775 7.43737 4.67913C7.43737 3.62017 6.57599 2.75879 5.51702 2.75879C4.45806 2.75879 3.59668 3.62017 3.59668 4.67913ZM6.74771 4.67913C6.74771 5.35775 6.1953 5.90948 5.51702 5.90948C4.83875 5.90948 4.28633 5.35741 4.28633 4.67913C4.28633 4.00086 4.83875 3.44844 5.51702 3.44844C6.1953 3.44844 6.74771 4.00051 6.74771 4.67913Z" fill="white"/>
<path d="M10.6493 9.12735L13.8148 5.66046L17.6982 9.22011C17.8389 9.34873 18.0568 9.33908 18.1855 9.19873C18.3141 9.05839 18.3048 8.84011 18.1641 8.71149L14.0262 4.91839C13.9589 4.85632 13.8675 4.82356 13.7779 4.82804C13.6862 4.83218 13.6 4.87253 13.5386 4.94011L10.1613 8.63908L8.52581 7.00356C8.39754 6.87528 8.19099 6.86873 8.05409 6.98839L2.18616 12.1553C2.0434 12.2811 2.02961 12.4991 2.15512 12.6422C2.2234 12.7194 2.31857 12.7587 2.41409 12.7587C2.49512 12.7587 2.5765 12.7305 2.64202 12.6729L8.26719 7.72046L10.791 10.2439C10.9258 10.3787 11.1437 10.3787 11.2786 10.2439C11.4134 10.1091 11.4134 9.89115 11.2786 9.75632L10.6493 9.12735Z" fill="white"/>
<path d="M10.3448 15.1724H0.689655V0.689655H19.3103V10.3448C19.3103 10.5355 19.4645 10.6897 19.6552 10.6897C19.8459 10.6897 20 10.5355 20 10.3448V0.344828C20 0.154138 19.8459 0 19.6552 0H0.344828C0.154138 0 0 0.154138 0 0.344828V15.5172C0 15.7079 0.154138 15.8621 0.344828 15.8621H10.3448C10.5355 15.8621 10.6897 15.7079 10.6897 15.5172C10.6897 15.3266 10.5355 15.1724 10.3448 15.1724Z" fill="white"/>
<defs>
<clipPath id="clip0_101_1391">
<rect width="6.25" height="6.25" fill="white" transform="matrix(-1 0 0 1 18.75 10.1072)"/>
</clipPath>
</defs>
</svg>
