<svg width="32" height="32" viewBox="0 0 32 32" fill="none" xmlns="http://www.w3.org/2000/svg">
<path d="M28.2286 26.3179C28.2357 26.3071 28.2464 26.2964 28.2536 26.2857C30.5929 23.5036 32 19.9179 32 16C32 12.0821 30.5929 8.49643 28.2571 5.71429C28.25 5.70357 28.2393 5.69643 28.2321 5.68571C28.1929 5.63929 28.1571 5.59643 28.1179 5.55357C28.1036 5.53571 28.0893 5.52143 28.075 5.50357L27.9286 5.33571L27.925 5.33214C27.8714 5.27143 27.8143 5.21071 27.7607 5.15L27.7571 5.14643C27.6429 5.025 27.5286 4.90357 27.4107 4.78571L27.4071 4.78214L27.2357 4.61071L27.225 4.6C27.1714 4.54643 27.1179 4.49643 27.0643 4.44643C27.0464 4.42857 27.0286 4.41071 27.0071 4.39286C26.9714 4.35714 26.9357 4.325 26.9 4.29286C26.8893 4.28214 26.875 4.27143 26.8643 4.25714C24.0143 1.61429 20.1964 0 16 0C11.8036 0 7.98571 1.61429 5.13214 4.25714C5.12143 4.26786 5.10714 4.27857 5.09643 4.29286C5.06071 4.325 5.025 4.36071 4.98929 4.39643C4.97143 4.41429 4.95357 4.43214 4.93214 4.45C4.87857 4.5 4.825 4.55357 4.77143 4.60357L4.76071 4.61429L4.58929 4.78571L4.58571 4.78929C4.46786 4.90714 4.35357 5.02857 4.23929 5.15L4.23571 5.15357C4.17857 5.21429 4.125 5.275 4.07143 5.33571L4.06786 5.33929C4.01786 5.39286 3.96786 5.45 3.92143 5.50714C3.90714 5.525 3.89286 5.53929 3.87857 5.55714C3.83929 5.6 3.80357 5.64643 3.76429 5.68929C3.75714 5.7 3.74643 5.70714 3.73929 5.71786C1.40714 8.49643 0 12.0821 0 16C0 19.9179 1.40714 23.5036 3.74286 26.2857C3.75 26.2964 3.76071 26.3071 3.76786 26.3179L3.87857 26.45C3.89286 26.4679 3.90714 26.4821 3.92143 26.5L4.06786 26.6679C4.06786 26.6714 4.07143 26.6714 4.07143 26.675C4.125 26.7357 4.17857 26.7964 4.23571 26.8536L4.23929 26.8571C4.35357 26.9786 4.46786 27.1 4.58214 27.2179L4.58571 27.2214C4.64286 27.2786 4.69643 27.3357 4.75357 27.3893L4.76429 27.4C4.88214 27.5179 5.00357 27.6321 5.125 27.7429C7.98571 30.3857 11.8036 32 16 32C20.1964 32 24.0143 30.3857 26.8679 27.7429C26.9895 27.6313 27.1086 27.517 27.225 27.4L27.2357 27.3893C27.2929 27.3321 27.35 27.2786 27.4036 27.2214L27.4071 27.2179C27.525 27.1 27.6393 26.9786 27.75 26.8571L27.7536 26.8536C27.8071 26.7929 27.8643 26.7357 27.9179 26.675C27.9179 26.6714 27.9214 26.6714 27.9214 26.6679C27.9714 26.6143 28.0214 26.5571 28.0679 26.5C28.0821 26.4821 28.0964 26.4679 28.1107 26.45C28.1511 26.4069 28.1904 26.3629 28.2286 26.3179V26.3179ZM28.375 21.225C27.8821 22.3893 27.2321 23.4679 26.4393 24.4464C25.5464 23.6747 24.5701 23.0051 23.5286 22.45C23.9429 20.775 24.2 18.9357 24.2679 17H29.3929C29.2857 18.4607 28.9429 19.8786 28.375 21.225ZM29.3929 15H24.2679C24.2 13.0643 23.9429 11.225 23.5286 9.55C24.575 8.99286 25.55 8.32143 26.4393 7.55357C28.1628 9.67491 29.1937 12.2741 29.3929 15V15ZM21.225 3.625C22.6429 4.225 23.9321 5.05357 25.0679 6.09643C24.4081 6.65819 23.698 7.15792 22.9464 7.58929C22.3857 5.98214 21.6679 4.58571 20.8321 3.46786C20.9643 3.51786 21.0964 3.57143 21.225 3.625ZM17.9893 28.6464C17.6607 28.9036 17.3321 29.1 17 29.2321V22.6071C18.4171 22.706 19.8107 23.0216 21.1321 23.5429C20.8357 24.4214 20.4929 25.2321 20.0964 25.9643C19.475 27.1214 18.7464 28.0464 17.9893 28.6464ZM20.0964 6.03571C20.4893 6.77143 20.8357 7.58214 21.1321 8.45714C19.8107 8.97842 18.4171 9.29399 17 9.39286V2.77143C17.3286 2.90357 17.6607 3.09643 17.9893 3.35714C18.7464 3.95357 19.475 4.87857 20.0964 6.03571V6.03571ZM17 20.6036V17H22.2679C22.2107 18.5786 22.0143 20.1107 21.6857 21.5643L21.675 21.6071C20.1762 21.0388 18.6 20.7004 17 20.6036V20.6036ZM17 15V11.3964C18.6357 11.2964 20.2071 10.95 21.675 10.3929L21.6857 10.4357C22.0143 11.8893 22.2107 13.4179 22.2679 15H17ZM15 17V20.6036C13.3643 20.7036 11.7929 21.05 10.325 21.6071L10.3143 21.5643C9.98571 20.1107 9.78929 18.5821 9.73214 17H15ZM9.73214 15C9.78929 13.4214 9.98571 11.8893 10.3143 10.4357L10.325 10.3929C11.7929 10.95 13.3607 11.2964 15 11.3964V15H9.73214ZM15 22.6071V29.2286C14.6714 29.0964 14.3393 28.9036 14.0107 28.6429C13.2536 28.0464 12.5214 27.1179 11.9 25.9607C11.5071 25.225 11.1607 24.4143 10.8643 23.5393C12.1929 23.0179 13.575 22.7071 15 22.6071ZM15 9.39286C13.5829 9.29399 12.1893 8.97842 10.8679 8.45714C11.1643 7.57857 11.5071 6.76786 11.9036 6.03571C12.525 4.87857 13.2536 3.95 14.0143 3.35357C14.3429 3.09643 14.6714 2.9 15.0036 2.76786V9.39286H15ZM10.775 3.625C10.9071 3.57143 11.0357 3.51786 11.1679 3.46786C10.3321 4.58571 9.61429 5.98214 9.05357 7.58929C8.30357 7.16071 7.59286 6.66071 6.93214 6.09643C8.06786 5.05357 9.35714 4.225 10.775 3.625V3.625ZM3.625 10.775C4.11786 9.61072 4.76786 8.53214 5.56071 7.55357C6.45 8.32143 7.425 8.99286 8.47143 9.55C8.05714 11.225 7.8 13.0643 7.73214 15H2.60714C2.71429 13.5393 3.05714 12.1214 3.625 10.775ZM2.60714 17H7.73214C7.8 18.9357 8.05714 20.775 8.47143 22.45C7.42993 23.0051 6.45365 23.6747 5.56071 24.4464C3.83725 22.3251 2.80631 19.7259 2.60714 17V17ZM10.775 28.375C9.35714 27.775 8.06786 26.9464 6.93214 25.9036C7.59286 25.3393 8.30357 24.8429 9.05357 24.4107C9.61429 26.0179 10.3321 27.4143 11.1679 28.5321C11.0357 28.4821 10.9036 28.4286 10.775 28.375ZM21.225 28.375C21.0929 28.4286 20.9643 28.4821 20.8321 28.5321C21.6679 27.4143 22.3857 26.0179 22.9464 24.4107C23.6964 24.8393 24.4071 25.3393 25.0679 25.9036C23.9384 26.9421 22.6385 27.7781 21.225 28.375V28.375Z" fill="white"/>
</svg>
