<svg width="32" height="32" viewBox="0 0 32 32" fill="none" xmlns="http://www.w3.org/2000/svg">
<path d="M16 1.92593C18.7836 1.92593 21.5047 2.75136 23.8191 4.29784C26.1336 5.84431 27.9375 8.04238 29.0028 10.6141C30.068 13.1858 30.3467 16.0156 29.8036 18.7457C29.2606 21.4758 27.9202 23.9836 25.9519 25.9519C23.9836 27.9202 21.4758 29.2606 18.7457 29.8036C16.0156 30.3467 13.1858 30.068 10.6141 29.0027C8.04239 27.9375 5.84432 26.1336 4.29784 23.8191C2.75136 21.5047 1.92593 18.7836 1.92593 16C1.92985 12.2685 3.41391 8.69101 6.05246 6.05246C8.69102 3.41391 12.2685 1.92985 16 1.92593ZM16 0C12.8355 0 9.74207 0.938384 7.11088 2.69649C4.4797 4.45459 2.42894 6.95345 1.21793 9.87706C0.00693258 12.8007 -0.309921 16.0177 0.307443 19.1214C0.924806 22.2251 2.44866 25.0761 4.6863 27.3137C6.92394 29.5513 9.77486 31.0752 12.8786 31.6926C15.9823 32.3099 19.1993 31.9931 22.1229 30.7821C25.0466 29.5711 27.5454 27.5203 29.3035 24.8891C31.0616 22.2579 32 19.1645 32 16C32 11.7565 30.3143 7.68687 27.3137 4.68629C24.3131 1.68571 20.2435 0 16 0Z" fill="white"/>
<path d="M16.3205 1.92593C16.9397 1.92593 18.0331 3.01037 18.9664 5.38963C20.0657 8.19259 20.6701 11.9615 20.6701 16C20.6701 20.0385 20.0775 23.8074 18.9664 26.6104C18.0331 28.9807 16.9427 30.0741 16.3205 30.0741C15.6983 30.0741 14.6079 28.9896 13.6746 26.6104C12.5783 23.8074 11.9708 20.0385 11.9708 16C11.9708 11.9615 12.5634 8.19259 13.6746 5.38963C14.6108 3.00741 15.7042 1.92593 16.3205 1.92593ZM16.3205 0C12.8538 0 10.0449 7.16444 10.0449 16C10.0449 24.8356 12.8538 32 16.3205 32C19.7871 32 22.596 24.8356 22.596 16C22.596 7.16444 19.7871 0 16.3205 0Z" fill="white"/>
<path d="M2.26953 20.9985H30.3703" stroke="white" stroke-width="3" stroke-miterlimit="10"/>
<path d="M2.26953 10.9985H16.3199H30.3703" stroke="white" stroke-width="3" stroke-miterlimit="10"/>
</svg>
