<svg width="7" height="12" viewBox="0 0 7 12" fill="none" xmlns="http://www.w3.org/2000/svg">
<path d="M4.09985 1.31982C3.97843 1.31982 3.87988 1.41837 3.87988 1.53979V4.17938C3.87988 4.3008 3.97843 4.39935 4.09985 4.39935C4.22127 4.39935 4.31981 4.3008 4.31981 4.17938V1.53979C4.31981 1.41837 4.22127 1.31982 4.09985 1.31982Z" fill="#3BA55D"/>
<path d="M2.78002 1.31982C2.6586 1.31982 2.56006 1.41837 2.56006 1.53979V4.17938C2.56006 4.3008 2.6586 4.39935 2.78002 4.39935C2.90145 4.39935 2.99999 4.3008 2.99999 4.17938V1.53979C2.99999 1.41837 2.90145 1.31982 2.78002 1.31982Z" fill="#3BA55D"/>
<path d="M6.72375 0.233164C6.59837 0.0849068 6.41448 0 6.22003 0H0.660169C0.465719 0 0.281828 0.0849068 0.156447 0.233164C0.0310665 0.381421 -0.0230451 0.576311 0.00906992 0.768121L1.15201 7.62578L0.821624 7.67373C0.571303 7.71024 0.367174 7.88226 0.288866 8.1229C0.210559 8.36354 0.274788 8.62266 0.4556 8.79907L1.3865 9.70621C1.43841 9.75637 1.46216 9.82939 1.44985 9.90022L1.22988 11.1813C1.18721 11.4307 1.28751 11.678 1.49208 11.8267C1.60778 11.9107 1.74328 11.9534 1.87922 11.9534C1.98392 11.9534 2.08995 11.9279 2.18717 11.8768L3.33759 11.2724C3.40182 11.2389 3.47793 11.2389 3.54216 11.2724L4.69258 11.8768C4.91563 11.9943 5.18267 11.9754 5.38767 11.8267C5.59224 11.678 5.69255 11.4312 5.64987 11.1813L5.42991 9.90022C5.41759 9.82939 5.44135 9.75637 5.49326 9.70621L6.42415 8.79907C6.60541 8.62266 6.6692 8.36354 6.59089 8.1229C6.51258 7.88182 6.30845 7.71024 6.05813 7.67373L5.72774 7.62578L6.87069 0.768121C6.90324 0.576751 6.84957 0.381421 6.72375 0.233164ZM5.25746 7.77535C5.24778 7.83386 5.26185 7.8937 5.29661 7.94121C5.33136 7.98872 5.38416 8.02083 5.44267 8.02919L5.99566 8.1097C6.08013 8.12158 6.14656 8.17789 6.17295 8.25928C6.19935 8.34067 6.17867 8.42469 6.11752 8.48452L5.18663 9.39166C5.03089 9.54344 4.96006 9.76208 4.99702 9.97589L5.21698 11.257C5.2315 11.341 5.1985 11.4215 5.12944 11.4717C5.06037 11.5218 4.9737 11.5275 4.89759 11.4884L3.74761 10.8839C3.55492 10.7827 3.32572 10.7827 3.13347 10.8839L1.98304 11.4884C1.9065 11.5275 1.82027 11.5218 1.7512 11.4717C1.68213 11.4215 1.64958 11.341 1.66365 11.257L1.88362 9.97589C1.92013 9.76208 1.8493 9.54344 1.69401 9.39166L0.763113 8.48452C0.701522 8.42469 0.680845 8.34067 0.707681 8.25928C0.734517 8.17789 0.800507 8.12202 0.884974 8.1097L1.43797 8.02919C1.43797 8.02919 1.43797 8.02919 1.43841 8.02919L2.17177 7.92273C2.38646 7.89106 2.57211 7.756 2.66802 7.56155L3.24301 6.39661C3.31912 6.24263 3.56196 6.24263 3.63763 6.39661L4.12287 7.37941C4.17654 7.48764 4.30808 7.53339 4.41719 7.47928C4.52629 7.42561 4.57116 7.29363 4.51705 7.18452L4.03181 6.20172C3.91962 5.97427 3.69306 5.83349 3.4401 5.83349C3.18714 5.83349 2.96057 5.97427 2.84839 6.20128L2.2734 7.36622C2.24128 7.43133 2.17925 7.47664 2.10798 7.48676L1.58754 7.56243L0.442843 0.695972C0.432284 0.631302 0.449441 0.567952 0.492115 0.5178C0.534788 0.467647 0.594179 0.439932 0.660169 0.439932H6.22047C6.28646 0.439932 6.34585 0.467208 6.38852 0.5178C6.43119 0.568392 6.44835 0.631302 6.43779 0.695972L5.25746 7.77535Z" fill="#3BA55D"/>
</svg>
