<svg width="41" height="29" viewBox="0 0 41 29" fill="none" xmlns="http://www.w3.org/2000/svg">
<path d="M37.7146 20.0439C37.5728 19.8147 37.3133 19.6718 37.0375 19.6718H32.9802V19.3123C32.9802 18.8905 32.6259 18.5472 32.1911 18.5472H28.554C31.3998 13.6783 34.8259 6.24511 33.6323 4.72331C32.7599 3.61022 26.4121 0.0684234 20.1648 0.00143909C13.8635 -0.080198 7.68789 3.33286 7.0259 4.79919C6.26343 6.48583 9.07468 13.1356 12.1999 18.5472H8.47129C8.03642 18.5472 7.68214 18.8905 7.68214 19.3123V19.6718H4.22878C3.953 19.6718 3.69343 19.8147 3.55109 20.0449C3.40351 20.2851 3.40299 20.5839 3.549 20.8246L5.46956 23.9912L3.549 27.1573C3.40194 27.398 3.40299 27.6968 3.55161 27.9381C3.69343 28.1678 3.953 28.3101 4.22878 28.3101H10.5436C10.7127 28.3101 10.8738 28.2589 11.0088 28.1631L13.4731 26.4225C13.5605 26.3608 13.6102 26.2687 13.6239 26.1703H17.7559C17.7586 26.1729 17.7596 26.1771 17.7627 26.1803C18.7304 27.0924 19.5049 27.4812 20.3516 27.4812C21.0774 27.4812 21.9105 27.049 22.8912 26.1703H27.6424C27.6555 26.2687 27.7057 26.3613 27.7931 26.4225L30.2574 28.1631C30.394 28.2594 30.5546 28.3101 30.7226 28.3101H37.0375C37.3133 28.3101 37.5728 28.1673 37.7152 27.937C37.8622 27.6973 37.8638 27.3991 37.7178 27.1573L35.7967 23.9907L37.7183 20.8231C37.8643 20.5834 37.8627 20.2851 37.7146 20.0439ZM7.69888 5.10428C8.18766 4.02259 14.0551 0.695878 20.1564 0.741406C26.1939 0.806297 32.3224 4.25128 33.0498 5.18016C33.7233 6.03944 31.4862 12.1774 27.6947 18.5477H25.8851C28.0794 14.6092 31.2198 7.5199 30.2114 6.19173C29.4651 5.20947 24.6757 2.75303 20.2255 2.70384C20.1799 2.70331 20.1344 2.70331 20.0878 2.70331C15.6643 2.70331 11.0031 5.04515 10.4683 6.26709C9.8136 7.76429 12.5647 14.3502 14.873 18.5477H13.0561C9.41535 12.3401 7.18708 6.23621 7.69888 5.10428ZM11.146 6.5638C11.4819 5.79715 15.6444 3.44328 20.08 3.44328C20.1255 3.44328 20.1716 3.44328 20.2176 3.4438C24.6935 3.49299 29.1155 5.97141 29.6226 6.63916C30.1119 7.28389 28.2118 12.9901 25.0358 18.5482H15.7192V18.5477C12.8661 13.4815 10.7268 7.52095 11.146 6.5638ZM10.5431 27.5712H4.22826C4.20419 27.5712 4.18639 27.5602 4.18064 27.5419L6.2179 24.1838C6.2896 24.0661 6.2896 23.918 6.2179 23.8002L4.18011 20.4337C4.18692 20.4233 4.20471 20.4118 4.22878 20.4118H7.68214V25.4063C7.68214 25.8281 8.03642 26.1708 8.47129 26.1708H12.5437L10.5431 27.5712ZM20.3516 26.7418C19.8843 26.7418 19.4253 26.5644 18.8947 26.1703H21.7138C21.1847 26.544 20.7216 26.7418 20.3516 26.7418ZM8.47077 25.4309C8.43833 25.4309 8.42106 25.412 8.42106 25.4057V19.3128H8.42158C8.42158 19.306 8.43833 19.2872 8.47129 19.2872H32.1911C32.2235 19.2872 32.2408 19.306 32.2408 19.3128V25.4057C32.2408 25.4125 32.224 25.4309 32.1911 25.4309H8.47077ZM35.0484 23.7997C34.9761 23.9174 34.9761 24.0655 35.0484 24.1833L37.0861 27.5492C37.0793 27.5597 37.0615 27.5707 37.0375 27.5707L30.6844 27.5592L28.7173 26.1698H32.1905C32.6254 26.1698 32.9797 25.8265 32.9797 25.4052V20.4107H37.0375C37.0615 20.4107 37.0793 20.4222 37.0861 20.4405L35.0484 23.7997Z" fill="#FFC400"/>
<path d="M40.7943 8.05374C40.7519 7.87162 40.5761 7.74917 40.394 7.77062C40.2271 7.78946 36.2813 8.2526 34.3099 10.8634C32.3297 13.4852 33.1644 17.1699 33.201 17.3248C33.2063 17.3489 33.2188 17.3693 33.2288 17.3907C33.2356 17.4048 33.2387 17.42 33.2471 17.4336C33.2712 17.4729 33.3015 17.5064 33.3371 17.5336C33.3381 17.5346 33.3392 17.5362 33.3402 17.5372C33.358 17.5503 33.3779 17.5571 33.3968 17.5666C33.4125 17.5744 33.4261 17.5849 33.4423 17.5901C33.481 17.6032 33.5208 17.61 33.5606 17.61C33.5742 17.61 33.5878 17.6095 33.6019 17.6079C33.7683 17.5891 37.7141 17.1254 39.6859 14.5151C41.6656 11.8938 40.831 8.20968 40.7943 8.05374ZM39.0951 14.0698C37.8543 15.713 35.6507 16.4247 34.4183 16.7067L38.3028 11.483C38.4248 11.3192 38.3907 11.0874 38.227 10.9655C38.0621 10.843 37.8308 10.8781 37.7094 11.0413L33.7929 16.309C33.672 15.1284 33.6621 12.9483 34.8997 11.3093C36.3619 9.37301 39.1663 8.72777 40.136 8.55769C40.2825 9.48814 40.5405 12.1565 39.0951 14.0698Z" fill="#FFC400"/>
<path d="M7.4393 18.0055C7.47907 18.0055 7.51884 17.9987 7.55757 17.9851C7.57432 17.9799 7.58792 17.9694 7.6031 17.9616C7.62194 17.9521 7.64182 17.9453 7.65962 17.9322C7.66066 17.9312 7.66171 17.9296 7.66276 17.9286C7.69834 17.9014 7.72869 17.8679 7.75277 17.8286C7.76114 17.815 7.76428 17.7999 7.77108 17.7857C7.78102 17.7637 7.79306 17.7439 7.79882 17.7198C7.83545 17.5644 8.67014 13.8797 6.68991 11.2579C4.71911 8.64707 0.772794 8.18394 0.605856 8.1651C0.419556 8.14208 0.247386 8.2661 0.205521 8.44822C0.168889 8.60364 -0.665798 12.2883 1.31442 14.9096C3.28627 17.5204 7.23207 17.9841 7.39848 18.0029C7.41209 18.005 7.42569 18.0055 7.4393 18.0055ZM7.20538 16.7025L3.28994 11.4369C3.16905 11.2731 2.93722 11.2385 2.77238 11.3605C2.60858 11.4824 2.57509 11.7142 2.6965 11.878L6.58106 17.1023C5.34866 16.8197 3.1455 16.1085 1.9042 14.4648C0.458805 12.551 0.716799 9.88314 0.863327 8.95321C1.83251 9.12329 4.63747 9.76802 6.09961 11.7043C7.33411 13.3391 7.32522 15.5203 7.20538 16.7025Z" fill="#FFC400"/>
<path d="M13.5521 9.21855C13.4961 9.0223 13.292 8.90665 13.0947 8.96474C12.8985 9.02073 12.7849 9.22587 12.8409 9.42159C13.1769 10.5954 13.6007 11.8158 14.1016 13.0487C14.1596 13.1921 14.2983 13.2795 14.4438 13.2795C14.4904 13.2795 14.5375 13.2706 14.583 13.2523C14.7719 13.1753 14.8635 12.9597 14.786 12.7703C14.2957 11.5614 13.8802 10.3667 13.5521 9.21855Z" fill="#FFC400"/>
<path d="M13.0305 8.68841C13.2298 8.64393 13.3554 8.44664 13.3109 8.24725C13.222 7.85006 13.1466 7.38326 13.2565 6.93373C13.3052 6.7354 13.1838 6.53497 12.9849 6.48682C12.7929 6.44077 12.5867 6.55956 12.538 6.7579C12.392 7.35553 12.482 7.92751 12.5893 8.40843C12.6275 8.58061 12.7803 8.69783 12.9493 8.69783C12.9766 8.69783 13.0032 8.69469 13.0305 8.68841Z" fill="#FFC400"/>
<path d="M17.9391 17.0536H23.3554C23.5595 17.0536 23.7254 16.8883 23.7254 16.6836V14.942C23.7248 14.7369 23.559 14.5721 23.3549 14.5721H22.1361V7.15983C22.1361 7.04052 22.0785 6.92905 21.9817 6.85945C21.8849 6.78932 21.7608 6.77153 21.6473 6.80973L17.9066 8.07511C17.7564 8.12639 17.6554 8.26717 17.6554 8.42573V10.2756C17.6554 10.3923 17.7104 10.5022 17.8041 10.5718C17.8977 10.642 18.0191 10.6634 18.1301 10.6305L19.2735 10.294V14.5726H17.9391C17.7345 14.5726 17.5691 14.738 17.5691 14.942V16.6836C17.5691 16.8877 17.7345 17.0536 17.9391 17.0536ZM18.308 15.311H19.6425C19.8466 15.311 20.0124 15.1456 20.0124 14.941V9.79838C20.0124 9.68168 19.9575 9.57179 19.8644 9.50219C19.7707 9.43259 19.6493 9.41061 19.5383 9.44358L18.3949 9.78007V8.68948L21.3956 7.67425V14.9405C21.3956 15.1446 21.5609 15.3105 21.7656 15.3105H22.9844V16.3131H18.308V15.311Z" fill="#FFC400"/>
</svg>
