<svg width="85" height="82" viewBox="0 0 85 82" fill="none" xmlns="http://www.w3.org/2000/svg">
<path d="M36.9858 46.6139C36.9858 49.3869 39.2404 51.6433 42.0124 51.6433C44.7869 51.6433 47.0455 49.3869 47.0455 46.6139C47.0455 43.8351 44.7869 41.5765 42.0124 41.5765C39.2404 41.5766 36.9858 43.8353 36.9858 46.6139ZM42.0126 49.1883C40.5958 49.1883 39.4433 48.0318 39.4433 46.6139C39.4433 45.1934 40.5958 44.0338 42.0126 44.0338C43.4329 44.0338 44.5882 45.1934 44.5882 46.6139C44.5882 48.0318 43.4329 49.1883 42.0126 49.1883Z" fill="#E30039"/>
<path d="M42.0187 38.0466L45.7758 27.4763H38.2617L42.0187 38.0466Z" fill="#E30039"/>
<path d="M47.3367 72.2207C46.1529 70.3316 44.5691 64.622 47.7193 62.1316C49.4692 60.7712 51.4842 61.0024 53.554 61.7644C53.6059 59.1681 54.9352 50.7993 57.2145 48.9406V48.8726L57.2416 48.9163C57.8216 48.4508 58.1601 48.3447 58.8421 48.0697C59.7305 48.0044 59.9836 47.931 60.8423 48.157C60.0505 43.0053 60.1224 40.3841 61.837 38.8358L56.7695 30.5217C55.5884 28.5896 53.7664 27.4763 50.989 27.4763L46.598 39.8373C48.7656 41.3099 50.1919 43.7945 50.1919 46.6112C50.1919 51.1288 46.5329 54.7866 42.0138 54.7866C37.5082 54.7866 33.8493 51.129 33.8493 46.6112C33.8493 43.7945 35.2752 41.3097 37.4416 39.8373L33.0504 27.4763C30.2635 27.4763 28.4402 28.6058 27.27 30.5217L22.208 38.8276C23.9281 40.338 24.0001 42.959 23.2001 48.157C23.9213 47.9663 24.2001 47.9992 24.9405 47.9992C25.739 48.2928 26.1719 48.3937 26.8128 48.8943L26.8265 48.8726V48.905C29.1192 50.7259 30.4298 58.9774 30.4882 61.7644C32.5334 61.016 34.5677 60.7654 36.3015 62.1155C39.4734 64.6219 37.8895 70.3316 36.7314 72.1824C36.251 72.928 35.5912 73.5157 34.8251 73.9268H49.2137C48.4525 73.5186 47.802 72.9442 47.3367 72.2207Z" fill="#E30039"/>
<path d="M42.0172 25.0678C48.9379 25.0678 54.5499 19.4562 54.5499 12.5299C54.5499 5.61177 48.9379 0 42.0172 0C35.0923 0 29.4834 5.61193 29.4834 12.5299C29.4834 19.4562 35.0923 25.0678 42.0172 25.0678Z" fill="#E30039"/>
<path d="M21.9635 64.2329C19.336 60.5345 19.389 60.5945 16.9803 56.7053C14.6861 52.4681 12.2 47.3432 11.0611 42.5808C10.0227 38.2184 9.80925 33.6189 9.9915 29.1393C10.2256 24.6024 10.7303 20.9831 11.2108 18.7785C11.2108 18.7785 9.58056 22.8119 8.82819 29.0196C8.28518 33.5399 8.34231 38.0984 9.05129 42.5589C9.8474 47.6021 11.9389 53.4993 14.0221 58.2102C16.1842 62.5132 16.6279 62.9949 18.7411 66.7642C20.1222 68.9167 22.8288 72.4326 24.2508 74.0906C20.1683 72.7675 19.5126 79.1361 21.6612 80.818C23.6369 82.3638 27.2689 80.5323 27.9752 79.3948C28.7045 78.2681 27.8294 76.4063 26.1641 75.0893C26.7776 75.1055 27.3998 74.896 27.8826 74.4415C28.7508 73.6332 28.9725 72.0438 28.005 71.0043C21.3961 63.9334 23.7188 66.5407 21.9635 64.2329Z" fill="#E30039"/>
<path d="M12.4846 16.8541C13.7459 17.317 15.2878 16.2854 16.0907 14.5843C16.7846 12.8751 18.5128 7.96046 17.4976 7.18452C16.3424 6.36247 12.505 10.5539 11.6941 12.5244C10.7944 14.4348 11.2272 16.3918 12.4846 16.8541Z" fill="#E30039"/>
<path d="M13.1809 20.6509C12.9183 20.795 12.6799 20.9391 12.5019 21.0945C11.2009 22.1122 10.6839 24.3195 11.3928 25.7915C11.5208 26.0582 11.7017 26.2352 11.876 26.423C12.6679 27.2478 13.8356 27.2588 14.7716 26.4066C15.8779 25.2907 18.5571 21.8537 18.1067 20.4603C17.6956 19.1783 14.8041 19.7637 13.1809 20.6509Z" fill="#E30039"/>
<path d="M34.289 64.6982C33.075 63.754 29.7576 65.474 28.8217 66.4398C27.9059 67.4143 28.2798 69.2513 29.7959 70.4326C31.3049 71.6189 33.2237 71.5728 33.9516 70.4436C34.6647 69.306 35.4987 65.6564 34.289 64.6982Z" fill="#E30039"/>
<path d="M15.1524 38.7298C15.8438 37.3119 18.5885 31.8034 17.8644 30.707C17.0071 29.3896 12.3793 32.9848 11.4879 34.4218C9.26298 37.426 13.0323 42.0581 15.1524 38.7298Z" fill="#E30039"/>
<path d="M14.0153 47.2289C13.3553 48.9518 14.2002 51.3245 15.8006 52.2419C17.4008 53.167 18.986 52.348 19.4609 50.6907C19.7345 48.8942 21.1006 42.1423 19.9863 41.2224C18.6309 40.0578 14.5364 45.3376 14.0153 47.2289Z" fill="#E30039"/>
<path d="M23.8299 64.7499C25.931 65.1935 27.3256 63.7132 27.2196 61.7373C26.7934 59.6608 26.0138 51.9368 24.5551 51.3438C22.6923 50.5138 19.9231 57.5869 20.0497 59.8676C19.9285 61.9821 21.733 64.3172 23.8299 64.7499Z" fill="#E30039"/>
<path d="M8.27294 25.1311C9.44592 23.9144 9.94671 21.789 9.44304 20.1615C8.88528 18.5941 6.75972 14.89 5.3567 16.0196C3.84212 17.2226 4.12524 22.9184 4.8927 24.5108C5.57064 26.1652 7.10133 26.3368 8.27294 25.1311Z" fill="#E30039"/>
<path d="M7.29823 39.5299C8.0862 38.0329 7.97041 35.8475 7.02749 34.4296C5.98912 33.1696 2.07994 27.8057 1.03344 29.1935C-0.234645 30.8045 2.61328 38.637 3.88289 39.881C4.99449 41.2826 6.51297 41.0238 7.29823 39.5299Z" fill="#E30039"/>
<path d="M6.79304 56.0548C8.51851 57.2684 10.1036 56.4523 10.4549 54.5061C10.8046 52.555 9.95137 50.1465 8.44646 48.8617C6.87068 47.7979 0.837125 42.9369 0.104928 44.8258C-0.844777 47.0657 4.91516 55.0968 6.79304 56.0548Z" fill="#E30039"/>
<path d="M15.0375 63.2342C12.9311 62.6325 4.68889 59.1736 4.52699 61.5033C4.20048 64.3473 13.4468 71.3984 15.9233 71.7688C18.295 72.509 19.6899 71.0256 19.3171 68.7588C18.94 66.4836 17.1315 64.1457 15.0375 63.2342Z" fill="#E30039"/>
<path d="M59.7889 74.0906C64.0536 69.121 66.9561 64.304 70.0178 58.2102C72.0588 53.5971 74.1735 47.7216 74.9888 42.5589C75.6486 38.4087 75.6869 34.5442 75.4226 31.1723C75.0417 26.2275 73.8431 21.2875 72.8293 18.7785C73.4374 21.5652 74.0567 26.4914 74.1015 31.2213C74.1452 34.9908 73.8512 38.9152 72.979 42.5837C71.7474 47.7489 69.3023 52.5608 67.0597 56.7055C61.4983 65.6809 60.8017 65.9045 56.0362 71.0043C55.0672 72.0469 55.2905 73.6359 56.1575 74.4415C56.6404 74.8962 57.2621 75.1055 57.876 75.0893C56.2103 76.4063 55.3354 78.2681 56.0649 79.3948C56.7712 80.5323 60.4028 82.3639 62.3787 80.818C64.3517 79.2721 63.3979 75.3505 62.4685 74.3898C61.8872 73.7718 60.8734 73.7393 59.7889 74.0906Z" fill="#E30039"/>
<path d="M71.5547 16.8541C72.8117 16.3917 73.2445 14.4348 72.3452 12.5244C71.5338 10.5539 67.6969 6.36247 66.5413 7.18452C65.5264 7.96046 67.2544 12.8751 67.9484 14.5843C68.7513 16.2854 70.293 17.3171 71.5547 16.8541Z" fill="#E30039"/>
<path d="M72.642 25.7915C73.351 24.3194 72.8338 22.1122 71.5331 21.0946C70.3164 20.052 66.4166 18.9417 65.928 20.4604C65.4775 21.8537 68.1568 25.2908 69.2633 26.4066C70.5058 27.5362 72.0351 27.0571 72.642 25.7915Z" fill="#E30039"/>
<path d="M55.2191 66.44C54.2828 65.4742 50.9653 63.754 49.7516 64.6984C48.5434 65.6564 49.3759 69.3062 50.0891 70.4438C50.8169 71.573 52.7356 71.6193 54.2448 70.4328C55.7604 69.2515 56.1347 67.4145 55.2191 66.44Z" fill="#E30039"/>
<path d="M66.1703 30.7069C65.4464 31.8034 68.1911 37.3117 68.8825 38.7297C69.6933 40.0032 71.212 40.2619 72.299 39.0753C73.3252 37.9758 73.4299 35.6134 72.5468 34.4216C71.6555 32.9847 67.0275 29.3894 66.1703 30.7069Z" fill="#E30039"/>
<path d="M68.2382 52.242C69.8373 51.3247 70.6823 48.9519 70.0223 47.229C69.501 45.3377 65.4065 40.0579 64.0513 41.2226C62.9368 42.1426 64.3029 48.8945 64.5767 50.6908C65.0515 52.3481 66.6365 53.1671 68.2382 52.242Z" fill="#E30039"/>
<path d="M59.4789 51.3438C58.0203 51.9368 57.2404 59.6608 56.8147 61.7373C56.7086 63.7132 58.1033 65.1937 60.2043 64.7499C62.3012 64.3172 64.1057 61.9821 63.9843 59.8676C64.1111 57.5869 61.3419 50.5138 59.4789 51.3438Z" fill="#E30039"/>
<path d="M79.1473 24.6787C79.9145 23.0863 80.1978 17.3905 78.6833 16.1875C77.2801 15.0579 75.1546 18.762 74.5967 20.3294C74.0933 21.9571 74.5941 24.0825 75.7671 25.299C76.9387 26.5047 78.4696 26.3331 79.1473 24.6787Z" fill="#E30039"/>
<path d="M76.7395 39.5299C77.5249 41.0236 79.0432 41.2826 80.1552 39.881C81.4248 38.637 84.2727 30.8045 83.0046 29.1935C81.9583 27.8057 78.0486 33.1696 77.0105 34.4296C76.0673 35.8477 75.9517 38.0329 76.7395 39.5299Z" fill="#E30039"/>
<path d="M73.5849 54.5062C73.936 56.4522 75.5212 57.2685 77.2467 56.0548C79.1244 55.097 84.8845 47.0659 83.9348 44.826C83.2028 42.9371 77.1689 47.7979 75.5933 48.8618C74.0884 50.1465 73.2351 52.555 73.5849 54.5062Z" fill="#E30039"/>
<path d="M68.9992 63.2342C66.905 64.1458 65.0964 66.4836 64.7196 68.7588C64.3469 71.0256 65.7415 72.509 68.1134 71.7688C70.5899 71.3984 79.8363 64.3475 79.5098 61.5033C79.3477 59.1736 71.1054 62.6327 68.9992 63.2342Z" fill="#E30039"/>
</svg>
