<svg width="33" height="32" viewBox="0 0 33 32" fill="none" xmlns="http://www.w3.org/2000/svg">
	<rect x="0.339111" width="32.3219" height="31.9998" rx="15.9999" fill="#151B26"/>
	<rect x="2.21606" y="1.86084" width="28.568" height="28.2783" rx="14.1392" stroke="#E30039" stroke-width="0.5"/>
	<path d="M15.1347 9.80778C14.9903 9.86708 14.9552 10.017 15.0114 10.3586C15.036 10.5259 15.0641 10.6967 15.0748 10.7386C15.0889 10.8048 15.0713 10.8188 14.9234 10.8501C14.8319 10.8675 14.5995 10.9303 14.4058 10.9896C14.2121 11.0454 14.0431 11.0836 14.0326 11.0698C14.0185 11.0558 13.9516 10.8675 13.8777 10.648C13.8002 10.411 13.7122 10.2158 13.663 10.1669C13.5081 10.0135 13.2264 10.0937 13.1735 10.3064C13.163 10.3517 13.2192 10.5818 13.3144 10.8503C13.3989 11.1082 13.4693 11.3209 13.4623 11.3278C13.4588 11.3312 13.2791 11.4218 13.0643 11.5264L12.677 11.7181L12.4657 11.2963C12.2087 10.7733 12.1312 10.6793 11.9763 10.6793C11.9129 10.6793 11.8214 10.7106 11.7685 10.7524C11.6206 10.8674 11.6452 11 11.9233 11.5471L12.1662 12.0317L11.9656 12.1816C11.8565 12.2618 11.6805 12.3977 11.5783 12.4849L11.3916 12.6417L10.9938 12.2513C10.6311 11.8993 10.5854 11.8644 10.4656 11.8644C10.2966 11.8644 10.1628 11.9899 10.1628 12.1467C10.1628 12.2407 10.2192 12.3175 10.5571 12.6557C10.8564 12.9554 10.9444 13.0635 10.9198 13.0984C10.8987 13.1262 10.8106 13.2308 10.7226 13.3354C10.6311 13.4366 10.4691 13.6458 10.3565 13.7991C9.66984 14.7508 9.24026 15.7895 8.91285 17.2851C8.8987 17.3479 8.87059 17.3548 8.65929 17.3548C8.46214 17.3548 8.3881 17.3722 8.25783 17.4488C7.55394 17.8603 7.28275 18.9514 7.68421 19.7776C7.92362 20.276 8.32159 20.5688 8.71588 20.5341C8.82502 20.5272 8.93765 20.5097 8.96595 20.4957C9.00821 20.4783 9.04348 20.5479 9.13498 20.8304C9.57852 22.2247 10.4939 23.4238 11.7473 24.2569C12.427 24.7066 13.4303 25.1144 14.3036 25.2993C15.5009 25.5468 17.0959 25.5921 18.3388 25.4073C20.0748 25.1494 21.5606 24.4243 22.6132 23.3227C23.7506 22.1374 24.3315 20.7222 24.4407 18.8955L24.4653 18.4877H24.5603C24.7082 18.4877 24.9933 18.3343 25.1236 18.1914C25.4334 17.8394 25.5743 17.2431 25.4687 16.7272C25.3456 16.1382 25.004 15.6573 24.5463 15.4341C24.3139 15.3191 24.2647 15.3085 24.0815 15.3226C23.9688 15.3329 23.8525 15.3504 23.8244 15.3644C23.7857 15.3784 23.7153 15.2703 23.5358 14.9042C23.1345 14.0851 22.6274 13.3913 21.9726 12.7708C21.6874 12.4989 20.9973 11.9621 20.8916 11.9237C20.8635 11.9168 20.9232 11.7598 21.0712 11.4566C21.3106 10.9685 21.3177 10.9163 21.1733 10.7559C21.0888 10.6653 20.9198 10.6547 20.8036 10.7349C20.7614 10.7628 20.6346 10.965 20.529 11.1777C20.4198 11.3938 20.3246 11.5717 20.3211 11.5786C20.3142 11.5892 19.8177 11.3556 19.7859 11.3276C19.7824 11.3241 19.8493 11.108 19.9338 10.8464C20.0253 10.571 20.0817 10.3444 20.0676 10.3062C20.0218 10.1738 19.9057 10.0866 19.7753 10.0866C19.5923 10.0866 19.5252 10.1807 19.3703 10.6444C19.2965 10.8639 19.2259 11.0591 19.2119 11.0766C19.1873 11.0975 18.6133 10.9407 18.6133 10.9092C18.6133 10.9057 18.6697 10.7384 18.7366 10.5398C18.9057 10.0483 18.9022 9.91928 18.7155 9.82506C18.4584 9.69263 18.3563 9.78667 18.1733 10.334C18.0923 10.571 18.0112 10.7662 17.9936 10.7662C17.976 10.7662 17.7612 10.7349 17.5148 10.7L17.0641 10.6338V10.2991C17.0606 9.95057 17.0395 9.88781 16.8985 9.81451C16.7752 9.74829 16.6768 9.76576 16.5676 9.87381C16.469 9.97149 16.4655 9.98877 16.4655 10.2885V10.6023L16.3705 10.6233C16.279 10.6373 15.786 10.6826 15.7085 10.6826C15.6908 10.6826 15.6486 10.5258 15.6135 10.334C15.5466 9.94002 15.5113 9.85289 15.3882 9.80759C15.2826 9.76594 15.2403 9.76594 15.1347 9.80778ZM16.4656 11.5508C16.4656 11.9168 16.5114 12.0772 16.624 12.1225C16.7473 12.1678 16.8915 12.1434 16.9761 12.0563C17.0571 11.9761 17.0641 11.9482 17.0641 11.6032C17.0641 11.3347 17.0745 11.2372 17.1098 11.2372C17.1978 11.2372 17.7753 11.3383 17.7964 11.3558C17.8069 11.3698 17.7788 11.4917 17.7331 11.6312C17.6662 11.8507 17.659 11.8997 17.6978 11.9728C17.7647 12.0949 17.8422 12.1401 17.9725 12.1436C18.1343 12.1436 18.2365 12.0321 18.3317 11.7392C18.3739 11.6068 18.4162 11.4953 18.4162 11.4917C18.4408 11.4638 19.0006 11.6659 19.0006 11.7008C19.0006 11.7252 18.9689 11.8438 18.9268 11.9622C18.8634 12.1471 18.8599 12.1889 18.9022 12.2726C18.9586 12.3912 19.1169 12.4712 19.2331 12.4434C19.3633 12.4085 19.4444 12.311 19.5112 12.1052C19.5465 12.0006 19.5781 11.9135 19.5816 11.9066C19.5886 11.8997 19.6942 11.9484 19.821 12.0077L20.05 12.1227L19.9127 12.3946C19.7472 12.7188 19.7402 12.813 19.8774 12.9489C20.0746 13.1406 20.2789 13.0429 20.4584 12.67C20.5183 12.5514 20.578 12.4574 20.5993 12.4574C20.6873 12.4608 21.2999 12.9523 21.6591 13.3114C22.6063 14.2455 23.2084 15.3331 23.578 16.7798C23.8105 17.6826 23.8915 18.4669 23.8281 19.1746C23.7471 20.0879 23.5815 20.6909 23.1907 21.4684C22.4019 23.0404 21.0535 24.128 19.2965 24.6057C17.7683 25.0206 15.5924 25.0379 14.0571 24.6406C12.9021 24.3443 11.941 23.804 11.1592 23.0162C10.786 22.6362 10.6558 22.4759 10.3987 22.0959C9.64172 20.9596 9.30714 19.6139 9.41977 18.1708C9.54655 16.5429 10.1521 14.9846 11.11 13.8098C11.2297 13.66 11.3459 13.5275 11.367 13.517C11.3846 13.503 11.5008 13.5901 11.6206 13.7087C11.7931 13.8795 11.86 13.9214 11.948 13.9214C12.1063 13.9214 12.1662 13.8901 12.2261 13.7749C12.3072 13.6216 12.2649 13.5239 12.0255 13.2765L11.8142 13.0569L12.117 12.8234C12.2826 12.6944 12.4305 12.6004 12.4444 12.6107C12.4551 12.6247 12.5078 12.7084 12.5571 12.799C12.7015 13.0604 12.9091 13.1197 13.0853 12.9454C13.184 12.8478 13.1733 12.6979 13.05 12.4574L12.9444 12.2482L13.2999 12.0739C13.497 11.9763 13.6591 11.8997 13.6661 11.9066C13.6696 11.9135 13.7014 12.0043 13.7364 12.1087C13.8103 12.3388 13.8702 12.4119 14.0005 12.4399C14.1131 12.4643 14.2963 12.3877 14.3314 12.3004C14.3667 12.2064 14.356 12.0563 14.2998 11.8995C14.2717 11.8193 14.247 11.7287 14.247 11.7043C14.247 11.645 15.1308 11.3696 15.1801 11.4149C15.187 11.4253 15.2153 11.5579 15.2365 11.7078C15.2681 11.9135 15.2998 12.0041 15.3597 12.0634C15.4759 12.1749 15.666 12.1714 15.7858 12.0528C15.8845 11.9552 15.8808 12.0041 15.8104 11.4498L15.7858 11.279L16.0287 11.2546C16.2435 11.2372 16.3457 11.2234 16.4407 11.2059C16.455 11.2057 16.4656 11.3591 16.4656 11.5508ZM24.4056 15.978C24.7119 16.1662 24.9443 16.7762 24.909 17.2957C24.8879 17.5745 24.814 17.735 24.659 17.8256C24.4864 17.9301 24.43 17.9161 24.4054 17.7628C24.3244 17.2782 24.1976 16.6752 24.1061 16.3614C24.0499 16.1591 24.0006 15.9745 24.0006 15.9536C24.0006 15.8803 24.2751 15.8977 24.4056 15.978ZM8.80389 18.7493C8.81455 19.1886 8.83549 19.6277 8.85313 19.7183C8.88841 19.9065 8.84964 19.9518 8.65599 19.9518C8.27933 19.9518 8.01512 19.3348 8.11029 18.6794C8.17717 18.2157 8.40611 17.9125 8.67362 17.9369L8.78974 17.9472L8.80389 18.7493Z" fill="#E30039"/>
	<path d="M18.2611 13.0393C17.3174 13.2032 16.4618 13.8097 15.9936 14.6568C15.3211 15.8664 15.5076 17.2433 16.4796 18.2403C17.1098 18.8851 17.8916 19.2268 18.7542 19.2268C19.381 19.2302 19.9338 19.0665 20.4444 18.7283C20.7895 18.4982 21.2437 18.0416 21.4232 17.7453C21.7612 17.1876 21.9442 16.5044 21.9091 15.957C21.881 15.5283 21.7789 15.1448 21.6029 14.8101C21.3916 14.4058 21.2754 14.2524 20.9585 13.9386C20.3318 13.3216 19.5641 13.0078 18.7122 13.0184C18.5112 13.0218 18.3105 13.0324 18.2611 13.0393ZM19.5744 13.7225C19.9301 13.8375 20.2822 14.0467 20.5357 14.2942C20.7189 14.472 20.9899 14.8241 20.9618 14.8485C20.9407 14.8694 16.3493 15.3156 16.3317 15.2982C16.2964 15.2669 16.6027 14.709 16.7647 14.5069C17.0745 14.1269 17.6555 13.7749 18.1731 13.6632C18.5569 13.5795 19.2224 13.6076 19.5744 13.7225ZM21.2646 15.7304C21.2857 15.8663 21.2927 15.9883 21.2788 15.9989C21.2576 16.0198 19.7648 16.1837 19.5816 16.1871C19.5182 16.1871 19.5112 16.1628 19.5112 15.9676C19.5112 15.849 19.4971 15.7166 19.4831 15.6713C19.4585 15.605 19.4655 15.5945 19.5535 15.591C19.6064 15.591 19.9935 15.5561 20.4091 15.5108C20.8246 15.469 21.1803 15.4446 21.1942 15.4586C21.2117 15.469 21.2398 15.5945 21.2646 15.7304ZM18.3526 15.8524C18.3384 15.9501 18.3456 16.0547 18.3772 16.1488C18.4053 16.2255 18.4264 16.2917 18.423 16.2952C18.423 16.2952 17.93 16.3474 17.3314 16.4102C16.5321 16.4938 16.2433 16.5113 16.2328 16.4833C16.2224 16.4589 16.2187 16.3265 16.2259 16.1835L16.2363 15.9256L17.2926 15.8175C17.8736 15.7548 18.3559 15.706 18.3631 15.7025C18.3702 15.7025 18.3632 15.7688 18.3526 15.8524ZM21.2012 16.8738C20.9794 17.6338 20.3527 18.2647 19.5886 18.5053C18.483 18.8539 17.3176 18.5019 16.6979 17.6409C16.5465 17.4283 16.3809 17.1319 16.4021 17.111C16.4337 17.0832 21.2365 16.623 21.247 16.6474C21.2539 16.6612 21.2328 16.7658 21.2012 16.8738Z" fill="white"/>
	<path d="M12.4903 14.5172C12.2191 14.5625 11.8425 14.6983 11.6135 14.8344C11.5009 14.8972 11.2789 15.0818 11.1136 15.2457C10.853 15.5002 10.7862 15.5942 10.6313 15.908C10.406 16.3646 10.339 16.6365 10.332 17.1177C10.3285 17.5115 10.3742 17.7625 10.5186 18.0903C10.9201 19.0036 11.9235 19.6379 12.9623 19.6379C13.3812 19.6379 13.7123 19.5648 14.0539 19.3975C14.737 19.0628 15.2335 18.4597 15.4518 17.6998C15.5715 17.285 15.5644 16.6574 15.4341 16.274C15.1523 15.4376 14.4445 14.8066 13.5078 14.5625C13.258 14.4962 12.7332 14.4719 12.4903 14.5172ZM13.4516 15.1238C13.7333 15.1969 14.0995 15.3923 14.2615 15.556L14.3918 15.6884L12.67 16.302C11.7192 16.6402 10.9341 16.919 10.9199 16.919C10.8846 16.919 10.9304 16.6542 11.0114 16.4066C11.2051 15.8105 11.7403 15.333 12.4269 15.1376C12.7016 15.0611 13.1804 15.0541 13.4516 15.1238ZM14.8423 16.4553C14.8846 16.574 14.9162 16.6924 14.9162 16.7167C14.9162 16.7446 14.6064 16.8735 14.138 17.0409C13.7085 17.1942 13.3493 17.3232 13.3353 17.3303C13.3212 17.3338 13.3177 17.2781 13.3246 17.2082C13.3316 17.1177 13.307 17.0234 13.2543 16.9154L13.1698 16.7549L13.9479 16.4761C14.374 16.3227 14.733 16.2076 14.7471 16.2181C14.7578 16.2289 14.8035 16.3369 14.8423 16.4553ZM12.1346 17.2119C12.1346 17.3374 12.198 17.4804 12.293 17.5813L12.3775 17.6685L11.8142 17.8706C11.5007 17.9821 11.2297 18.0657 11.2051 18.0588C11.1663 18.0448 11.0291 17.7276 11.0008 17.5882C10.9938 17.5568 11.1698 17.4733 11.536 17.3372C11.8353 17.2257 12.0923 17.1351 12.11 17.1315C12.1241 17.1282 12.1346 17.1666 12.1346 17.2119ZM14.8952 17.5882C14.6312 18.5783 13.5396 19.2441 12.5221 19.0315C12.2298 18.9722 11.8039 18.7804 11.6876 18.6549L11.61 18.5747L13.2368 17.9926C14.1312 17.6719 14.8811 17.4105 14.9059 17.4069C14.9338 17.4071 14.9338 17.4558 14.8952 17.5882Z" fill="white"/>
	<path d="M18.2541 19.9172C16.2683 20.1229 14.4797 21.2174 13.455 22.8524C13.3951 22.9464 13.3388 23.0197 13.3282 23.0197C13.2859 23.0197 13.2225 22.828 13.2014 22.6259C13.1661 22.3018 13.0043 22.1797 12.7542 22.2912C12.3704 22.4655 12.7331 23.431 13.3245 23.8007C13.5217 23.9227 13.8632 24.0308 14.0534 24.0308C14.2612 24.0308 14.388 23.9193 14.388 23.7344C14.388 23.5531 14.2612 23.4381 14.064 23.4381C13.807 23.4381 13.8035 23.4137 14.0394 23.0512C15.5253 20.7783 18.3105 19.8755 20.8773 20.8447C21.2082 20.9702 21.1871 21.0155 20.7823 21.0574C20.4161 21.0957 20.2894 21.3362 20.5183 21.5629C20.6204 21.6675 20.6346 21.6675 20.8422 21.6465C21.4162 21.5872 21.9619 21.1341 22.1414 20.5693C22.2752 20.1406 22.1872 19.8826 21.9055 19.8826C21.7049 19.8826 21.638 19.9732 21.592 20.3148C21.5814 20.388 21.5674 20.4543 21.5604 20.4613C21.5535 20.4716 21.3879 20.4125 21.1977 20.3392C20.8034 20.1824 20.3244 20.0498 19.8737 19.9732C19.4829 19.9066 18.6484 19.8788 18.2541 19.9172Z" fill="#E30039"/>
	<mask id="path-7-inside-1_167_29" fill="white">
	<path fill-rule="evenodd" clip-rule="evenodd" d="M21.6004 8.71585C21.6021 8.74541 21.5998 8.77549 21.5923 8.80538L21.1073 10.708C21.0175 10.6649 20.8943 10.6721 20.8035 10.7348C20.7613 10.7627 20.6345 10.965 20.5289 11.1776C20.4363 11.3609 20.3538 11.5166 20.3287 11.564L20.3211 11.5785C20.3141 11.5891 19.8176 11.3555 19.7858 11.3275C19.7823 11.324 19.8492 11.1079 19.9337 10.8464C20.0252 10.571 20.0816 10.3443 20.0675 10.3061C20.0217 10.1737 19.9056 10.0865 19.7752 10.0865C19.5922 10.0865 19.5251 10.1806 19.3702 10.6443C19.2964 10.8638 19.2258 11.059 19.2118 11.0765C19.1872 11.0974 18.6132 10.9406 18.6132 10.9091C18.6132 10.9058 18.6643 10.7541 18.7269 10.5683L18.7365 10.5397C18.9056 10.0482 18.9021 9.91919 18.7154 9.82497C18.4583 9.69254 18.3562 9.78658 18.1732 10.3339C18.0922 10.571 18.0111 10.7661 17.9935 10.7661C17.9796 10.7661 17.8437 10.7468 17.6665 10.7215L17.5147 10.6999L17.064 10.6337V10.299C17.0605 9.95048 17.0394 9.88772 16.8984 9.81441C16.7751 9.7482 16.6767 9.76566 16.5675 9.87371C16.4689 9.9714 16.4654 9.98868 16.4654 10.2885V10.6022L16.3704 10.6232C16.2789 10.6372 15.7859 10.6825 15.7084 10.6825C15.6907 10.6825 15.6485 10.5257 15.6134 10.3339C15.5465 9.93993 15.5112 9.85279 15.3881 9.8075C15.2825 9.76584 15.2402 9.76585 15.1346 9.80768C14.9902 9.86698 14.9551 10.0169 15.0113 10.3585C15.0359 10.5258 15.064 10.6966 15.0747 10.7385C15.0888 10.8047 15.0712 10.8187 14.9233 10.85C14.8318 10.8675 14.5994 10.9302 14.4057 10.9895C14.212 11.0454 14.043 11.0836 14.0325 11.0697C14.0184 11.0557 13.9515 10.8675 13.8776 10.6479C13.8001 10.4109 13.7121 10.2157 13.6629 10.1668C13.508 10.0134 13.2263 10.0936 13.1734 10.3063C13.1629 10.3516 13.2191 10.5817 13.3143 10.8502L13.3309 10.9007C13.4078 11.1354 13.4687 11.3212 13.4622 11.3277C13.4587 11.3311 13.279 11.4217 13.0642 11.5263L12.7041 11.7046H12.6702L12.4656 11.2962C12.228 10.8127 12.1438 10.6958 12.0101 10.6809L11.5363 8.81514C11.5285 8.78445 11.5262 8.75352 11.5282 8.7232C11.2668 8.64243 11.0767 8.40252 11.0767 8.11979C11.0767 7.77095 11.366 7.48718 11.7217 7.48718C12.0773 7.48718 12.3667 7.77095 12.3667 8.11979C12.3667 8.31624 12.2749 8.492 12.1312 8.60812L12.9772 9.44413C13.191 9.65544 13.4877 9.77658 13.7912 9.77658C14.1501 9.77658 14.4923 9.60941 14.7078 9.32934L16.0981 7.52252C15.9814 7.40805 15.909 7.24988 15.909 7.07548C15.909 6.72664 16.1984 6.44287 16.554 6.44287C16.9097 6.44287 17.199 6.72664 17.199 7.07548C17.199 7.24466 17.1306 7.39821 17.0199 7.51184L17.0211 7.51325L18.4013 9.32504C18.6167 9.60781 18.9601 9.77662 19.3201 9.77662C19.6264 9.77662 19.9145 9.65962 20.1311 9.44714L20.9824 8.61218C20.8356 8.4961 20.7414 8.31865 20.7414 8.11979C20.7414 7.77095 21.0307 7.48718 21.3864 7.48718C21.7421 7.48718 22.0314 7.77095 22.0314 8.11979C22.0314 8.39496 21.851 8.62901 21.6004 8.71585ZM18.4161 11.4916C18.4392 11.4654 18.934 11.6419 18.9945 11.6925L18.3456 11.6958C18.3686 11.6261 18.3901 11.5658 18.4032 11.5291L18.4032 11.529C18.4112 11.5064 18.4161 11.4928 18.4161 11.4916ZM17.733 11.6311C17.7254 11.6558 17.7187 11.6783 17.7127 11.6989L17.0637 11.7021C17.0639 11.6723 17.064 11.6395 17.064 11.6031C17.064 11.3346 17.0745 11.2371 17.1097 11.2371C17.1977 11.2371 17.7752 11.3382 17.7963 11.3557C17.8068 11.3697 17.7787 11.4916 17.733 11.6311ZM16.4656 11.5507C16.4656 11.6067 16.4666 11.6579 16.4688 11.7046H15.8429C15.8382 11.6671 15.8328 11.6245 15.8265 11.5758L15.8264 11.5749L15.8263 11.5747L15.8104 11.4497L15.7857 11.2789L16.0286 11.2545C16.2434 11.2371 16.3456 11.2233 16.4406 11.2058C16.4549 11.2056 16.4656 11.359 16.4656 11.5507ZM15.18 11.4148C15.1869 11.4251 15.2148 11.556 15.2359 11.7046H14.247L14.247 11.7042C14.247 11.6449 15.1307 11.3695 15.18 11.4148Z"/>
	</mask>
	<path fill-rule="evenodd" clip-rule="evenodd" d="M21.6004 8.71585C21.6021 8.74541 21.5998 8.77549 21.5923 8.80538L21.1073 10.708C21.0175 10.6649 20.8943 10.6721 20.8035 10.7348C20.7613 10.7627 20.6345 10.965 20.5289 11.1776C20.4363 11.3609 20.3538 11.5166 20.3287 11.564L20.3211 11.5785C20.3141 11.5891 19.8176 11.3555 19.7858 11.3275C19.7823 11.324 19.8492 11.1079 19.9337 10.8464C20.0252 10.571 20.0816 10.3443 20.0675 10.3061C20.0217 10.1737 19.9056 10.0865 19.7752 10.0865C19.5922 10.0865 19.5251 10.1806 19.3702 10.6443C19.2964 10.8638 19.2258 11.059 19.2118 11.0765C19.1872 11.0974 18.6132 10.9406 18.6132 10.9091C18.6132 10.9058 18.6643 10.7541 18.7269 10.5683L18.7365 10.5397C18.9056 10.0482 18.9021 9.91919 18.7154 9.82497C18.4583 9.69254 18.3562 9.78658 18.1732 10.3339C18.0922 10.571 18.0111 10.7661 17.9935 10.7661C17.9796 10.7661 17.8437 10.7468 17.6665 10.7215L17.5147 10.6999L17.064 10.6337V10.299C17.0605 9.95048 17.0394 9.88772 16.8984 9.81441C16.7751 9.7482 16.6767 9.76566 16.5675 9.87371C16.4689 9.9714 16.4654 9.98868 16.4654 10.2885V10.6022L16.3704 10.6232C16.2789 10.6372 15.7859 10.6825 15.7084 10.6825C15.6907 10.6825 15.6485 10.5257 15.6134 10.3339C15.5465 9.93993 15.5112 9.85279 15.3881 9.8075C15.2825 9.76584 15.2402 9.76585 15.1346 9.80768C14.9902 9.86698 14.9551 10.0169 15.0113 10.3585C15.0359 10.5258 15.064 10.6966 15.0747 10.7385C15.0888 10.8047 15.0712 10.8187 14.9233 10.85C14.8318 10.8675 14.5994 10.9302 14.4057 10.9895C14.212 11.0454 14.043 11.0836 14.0325 11.0697C14.0184 11.0557 13.9515 10.8675 13.8776 10.6479C13.8001 10.4109 13.7121 10.2157 13.6629 10.1668C13.508 10.0134 13.2263 10.0936 13.1734 10.3063C13.1629 10.3516 13.2191 10.5817 13.3143 10.8502L13.3309 10.9007C13.4078 11.1354 13.4687 11.3212 13.4622 11.3277C13.4587 11.3311 13.279 11.4217 13.0642 11.5263L12.7041 11.7046H12.6702L12.4656 11.2962C12.228 10.8127 12.1438 10.6958 12.0101 10.6809L11.5363 8.81514C11.5285 8.78445 11.5262 8.75352 11.5282 8.7232C11.2668 8.64243 11.0767 8.40252 11.0767 8.11979C11.0767 7.77095 11.366 7.48718 11.7217 7.48718C12.0773 7.48718 12.3667 7.77095 12.3667 8.11979C12.3667 8.31624 12.2749 8.492 12.1312 8.60812L12.9772 9.44413C13.191 9.65544 13.4877 9.77658 13.7912 9.77658C14.1501 9.77658 14.4923 9.60941 14.7078 9.32934L16.0981 7.52252C15.9814 7.40805 15.909 7.24988 15.909 7.07548C15.909 6.72664 16.1984 6.44287 16.554 6.44287C16.9097 6.44287 17.199 6.72664 17.199 7.07548C17.199 7.24466 17.1306 7.39821 17.0199 7.51184L17.0211 7.51325L18.4013 9.32504C18.6167 9.60781 18.9601 9.77662 19.3201 9.77662C19.6264 9.77662 19.9145 9.65962 20.1311 9.44714L20.9824 8.61218C20.8356 8.4961 20.7414 8.31865 20.7414 8.11979C20.7414 7.77095 21.0307 7.48718 21.3864 7.48718C21.7421 7.48718 22.0314 7.77095 22.0314 8.11979C22.0314 8.39496 21.851 8.62901 21.6004 8.71585ZM18.4161 11.4916C18.4392 11.4654 18.934 11.6419 18.9945 11.6925L18.3456 11.6958C18.3686 11.6261 18.3901 11.5658 18.4032 11.5291L18.4032 11.529C18.4112 11.5064 18.4161 11.4928 18.4161 11.4916ZM17.733 11.6311C17.7254 11.6558 17.7187 11.6783 17.7127 11.6989L17.0637 11.7021C17.0639 11.6723 17.064 11.6395 17.064 11.6031C17.064 11.3346 17.0745 11.2371 17.1097 11.2371C17.1977 11.2371 17.7752 11.3382 17.7963 11.3557C17.8068 11.3697 17.7787 11.4916 17.733 11.6311ZM16.4656 11.5507C16.4656 11.6067 16.4666 11.6579 16.4688 11.7046H15.8429C15.8382 11.6671 15.8328 11.6245 15.8265 11.5758L15.8264 11.5749L15.8263 11.5747L15.8104 11.4497L15.7857 11.2789L16.0286 11.2545C16.2434 11.2371 16.3456 11.2233 16.4406 11.2058C16.4549 11.2056 16.4656 11.359 16.4656 11.5507ZM15.18 11.4148C15.1869 11.4251 15.2148 11.556 15.2359 11.7046H14.247L14.247 11.7042C14.247 11.6449 15.1307 11.3695 15.18 11.4148Z" fill="#FFC400"/>
	<path d="M21.5923 8.80538L21.6892 8.83008L21.6892 8.82995L21.5923 8.80538ZM21.6004 8.71585L21.5676 8.62136L21.4963 8.64609L21.5005 8.72152L21.6004 8.71585ZM21.1073 10.708L21.064 10.7982L21.174 10.851L21.2042 10.7327L21.1073 10.708ZM20.8035 10.7348L20.8586 10.8184L20.8604 10.8171L20.8035 10.7348ZM20.5289 11.1776L20.6181 11.2227L20.6184 11.2221L20.5289 11.1776ZM20.3287 11.564L20.2404 11.5172L20.2403 11.5173L20.3287 11.564ZM20.3211 11.5785L20.4049 11.634L20.4095 11.6252L20.3211 11.5785ZM19.7858 11.3275L19.7154 11.3987L19.7197 11.4025L19.7858 11.3275ZM19.9337 10.8464L19.8388 10.8148L19.8386 10.8156L19.9337 10.8464ZM20.0675 10.3061L19.973 10.3388L19.9737 10.3408L20.0675 10.3061ZM19.3702 10.6443L19.465 10.6761L19.4651 10.6759L19.3702 10.6443ZM19.2118 11.0765L19.2766 11.1527L19.2839 11.1464L19.2899 11.1389L19.2118 11.0765ZM18.7269 10.5683L18.8217 10.6002L18.8217 10.6002L18.7269 10.5683ZM18.7365 10.5397L18.642 10.5071L18.6417 10.5078L18.7365 10.5397ZM18.7154 9.82497L18.6696 9.91386L18.6703 9.91424L18.7154 9.82497ZM18.1732 10.3339L18.2678 10.3663L18.268 10.3656L18.1732 10.3339ZM17.6665 10.7215L17.6806 10.6225L17.6805 10.6225L17.6665 10.7215ZM17.5147 10.6999L17.5001 10.7989L17.5006 10.7989L17.5147 10.6999ZM17.064 10.6337H16.964V10.7201L17.0494 10.7326L17.064 10.6337ZM17.064 10.299H17.164L17.164 10.298L17.064 10.299ZM16.8984 9.81441L16.8511 9.90252L16.8523 9.90313L16.8984 9.81441ZM16.5675 9.87371L16.4972 9.80265L16.4972 9.80265L16.5675 9.87371ZM16.4654 10.6022L16.4869 10.6999L16.5654 10.6826V10.6022H16.4654ZM16.3704 10.6232L16.3855 10.7222L16.3919 10.7208L16.3704 10.6232ZM15.6134 10.3339L15.5148 10.3507L15.515 10.3519L15.6134 10.3339ZM15.3881 9.8075L15.3514 9.90055L15.3536 9.90135L15.3881 9.8075ZM15.1346 9.80768L15.0978 9.7147L15.0966 9.71518L15.1346 9.80768ZM15.0113 10.3585L15.1102 10.3439L15.11 10.3422L15.0113 10.3585ZM15.0747 10.7385L15.1725 10.7176L15.1716 10.7138L15.0747 10.7385ZM14.9233 10.85L14.942 10.9482L14.944 10.9478L14.9233 10.85ZM14.4057 10.9895L14.4334 11.0856L14.435 11.0851L14.4057 10.9895ZM14.0325 11.0697L14.1122 11.0093L14.1079 11.0037L14.1029 10.9987L14.0325 11.0697ZM13.8776 10.6479L13.7826 10.679L13.7829 10.6798L13.8776 10.6479ZM13.6629 10.1668L13.7333 10.0958L13.7332 10.0957L13.6629 10.1668ZM13.1734 10.3063L13.0763 10.2821L13.076 10.2838L13.1734 10.3063ZM13.3143 10.8502L13.4094 10.819L13.4086 10.8168L13.3143 10.8502ZM13.3309 10.9007L13.2359 10.9319L13.2359 10.9319L13.3309 10.9007ZM13.4622 11.3277L13.5326 11.3987L13.5326 11.3987L13.4622 11.3277ZM13.0642 11.5263L13.0205 11.4364L13.0199 11.4367L13.0642 11.5263ZM12.7041 11.7046V11.8046H12.7275L12.7485 11.7942L12.7041 11.7046ZM12.6702 11.7046L12.5808 11.7494L12.6084 11.8046H12.6702V11.7046ZM12.4656 11.2962L12.3759 11.3403L12.3762 11.341L12.4656 11.2962ZM12.0101 10.6809L11.9131 10.7056L11.9302 10.7727L11.999 10.7803L12.0101 10.6809ZM11.5363 8.81514L11.4393 8.83972L11.4393 8.83975L11.5363 8.81514ZM11.5282 8.7232L11.628 8.72967L11.6331 8.65095L11.5577 8.62766L11.5282 8.7232ZM12.1312 8.60812L12.0683 8.53034L11.9813 8.60064L12.0609 8.67925L12.1312 8.60812ZM12.9772 9.44413L13.0475 9.37301L13.0475 9.373L12.9772 9.44413ZM14.7078 9.32934L14.6286 9.26835L14.6286 9.26836L14.7078 9.32934ZM16.0981 7.52252L16.1774 7.58351L16.2315 7.5132L16.1681 7.45111L16.0981 7.52252ZM17.0199 7.51184L16.9482 7.44206L16.8849 7.50706L16.9435 7.57638L17.0199 7.51184ZM17.0211 7.51325L17.1007 7.45257L17.0974 7.44871L17.0211 7.51325ZM18.4013 9.32504L18.4809 9.26444L18.4809 9.26444L18.4013 9.32504ZM20.1311 9.44714L20.061 9.37575L20.061 9.37576L20.1311 9.44714ZM20.9824 8.61218L21.0524 8.68357L21.1334 8.60414L21.0444 8.53375L20.9824 8.61218ZM18.9945 11.6925L18.995 11.7925L19.2684 11.7912L19.0586 11.6158L18.9945 11.6925ZM18.4161 11.4916L18.3412 11.4253L18.3161 11.4537V11.4916H18.4161ZM18.3456 11.6958L18.2507 11.6645L18.2072 11.7964L18.3461 11.7958L18.3456 11.6958ZM18.4032 11.5291L18.3097 11.4935L18.309 11.4955L18.4032 11.5291ZM18.4032 11.529L18.4966 11.5647L18.4974 11.5626L18.4032 11.529ZM17.7127 11.6989L17.7132 11.7989L17.7877 11.7985L17.8087 11.7269L17.7127 11.6989ZM17.733 11.6311L17.6379 11.5999L17.6373 11.6019L17.733 11.6311ZM17.0637 11.7021L16.9637 11.7013L16.9629 11.8026L17.0642 11.8021L17.0637 11.7021ZM17.7963 11.3557L17.8764 11.2958L17.8693 11.2862L17.8601 11.2786L17.7963 11.3557ZM16.4688 11.7046V11.8046H16.5737L16.5687 11.6998L16.4688 11.7046ZM15.8429 11.7046L15.7436 11.7169L15.7545 11.8046H15.8429V11.7046ZM15.8265 11.5758L15.7273 11.5886L15.7273 11.5886L15.8265 11.5758ZM15.8264 11.5749L15.9256 11.5622L15.9255 11.5619L15.8264 11.5749ZM15.8263 11.5747L15.7272 11.5874L15.7272 11.5876L15.8263 11.5747ZM15.8104 11.4497L15.9096 11.437L15.9093 11.4355L15.8104 11.4497ZM15.7857 11.2789L15.7757 11.1794L15.6719 11.1898L15.6868 11.2932L15.7857 11.2789ZM16.0286 11.2545L16.0205 11.1549L16.0186 11.155L16.0286 11.2545ZM16.4406 11.2058L16.4393 11.1058L16.4308 11.1059L16.4225 11.1074L16.4406 11.2058ZM15.2359 11.7046V11.8046H15.3511L15.3349 11.6905L15.2359 11.7046ZM15.18 11.4148L15.2629 11.3589L15.2563 11.3492L15.2477 11.3412L15.18 11.4148ZM14.247 11.7046L14.147 11.705L14.1474 11.8046H14.247V11.7046ZM14.247 11.7042L14.147 11.7042L14.147 11.7047L14.247 11.7042ZM21.6892 8.82995C21.6996 8.78896 21.7024 8.74856 21.7002 8.71018L21.5005 8.72152C21.5017 8.74226 21.5001 8.76202 21.4953 8.7808L21.6892 8.82995ZM21.2042 10.7327L21.6892 8.83008L21.4954 8.78068L21.0104 10.6833L21.2042 10.7327ZM20.8604 10.8171C20.9218 10.7747 21.0067 10.7707 21.064 10.7982L21.1506 10.6179C21.0283 10.5591 20.8669 10.5695 20.7467 10.6526L20.8604 10.8171ZM20.6184 11.2221C20.6699 11.1184 20.7265 11.0175 20.7749 10.9398C20.7991 10.9008 20.8206 10.8687 20.8379 10.8455C20.8466 10.8339 20.8534 10.8255 20.8584 10.8199C20.8646 10.813 20.8643 10.8146 20.8585 10.8184L20.7485 10.6513C20.7322 10.6621 20.7187 10.6761 20.7095 10.6864C20.699 10.698 20.6882 10.7117 20.6774 10.7262C20.6557 10.7554 20.631 10.7924 20.6051 10.8341C20.5531 10.9176 20.4934 11.0241 20.4393 11.1331L20.6184 11.2221ZM20.4171 11.6108C20.4422 11.5633 20.5251 11.4068 20.6181 11.2227L20.4396 11.1325C20.3475 11.3149 20.2654 11.47 20.2404 11.5172L20.4171 11.6108ZM20.4095 11.6252L20.4172 11.6107L20.2403 11.5173L20.2326 11.5318L20.4095 11.6252ZM19.7197 11.4025C19.7293 11.4109 19.7403 11.4176 19.7454 11.4207C19.7525 11.425 19.7609 11.4297 19.7699 11.4346C19.7879 11.4444 19.811 11.4563 19.837 11.4694C19.8891 11.4956 19.9552 11.5274 20.0202 11.558C20.0852 11.5885 20.1499 11.618 20.1991 11.6394C20.2235 11.65 20.2453 11.6591 20.2619 11.6654C20.2697 11.6684 20.2787 11.6716 20.287 11.674C20.2906 11.675 20.2983 11.6771 20.3074 11.6781C20.3115 11.6786 20.3215 11.6796 20.334 11.6779C20.3419 11.6768 20.3797 11.6711 20.4044 11.6337L20.2377 11.5233C20.2622 11.4862 20.2995 11.4808 20.3067 11.4798C20.3185 11.4782 20.3276 11.4791 20.3306 11.4795C20.3345 11.4799 20.3375 11.4806 20.3388 11.4808C20.3402 11.4812 20.3412 11.4814 20.3414 11.4815C20.3417 11.4816 20.3393 11.4809 20.3329 11.4784C20.3208 11.4738 20.3024 11.4662 20.2788 11.456C20.232 11.4356 20.1693 11.407 20.1053 11.377C20.0413 11.3469 19.9769 11.3158 19.9268 11.2906C19.9016 11.278 19.8807 11.2672 19.8655 11.2589C19.8578 11.2547 19.8522 11.2516 19.8486 11.2494C19.843 11.246 19.8464 11.2476 19.8519 11.2525L19.7197 11.4025ZM19.8386 10.8156C19.7962 10.9466 19.7582 11.0665 19.7312 11.1543C19.7177 11.1981 19.7068 11.2343 19.6994 11.2602C19.6958 11.2729 19.6927 11.2841 19.6906 11.2927C19.6896 11.2967 19.6884 11.302 19.6875 11.3073C19.6871 11.3095 19.6862 11.3149 19.6858 11.3214C19.6857 11.3244 19.6854 11.3313 19.6866 11.34C19.6869 11.3427 19.6897 11.3731 19.7155 11.3986L19.8562 11.2564C19.8818 11.2818 19.8846 11.312 19.8849 11.3143C19.886 11.3227 19.8857 11.3293 19.8856 11.3317C19.8853 11.3372 19.8846 11.3411 19.8845 11.3415C19.8842 11.3431 19.8842 11.3432 19.8848 11.3404C19.886 11.3355 19.8883 11.3272 19.8917 11.3151C19.8985 11.2913 19.909 11.2565 19.9224 11.2132C19.949 11.1266 19.9867 11.0076 20.0289 10.8771L19.8386 10.8156ZM19.9737 10.3408C19.9682 10.326 19.9699 10.3168 19.9696 10.3255C19.9695 10.3305 19.9686 10.3393 19.9666 10.3528C19.9625 10.3794 19.9547 10.4167 19.9432 10.4632C19.9202 10.5558 19.884 10.6788 19.8388 10.8148L20.0286 10.8779C20.0749 10.7385 20.1127 10.6104 20.1373 10.5113C20.1495 10.462 20.1589 10.4182 20.1643 10.383C20.167 10.3655 20.1689 10.3483 20.1695 10.3325C20.1699 10.3204 20.1703 10.2958 20.1613 10.2714L19.9737 10.3408ZM19.7752 10.1865C19.859 10.1865 19.9398 10.2427 19.973 10.3388L20.162 10.2734C20.1037 10.1046 19.9523 9.98654 19.7752 9.98654V10.1865ZM19.4651 10.6759C19.5435 10.4411 19.5947 10.317 19.6431 10.2502C19.6652 10.2198 19.6832 10.2064 19.6987 10.1991C19.7151 10.1915 19.7376 10.1865 19.7752 10.1865V9.98654C19.7213 9.98654 19.6667 9.99338 19.6142 10.0179C19.5609 10.0427 19.5181 10.0818 19.4812 10.1329C19.4116 10.229 19.3518 10.3838 19.2754 10.6126L19.4651 10.6759ZM19.2899 11.1389C19.3007 11.1255 19.3081 11.1089 19.3105 11.1036C19.3149 11.0941 19.3197 11.0825 19.3249 11.0698C19.3352 11.0441 19.3481 11.0101 19.3625 10.9704C19.3915 10.891 19.4279 10.7864 19.465 10.6761L19.2754 10.6124C19.2387 10.7216 19.2029 10.8245 19.1746 10.9019C19.1605 10.9407 19.1485 10.9724 19.1393 10.9951C19.1347 11.0066 19.1312 11.0148 19.1287 11.0202C19.1243 11.0298 19.1265 11.0231 19.1337 11.014L19.2899 11.1389ZM18.5132 10.9091C18.5132 10.947 18.5335 10.9714 18.5402 10.979C18.549 10.9888 18.558 10.9954 18.5633 10.999C18.5744 11.0066 18.5865 11.0126 18.5961 11.017C18.6163 11.0263 18.6425 11.0362 18.6705 11.046C18.7275 11.0657 18.8023 11.0882 18.8767 11.1088C18.9511 11.1294 19.0272 11.1486 19.087 11.1614C19.1166 11.1677 19.1441 11.1729 19.1662 11.1757C19.1768 11.1771 19.1891 11.1784 19.2009 11.1784C19.2067 11.1784 19.2154 11.1781 19.2252 11.1764C19.2316 11.1753 19.2549 11.1711 19.2766 11.1527L19.1471 11.0003C19.1673 10.9831 19.1879 10.9799 19.1908 10.9794C19.1969 10.9783 19.201 10.9784 19.2012 10.9784C19.2019 10.9784 19.1993 10.9784 19.1919 10.9774C19.1779 10.9756 19.1565 10.9717 19.1288 10.9658C19.0741 10.9541 19.002 10.936 18.93 10.916C18.8578 10.8961 18.7875 10.8748 18.7361 10.857C18.7099 10.8479 18.6911 10.8406 18.6798 10.8354C18.6737 10.8325 18.6734 10.832 18.676 10.8338C18.6771 10.8345 18.6829 10.8385 18.6895 10.8459C18.6941 10.851 18.7132 10.8732 18.7132 10.9091H18.5132ZM18.6321 10.5363C18.6008 10.6292 18.5724 10.7137 18.5518 10.7754C18.5415 10.8062 18.533 10.8316 18.5272 10.8494C18.5243 10.8583 18.5219 10.8657 18.5202 10.8711C18.5193 10.8737 18.5185 10.8764 18.5178 10.8788C18.5175 10.8799 18.517 10.8817 18.5164 10.8838C18.5162 10.8848 18.5157 10.8867 18.5152 10.8892C18.515 10.8904 18.5146 10.8924 18.5142 10.8949C18.514 10.8968 18.5132 10.9022 18.5132 10.9091H18.7132C18.7132 10.916 18.7125 10.9213 18.7122 10.9231C18.7119 10.9255 18.7115 10.9275 18.7113 10.9285C18.7109 10.9307 18.7105 10.9323 18.7103 10.9329C18.71 10.9342 18.7098 10.935 18.7098 10.9347C18.7099 10.9344 18.7102 10.9334 18.7109 10.9312C18.7123 10.9269 18.7144 10.9205 18.7172 10.9118C18.7229 10.8945 18.7311 10.8696 18.7414 10.8389C18.762 10.7774 18.7904 10.6931 18.8217 10.6002L18.6321 10.5363ZM18.6417 10.5078L18.6321 10.5364L18.8217 10.6002L18.8313 10.5716L18.6417 10.5078ZM18.6703 9.91424C18.7098 9.93416 18.7294 9.951 18.7403 9.96596C18.7499 9.9793 18.7583 9.99891 18.7594 10.0363C18.7618 10.1203 18.7276 10.258 18.642 10.5071L18.8311 10.5722C18.9144 10.3299 18.963 10.1572 18.9593 10.0304C18.9573 9.9623 18.9404 9.90128 18.9022 9.84858C18.8652 9.7975 18.8143 9.76289 18.7605 9.73569L18.6703 9.91424ZM18.268 10.3656C18.3134 10.23 18.3526 10.1258 18.3895 10.0474C18.4269 9.96782 18.4583 9.92237 18.4849 9.89755C18.5076 9.87622 18.5253 9.8711 18.5454 9.87162C18.5714 9.87229 18.6099 9.88309 18.6696 9.91386L18.7612 9.73607C18.6924 9.70063 18.6217 9.67352 18.5505 9.67169C18.4735 9.6697 18.4059 9.69747 18.3482 9.75152C18.2942 9.80207 18.2497 9.87448 18.2085 9.96235C18.1666 10.0514 18.1245 10.1642 18.0783 10.3022L18.268 10.3656ZM17.9935 10.8661C18.0359 10.8661 18.0621 10.8405 18.066 10.8367C18.0748 10.8285 18.0811 10.82 18.0849 10.8146C18.0928 10.8033 18.1001 10.7901 18.1065 10.7778C18.1197 10.7522 18.1352 10.7174 18.1519 10.6773C18.1855 10.5964 18.2268 10.4862 18.2678 10.3663L18.0786 10.3016C18.0385 10.4187 17.9988 10.5246 17.9672 10.6005C17.9513 10.6388 17.9382 10.6677 17.9287 10.6861C17.9264 10.6906 17.9246 10.694 17.9231 10.6965C17.9216 10.6992 17.9209 10.7001 17.921 10.6999C17.9212 10.6998 17.9217 10.6989 17.9228 10.6976C17.9238 10.6964 17.9259 10.694 17.929 10.691C17.9298 10.6903 17.9533 10.6661 17.9935 10.6661V10.8661ZM17.6524 10.8205C17.7409 10.8331 17.8194 10.8443 17.8776 10.8524C17.9066 10.8564 17.9309 10.8596 17.9489 10.8619C17.9627 10.8637 17.982 10.8661 17.9935 10.8661V10.6661C17.9981 10.6661 17.9952 10.6662 17.974 10.6635C17.9572 10.6614 17.9338 10.6582 17.9049 10.6542C17.8473 10.6463 17.7693 10.6352 17.6806 10.6225L17.6524 10.8205ZM17.5006 10.7989L17.6524 10.8205L17.6805 10.6225L17.5288 10.6009L17.5006 10.7989ZM17.0494 10.7326L17.5001 10.7989L17.5292 10.601L17.0785 10.5348L17.0494 10.7326ZM16.964 10.299V10.6337H17.164V10.299H16.964ZM16.8523 9.90313C16.8841 9.91968 16.9015 9.93187 16.9129 9.94311C16.9227 9.95285 16.9309 9.96476 16.9381 9.98578C16.9553 10.0361 16.9622 10.1217 16.964 10.3L17.164 10.298C17.1623 10.1278 17.1569 10.0078 17.1274 9.92122C17.1112 9.87382 17.0875 9.83452 17.0536 9.80099C17.0213 9.76895 16.9832 9.7458 16.9446 9.7257L16.8523 9.90313ZM16.6379 9.94478C16.6844 9.89869 16.7189 9.88188 16.7453 9.87716C16.7702 9.87269 16.8026 9.87644 16.8511 9.90251L16.9457 9.72632C16.871 9.68617 16.7925 9.66555 16.7101 9.68028C16.6291 9.69475 16.5598 9.74068 16.4972 9.80265L16.6379 9.94478ZM16.5654 10.2885C16.5654 10.1326 16.567 10.0684 16.5766 10.0291C16.5827 10.0042 16.5899 9.99227 16.6379 9.94478L16.4972 9.80265C16.4465 9.85285 16.4026 9.89843 16.3823 9.98154C16.3655 10.0502 16.3654 10.1446 16.3654 10.2885H16.5654ZM16.5654 10.6022V10.2885H16.3654V10.6022H16.5654ZM16.3919 10.7208L16.4869 10.6999L16.4439 10.5046L16.3489 10.5255L16.3919 10.7208ZM15.7084 10.7825C15.7529 10.7825 15.9013 10.7705 16.0432 10.7577C16.1864 10.7447 16.336 10.7296 16.3855 10.722L16.3552 10.5243C16.3132 10.5307 16.1706 10.5453 16.0251 10.5585C15.8782 10.5718 15.7414 10.5825 15.7084 10.5825V10.7825ZM15.515 10.3519C15.5329 10.4497 15.5528 10.5397 15.5709 10.6063C15.5799 10.6392 15.589 10.6689 15.598 10.6917C15.6023 10.7025 15.6082 10.716 15.6159 10.7283C15.6196 10.7342 15.6263 10.7443 15.6367 10.7539C15.6455 10.7621 15.6702 10.7825 15.7084 10.7825V10.5825C15.7443 10.5825 15.7667 10.6016 15.7728 10.6074C15.7807 10.6147 15.7847 10.6211 15.7855 10.6224C15.7874 10.6254 15.7868 10.6251 15.784 10.6182C15.7791 10.6056 15.7722 10.5842 15.7639 10.5539C15.7477 10.4942 15.729 10.4099 15.7118 10.3159L15.515 10.3519ZM15.3536 9.90135C15.3757 9.9095 15.3878 9.91723 15.3968 9.92577C15.406 9.93455 15.4172 9.94935 15.4298 9.97903C15.457 10.043 15.4809 10.1512 15.5148 10.3507L15.712 10.3172C15.679 10.1227 15.6519 9.9903 15.6139 9.90086C15.5939 9.85385 15.5691 9.81375 15.5349 9.78115C15.5005 9.74829 15.4621 9.72815 15.4227 9.71365L15.3536 9.90135ZM15.1714 9.90066C15.2215 9.88081 15.244 9.87629 15.2614 9.87628C15.2788 9.87627 15.3013 9.88076 15.3515 9.90053L15.4248 9.71447C15.3693 9.69258 15.3178 9.67625 15.2613 9.67628C15.2047 9.67632 15.1533 9.69272 15.0978 9.71471L15.1714 9.90066ZM15.11 10.3422C15.0822 10.1736 15.0799 10.0669 15.0952 9.99927C15.1025 9.96727 15.1129 9.94741 15.1238 9.9341C15.1345 9.92109 15.1494 9.90972 15.1726 9.90019L15.0966 9.71518C15.0476 9.7353 15.0039 9.7649 14.9691 9.80735C14.9346 9.8495 14.9127 9.89958 14.9002 9.95517C14.8759 10.0627 14.8841 10.2017 14.9126 10.3747L15.11 10.3422ZM15.1716 10.7138C15.1625 10.6782 15.1352 10.5137 15.1102 10.3439L14.9124 10.373C14.9366 10.538 14.9655 10.7151 14.9778 10.7632L15.1716 10.7138ZM14.944 10.9478C14.9813 10.9399 15.0137 10.9325 15.0404 10.9244C15.0656 10.9167 15.0947 10.906 15.1194 10.8876C15.1487 10.8659 15.1694 10.8352 15.1762 10.7969C15.1818 10.7656 15.1764 10.7361 15.1725 10.7176L14.9769 10.7594C14.98 10.774 14.9777 10.7711 14.9793 10.7619C14.9804 10.7558 14.9829 10.7483 14.9877 10.7408C14.9924 10.7335 14.9974 10.7291 15.0001 10.727C15.0037 10.7244 15.0015 10.7272 14.9823 10.733C14.9645 10.7384 14.9392 10.7444 14.9026 10.7522L14.944 10.9478ZM14.435 11.0851C14.6283 11.0259 14.8563 10.9646 14.942 10.9482L14.9045 10.7518C14.8073 10.7703 14.5704 10.8345 14.3764 10.8939L14.435 11.0851ZM13.9528 11.1301C13.9746 11.1589 14.004 11.1667 14.012 11.1687C14.0238 11.1717 14.0343 11.1723 14.0408 11.1725C14.0543 11.1729 14.0683 11.1716 14.0803 11.1701C14.1052 11.1671 14.1368 11.1611 14.1718 11.1534C14.2424 11.138 14.3353 11.1139 14.4334 11.0856L14.378 10.8934C14.2824 10.921 14.194 10.9439 14.1291 10.9581C14.0962 10.9652 14.0716 10.9697 14.0558 10.9716C14.0474 10.9727 14.045 10.9725 14.0465 10.9726C14.0469 10.9726 14.0525 10.9727 14.0606 10.9747C14.065 10.9758 14.0917 10.9823 14.1122 11.0093L13.9528 11.1301ZM13.7829 10.6798C13.8199 10.7899 13.8554 10.8927 13.8835 10.9701C13.8975 11.0086 13.91 11.0417 13.9202 11.0666C13.9252 11.0789 13.9301 11.0904 13.9347 11.0999C13.937 11.1047 13.9398 11.1101 13.9429 11.1155C13.9449 11.1189 13.9514 11.1301 13.9622 11.1408L14.1029 10.9987C14.1083 11.004 14.1116 11.0086 14.1129 11.0104C14.1144 11.0126 14.1153 11.0142 14.1156 11.0147C14.1162 11.0157 14.116 11.0154 14.115 11.0132C14.1129 11.009 14.1097 11.0017 14.1053 10.991C14.0966 10.9697 14.0852 10.9394 14.0715 10.9017C14.0441 10.8266 14.0093 10.7255 13.9724 10.616L13.7829 10.6798ZM13.5924 10.2377C13.5923 10.2376 13.5931 10.2384 13.5947 10.2404C13.5963 10.2424 13.5983 10.2451 13.6009 10.2488C13.606 10.2561 13.6122 10.266 13.6193 10.2786C13.6336 10.3039 13.6503 10.3372 13.6684 10.3777C13.7045 10.4584 13.7447 10.5631 13.7826 10.679L13.9727 10.6168C13.9331 10.4957 13.8905 10.3843 13.8509 10.2959C13.8312 10.2518 13.8117 10.2124 13.7933 10.1799C13.7759 10.1494 13.7558 10.1181 13.7333 10.0958L13.5924 10.2377ZM13.2704 10.3304C13.3049 10.1919 13.4936 10.1399 13.5925 10.2378L13.7332 10.0957C13.5224 9.88697 13.1477 9.99537 13.0763 10.2821L13.2704 10.3304ZM13.4086 10.8168C13.3618 10.6849 13.3249 10.5632 13.3011 10.4698C13.2892 10.423 13.2809 10.3847 13.2763 10.3564C13.2739 10.3422 13.2728 10.3319 13.2723 10.3252C13.2717 10.3162 13.2729 10.3197 13.2708 10.3288L13.076 10.2838C13.0712 10.3042 13.0719 10.3248 13.0727 10.3381C13.0737 10.3537 13.076 10.3709 13.0789 10.3888C13.0849 10.4249 13.0946 10.4693 13.1073 10.5192C13.1328 10.6194 13.1716 10.747 13.2201 10.8836L13.4086 10.8168ZM13.4259 10.8696L13.4093 10.819L13.2193 10.8813L13.2359 10.9319L13.4259 10.8696ZM13.5326 11.3987C13.5577 11.3739 13.5611 11.3446 13.5617 11.3398C13.563 11.3302 13.5627 11.3222 13.5625 11.3184C13.562 11.3101 13.5607 11.3026 13.5598 11.2981C13.5579 11.2882 13.5549 11.2766 13.5517 11.2649C13.5452 11.241 13.5353 11.2083 13.5233 11.1698C13.499 11.0925 13.4643 10.9866 13.4259 10.8696L13.2359 10.9319C13.2744 11.0495 13.3086 11.1539 13.3324 11.2297C13.3444 11.2678 13.3533 11.2975 13.3588 11.3175C13.3616 11.3279 13.363 11.3337 13.3634 11.3361C13.3637 11.3377 13.3631 11.3352 13.3628 11.3304C13.3627 11.3283 13.3624 11.3218 13.3635 11.3132C13.364 11.3096 13.3672 11.281 13.3919 11.2566L13.5326 11.3987ZM13.108 11.6162C13.2157 11.5638 13.3147 11.5148 13.3872 11.4785C13.4235 11.4603 13.4533 11.4453 13.4744 11.4344C13.4849 11.4291 13.4935 11.4246 13.4999 11.4212C13.5029 11.4196 13.506 11.4179 13.5086 11.4165C13.5098 11.4158 13.5117 11.4147 13.5137 11.4134C13.5147 11.4128 13.5165 11.4117 13.5186 11.4103C13.5192 11.4099 13.5257 11.4056 13.5326 11.3987L13.3919 11.2566C13.3986 11.2499 13.405 11.2457 13.4053 11.2455C13.4071 11.2442 13.4085 11.2434 13.409 11.2431C13.4101 11.2424 13.4108 11.242 13.4105 11.2422C13.41 11.2425 13.4086 11.2432 13.406 11.2446C13.401 11.2473 13.3933 11.2512 13.3831 11.2565C13.3628 11.2669 13.3337 11.2816 13.2977 11.2996C13.2258 11.3356 13.1275 11.3843 13.0205 11.4364L13.108 11.6162ZM12.7485 11.7942L13.1086 11.6159L13.0199 11.4367L12.6598 11.615L12.7485 11.7942ZM12.6702 11.8046H12.7041V11.6046H12.6702V11.8046ZM12.3762 11.341L12.5808 11.7494L12.7596 11.6598L12.555 11.2514L12.3762 11.341ZM11.999 10.7803C12.0286 10.7836 12.0607 10.794 12.1184 10.8722C12.1797 10.9553 12.2564 11.0972 12.3759 11.3403L12.5554 11.2521C12.4372 11.0117 12.353 10.8534 12.2794 10.7535C12.2021 10.6487 12.1253 10.5932 12.0211 10.5816L11.999 10.7803ZM11.4393 8.83975L11.9131 10.7056L12.107 10.6563L11.6332 8.79053L11.4393 8.83975ZM11.4284 8.71673C11.4258 8.75638 11.4287 8.79787 11.4393 8.83972L11.6332 8.79056C11.6282 8.77103 11.6266 8.75066 11.628 8.72967L11.4284 8.71673ZM10.9767 8.11979C10.9767 8.44881 11.1978 8.72576 11.4987 8.81874L11.5577 8.62766C11.3358 8.55909 11.1767 8.35622 11.1767 8.11979H10.9767ZM11.7217 7.38718C11.3126 7.38718 10.9767 7.7139 10.9767 8.11979H11.1767C11.1767 7.828 11.4194 7.58718 11.7217 7.58718V7.38718ZM12.4667 8.11979C12.4667 7.7139 12.1307 7.38718 11.7217 7.38718V7.58718C12.0239 7.58718 12.2667 7.828 12.2667 8.11979H12.4667ZM12.194 8.6859C12.3598 8.55195 12.4667 8.34824 12.4667 8.11979H12.2667C12.2667 8.28424 12.19 8.43206 12.0683 8.53034L12.194 8.6859ZM13.0475 9.373L12.2015 8.53699L12.0609 8.67925L12.9069 9.51526L13.0475 9.373ZM13.7912 9.67658C13.5137 9.67658 13.2424 9.56561 13.0475 9.37301L12.9069 9.51526C13.1396 9.74528 13.4617 9.87658 13.7912 9.87658V9.67658ZM14.6286 9.26836C14.4323 9.52343 14.1196 9.67658 13.7912 9.67658V9.87658C14.1807 9.87658 14.5523 9.6954 14.7871 9.39032L14.6286 9.26836ZM16.0189 7.46154L14.6286 9.26835L14.7871 9.39032L16.1774 7.58351L16.0189 7.46154ZM15.809 7.07548C15.809 7.27819 15.8932 7.46169 16.0282 7.59394L16.1681 7.45111C16.0695 7.35441 16.009 7.22158 16.009 7.07548H15.809ZM16.554 6.34287C16.145 6.34287 15.809 6.66959 15.809 7.07548H16.009C16.009 6.78369 16.2518 6.54287 16.554 6.54287V6.34287ZM17.299 7.07548C17.299 6.66959 16.9631 6.34287 16.554 6.34287V6.54287C16.8563 6.54287 17.099 6.78369 17.099 7.07548H17.299ZM17.0915 7.58162C17.2192 7.4505 17.299 7.27233 17.299 7.07548H17.099C17.099 7.21699 17.0419 7.34593 16.9482 7.44206L17.0915 7.58162ZM17.0974 7.44871L17.0962 7.4473L16.9435 7.57638L16.9447 7.57779L17.0974 7.44871ZM18.4809 9.26444L17.1006 7.45265L16.9415 7.57385L18.3218 9.38564L18.4809 9.26444ZM19.3201 9.67662C18.9909 9.67662 18.6771 9.52202 18.4809 9.26444L18.3218 9.38564C18.5564 9.69359 18.9294 9.87662 19.3201 9.87662V9.67662ZM20.061 9.37576C19.8633 9.56969 19.6005 9.67662 19.3201 9.67662V9.87662C19.6523 9.87662 19.9656 9.74955 20.2011 9.51853L20.061 9.37576ZM20.9123 8.54079L20.061 9.37575L20.2011 9.51854L21.0524 8.68357L20.9123 8.54079ZM20.6414 8.11979C20.6414 8.35115 20.7512 8.55679 20.9203 8.69061L21.0444 8.53375C20.9201 8.43541 20.8414 8.28615 20.8414 8.11979H20.6414ZM21.3864 7.38718C20.9773 7.38718 20.6414 7.7139 20.6414 8.11979H20.8414C20.8414 7.828 21.0841 7.58718 21.3864 7.58718V7.38718ZM22.1314 8.11979C22.1314 7.7139 21.7955 7.38718 21.3864 7.38718V7.58718C21.6887 7.58718 21.9314 7.828 21.9314 8.11979H22.1314ZM21.6331 8.81034C21.9215 8.71043 22.1314 8.4402 22.1314 8.11979H21.9314C21.9314 8.34973 21.7805 8.54759 21.5676 8.62136L21.6331 8.81034ZM19.0586 11.6158C19.041 11.6011 19.0169 11.5883 18.9977 11.5787C18.9758 11.5679 18.9493 11.556 18.9206 11.5439C18.8631 11.5197 18.7929 11.493 18.7244 11.4689C18.6561 11.4449 18.5877 11.4228 18.5338 11.4083C18.5073 11.4011 18.4816 11.395 18.4602 11.3918C18.45 11.3902 18.4367 11.3886 18.4231 11.389C18.4163 11.3892 18.4058 11.3899 18.3939 11.3931C18.3833 11.3959 18.3605 11.4035 18.3412 11.4253L18.491 11.5578C18.4731 11.578 18.4527 11.5844 18.4454 11.5863C18.4367 11.5887 18.4302 11.5889 18.4284 11.5889C18.4246 11.589 18.4243 11.5886 18.43 11.5895C18.4403 11.5911 18.4575 11.5949 18.4816 11.6014C18.5289 11.6141 18.5922 11.6345 18.6581 11.6576C18.7237 11.6807 18.79 11.706 18.843 11.7283C18.8696 11.7395 18.8919 11.7495 18.9087 11.7579C18.9283 11.7676 18.9328 11.7713 18.9304 11.7693L19.0586 11.6158ZM18.3461 11.7958L18.995 11.7925L18.994 11.5925L18.3451 11.5958L18.3461 11.7958ZM18.309 11.4955C18.2959 11.5323 18.274 11.5936 18.2507 11.6645L18.4406 11.7271C18.4631 11.6587 18.4843 11.5993 18.4974 11.5626L18.309 11.4955ZM18.3097 11.4934L18.3097 11.4935L18.4966 11.5647L18.4966 11.5646L18.3097 11.4934ZM18.3161 11.4916C18.3161 11.4877 18.3163 11.4845 18.3165 11.4823C18.3167 11.4801 18.317 11.4782 18.3172 11.4768C18.3176 11.4741 18.318 11.472 18.3183 11.4708C18.3188 11.4683 18.3193 11.4665 18.3195 11.4659C18.3199 11.4644 18.3202 11.4637 18.32 11.4641C18.3198 11.4648 18.3193 11.4664 18.3182 11.4694C18.3161 11.4754 18.3131 11.484 18.309 11.4955L18.4974 11.5626C18.5013 11.5515 18.5047 11.542 18.5071 11.5351C18.5083 11.5318 18.5094 11.5284 18.5104 11.5254C18.5108 11.524 18.5115 11.5218 18.5122 11.5194C18.5125 11.5182 18.5132 11.5159 18.5138 11.5131C18.5139 11.5127 18.5161 11.5034 18.5161 11.4916H18.3161ZM17.8087 11.7269C17.8145 11.7068 17.8212 11.6847 17.8286 11.6602L17.6373 11.6019C17.6297 11.6268 17.6228 11.6497 17.6167 11.6709L17.8087 11.7269ZM17.0642 11.8021L17.7132 11.7989L17.7122 11.5989L17.0632 11.6021L17.0642 11.8021ZM16.964 11.6031C16.964 11.6394 16.9639 11.6719 16.9637 11.7013L17.1637 11.7029C17.1639 11.6727 17.164 11.6396 17.164 11.6031H16.964ZM17.1097 11.1371C17.0415 11.1371 17.0083 11.189 16.9964 11.2158C16.9841 11.2434 16.9781 11.2762 16.9744 11.3074C16.9665 11.3721 16.964 11.4693 16.964 11.6031H17.164C17.164 11.4683 17.1667 11.3825 17.1729 11.3314C17.1762 11.3046 17.1794 11.2963 17.179 11.2972C17.179 11.2974 17.1603 11.3371 17.1097 11.3371V11.1371ZM17.8601 11.2786C17.8468 11.2676 17.8332 11.2623 17.8307 11.2613C17.8253 11.2591 17.8202 11.2573 17.8161 11.2561C17.8078 11.2535 17.7981 11.2509 17.7883 11.2485C17.7684 11.2436 17.7423 11.2379 17.7125 11.2318C17.6528 11.2196 17.5748 11.2051 17.4952 11.1913C17.4156 11.1775 17.3336 11.1641 17.2656 11.1542C17.2012 11.1448 17.1406 11.1371 17.1097 11.1371V11.3371C17.1229 11.3371 17.1674 11.342 17.2367 11.3521C17.3024 11.3617 17.3826 11.3747 17.461 11.3884C17.5394 11.402 17.6153 11.4161 17.6725 11.4278C17.7013 11.4336 17.7244 11.4387 17.7404 11.4427C17.7486 11.4447 17.7536 11.4461 17.7562 11.4469C17.7575 11.4473 17.7568 11.4471 17.7548 11.4463C17.7538 11.4459 17.7515 11.445 17.7486 11.4434C17.7462 11.4422 17.7399 11.4387 17.7326 11.4328L17.8601 11.2786ZM17.828 11.6622C17.8515 11.5904 17.8709 11.5221 17.8832 11.4688C17.8892 11.4424 17.8941 11.4176 17.8966 11.397C17.8978 11.3869 17.8988 11.3749 17.8985 11.3629C17.8983 11.3569 17.8977 11.3484 17.8957 11.3389C17.894 11.3308 17.8895 11.3133 17.8764 11.2958L17.7163 11.4156C17.7045 11.3998 17.701 11.3849 17.7 11.3802C17.6987 11.3741 17.6986 11.3698 17.6985 11.3687C17.6985 11.3666 17.6987 11.3675 17.698 11.373C17.6967 11.3835 17.6937 11.4005 17.6883 11.4239C17.6777 11.4699 17.6601 11.5322 17.6379 11.5999L17.828 11.6622ZM16.5687 11.6998C16.5666 11.655 16.5656 11.6055 16.5656 11.5507H16.3656C16.3656 11.6079 16.3666 11.6607 16.369 11.7093L16.5687 11.6998ZM15.8429 11.8046H16.4688V11.6046H15.8429V11.8046ZM15.7273 11.5886C15.7336 11.6373 15.739 11.6797 15.7436 11.7169L15.9421 11.6922C15.9374 11.6546 15.9319 11.6117 15.9257 11.5631L15.7273 11.5886ZM15.7272 11.5876L15.7273 11.5886L15.9257 11.5631L15.9256 11.5622L15.7272 11.5876ZM15.7272 11.5876L15.7272 11.5879L15.9255 11.5619L15.9255 11.5617L15.7272 11.5876ZM15.7112 11.4624L15.7272 11.5874L15.9255 11.562L15.9095 11.437L15.7112 11.4624ZM15.6868 11.2932L15.7114 11.464L15.9093 11.4355L15.8847 11.2647L15.6868 11.2932ZM16.0186 11.155L15.7757 11.1794L15.7957 11.3784L16.0386 11.354L16.0186 11.155ZM16.4225 11.1074C16.332 11.1241 16.2335 11.1376 16.0205 11.1549L16.0367 11.3542C16.2534 11.3366 16.3591 11.3224 16.4586 11.3041L16.4225 11.1074ZM16.5656 11.5507C16.5656 11.4533 16.5629 11.3645 16.5582 11.2991C16.5559 11.2669 16.5529 11.2378 16.549 11.2155C16.5472 11.2052 16.5444 11.1914 16.5397 11.1784C16.5375 11.1725 16.5327 11.1603 16.5234 11.1477C16.5158 11.1377 16.4885 11.1052 16.4393 11.1058L16.4418 11.3058C16.3944 11.3064 16.3688 11.2751 16.3631 11.2673C16.3554 11.2571 16.3523 11.2484 16.3518 11.247C16.3504 11.2431 16.3508 11.2428 16.352 11.2498C16.3541 11.2621 16.3565 11.2833 16.3587 11.3134C16.3629 11.3726 16.3656 11.4563 16.3656 11.5507H16.5656ZM15.3349 11.6905C15.3241 11.6143 15.3116 11.5426 15.3007 11.4883C15.2953 11.4612 15.2902 11.4377 15.2858 11.4198C15.2836 11.4109 15.2814 11.4024 15.2792 11.3951C15.2781 11.3916 15.2767 11.3872 15.275 11.3827C15.2741 11.3804 15.2703 11.3699 15.2629 11.3589L15.097 11.4707C15.0931 11.4648 15.0908 11.46 15.0899 11.4582C15.0889 11.4559 15.0882 11.4542 15.088 11.4535C15.0875 11.4522 15.0874 11.4518 15.0878 11.4531C15.0885 11.4555 15.0898 11.4601 15.0915 11.4673C15.095 11.4815 15.0995 11.5019 15.1046 11.5274C15.1147 11.5782 15.1266 11.6462 15.1369 11.7186L15.3349 11.6905ZM14.247 11.8046H15.2359V11.6046H14.247V11.8046ZM14.147 11.7047L14.147 11.705L14.347 11.7041L14.347 11.7038L14.147 11.7047ZM15.2477 11.3412C15.2289 11.324 15.2086 11.3174 15.198 11.3147C15.186 11.3116 15.1748 11.3105 15.1663 11.3101C15.1493 11.3092 15.1311 11.3105 15.1143 11.3125C15.0801 11.3164 15.0375 11.3246 14.9913 11.3351C14.8981 11.3562 14.7803 11.389 14.6653 11.4248C14.5503 11.4606 14.4356 11.5 14.3487 11.5348C14.3057 11.552 14.2668 11.5691 14.2375 11.5849C14.2233 11.5926 14.2075 11.602 14.1939 11.613C14.1872 11.6185 14.1777 11.6269 14.1691 11.6385C14.1614 11.6489 14.147 11.6719 14.147 11.7042H14.347C14.347 11.7328 14.3342 11.7517 14.3298 11.7576C14.3246 11.7646 14.3201 11.7682 14.3199 11.7683C14.3193 11.7688 14.3225 11.7663 14.3326 11.7609C14.3518 11.7505 14.3823 11.7367 14.4229 11.7205C14.5033 11.6883 14.6126 11.6506 14.7247 11.6158C14.8367 11.5809 14.9492 11.5497 15.0355 11.5301C15.0791 11.5202 15.1136 11.5139 15.1371 11.5112C15.1492 11.5098 15.1551 11.5098 15.1564 11.5098C15.1571 11.5098 15.1537 11.5098 15.1479 11.5083C15.1435 11.5072 15.1279 11.5028 15.1123 11.4884L15.2477 11.3412Z" fill="#151B26" mask="url(#path-7-inside-1_167_29)"/>
	</svg>
	