<svg width="47" height="47" viewBox="0 0 47 47" fill="none" xmlns="http://www.w3.org/2000/svg">
<rect x="1" y="1" width="44.9396" height="44.9396" rx="22.4698" stroke="white" stroke-width="2"/>
<path d="M21.2652 13.3699C21.032 13.4666 20.9753 13.7111 21.0661 14.2683C21.1059 14.5413 21.1513 14.8199 21.1685 14.8881C21.1913 14.9961 21.1629 15.0189 20.924 15.07C20.7763 15.0985 20.4009 15.2008 20.0882 15.2975C19.7755 15.3886 19.5025 15.4509 19.4856 15.4284C19.4628 15.4055 19.3548 15.0985 19.2355 14.7403C19.1103 14.3537 18.9682 14.0354 18.8887 13.9556C18.6385 13.7054 18.1837 13.8363 18.0983 14.1831C18.0813 14.257 18.1721 14.6323 18.3258 15.0703C18.4623 15.491 18.5759 15.8378 18.5647 15.8491C18.559 15.8547 18.2689 16.0025 17.922 16.1731L17.2966 16.4858L16.9554 15.7978C16.5403 14.9448 16.4151 14.7914 16.165 14.7914C16.0626 14.7914 15.9148 14.8424 15.8294 14.9106C15.5906 15.0982 15.6303 15.3144 16.0795 16.2069L16.4717 16.9973L16.1478 17.2418C15.9715 17.3726 15.6873 17.5943 15.5223 17.7364L15.2209 17.9922L14.5785 17.3554C13.9928 16.7813 13.9189 16.7244 13.7255 16.7244C13.4525 16.7244 13.2365 16.9291 13.2365 17.1848C13.2365 17.3382 13.3276 17.4634 13.8733 18.015C14.3566 18.504 14.4987 18.6802 14.4589 18.7372C14.4248 18.7826 14.2827 18.9532 14.1406 19.1238C13.9928 19.2887 13.7311 19.6299 13.5493 19.8801C12.4405 21.4324 11.7468 23.1265 11.2181 25.566C11.1953 25.6684 11.1499 25.6796 10.8087 25.6796C10.4903 25.6796 10.3707 25.7081 10.1604 25.833C9.02371 26.5042 8.58578 28.2838 9.23407 29.6314C9.62067 30.4443 10.2633 30.922 10.9 30.8653C11.0763 30.8541 11.2582 30.8256 11.3038 30.8027C11.3721 30.7742 11.4291 30.8879 11.5768 31.3487C12.293 33.6229 13.7712 35.5787 15.7953 36.9376C16.8928 37.671 18.513 38.3362 19.9232 38.6377C21.8565 39.0415 24.4322 39.1153 26.4394 38.8139C29.2426 38.3932 31.642 37.2105 33.3418 35.4137C35.1783 33.4804 36.1165 31.1721 36.2927 28.1927L36.3325 27.5275H36.4859C36.7247 27.5275 37.1852 27.2774 37.3956 27.0441C37.8958 26.47 38.1234 25.4975 37.9528 24.656C37.754 23.6953 37.2024 22.9108 36.4633 22.5468C36.088 22.3593 36.0085 22.3421 35.7127 22.3649C35.5308 22.3818 35.343 22.4103 35.2976 22.4331C35.235 22.456 35.1214 22.2798 34.8315 21.6825C34.1835 20.3465 33.3646 19.2149 32.3072 18.2028C31.8467 17.7592 30.7323 16.8837 30.5617 16.8211C30.5163 16.8098 30.6127 16.5538 30.8516 16.0592C31.2382 15.2631 31.2497 15.178 31.0165 14.9163C30.88 14.7685 30.6071 14.7513 30.4196 14.8822C30.3513 14.9276 30.1466 15.2575 29.976 15.6043C29.7998 15.9568 29.6461 16.247 29.6404 16.2582C29.6292 16.2755 28.8275 15.8945 28.7762 15.8488C28.7705 15.8432 28.8785 15.4907 29.015 15.064C29.1628 14.6148 29.2538 14.2451 29.231 14.1828C29.1571 13.9668 28.9696 13.8247 28.7589 13.8247C28.4634 13.8247 28.3551 13.9781 28.105 14.7344C27.9857 15.0925 27.8718 15.4109 27.8493 15.4394C27.8095 15.4735 26.8826 15.2177 26.8826 15.1664C26.8826 15.1608 26.9737 14.8878 27.0817 14.5638C27.3547 13.7621 27.349 13.5518 27.0476 13.3981C26.6325 13.1821 26.4675 13.3355 26.172 14.2282C26.0412 14.6148 25.9103 14.9332 25.8819 14.9332C25.8534 14.9332 25.5065 14.8822 25.1087 14.8252L24.3809 14.7172V14.1713C24.3752 13.6028 24.3411 13.5004 24.1135 13.3809C23.9144 13.2729 23.7554 13.3013 23.5792 13.4776C23.4198 13.6369 23.4142 13.6651 23.4142 14.1541V14.6659L23.2608 14.7C23.1131 14.7228 22.317 14.7967 22.1918 14.7967C22.1633 14.7967 22.0951 14.541 22.0384 14.2282C21.9304 13.5856 21.8735 13.4435 21.6747 13.3696C21.5041 13.3016 21.4358 13.3016 21.2652 13.3699ZM23.4145 16.2129C23.4145 16.8098 23.4884 17.0715 23.6703 17.1454C23.8693 17.2193 24.1023 17.1795 24.2387 17.0374C24.3696 16.9065 24.3809 16.8611 24.3809 16.2983C24.3809 15.8604 24.3978 15.7013 24.4547 15.7013C24.5969 15.7013 25.5294 15.8663 25.5635 15.8948C25.5804 15.9176 25.535 16.1164 25.4611 16.344C25.3531 16.7021 25.3416 16.7819 25.4042 16.9012C25.5122 17.1003 25.6374 17.1742 25.8477 17.1798C26.1091 17.1798 26.2741 16.9979 26.4278 16.5202C26.496 16.3042 26.5643 16.1224 26.5643 16.1164C26.604 16.071 27.5081 16.4007 27.5081 16.4576C27.5081 16.4974 27.4567 16.6908 27.3888 16.884C27.2864 17.1854 27.2808 17.2537 27.349 17.3902C27.4401 17.5836 27.6959 17.7142 27.8834 17.6688C28.0937 17.6118 28.2246 17.4528 28.3326 17.1172C28.3896 16.9466 28.4406 16.8045 28.4462 16.7932C28.4575 16.7819 28.6281 16.8614 28.8328 16.9582L29.2025 17.1457L28.9809 17.5892C28.7135 18.118 28.7023 18.2716 28.9239 18.4933C29.2423 18.806 29.5722 18.6467 29.8621 18.0384C29.9588 17.845 30.0552 17.6916 30.0896 17.6916C30.2318 17.6972 31.221 18.4989 31.801 19.0846C33.3305 20.6082 34.3028 22.3821 34.8997 24.7418C35.275 26.2143 35.4059 27.4936 35.3035 28.6478C35.1727 30.1375 34.9054 31.1211 34.2743 32.3892C33.0006 34.9533 30.8231 36.7272 27.9857 37.5063C25.5181 38.1831 22.0043 38.2113 19.5251 37.5633C17.66 37.08 16.108 36.1988 14.8455 34.9138C14.2429 34.294 14.0326 34.0326 13.6175 33.4128C12.3951 31.5593 11.8548 29.3643 12.0367 27.0106C12.2414 24.3555 13.2193 21.8136 14.766 19.8976C14.9595 19.6531 15.147 19.4371 15.1811 19.4199C15.2096 19.397 15.3971 19.5391 15.5906 19.7326C15.8692 20.0112 15.9772 20.0794 16.1193 20.0794C16.375 20.0794 16.4717 20.0284 16.5685 19.8406C16.6993 19.5905 16.6311 19.4311 16.2445 19.0276L15.9033 18.6695L16.3922 18.2886C16.6596 18.0782 16.8984 17.9248 16.9209 17.9417C16.9382 17.9646 17.0233 18.101 17.1028 18.2488C17.336 18.6752 17.6713 18.7719 17.9558 18.4876C18.1152 18.3283 18.098 18.0838 17.8989 17.6916L17.7283 17.3504L18.3024 17.0662C18.6207 16.9068 18.8824 16.7819 18.8937 16.7932C18.8993 16.8045 18.9507 16.9525 19.0073 17.1228C19.1266 17.4982 19.2233 17.6174 19.4337 17.6631C19.6156 17.7029 19.9114 17.578 19.968 17.4355C20.025 17.2822 20.0078 17.0374 19.917 16.7816C19.8716 16.6508 19.8319 16.503 19.8319 16.4633C19.8319 16.3665 21.259 15.9173 21.3385 15.9912C21.3498 16.0081 21.3955 16.2244 21.4296 16.4689C21.4806 16.8045 21.5319 16.9522 21.6287 17.049C21.8162 17.2308 22.1233 17.2252 22.3167 17.0317C22.476 16.8724 22.4701 16.9522 22.3565 16.0482L22.3167 15.7696L22.709 15.7298C23.0558 15.7013 23.2208 15.6788 23.3742 15.6503C23.3973 15.65 23.4145 15.9001 23.4145 16.2129ZM36.2361 23.4339C36.7307 23.741 37.106 24.7358 37.049 25.5832C37.0149 26.038 36.8956 26.2997 36.6452 26.4475C36.3666 26.6181 36.2755 26.5952 36.2358 26.3451C36.1049 25.5547 35.9002 24.5712 35.7524 24.0594C35.6616 23.7294 35.5821 23.4283 35.5821 23.3942C35.5821 23.2746 36.0254 23.3031 36.2361 23.4339ZM11.0422 27.9541C11.0594 28.6707 11.0932 29.3869 11.1217 29.5346C11.1786 29.8417 11.116 29.9156 10.8033 29.9156C10.1951 29.9156 9.76843 28.9092 9.92212 27.8402C10.0301 27.0839 10.3998 26.5893 10.8318 26.6291L11.0193 26.646L11.0422 27.9541Z" fill="white"/>
<path d="M26.3142 18.6409C24.7903 18.9082 23.4086 19.8974 22.6526 21.2791C21.5667 23.2521 21.8679 25.4979 23.4374 27.1241C24.4551 28.1759 25.7175 28.7331 27.1105 28.7331C28.1226 28.7387 29.0153 28.4717 29.8399 27.9201C30.3971 27.5448 31.1305 26.8001 31.4204 26.3168C31.9663 25.4071 32.2618 24.2927 32.2051 23.3999C32.1597 22.7006 31.9948 22.0751 31.7105 21.5292C31.3693 20.8697 31.1818 20.6195 30.67 20.1077C29.658 19.1013 28.4184 18.5895 27.0426 18.6067C26.718 18.6124 26.394 18.6296 26.3142 18.6409ZM28.435 19.7553C29.0094 19.9428 29.5779 20.284 29.9873 20.6878C30.2831 20.9777 30.7208 21.5521 30.6754 21.5918C30.6412 21.6259 23.227 22.3537 23.1985 22.3253C23.1416 22.2742 23.6362 21.3643 23.8979 21.0346C24.3981 20.4148 25.3363 19.8407 26.1721 19.6585C26.7919 19.522 27.8665 19.5677 28.435 19.7553ZM31.1643 23.0302C31.1984 23.2518 31.2097 23.4509 31.1872 23.4681C31.153 23.5023 28.7424 23.7696 28.4466 23.7752C28.3442 23.7752 28.3329 23.7355 28.3329 23.4171C28.3329 23.2237 28.3101 23.0077 28.2875 22.9338C28.2478 22.8258 28.259 22.8086 28.4012 22.8029C28.4866 22.8029 29.1118 22.746 29.7829 22.6721C30.4537 22.6039 31.0281 22.5641 31.0507 22.5869C31.0789 22.6039 31.1243 22.8086 31.1643 23.0302ZM26.4619 23.2293C26.4391 23.3886 26.4507 23.5592 26.5017 23.7126C26.5471 23.8378 26.5812 23.9458 26.5756 23.9515C26.5756 23.9515 25.7795 24.0366 24.8129 24.139C23.5222 24.2755 23.0558 24.3039 23.0389 24.2583C23.022 24.2185 23.0161 24.0025 23.0277 23.7693L23.0446 23.3486L24.7503 23.1723C25.6884 23.07 26.4673 22.9905 26.4789 22.9848C26.4904 22.9848 26.4791 23.0928 26.4619 23.2293ZM31.062 24.8953C30.7038 26.1349 29.6918 27.1638 28.4578 27.5564C26.6726 28.1248 24.7906 27.5507 23.7899 26.1464C23.5454 25.7996 23.2781 25.3163 23.3122 25.2822C23.3632 25.2368 31.1189 24.4861 31.1358 24.5259C31.1471 24.5484 31.113 24.719 31.062 24.8953Z" fill="white"/>
<path d="M16.9952 21.0514C16.5572 21.1253 15.949 21.3469 15.5793 21.5689C15.3974 21.6712 15.039 21.9724 14.772 22.2397C14.3513 22.6548 14.2433 22.8082 13.9932 23.32C13.6294 24.0647 13.5211 24.5083 13.5098 25.293C13.5042 25.9354 13.5781 26.3448 13.8113 26.8795C14.4596 28.3692 16.0798 29.4038 17.7574 29.4038C18.4338 29.4038 18.9685 29.2845 19.5201 29.0116C20.6232 28.4656 21.4249 27.4821 21.7774 26.2425C21.9708 25.566 21.9592 24.5424 21.7489 23.917C21.2937 22.5527 20.1508 21.5235 18.6383 21.1253C18.2348 21.0173 17.3874 20.9776 16.9952 21.0514ZM18.5475 22.0409C19.0023 22.1602 19.5936 22.4789 19.8553 22.7459L20.0657 22.9619L17.2853 23.9626C15.7499 24.5142 14.4821 24.969 14.4593 24.969C14.4023 24.969 14.4762 24.5371 14.607 24.1332C14.9197 23.161 15.784 22.3821 16.8928 22.0635C17.3364 21.9386 18.1096 21.9273 18.5475 22.0409ZM20.7932 24.2128C20.8614 24.4062 20.9125 24.5994 20.9125 24.6391C20.9125 24.6845 20.4122 24.8949 19.656 25.1678C18.9623 25.418 18.3822 25.6283 18.3597 25.6399C18.3368 25.6455 18.3312 25.5547 18.3425 25.4408C18.3537 25.293 18.314 25.1394 18.2288 24.9631L18.0923 24.7014L19.3489 24.2466C20.0369 23.9965 20.6167 23.8087 20.6395 23.8259C20.6567 23.8434 20.7306 24.0196 20.7932 24.2128ZM16.4207 25.4467C16.4207 25.6515 16.5231 25.8847 16.6765 26.0493L16.813 26.1914L15.9033 26.5211C15.3971 26.703 14.9595 26.8394 14.9197 26.8282C14.8571 26.8053 14.6355 26.2879 14.5898 26.0606C14.5785 26.0093 14.8628 25.8731 15.4541 25.6512C15.9374 25.4693 16.3525 25.3215 16.381 25.3156C16.4038 25.3103 16.4207 25.3729 16.4207 25.4467ZM20.8786 26.0606C20.4523 27.6755 18.6896 28.7615 17.0465 28.4146C16.5744 28.3179 15.8867 28.0052 15.6989 27.8004L15.5737 27.6696L18.2006 26.7202C19.645 26.1971 20.8558 25.7707 20.8959 25.7648C20.941 25.7651 20.941 25.8446 20.8786 26.0606Z" fill="white"/>
<path d="M26.3029 29.8591C23.0962 30.1946 20.2078 31.9799 18.5531 34.6466C18.4564 34.8 18.3656 34.9196 18.3484 34.9196C18.2802 34.9196 18.1778 34.6068 18.1437 34.2772C18.0867 33.7485 17.8253 33.5494 17.4215 33.7313C16.8017 34.0155 17.3874 35.5904 18.3425 36.1933C18.6608 36.3924 19.2124 36.5686 19.5195 36.5686C19.855 36.5686 20.0598 36.3867 20.0598 36.0853C20.0598 35.7895 19.855 35.602 19.5367 35.602C19.1216 35.602 19.116 35.5622 19.4969 34.9709C21.8963 31.2636 26.394 29.7911 30.5389 31.3719C31.0732 31.5766 31.0391 31.6505 30.3855 31.7188C29.7942 31.7814 29.5894 32.1736 29.9591 32.5433C30.1241 32.7139 30.1469 32.7139 30.4822 32.6798C31.4091 32.583 32.2903 31.844 32.5802 30.9227C32.7962 30.2234 32.654 29.8027 32.1992 29.8027C31.8752 29.8027 31.7672 29.9504 31.693 30.5076C31.6758 30.6269 31.6533 30.7352 31.642 30.7465C31.6307 30.7634 31.3634 30.667 31.0563 30.5474C30.4196 30.2916 29.6461 30.0753 28.9183 29.9504C28.2872 29.8418 26.9396 29.7964 26.3029 29.8591Z" fill="white"/>
<path fill-rule="evenodd" clip-rule="evenodd" d="M31.7064 11.589C31.7091 11.6372 31.7055 11.6863 31.6933 11.735L30.9101 14.8386C30.7651 14.7682 30.5662 14.78 30.4196 14.8823C30.3513 14.9277 30.1466 15.2576 29.976 15.6045C29.8266 15.9033 29.6934 16.1574 29.6529 16.2347L29.6528 16.2348L29.6528 16.2348L29.6404 16.2584C29.6292 16.2756 28.8275 15.8947 28.7762 15.849C28.7705 15.8433 28.8785 15.4908 29.015 15.0642C29.1628 14.615 29.2538 14.2453 29.231 14.183C29.1571 13.967 28.9696 13.8249 28.759 13.8249C28.4634 13.8249 28.3551 13.9783 28.105 14.7346C27.9858 15.0927 27.8718 15.411 27.8493 15.4395C27.8095 15.4736 26.8826 15.2179 26.8826 15.1666C26.8826 15.1612 26.9652 14.9134 27.0664 14.6099L27.0664 14.6099L27.0817 14.564C27.3547 13.7623 27.349 13.5519 27.0476 13.3982C26.6325 13.1822 26.4675 13.3356 26.172 14.2284C26.0412 14.615 25.9103 14.9334 25.8819 14.9334C25.8595 14.9334 25.6402 14.9018 25.3541 14.8606L25.354 14.8606L25.1087 14.8254L24.3809 14.7174V14.1714C24.3752 13.603 24.3411 13.5006 24.1135 13.381C23.9145 13.273 23.7554 13.3015 23.5792 13.4777C23.4199 13.6371 23.4142 13.6653 23.4142 14.1542V14.666L23.2608 14.7001C23.1131 14.723 22.317 14.7969 22.1918 14.7969C22.1633 14.7969 22.0951 14.5411 22.0384 14.2284C21.9304 13.5857 21.8735 13.4436 21.6747 13.3697C21.5041 13.3018 21.4358 13.3018 21.2652 13.37C21.032 13.4668 20.9754 13.7113 21.0661 14.2685C21.1059 14.5414 21.1513 14.82 21.1685 14.8883C21.1914 14.9963 21.1629 15.0191 20.924 15.0701C20.7763 15.0986 20.4009 15.201 20.0882 15.2977C19.7755 15.3888 19.5025 15.4511 19.4856 15.4285C19.4628 15.4057 19.3548 15.0986 19.2355 14.7405C19.1103 14.3539 18.9682 14.0355 18.8887 13.9557C18.6386 13.7056 18.1837 13.8365 18.0983 14.1833C18.0814 14.2572 18.1721 14.6325 18.3258 15.0704L18.3526 15.1528L18.3526 15.1528C18.4768 15.5355 18.5752 15.8387 18.5647 15.8493C18.559 15.8549 18.2689 16.0027 17.922 16.1733L17.3409 16.4638H17.2856L16.9554 15.7979C16.5717 15.0095 16.4357 14.8188 16.2198 14.7944L15.4547 11.7509C15.4421 11.7009 15.4385 11.6504 15.4416 11.601C15.0195 11.4692 14.7125 11.0779 14.7125 10.6168C14.7125 10.0478 15.1797 9.58494 15.754 9.58494C16.3284 9.58494 16.7956 10.0478 16.7956 10.6168C16.7956 10.9372 16.6474 11.2239 16.4153 11.4133L17.7815 12.7769C18.1267 13.1215 18.6058 13.3191 19.096 13.3191C19.6756 13.3191 20.2282 13.0465 20.5761 12.5896L22.8213 9.64259C22.6327 9.45588 22.5159 9.19788 22.5159 8.91343C22.5159 8.34444 22.9831 7.88159 23.5574 7.88159C24.1318 7.88159 24.599 8.34444 24.599 8.91343C24.599 9.18937 24.4884 9.43983 24.3097 9.62516L24.3116 9.62746L26.5404 12.5826C26.8883 13.0438 27.4429 13.3192 28.0241 13.3192C28.5187 13.3192 28.9839 13.1284 29.3337 12.7818L30.7084 11.4199C30.4714 11.2306 30.3193 10.9411 30.3193 10.6168C30.3193 10.0478 30.7865 9.58494 31.3608 9.58494C31.9352 9.58494 32.4024 10.0478 32.4024 10.6168C32.4024 11.0656 32.1111 11.4473 31.7064 11.589ZM26.5643 16.1166C26.6016 16.074 27.3993 16.3614 27.4981 16.4442L26.4506 16.4495C26.4876 16.336 26.5223 16.2376 26.5434 16.1778C26.5564 16.1408 26.5643 16.1186 26.5643 16.1166ZM25.4611 16.3442C25.449 16.3843 25.4381 16.421 25.4284 16.4546L24.3804 16.4598C24.3807 16.4113 24.3809 16.3578 24.3809 16.2985C24.3809 15.8605 24.3978 15.7015 24.4547 15.7015C24.5969 15.7015 25.5294 15.8665 25.5635 15.895C25.5804 15.9178 25.535 16.1166 25.4611 16.3442ZM23.4145 16.213C23.4145 16.3043 23.4162 16.3877 23.4198 16.4638H22.409C22.4014 16.4023 22.3925 16.3323 22.3823 16.2521L22.3565 16.0483L22.3167 15.7697L22.709 15.73C23.0558 15.7015 23.2208 15.679 23.3742 15.6505C23.3973 15.6502 23.4145 15.9003 23.4145 16.213ZM21.3385 15.9914C21.3497 16.0082 21.3948 16.2215 21.4289 16.4638H19.8319L19.8319 16.4634C19.8319 16.3667 21.259 15.9175 21.3385 15.9914Z" fill="#FFC400"/>
</svg>
