<svg width="121" height="193" viewBox="0 0 121 193" fill="none" xmlns="http://www.w3.org/2000/svg">
<path fill-rule="evenodd" clip-rule="evenodd" d="M28.7998 139.746C28.7998 131.556 35.4391 124.917 43.6291 124.917C51.819 124.917 58.4583 131.556 58.4583 139.746C58.4583 147.936 51.819 154.576 43.6291 154.576C35.4391 154.576 28.7998 147.936 28.7998 139.746ZM41.6647 128.536C41.457 128.622 41.4065 128.84 41.4874 129.336C41.5228 129.58 41.5632 129.828 41.5786 129.889C41.5989 129.985 41.5735 130.005 41.3607 130.051C41.2291 130.076 40.8947 130.167 40.6161 130.253C40.3374 130.334 40.0942 130.39 40.0792 130.37C40.0588 130.35 39.9626 130.076 39.8563 129.757C39.7448 129.412 39.6181 129.129 39.5473 129.058C39.3244 128.835 38.9192 128.951 38.8431 129.26C38.828 129.326 38.9089 129.661 39.0458 130.051L39.0697 130.124L39.0697 130.124C39.1804 130.465 39.268 130.735 39.2586 130.745C39.2536 130.75 38.9951 130.881 38.686 131.033L38.1288 131.312L37.8248 130.699C37.455 129.939 37.3434 129.802 37.1206 129.802C37.0294 129.802 36.8977 129.848 36.8216 129.909C36.6088 130.076 36.6442 130.268 37.0444 131.064L37.3939 131.768L37.1052 131.986C36.9482 132.102 36.695 132.3 36.548 132.426L36.2794 132.654L35.7071 132.087C35.1852 131.575 35.1194 131.525 34.9471 131.525C34.7039 131.525 34.5114 131.707 34.5114 131.935C34.5114 132.072 34.5926 132.183 35.0787 132.675C35.5093 133.11 35.636 133.267 35.6005 133.318C35.5701 133.358 35.4436 133.51 35.317 133.662L35.3169 133.662L35.3169 133.662C35.1852 133.809 34.9521 134.113 34.79 134.336C33.8022 135.719 33.1841 137.229 32.713 139.402C32.6927 139.493 32.6522 139.503 32.3482 139.503C32.0646 139.503 31.9581 139.529 31.7706 139.64C30.7579 140.238 30.3677 141.824 30.9453 143.024C31.2898 143.749 31.8624 144.174 32.4297 144.124C32.5867 144.114 32.7487 144.088 32.7894 144.068C32.8502 144.043 32.901 144.144 33.0326 144.554C33.6708 146.581 34.9878 148.323 36.7912 149.534C37.769 150.187 39.2126 150.78 40.4691 151.049C42.1916 151.409 44.4864 151.474 46.2748 151.206C48.7723 150.831 50.9101 149.777 52.4246 148.176C54.0609 146.454 54.8968 144.397 55.0538 141.743L55.0893 141.15H55.2259C55.4387 141.15 55.849 140.927 56.0364 140.719C56.4821 140.208 56.6849 139.341 56.5329 138.591C56.3558 137.736 55.8643 137.037 55.2058 136.712C54.8714 136.545 54.8006 136.53 54.537 136.55C54.375 136.565 54.2076 136.591 54.1672 136.611C54.1114 136.631 54.0102 136.474 53.7519 135.942C53.1746 134.752 52.445 133.744 51.5028 132.842C51.0925 132.447 50.0996 131.667 49.9476 131.611C49.9072 131.601 49.9931 131.373 50.2059 130.932C50.5504 130.223 50.5607 130.147 50.3529 129.914C50.2313 129.782 49.9881 129.767 49.821 129.883C49.7602 129.924 49.5778 130.218 49.4258 130.527C49.2927 130.793 49.174 131.019 49.1379 131.088L49.1379 131.088L49.1268 131.109C49.1168 131.125 48.4025 130.785 48.3568 130.744C48.3518 130.739 48.448 130.425 48.5696 130.045C48.7012 129.645 48.7824 129.316 48.762 129.26C48.6962 129.068 48.5291 128.941 48.3414 128.941C48.0782 128.941 47.9817 129.078 47.7588 129.752C47.6525 130.071 47.551 130.354 47.5309 130.38C47.4955 130.41 46.6697 130.182 46.6697 130.136C46.6697 130.132 46.7432 129.911 46.8333 129.641L46.8471 129.6C47.0903 128.885 47.0853 128.698 46.8167 128.561C46.4468 128.369 46.2999 128.505 46.0366 129.301C45.92 129.645 45.8034 129.929 45.778 129.929C45.7581 129.929 45.5628 129.901 45.308 129.864L45.3078 129.864L45.3075 129.864L45.3074 129.864L45.0891 129.832L44.4407 129.736V129.25C44.4357 128.743 44.4053 128.652 44.2025 128.546C44.0251 128.449 43.8834 128.475 43.7264 128.632C43.5845 128.774 43.5794 128.799 43.5794 129.235V129.691L43.4428 129.721C43.3111 129.741 42.6019 129.807 42.4903 129.807C42.4649 129.807 42.4041 129.579 42.3536 129.301C42.2574 128.728 42.2067 128.601 42.0295 128.536C41.8775 128.475 41.8167 128.475 41.6647 128.536ZM43.5797 131.069C43.5797 131.601 43.6455 131.834 43.8076 131.9C43.9849 131.966 44.1925 131.93 44.3141 131.803C44.4306 131.687 44.4407 131.646 44.4407 131.145C44.4407 130.755 44.4558 130.613 44.5065 130.613C44.6331 130.613 45.464 130.76 45.4944 130.785C45.5095 130.806 45.469 130.983 45.4032 131.186C45.307 131.505 45.2967 131.576 45.3524 131.682C45.4487 131.86 45.5602 131.925 45.7476 131.93C45.9805 131.93 46.1275 131.768 46.2644 131.343C46.3046 131.216 46.3448 131.102 46.3674 131.037C46.3791 131.005 46.386 130.985 46.386 130.983C46.4215 130.942 47.2269 131.236 47.2269 131.287C47.2269 131.322 47.1812 131.495 47.1207 131.667C47.0295 131.935 47.0245 131.996 47.0853 132.118C47.1664 132.29 47.3943 132.406 47.5613 132.366C47.7488 132.315 47.8654 132.174 47.9616 131.875C48.0123 131.723 48.0578 131.596 48.0628 131.586C48.0729 131.576 48.2249 131.647 48.4073 131.733L48.7366 131.9L48.5392 132.295C48.301 132.766 48.291 132.903 48.4884 133.101C48.7721 133.379 49.066 133.237 49.3243 132.695C49.4105 132.523 49.4964 132.386 49.5271 132.386C49.6537 132.391 50.535 133.106 51.0518 133.628C52.4146 134.985 53.2808 136.565 53.8127 138.668C54.1471 139.98 54.2637 141.12 54.1725 142.148C54.0559 143.475 53.8177 144.352 53.2555 145.482C52.1206 147.766 50.1805 149.347 47.6525 150.041C45.4539 150.644 42.3232 150.669 40.1143 150.092C38.4526 149.661 37.0698 148.876 35.945 147.731C35.4081 147.179 35.2207 146.946 34.8508 146.394C33.7617 144.742 33.2803 142.786 33.4424 140.689C33.6248 138.324 34.4961 136.059 35.8741 134.352C36.0465 134.134 36.2136 133.942 36.244 133.926C36.2693 133.906 36.4364 134.032 36.6088 134.205C36.857 134.453 36.9532 134.514 37.0798 134.514C37.3077 134.514 37.3939 134.468 37.4801 134.301C37.5967 134.078 37.5358 133.936 37.1914 133.577L36.8874 133.258L37.323 132.918C37.5612 132.731 37.774 132.594 37.7941 132.609C37.8095 132.63 37.8853 132.751 37.9562 132.883C38.1639 133.263 38.4627 133.349 38.7162 133.096C38.8581 132.954 38.8428 132.736 38.6654 132.386L38.5134 132.082L39.0249 131.829C39.3086 131.687 39.5417 131.576 39.5518 131.586C39.5568 131.596 39.6025 131.728 39.653 131.88C39.7593 132.214 39.8455 132.32 40.0329 132.361C40.195 132.396 40.4585 132.285 40.509 132.158C40.5598 132.022 40.5444 131.803 40.4635 131.576C40.4231 131.459 40.3877 131.327 40.3877 131.292C40.3877 131.206 41.6592 130.806 41.73 130.871C41.7401 130.886 41.7808 131.079 41.8112 131.297C41.8567 131.596 41.9024 131.728 41.9886 131.814C42.1556 131.976 42.4292 131.971 42.6016 131.798C42.6113 131.789 42.6203 131.78 42.6286 131.772C42.6534 131.748 42.6723 131.73 42.6856 131.708C42.7282 131.639 42.7151 131.536 42.66 131.104L42.637 130.922L42.6016 130.674L42.9511 130.638C43.2601 130.613 43.4071 130.593 43.5437 130.568C43.5644 130.567 43.5797 130.79 43.5797 131.069ZM55.0033 137.503C55.444 137.776 55.7784 138.663 55.7277 139.418C55.6973 139.823 55.591 140.056 55.3679 140.188C55.1197 140.34 55.0385 140.319 55.0031 140.096C54.8865 139.392 54.7041 138.516 54.5725 138.06C54.4916 137.766 54.4207 137.498 54.4207 137.467C54.4207 137.361 54.8157 137.386 55.0033 137.503ZM32.5563 141.53C32.5716 142.168 32.6017 142.807 32.6271 142.938C32.6779 143.212 32.6221 143.278 32.3435 143.278C31.8016 143.278 31.4214 142.381 31.5584 141.428C31.6546 140.755 31.984 140.314 32.3689 140.349L32.5359 140.364L32.5563 141.53ZM42.901 135.583C43.5745 134.352 44.8056 133.47 46.1633 133.232C46.2344 133.222 46.5231 133.207 46.8123 133.202C48.0381 133.186 49.1425 133.642 50.0442 134.539C50.5002 134.995 50.6673 135.218 50.9713 135.806C51.2246 136.292 51.3715 136.849 51.412 137.472C51.4625 138.268 51.1992 139.261 50.7128 140.071C50.4545 140.502 49.801 141.165 49.3046 141.5C48.57 141.991 47.7745 142.229 46.8728 142.224C45.6317 142.224 44.5069 141.728 43.6002 140.79C42.2018 139.341 41.9334 137.341 42.901 135.583ZM49.436 135.056C49.0712 134.696 48.5647 134.392 48.0529 134.225C47.5464 134.058 46.5889 134.017 46.0367 134.139C45.292 134.301 44.4561 134.813 44.0104 135.365C43.7773 135.659 43.3366 136.469 43.3874 136.515C43.4127 136.54 50.0186 135.892 50.049 135.861C50.0894 135.826 49.6995 135.314 49.436 135.056ZM50.505 137.533C50.5251 137.518 50.5151 137.34 50.4846 137.143C50.449 136.945 50.4085 136.763 50.3834 136.748C50.3633 136.728 49.8515 136.763 49.2538 136.824C48.6559 136.89 48.0989 136.94 48.0228 136.94C47.8961 136.945 47.8861 136.961 47.9215 137.057C47.9416 137.123 47.962 137.315 47.962 137.488C47.962 137.771 47.972 137.807 48.0632 137.807C48.3268 137.802 50.4746 137.563 50.505 137.533ZM46.3304 137.751C46.2849 137.614 46.2746 137.462 46.295 137.32C46.3103 137.199 46.3203 137.102 46.31 137.102C46.3042 137.105 46.0777 137.129 45.7299 137.166L45.7298 137.166L45.7293 137.166C45.465 137.195 45.1307 137.23 44.7699 137.269L43.2502 137.427L43.2351 137.801C43.2248 138.009 43.2301 138.202 43.2451 138.237C43.2602 138.278 43.6758 138.252 44.8257 138.131C45.687 138.04 46.3962 137.964 46.3962 137.964C46.4012 137.959 46.3708 137.862 46.3304 137.751ZM48.0732 141.176C49.1727 140.826 50.0744 139.909 50.3934 138.805C50.4389 138.648 50.4693 138.496 50.4593 138.475C50.4442 138.44 43.5341 139.109 43.4886 139.149C43.4582 139.18 43.6964 139.61 43.9142 139.919C44.8059 141.171 46.4826 141.682 48.0732 141.176ZM37.8602 135.38C37.47 135.446 36.9281 135.643 36.5987 135.841C36.4367 135.932 36.1173 136.2 35.8794 136.438C35.5046 136.808 35.4083 136.945 35.1855 137.401C34.8614 138.064 34.7649 138.46 34.7549 139.159C34.7498 139.731 34.8157 140.096 35.0234 140.572C35.6011 141.9 37.0447 142.821 38.5393 142.821C39.142 142.821 39.6184 142.715 40.1098 142.472C41.0927 141.986 41.8069 141.109 42.121 140.005C42.2934 139.402 42.283 138.49 42.0956 137.933C41.6901 136.717 40.6718 135.8 39.3242 135.446C38.9646 135.349 38.2097 135.314 37.8602 135.38ZM39.2433 136.261C39.6485 136.368 40.1754 136.651 40.4085 136.889L40.596 137.082L38.1187 137.973C36.7507 138.465 35.6211 138.87 35.6008 138.87C35.55 138.87 35.6159 138.485 35.7324 138.125C36.0111 137.259 36.7811 136.565 37.769 136.281C38.1642 136.17 38.8531 136.16 39.2433 136.261ZM41.2441 138.196C41.3049 138.369 41.3504 138.541 41.3504 138.576C41.3504 138.617 40.9047 138.804 40.2309 139.047C39.6128 139.27 39.096 139.458 39.0759 139.468C39.0556 139.473 39.0506 139.392 39.0606 139.29C39.0707 139.159 39.0352 139.022 38.9594 138.865L38.8378 138.632L39.9573 138.226C40.5703 138.004 41.0869 137.836 41.1072 137.852C41.1225 137.867 41.1884 138.024 41.2441 138.196ZM37.3484 139.296C37.3484 139.478 37.4396 139.686 37.5763 139.833L37.6979 139.959L36.8874 140.253C36.4364 140.415 36.0465 140.537 36.0111 140.527C35.9553 140.506 35.7578 140.045 35.7171 139.843C35.7071 139.797 35.9603 139.676 36.4872 139.478C36.9178 139.316 37.2876 139.184 37.313 139.179C37.3333 139.174 37.3484 139.23 37.3484 139.296ZM41.3203 139.843C40.9404 141.282 39.3699 142.249 37.9059 141.94C37.4853 141.854 36.8726 141.575 36.7052 141.393L36.5937 141.276L38.9342 140.43C40.2211 139.964 41.2999 139.584 41.3356 139.579C41.3758 139.579 41.3758 139.65 41.3203 139.843ZM39.2484 147.493C40.7227 145.117 43.2962 143.526 46.1533 143.227C46.7206 143.171 47.9212 143.212 48.4835 143.309C49.132 143.42 49.8211 143.613 50.3884 143.84C50.662 143.947 50.9002 144.033 50.9103 144.018C50.9203 144.008 50.9404 143.911 50.9557 143.805C51.0218 143.309 51.118 143.177 51.4067 143.177C51.812 143.177 51.9386 143.552 51.7461 144.175C51.4879 144.996 50.7027 145.654 49.8769 145.74C49.5782 145.771 49.5578 145.771 49.4109 145.619C49.0815 145.289 49.2639 144.94 49.7907 144.884C50.3731 144.823 50.4035 144.757 49.9274 144.575C46.2344 143.167 42.2271 144.479 40.0893 147.782C39.7499 148.308 39.7549 148.344 40.1248 148.344C40.4084 148.344 40.5908 148.511 40.5908 148.775C40.5908 149.043 40.4084 149.205 40.1094 149.205C39.8358 149.205 39.3444 149.048 39.0607 148.871C38.2098 148.334 37.688 146.93 38.2402 146.677C38.6 146.515 38.8329 146.693 38.8836 147.164C38.914 147.457 39.0052 147.736 39.066 147.736C39.0814 147.736 39.1622 147.629 39.2484 147.493Z" fill="white"/>
<path d="M26.6208 135.313C26.6208 137.126 26.2014 138.776 25.3626 140.264C24.5238 141.725 23.2792 142.889 21.6288 143.755C20.0053 144.62 18.0302 145.053 15.7033 145.053H12.1318V154.185H3.12183V125.451H15.7033C19.2207 125.451 21.9129 126.343 23.7798 128.129C25.6738 129.915 26.6208 132.31 26.6208 135.313ZM14.6887 137.951C16.5556 137.951 17.489 137.072 17.489 135.313C17.489 133.554 16.5556 132.675 14.6887 132.675H12.1318V137.951H14.6887Z" fill="white"/>
<path d="M89.0207 154.185H80.0108L70.4732 139.737V154.185H61.4633V125.451H70.4732L80.0108 140.143V125.451H89.0207V154.185Z" fill="white"/>
<path d="M110.705 135.272C110.354 134.704 109.853 134.271 109.204 133.974C108.554 133.649 107.77 133.487 106.85 133.487C105.118 133.487 103.779 134.055 102.832 135.191C101.885 136.3 101.411 137.829 101.411 139.777C101.411 142.023 101.939 143.7 102.994 144.81C104.049 145.919 105.673 146.474 107.864 146.474C109.948 146.474 111.625 145.635 112.897 143.958H105.713V137.586H120.365V146.596C119.12 148.733 117.402 150.573 115.21 152.115C113.019 153.63 110.245 154.388 106.89 154.388C103.914 154.388 101.317 153.779 99.098 152.562C96.9064 151.317 95.2153 149.585 94.0248 147.367C92.8614 145.148 92.2796 142.618 92.2796 139.777C92.2796 136.936 92.8614 134.406 94.0248 132.188C95.2153 129.969 96.9064 128.251 99.098 127.033C101.29 125.789 103.86 125.167 106.809 125.167C110.57 125.167 113.628 126.073 115.981 127.886C118.362 129.699 119.769 132.161 120.202 135.272H110.705Z" fill="white"/>
<path d="M3.45611 171.49C3.53968 168.288 4.50073 165.838 6.33927 164.143C8.20566 162.447 10.8381 161.6 14.2366 161.6C16.4373 161.6 18.3176 161.963 19.8776 162.69C21.4376 163.416 22.6075 164.399 23.3875 165.637C24.1954 166.875 24.5993 168.274 24.5993 169.835C24.5993 171.719 24.1397 173.199 23.2204 174.276C22.3011 175.325 21.2704 176.039 20.1283 176.415V176.577C23.4711 177.788 25.1425 180.035 25.1425 183.319C25.1425 185.041 24.7247 186.562 23.889 187.881C23.0533 189.199 21.8554 190.222 20.2954 190.949C18.7633 191.675 16.9387 192.039 14.8216 192.039C11.2003 192.039 8.35887 191.204 6.29748 189.536C4.23609 187.867 3.17754 185.256 3.12183 181.704H12.1474C12.0917 182.673 12.2309 183.413 12.5652 183.924C12.9274 184.409 13.5402 184.651 14.4038 184.651C14.9052 184.651 15.323 184.476 15.6573 184.126C15.9916 183.749 16.1587 183.265 16.1587 182.673C16.1587 181.919 15.8941 181.354 15.3648 180.977C14.8634 180.574 13.9998 180.372 12.7742 180.372H11.2281V173.145H12.7324C14.6266 173.253 15.5737 172.526 15.5737 170.965C15.5737 170.293 15.4205 169.795 15.1141 169.472C14.8355 169.149 14.4734 168.987 14.0277 168.987C12.997 168.987 12.4817 169.822 12.4817 171.49H3.45611Z" fill="white"/>
<path d="M57.7864 163.174L47.173 183.076V191.756H37.8967V183.076L27.2833 163.174H37.8967L42.6184 173.307L47.3401 163.174H57.7864Z" fill="white"/>
<path d="M78.8656 187.436H69.0043L67.5418 191.756H57.8059L68.6282 163.174H79.3252L90.1057 191.756H80.328L78.8656 187.436ZM76.6092 180.695L73.9349 172.742L71.2607 180.695H76.6092Z" fill="white"/>
<path d="M120.585 191.756H111.309L101.489 177.384V191.756H92.2132V163.174H101.489L111.309 177.788V163.174H120.585V191.756Z" fill="white"/>
<rect y="0.0388184" width="117.463" height="116.293" rx="58.1463" fill="#151B26"/>
<rect x="10.9126" y="10.8923" width="95.6382" height="94.5854" rx="47.2927" stroke="#E30039" stroke-width="10"/>
<path d="M53.7695 35.6824C53.2447 35.8979 53.1171 36.4426 53.3214 37.6841C53.4109 38.2923 53.5131 38.913 53.5518 39.0651C53.6032 39.3057 53.5391 39.3566 53.0016 39.4703C52.6691 39.5338 51.8244 39.7618 51.1206 39.9773C50.4168 40.1803 49.8025 40.3191 49.7645 40.2689C49.7131 40.218 49.47 39.5338 49.2016 38.7359C48.9198 37.8745 48.6 37.1651 48.421 36.9873C47.8581 36.43 46.8345 36.7216 46.6422 37.4944C46.6041 37.659 46.8084 38.4952 47.1543 39.471C47.4615 40.4084 47.7172 41.1811 47.6918 41.2063C47.6792 41.2188 47.0261 41.548 46.2456 41.9282L44.838 42.6249L44.0701 41.0919C43.136 39.1913 42.8542 38.8496 42.2913 38.8496C42.0609 38.8496 41.7284 38.9633 41.5361 39.1153C40.9986 39.5331 41.088 40.015 42.099 42.0035L42.9817 43.7646L42.2526 44.3093C41.8559 44.6009 41.2162 45.0947 40.845 45.4113L40.1666 45.9812L38.721 44.5625C37.4029 43.2834 37.2366 43.1564 36.8012 43.1564C36.1869 43.1564 35.7008 43.6126 35.7008 44.1824C35.7008 44.5242 35.9058 44.8032 37.1338 46.0321C38.2215 47.1215 38.5413 47.5142 38.4519 47.6411C38.3751 47.7423 38.0552 48.1224 37.7354 48.5025C37.4029 48.8701 36.8139 49.6303 36.4046 50.1876C33.9093 53.6463 32.3482 57.421 31.1583 62.8563C31.1069 63.0844 31.0047 63.1095 30.2368 63.1095C29.5204 63.1095 29.2513 63.173 28.7779 63.4513C26.2198 64.9466 25.2342 68.9117 26.6932 71.9143C27.5633 73.7256 29.0096 74.79 30.4425 74.6637C30.8391 74.6386 31.2484 74.5751 31.3513 74.5242C31.5048 74.4608 31.633 74.7139 31.9656 75.7406C33.5775 80.8077 36.9041 85.1655 41.4593 88.1932C43.9292 89.8273 47.5757 91.3095 50.7494 91.9811C55.1003 92.8808 60.8968 93.0454 65.4139 92.3738C71.7226 91.4364 77.1225 88.8013 80.9479 84.7979C85.0811 80.4904 87.1925 75.3472 87.5891 68.7088L87.6786 67.2267H88.0238C88.5613 67.2267 89.5976 66.6694 90.071 66.1498C91.1968 64.8706 91.709 62.7036 91.325 60.8288C90.8777 58.6883 89.6364 56.9404 87.9731 56.1293C87.1284 55.7115 86.9494 55.6731 86.2837 55.724C85.8744 55.7617 85.4517 55.8252 85.3496 55.8761C85.2087 55.927 84.9529 55.5343 84.3006 54.2036C82.8423 51.2268 80.9993 48.7055 78.6196 46.4505C77.5832 45.4622 75.0753 43.5114 74.6913 43.3719C74.5892 43.3468 74.8062 42.7763 75.3437 41.6743C76.2137 39.9007 76.2398 39.7109 75.715 39.1279C75.4078 38.7987 74.7935 38.7603 74.3715 39.0518C74.2179 39.153 73.7572 39.8881 73.3732 40.6609C72.9766 41.4462 72.6307 42.0928 72.618 42.1179C72.5927 42.1562 70.7885 41.3074 70.673 41.2056C70.6603 41.193 70.9033 40.4077 71.2105 39.4571C71.543 38.4562 71.748 37.6325 71.6966 37.4937C71.5303 37.0124 71.1083 36.6958 70.6342 36.6958C69.9692 36.6958 69.7255 37.0376 69.1626 38.7226C68.8941 39.5205 68.6377 40.2299 68.587 40.2933C68.4975 40.3694 66.4115 39.7995 66.4115 39.6851C66.4115 39.6726 66.6165 39.0644 66.8596 38.3425C67.4739 36.5563 67.4612 36.0876 66.7828 35.7452C65.8486 35.2639 65.4774 35.6057 64.8123 37.5948C64.5179 38.4562 64.2234 39.1655 64.1593 39.1655C64.0952 39.1655 63.3146 39.0518 62.4192 38.9249L60.7813 38.6843V37.4679C60.7686 36.2013 60.6918 35.9732 60.1796 35.7068C59.7316 35.4662 59.3737 35.5297 58.9771 35.9223C58.6185 36.2773 58.6058 36.3401 58.6058 37.4296V38.5699L58.2606 38.6459C57.9281 38.6968 56.1366 38.8615 55.8548 38.8615C55.7907 38.8615 55.6371 38.2916 55.5096 37.5948C55.2665 36.163 55.1383 35.8463 54.6909 35.6817C54.307 35.5303 54.1534 35.5303 53.7695 35.6824ZM58.6065 42.0167C58.6065 43.3468 58.7728 43.9299 59.1821 44.0945C59.6301 44.2591 60.1543 44.1705 60.4614 43.8539C60.7559 43.5623 60.7813 43.4612 60.7813 42.2071C60.7813 41.2314 60.8193 40.8771 60.9475 40.8771C61.2674 40.8771 63.366 41.2446 63.4428 41.3081C63.4809 41.359 63.3787 41.8019 63.2125 42.3089C62.9694 43.1068 62.9434 43.2847 63.0843 43.5504C63.3273 43.994 63.6091 44.1586 64.0825 44.1712C64.6708 44.1712 65.042 43.7659 65.3879 42.7016C65.5415 42.2204 65.6951 41.8151 65.6951 41.8019C65.7845 41.7007 67.8191 42.4352 67.8191 42.5621C67.8191 42.6507 67.7036 43.0817 67.5507 43.5121C67.3203 44.1837 67.3076 44.3358 67.4612 44.6399C67.6662 45.0709 68.2418 45.3618 68.6638 45.2606C69.1372 45.1337 69.4317 44.7794 69.6747 44.0317C69.8029 43.6516 69.9178 43.3349 69.9304 43.3098C69.9558 43.2847 70.3398 43.4618 70.8005 43.6774L71.6325 44.0951L71.1337 45.0834C70.5321 46.2615 70.5067 46.6039 71.0055 47.0977C71.722 47.7945 72.4645 47.4395 73.1168 46.0843C73.3345 45.6533 73.5515 45.3115 73.629 45.3115C73.9488 45.3241 76.175 47.1103 77.4804 48.4152C80.9225 51.8098 83.1107 55.7624 84.4541 61.0199C85.2988 64.3008 85.5933 67.1513 85.3629 69.7229C85.0684 73.0421 84.4668 75.2335 83.0466 78.059C80.18 83.7719 75.2796 87.7245 68.8941 89.4604C63.3407 90.9683 55.4328 91.0311 49.8533 89.5874C45.656 88.5105 42.1631 86.5471 39.3219 83.684C37.9658 82.303 37.4923 81.7206 36.5582 80.3396C33.8072 76.2099 32.5912 71.3193 33.0006 66.0751C33.4613 60.1592 35.6621 54.4958 39.143 50.2266C39.5783 49.6819 40.0003 49.2006 40.0771 49.1622C40.1412 49.1113 40.5632 49.428 40.9986 49.859C41.6256 50.4798 41.8686 50.6318 42.1885 50.6318C42.764 50.6318 42.9817 50.5181 43.1994 50.0996C43.4939 49.5424 43.3403 49.1874 42.4702 48.2883L41.7023 47.4904L42.8028 46.6416C43.4044 46.1729 43.9419 45.8311 43.9926 45.8688C44.0314 45.9197 44.223 46.2238 44.402 46.553C44.9268 47.503 45.6813 47.7185 46.3217 47.0852C46.6802 46.7302 46.6415 46.1854 46.1935 45.3115L45.8095 44.5513L47.1016 43.918C47.818 43.563 48.407 43.2847 48.4324 43.3098C48.445 43.3349 48.5606 43.6648 48.6881 44.0442C48.9565 44.8805 49.1742 45.1462 49.6476 45.2481C50.0569 45.3366 50.7227 45.0583 50.8502 44.741C50.9784 44.3992 50.9397 43.8539 50.7353 43.284C50.6332 42.9925 50.5437 42.6633 50.5437 42.5747C50.5437 42.3592 53.7555 41.3583 53.9344 41.5229C53.9598 41.5606 54.0626 42.0425 54.1394 42.5872C54.2543 43.3349 54.3698 43.6641 54.5874 43.8796C55.0095 44.2849 55.7005 44.2723 56.1359 43.8413C56.4945 43.4863 56.4811 43.6641 56.2254 41.6498L56.1359 41.0291L57.0186 40.9405C57.7992 40.8771 58.1705 40.8268 58.5157 40.7634C58.5678 40.7627 58.6065 41.32 58.6065 42.0167ZM87.4616 58.1059C88.5747 58.7901 89.4193 61.0066 89.2911 62.8947C89.2144 63.9081 88.9459 64.4911 88.3824 64.8204C87.7554 65.2005 87.5504 65.1496 87.4609 64.5923C87.1664 62.8312 86.7057 60.6398 86.3732 59.4994C86.1689 58.7643 85.9899 58.0933 85.9899 58.0173C85.9899 57.7509 86.9875 57.8143 87.4616 58.1059ZM30.7623 68.1773C30.8011 69.7738 30.8772 71.3696 30.9413 71.6988C31.0695 72.383 30.9286 72.5476 30.2248 72.5476C28.856 72.5476 27.8958 70.3053 28.2417 67.9234C28.4847 66.2384 29.3167 65.1364 30.2889 65.2249L30.7109 65.2626L30.7623 68.1773Z" fill="#E30039"/>
<path d="M65.132 47.4261C61.7025 48.0217 58.5929 50.2257 56.8916 53.3043C54.4477 57.7004 55.1254 62.7041 58.6577 66.3274C60.948 68.6709 63.7892 69.9124 66.9242 69.9124C69.2018 69.925 71.211 69.33 73.0666 68.1011C74.3205 67.2648 75.9712 65.6055 76.6235 64.5286C77.8521 62.5018 78.5172 60.0188 78.3897 58.0297C78.2875 56.4715 77.9162 55.078 77.2766 53.8616C76.5087 52.3921 76.0867 51.8348 74.9349 50.6944C72.6572 48.4521 69.8675 47.3117 66.7712 47.3501C66.0408 47.3626 65.3116 47.401 65.132 47.4261ZM69.9049 49.9091C71.1976 50.3269 72.477 51.0871 73.3984 51.9868C74.0641 52.6327 75.049 53.9125 74.9469 54.0011C74.8701 54.0771 58.1843 55.6987 58.1202 55.6353C57.992 55.5216 59.1051 53.4941 59.694 52.7596C60.8198 51.3786 62.9312 50.0995 64.8121 49.6936C66.207 49.3895 68.6255 49.4913 69.9049 49.9091ZM76.0473 57.206C76.1241 57.6998 76.1494 58.1434 76.0987 58.1817C76.0219 58.2577 70.5966 58.8534 69.9309 58.8659C69.7006 58.8659 69.6752 58.7773 69.6752 58.068C69.6752 57.637 69.6238 57.1557 69.573 56.9911C69.4835 56.7505 69.5089 56.7122 69.8288 56.6996C70.0211 56.6996 71.428 56.5727 72.9384 56.4081C74.4481 56.256 75.7408 56.1674 75.7915 56.2183C75.855 56.256 75.9571 56.7122 76.0473 57.206ZM65.4645 57.6495C65.4131 58.0045 65.4391 58.3847 65.554 58.7264C65.6561 59.0054 65.7329 59.246 65.7202 59.2586C65.7202 59.2586 63.9287 59.4483 61.7533 59.6764C58.8487 59.9805 57.799 60.0439 57.761 59.9421C57.7229 59.8536 57.7095 59.3723 57.7356 58.8527L57.7736 57.9153L61.6124 57.5226C63.7237 57.2946 65.4765 57.1174 65.5026 57.1048C65.5286 57.1048 65.5032 57.3455 65.4645 57.6495ZM75.8169 61.3615C75.011 64.1234 72.7334 66.416 69.9563 67.2906C65.9386 68.5572 61.7032 67.278 59.451 64.1492C58.9008 63.3764 58.2991 62.2995 58.3759 62.2235C58.4908 62.1224 75.9451 60.4498 75.9832 60.5384C76.0086 60.5887 75.9318 60.9688 75.8169 61.3615Z" fill="white"/>
<path d="M44.1596 52.7974C43.1741 52.962 41.8052 53.4559 40.9732 53.9503C40.5639 54.1784 39.7573 54.8494 39.1564 55.445C38.2095 56.3699 37.9665 56.7116 37.4036 57.852C36.5849 59.5113 36.3412 60.4996 36.3159 62.2481C36.3032 63.6793 36.4694 64.5916 36.9943 65.7828C38.4532 69.1021 42.0997 71.4072 45.875 71.4072C47.3974 71.4072 48.6007 71.1415 49.842 70.5333C52.3246 69.3169 54.1288 67.1255 54.922 64.3635C55.3574 62.8563 55.3313 60.5756 54.8579 59.1821C53.8336 56.1425 51.2616 53.8492 47.8575 52.962C46.9494 52.7214 45.0424 52.6328 44.1596 52.7974ZM47.6532 55.0021C48.6768 55.2679 50.0076 55.9778 50.5965 56.5728L51.0699 57.0541L44.8127 59.2839C41.3572 60.5128 38.504 61.5262 38.4526 61.5262C38.3244 61.5262 38.4906 60.5637 38.7851 59.664C39.4889 57.4976 41.434 55.7623 43.9293 55.0523C44.9275 54.774 46.6676 54.7489 47.6532 55.0021ZM52.7072 59.8411C52.8608 60.2722 52.9756 60.7025 52.9756 60.7911C52.9756 60.8922 51.8498 61.3609 50.1478 61.9691C48.5866 62.5264 47.2812 62.9951 47.2305 63.0209C47.1791 63.0334 47.1664 62.8312 47.1918 62.5773C47.2171 62.2481 47.1277 61.9057 46.936 61.513L46.6289 60.9299L49.4567 59.9165C51.0051 59.3592 52.3099 58.9408 52.3613 58.9791C52.4 59.0181 52.5663 59.4108 52.7072 59.8411ZM42.8669 62.5905C42.8669 63.0467 43.0973 63.5663 43.4425 63.9332L43.7496 64.2498L41.7024 64.9843C40.5633 65.3895 39.5784 65.6936 39.4889 65.6685C39.348 65.6176 38.8492 64.4647 38.7464 63.9583C38.721 63.8439 39.3607 63.5405 40.6915 63.046C41.7792 62.6408 42.7133 62.3116 42.7774 62.2983C42.8288 62.2864 42.8669 62.4259 42.8669 62.5905ZM52.8995 63.9583C51.94 67.5565 47.973 69.976 44.2751 69.2032C43.2128 68.9877 41.665 68.2909 41.2423 67.8348L40.9606 67.5433L46.8726 65.4278C50.1231 64.2624 52.8481 63.3124 52.9382 63.2992C53.0397 63.2999 53.0397 63.477 52.8995 63.9583Z" fill="white"/>
<path d="M65.1065 72.4214C57.8897 73.1691 51.3894 77.1467 47.6655 83.0884C47.4478 83.4302 47.2435 83.6966 47.2048 83.6966C47.0512 83.6966 46.8208 82.9999 46.744 82.2654C46.6158 81.0874 46.0276 80.6438 45.1188 81.049C43.7239 81.6823 45.042 85.1913 47.1914 86.5346C47.9079 86.9782 49.1492 87.3708 49.8403 87.3708C50.5955 87.3708 51.0562 86.9656 51.0562 86.294C51.0562 85.6349 50.5955 85.2171 49.879 85.2171C48.9449 85.2171 48.9322 85.1285 49.7895 83.811C55.1894 75.5509 65.3115 72.27 74.6396 75.7922C75.8422 76.2483 75.7654 76.4129 74.2944 76.565C72.9636 76.7045 72.5029 77.5784 73.3349 78.4021C73.7061 78.7822 73.7575 78.7822 74.5121 78.7062C76.598 78.4907 78.5812 76.844 79.2336 74.7913C79.7197 73.2332 79.3998 72.2958 78.3762 72.2958C77.647 72.2958 77.404 72.625 77.2371 73.8665C77.1983 74.1323 77.1476 74.3735 77.1222 74.3987C77.0968 74.4363 76.4952 74.2215 75.8041 73.9551C74.3712 73.3852 72.6304 72.9033 70.9925 72.625C69.5722 72.3831 66.5394 72.2819 65.1065 72.4214Z" fill="#E30039"/>
<mask id="path-10-inside-1_160_58" fill="white">
<path fill-rule="evenodd" clip-rule="evenodd" d="M77.268 31.7138C77.2741 31.8212 77.266 31.9305 77.2385 32.0391L75.4758 38.9545C75.1494 38.7975 74.7016 38.8237 74.3714 39.0518C74.2179 39.1529 73.7571 39.888 73.3732 40.6608C73.0368 41.3268 72.737 41.893 72.6459 42.065L72.618 42.1178C72.5926 42.1561 70.7884 41.3073 70.6729 41.2055C70.6602 41.193 70.9033 40.4076 71.2104 39.457C71.543 38.4561 71.7479 37.6324 71.6965 37.4936C71.5303 37.0124 71.1083 36.6957 70.6342 36.6957C69.9691 36.6957 69.7254 37.0375 69.1625 38.7225C68.8941 39.5205 68.6377 40.2298 68.5869 40.2933C68.4975 40.3693 66.4115 39.7994 66.4115 39.6851C66.4115 39.6731 66.5972 39.1215 66.8247 38.4458L66.8595 38.3424C67.4738 36.5562 67.4612 36.0875 66.7827 35.7451C65.8486 35.2638 65.4773 35.6056 64.8123 37.5948C64.5178 38.4561 64.2234 39.1655 64.1593 39.1655C64.1089 39.1655 63.6156 39.0952 62.9718 39.0034L62.9713 39.0034L62.9709 39.0033L62.9707 39.0033L62.4192 38.9248L60.7812 38.6842V37.4678C60.7685 36.2012 60.6917 35.9732 60.1796 35.7067C59.7316 35.4661 59.3737 35.5296 58.977 35.9223C58.6185 36.2772 58.6058 36.34 58.6058 37.4295V38.5698L58.2606 38.6459C57.928 38.6968 56.1365 38.8614 55.8547 38.8614C55.7906 38.8614 55.6371 38.2915 55.5095 37.5948C55.2665 36.1629 55.1383 35.8462 54.6909 35.6816C54.307 35.5302 54.1534 35.5302 53.7694 35.6823C53.2446 35.8978 53.1171 36.4425 53.3214 37.684C53.4109 38.2922 53.513 38.9129 53.5518 39.065C53.6032 39.3056 53.5391 39.3565 53.0016 39.4702C52.669 39.5337 51.8244 39.7617 51.1206 39.9773C50.4168 40.1802 49.8025 40.319 49.7644 40.2688C49.713 40.2179 49.47 39.5337 49.2015 38.7358C48.9198 37.8744 48.5999 37.1651 48.421 36.9872C47.8581 36.43 46.8344 36.7215 46.6421 37.4943C46.6041 37.6589 46.8084 38.4951 47.1543 39.4709L47.2145 39.6547C47.4941 40.5073 47.7155 41.1827 47.6918 41.2062C47.6791 41.2188 47.0261 41.548 46.2455 41.9281L44.938 42.5753H44.8131L44.0701 41.0918C43.207 39.3359 42.9008 38.9105 42.4153 38.8559L40.6932 32.0746C40.665 31.9631 40.6568 31.8507 40.6639 31.7405C39.714 31.4469 39.0229 30.5751 39.0229 29.5476C39.0229 28.2798 40.0744 27.2486 41.367 27.2486C42.6596 27.2486 43.711 28.2798 43.711 29.5476C43.711 30.2615 43.3775 30.9003 42.8553 31.3223L45.9297 34.3605C46.7068 35.1284 47.785 35.5687 48.8881 35.5687C50.1925 35.5687 51.4361 34.9611 52.2192 33.9433L57.2719 27.377C56.8475 26.961 56.5846 26.3862 56.5846 25.7524C56.5846 24.4846 57.6361 23.4534 58.9287 23.4534C60.2212 23.4534 61.2727 24.4846 61.2727 25.7524C61.2727 26.3672 61.0239 26.9252 60.6216 27.3382C60.6229 27.3399 60.6246 27.3414 60.6259 27.3433L65.642 33.9277C66.4248 34.9553 67.6729 35.5688 68.9809 35.5688C70.0942 35.5688 71.141 35.1436 71.9282 34.3714L75.022 31.337C74.4888 30.9152 74.1463 30.2703 74.1463 29.5476C74.1463 28.2798 75.1978 27.2486 76.4903 27.2486C77.7829 27.2486 78.8344 28.2798 78.8344 29.5476C78.8344 30.5476 78.1788 31.3982 77.268 31.7138ZM65.695 41.8018C65.7789 41.707 67.5732 42.3469 67.7963 42.5316L65.4392 42.5433C65.5224 42.2907 65.6005 42.0716 65.648 41.9383L65.648 41.9381C65.6774 41.8558 65.695 41.8063 65.695 41.8018ZM63.2124 42.3089C63.1852 42.3982 63.1607 42.4799 63.1388 42.5547L60.7801 42.5664C60.7809 42.4583 60.7812 42.3391 60.7812 42.207C60.7812 41.2313 60.8193 40.877 60.9475 40.877C61.2673 40.877 63.366 41.2445 63.4428 41.308C63.4808 41.3589 63.3787 41.8018 63.2124 42.3089ZM58.6064 42.0167C58.6064 42.2199 58.6103 42.4058 58.6184 42.5753H56.3435C56.3265 42.4384 56.3064 42.2823 56.2835 42.1038L56.2833 42.1025L56.2831 42.1013C56.2655 41.9644 56.2462 41.8144 56.2253 41.6498L56.1359 41.029L57.0186 40.9404C57.7992 40.877 58.1704 40.8267 58.5156 40.7633C58.5677 40.7626 58.6064 41.3199 58.6064 42.0167ZM53.9344 41.5228C53.9596 41.5602 54.0611 42.0355 54.1377 42.5753H50.5437L50.5437 42.5746C50.5437 42.3591 53.7554 41.3582 53.9344 41.5228Z"/>
</mask>
<path fill-rule="evenodd" clip-rule="evenodd" d="M77.268 31.7138C77.2741 31.8212 77.266 31.9305 77.2385 32.0391L75.4758 38.9545C75.1494 38.7975 74.7016 38.8237 74.3714 39.0518C74.2179 39.1529 73.7571 39.888 73.3732 40.6608C73.0368 41.3268 72.737 41.893 72.6459 42.065L72.618 42.1178C72.5926 42.1561 70.7884 41.3073 70.6729 41.2055C70.6602 41.193 70.9033 40.4076 71.2104 39.457C71.543 38.4561 71.7479 37.6324 71.6965 37.4936C71.5303 37.0124 71.1083 36.6957 70.6342 36.6957C69.9691 36.6957 69.7254 37.0375 69.1625 38.7225C68.8941 39.5205 68.6377 40.2298 68.5869 40.2933C68.4975 40.3693 66.4115 39.7994 66.4115 39.6851C66.4115 39.6731 66.5972 39.1215 66.8247 38.4458L66.8595 38.3424C67.4738 36.5562 67.4612 36.0875 66.7827 35.7451C65.8486 35.2638 65.4773 35.6056 64.8123 37.5948C64.5178 38.4561 64.2234 39.1655 64.1593 39.1655C64.1089 39.1655 63.6156 39.0952 62.9718 39.0034L62.9713 39.0034L62.9709 39.0033L62.9707 39.0033L62.4192 38.9248L60.7812 38.6842V37.4678C60.7685 36.2012 60.6917 35.9732 60.1796 35.7067C59.7316 35.4661 59.3737 35.5296 58.977 35.9223C58.6185 36.2772 58.6058 36.34 58.6058 37.4295V38.5698L58.2606 38.6459C57.928 38.6968 56.1365 38.8614 55.8547 38.8614C55.7906 38.8614 55.6371 38.2915 55.5095 37.5948C55.2665 36.1629 55.1383 35.8462 54.6909 35.6816C54.307 35.5302 54.1534 35.5302 53.7694 35.6823C53.2446 35.8978 53.1171 36.4425 53.3214 37.684C53.4109 38.2922 53.513 38.9129 53.5518 39.065C53.6032 39.3056 53.5391 39.3565 53.0016 39.4702C52.669 39.5337 51.8244 39.7617 51.1206 39.9773C50.4168 40.1802 49.8025 40.319 49.7644 40.2688C49.713 40.2179 49.47 39.5337 49.2015 38.7358C48.9198 37.8744 48.5999 37.1651 48.421 36.9872C47.8581 36.43 46.8344 36.7215 46.6421 37.4943C46.6041 37.6589 46.8084 38.4951 47.1543 39.4709L47.2145 39.6547C47.4941 40.5073 47.7155 41.1827 47.6918 41.2062C47.6791 41.2188 47.0261 41.548 46.2455 41.9281L44.938 42.5753H44.8131L44.0701 41.0918C43.207 39.3359 42.9008 38.9105 42.4153 38.8559L40.6932 32.0746C40.665 31.9631 40.6568 31.8507 40.6639 31.7405C39.714 31.4469 39.0229 30.5751 39.0229 29.5476C39.0229 28.2798 40.0744 27.2486 41.367 27.2486C42.6596 27.2486 43.711 28.2798 43.711 29.5476C43.711 30.2615 43.3775 30.9003 42.8553 31.3223L45.9297 34.3605C46.7068 35.1284 47.785 35.5687 48.8881 35.5687C50.1925 35.5687 51.4361 34.9611 52.2192 33.9433L57.2719 27.377C56.8475 26.961 56.5846 26.3862 56.5846 25.7524C56.5846 24.4846 57.6361 23.4534 58.9287 23.4534C60.2212 23.4534 61.2727 24.4846 61.2727 25.7524C61.2727 26.3672 61.0239 26.9252 60.6216 27.3382C60.6229 27.3399 60.6246 27.3414 60.6259 27.3433L65.642 33.9277C66.4248 34.9553 67.6729 35.5688 68.9809 35.5688C70.0942 35.5688 71.141 35.1436 71.9282 34.3714L75.022 31.337C74.4888 30.9152 74.1463 30.2703 74.1463 29.5476C74.1463 28.2798 75.1978 27.2486 76.4903 27.2486C77.7829 27.2486 78.8344 28.2798 78.8344 29.5476C78.8344 30.5476 78.1788 31.3982 77.268 31.7138ZM65.695 41.8018C65.7789 41.707 67.5732 42.3469 67.7963 42.5316L65.4392 42.5433C65.5224 42.2907 65.6005 42.0716 65.648 41.9383L65.648 41.9381C65.6774 41.8558 65.695 41.8063 65.695 41.8018ZM63.2124 42.3089C63.1852 42.3982 63.1607 42.4799 63.1388 42.5547L60.7801 42.5664C60.7809 42.4583 60.7812 42.3391 60.7812 42.207C60.7812 41.2313 60.8193 40.877 60.9475 40.877C61.2673 40.877 63.366 41.2445 63.4428 41.308C63.4808 41.3589 63.3787 41.8018 63.2124 42.3089ZM58.6064 42.0167C58.6064 42.2199 58.6103 42.4058 58.6184 42.5753H56.3435C56.3265 42.4384 56.3064 42.2823 56.2835 42.1038L56.2833 42.1025L56.2831 42.1013C56.2655 41.9644 56.2462 41.8144 56.2253 41.6498L56.1359 41.029L57.0186 40.9404C57.7992 40.877 58.1704 40.8267 58.5156 40.7633C58.5677 40.7626 58.6064 41.3199 58.6064 42.0167ZM53.9344 41.5228C53.9596 41.5602 54.0611 42.0355 54.1377 42.5753H50.5437L50.5437 42.5746C50.5437 42.3591 53.7554 41.3582 53.9344 41.5228Z" fill="#FFC400"/>
<path d="M77.2385 32.0391L78.2075 32.2861L78.2078 32.2849L77.2385 32.0391ZM77.268 31.7138L76.9406 30.7689L76.2267 31.0162L76.2696 31.7704L77.268 31.7138ZM75.4758 38.9545L75.0423 39.8557L76.1431 40.3853L76.4448 39.2015L75.4758 38.9545ZM74.3714 39.0518L74.9215 39.8869L74.9307 39.8808L74.9398 39.8745L74.3714 39.0518ZM73.3732 40.6608L74.2658 41.1116L74.2688 41.1057L73.3732 40.6608ZM72.6459 42.065L71.7622 41.597L71.7615 41.5982L72.6459 42.065ZM72.618 42.1178L73.4519 42.6697L73.4792 42.6284L73.5023 42.5846L72.618 42.1178ZM70.6729 41.2055L69.9693 41.9162L69.99 41.9366L70.0117 41.9558L70.6729 41.2055ZM71.2104 39.457L70.2614 39.1417L70.2589 39.1495L71.2104 39.457ZM71.6965 37.4936L70.7513 37.8202L70.755 37.8306L70.7588 37.8409L71.6965 37.4936ZM69.1625 38.7225L70.1103 39.0414L70.111 39.0394L69.1625 38.7225ZM68.5869 40.2933L69.2344 41.0553L69.3078 40.993L69.3679 40.9178L68.5869 40.2933ZM66.8247 38.4458L65.877 38.1267L65.877 38.1267L66.8247 38.4458ZM66.8595 38.3424L65.9139 38.0172L65.9118 38.0233L66.8595 38.3424ZM66.7827 35.7451L66.3247 36.6341L66.3321 36.6378L66.7827 35.7451ZM64.8123 37.5948L65.7585 37.9182L65.7607 37.9118L64.8123 37.5948ZM62.9718 39.0034L63.1129 38.0134L63.1114 38.0132L62.9718 39.0034ZM62.9713 39.0034L62.8305 39.9934L62.8317 39.9936L62.9713 39.0034ZM62.9709 39.0033L63.1117 38.0133L63.1106 38.0131L62.9709 39.0033ZM62.9707 39.0033L62.8299 39.9933L62.831 39.9935L62.9707 39.0033ZM62.4192 38.9248L62.2738 39.9142L62.2783 39.9149L62.4192 38.9248ZM60.7812 38.6842H59.7812V39.548L60.6359 39.6736L60.7812 38.6842ZM60.7812 37.4678H61.7813L61.7812 37.4578L60.7812 37.4678ZM60.1796 35.7067L59.7064 36.5878L59.7181 36.5939L60.1796 35.7067ZM58.977 35.9223L58.2735 35.2116L58.2735 35.2116L58.977 35.9223ZM58.6058 38.5698L58.8208 39.5464L59.6058 39.3736V38.5698H58.6058ZM58.2606 38.6459L58.4119 39.6343L58.4439 39.6294L58.4756 39.6225L58.2606 38.6459ZM55.5095 37.5948L54.5236 37.7621L54.5259 37.7748L55.5095 37.5948ZM54.6909 35.6816L54.3241 36.6119L54.3348 36.6161L54.3456 36.6201L54.6909 35.6816ZM53.7694 35.6823L53.4012 34.7525L53.3896 34.7572L53.7694 35.6823ZM53.3214 37.684L54.3107 37.5385L54.3095 37.53L54.3081 37.5216L53.3214 37.684ZM53.5518 39.065L54.5297 38.856L54.5256 38.837L54.5208 38.8182L53.5518 39.065ZM53.0016 39.4702L53.189 40.4525L53.1988 40.4506L53.2085 40.4486L53.0016 39.4702ZM51.1206 39.9773L51.3977 40.9381L51.4055 40.9358L51.4134 40.9334L51.1206 39.9773ZM49.7644 40.2688L50.5615 39.6649L50.5186 39.6082L50.468 39.5581L49.7644 40.2688ZM49.2015 38.7358L48.2511 39.0467L48.2537 39.0546L49.2015 38.7358ZM48.421 36.9872L49.1258 36.2779L49.1245 36.2766L48.421 36.9872ZM46.6421 37.4943L45.6717 37.2528L45.6697 37.2609L45.6678 37.269L46.6421 37.4943ZM47.1543 39.4709L48.1045 39.1594L48.1008 39.148L48.0968 39.1368L47.1543 39.4709ZM47.2145 39.6547L46.2643 39.9661L46.2643 39.9662L47.2145 39.6547ZM47.6918 41.2062L46.9883 40.4955L46.9882 40.4956L47.6918 41.2062ZM46.2455 41.9281L45.8077 41.029L45.8019 41.0319L46.2455 41.9281ZM44.938 42.5753V43.5753H45.1719L45.3816 43.4715L44.938 42.5753ZM44.8131 42.5753L43.919 43.0232L44.1956 43.5753H44.8131V42.5753ZM44.0701 41.0918L43.1726 41.5329L43.176 41.5397L44.0701 41.0918ZM42.4153 38.8559L41.446 39.1021L41.6163 39.7724L42.3036 39.8497L42.4153 38.8559ZM40.6932 32.0746L39.7239 32.3204L39.724 32.3207L40.6932 32.0746ZM40.6639 31.7405L41.6618 31.8052L41.7129 31.0179L40.9592 30.785L40.6639 31.7405ZM42.8553 31.3223L42.2268 30.5445L41.3568 31.2474L42.1524 32.0336L42.8553 31.3223ZM45.9297 34.3605L46.6327 33.6492L46.6326 33.6492L45.9297 34.3605ZM52.2192 33.9433L51.4267 33.3335L51.4267 33.3335L52.2192 33.9433ZM57.2719 27.377L58.0644 27.9869L58.6054 27.2838L57.9719 26.6628L57.2719 27.377ZM60.6216 27.3382L59.9053 26.6404L59.3024 27.2592L59.8271 27.9455L60.6216 27.3382ZM60.6259 27.3433L59.8088 27.9198L59.8194 27.9348L59.8304 27.9493L60.6259 27.3433ZM65.642 33.9277L66.4375 33.3217L66.4375 33.3217L65.642 33.9277ZM71.9282 34.3714L71.228 33.6575L71.2279 33.6576L71.9282 34.3714ZM75.022 31.337L75.7222 32.0509L76.5321 31.2566L75.6424 30.5527L75.022 31.337ZM67.7963 42.5316L67.8013 43.5316L70.5562 43.518L68.434 41.7613L67.7963 42.5316ZM65.695 41.8018L64.946 41.1392L64.695 41.423V41.8018H65.695ZM65.4392 42.5433L64.4894 42.2304L64.0546 43.5502L65.4442 43.5433L65.4392 42.5433ZM65.648 41.9383L66.59 42.274L66.5914 42.2698L65.648 41.9383ZM65.648 41.9381L64.706 41.6025L64.7046 41.6066L65.648 41.9381ZM63.1388 42.5547L63.1438 43.5547L63.8896 43.551L64.0987 42.835L63.1388 42.5547ZM63.2124 42.3089L62.2622 41.9973L62.2589 42.0073L62.2558 42.0175L63.2124 42.3089ZM60.7801 42.5664L59.7801 42.5585L59.7722 43.5714L60.7851 43.5664L60.7801 42.5664ZM63.4428 41.308L64.2437 40.7092L64.172 40.6134L64.0798 40.5372L63.4428 41.308ZM58.6184 42.5753V43.5753H59.6669L59.6172 42.5279L58.6184 42.5753ZM56.3435 42.5753L55.3511 42.6987L55.4601 43.5753H56.3435V42.5753ZM56.2835 42.1038L55.2916 42.2309L55.2916 42.2314L56.2835 42.1038ZM56.2833 42.1025L57.2752 41.9754L57.275 41.9742L56.2833 42.1025ZM56.2831 42.1013L55.2913 42.2288L55.2914 42.2296L56.2831 42.1013ZM56.2253 41.6498L57.2174 41.5238L57.2163 41.5154L57.2151 41.5071L56.2253 41.6498ZM56.1359 41.029L56.036 40.034L54.9971 40.1383L55.1461 41.1717L56.1359 41.029ZM57.0186 40.9404L56.9376 39.9437L56.9281 39.9445L56.9187 39.9454L57.0186 40.9404ZM58.5156 40.7633L58.503 39.7633L58.4182 39.7644L58.3348 39.7798L58.5156 40.7633ZM54.1377 42.5753V43.5753H55.2896L55.1278 42.4348L54.1377 42.5753ZM53.9344 41.5228L54.7638 40.9643L54.6981 40.8666L54.6114 40.7868L53.9344 41.5228ZM50.5437 42.5753L49.5437 42.578L49.5463 43.5753H50.5437V42.5753ZM50.5437 42.5746L49.5437 42.5746L49.5437 42.5773L50.5437 42.5746ZM78.2078 32.2849C78.2635 32.0652 78.2775 31.8527 78.2664 31.6571L76.2696 31.7704C76.2707 31.7897 76.2685 31.7958 76.2692 31.7934L78.2078 32.2849ZM76.4448 39.2015L78.2075 32.2861L76.2695 31.7921L74.5068 38.7075L76.4448 39.2015ZM74.9398 39.8745C74.9472 39.8694 74.9696 39.8584 75.0043 39.8556C75.0201 39.8543 75.0332 39.8553 75.0418 39.8568C75.0506 39.8584 75.0503 39.8596 75.0423 39.8557L75.9093 38.0534C75.2574 37.7397 74.4272 37.7978 73.8031 38.229L74.9398 39.8745ZM74.2688 41.1057C74.4475 40.7459 74.6433 40.397 74.8077 40.1328C74.8905 39.9998 74.9586 39.8992 75.0072 39.8338C75.0188 39.8182 75.028 39.8063 75.0349 39.7977C75.0421 39.7888 75.0453 39.7852 75.0449 39.7857C75.0445 39.7861 75.0426 39.7882 75.0392 39.7918C75.0358 39.7952 75.03 39.801 75.022 39.8085C75.0094 39.8203 74.9749 39.8517 74.9215 39.8869L73.8214 38.2166C73.692 38.3018 73.5989 38.4024 73.5555 38.4508C73.5003 38.5125 73.4483 38.5784 73.4022 38.6405C73.3092 38.7656 73.2093 38.9161 73.1097 39.076C72.9094 39.3979 72.6828 39.8029 72.4776 40.2159L74.2688 41.1057ZM73.5296 42.533C73.6214 42.3597 73.9249 41.7866 74.2658 41.1116L72.4806 40.21C72.1487 40.8671 71.8526 41.4263 71.7622 41.597L73.5296 42.533ZM73.5023 42.5846L73.5302 42.5318L71.7615 41.5982L71.7336 41.651L73.5023 42.5846ZM70.0117 41.9558C70.0945 42.0287 70.1804 42.0792 70.1971 42.0893C70.2345 42.1119 70.2742 42.1341 70.3108 42.154C70.3851 42.1944 70.4761 42.2413 70.5732 42.2901C70.7691 42.3884 71.0145 42.5068 71.2541 42.6193C71.4932 42.7316 71.7344 42.8418 71.9213 42.923C72.0126 42.9626 72.1027 43.0005 72.1769 43.0287C72.2099 43.0412 72.2635 43.061 72.3213 43.0773C72.3439 43.0837 72.4106 43.1023 72.4948 43.1121C72.5321 43.1165 72.6294 43.1265 72.7518 43.1096C72.8287 43.0991 73.205 43.0427 73.4519 42.6697L71.7841 41.5659C72.0302 41.1941 72.4049 41.1385 72.4793 41.1283C72.5991 41.1118 72.6931 41.1217 72.7262 41.1256C72.8021 41.1344 72.8572 41.1504 72.8651 41.1527C72.8937 41.1607 72.9058 41.1661 72.8868 41.1589C72.8571 41.1476 72.8012 41.1246 72.7179 41.0885C72.5558 41.0181 72.334 40.9169 72.1044 40.8091C71.8753 40.7015 71.6465 40.591 71.4708 40.5028C71.3821 40.4582 71.3131 40.4224 71.2665 40.3971C71.2553 40.391 71.2465 40.3861 71.2399 40.3824C71.2366 40.3805 71.2342 40.3791 71.2324 40.3781C71.2306 40.377 71.2298 40.3766 71.2299 40.3766C71.23 40.3767 71.2315 40.3776 71.2342 40.3793C71.2367 40.3809 71.2415 40.384 71.248 40.3883C71.2545 40.3927 71.2902 40.4166 71.3341 40.4553L70.0117 41.9558ZM70.2589 39.1495C70.1045 39.6274 69.9654 40.066 69.866 40.3886C69.8167 40.549 69.7755 40.6857 69.7469 40.7858C69.7331 40.8341 69.7193 40.8839 69.7087 40.927C69.7041 40.9455 69.6954 40.9819 69.6882 41.0233C69.6853 41.0398 69.677 41.0887 69.6738 41.1506C69.6724 41.1785 69.6696 41.2469 69.6808 41.333C69.6841 41.3582 69.7123 41.6617 69.9693 41.9162L71.3765 40.4949C71.5216 40.6386 71.5868 40.7907 71.6154 40.8716C71.6463 40.9589 71.6586 41.0326 71.6642 41.0758C71.6752 41.1607 71.6725 41.2276 71.6711 41.2537C71.6681 41.3117 71.6605 41.3554 71.6588 41.3653C71.6539 41.3933 71.6494 41.4106 71.6508 41.4045C71.6523 41.3986 71.6578 41.3776 71.6698 41.3356C71.6928 41.2552 71.7292 41.1338 71.7774 40.9774C71.8732 40.6666 72.0092 40.2372 72.162 39.7644L70.2589 39.1495ZM70.7588 37.8409C70.7194 37.7346 70.7101 37.649 70.7072 37.6165C70.7036 37.577 70.7044 37.5498 70.7047 37.5415C70.7052 37.5256 70.706 37.531 70.7005 37.5671C70.6899 37.6368 70.6666 37.7511 70.6269 37.9114C70.5485 38.2275 70.4222 38.6578 70.2614 39.1417L72.1594 39.7723C72.3312 39.2554 72.4737 38.7733 72.5681 38.3927C72.6147 38.2046 72.6538 38.0244 72.6775 37.8694C72.6892 37.7931 72.7002 37.7036 72.7034 37.6121C72.7054 37.557 72.7134 37.3598 72.6343 37.1463L70.7588 37.8409ZM70.6342 37.6957C70.6444 37.6957 70.6596 37.6983 70.6803 37.7139C70.7019 37.7301 70.7315 37.7628 70.7513 37.8202L72.6417 37.1671C72.3498 36.3221 71.5749 35.6957 70.6342 35.6957V37.6957ZM70.111 39.0394C70.2495 38.6247 70.3611 38.3151 70.4591 38.0805C70.5592 37.841 70.6284 37.7212 70.67 37.6638C70.7025 37.6188 70.6891 37.652 70.6255 37.6817C70.5702 37.7075 70.5495 37.6957 70.6342 37.6957V35.6957C70.3864 35.6957 70.0858 35.7266 69.7802 35.8691C69.4662 36.0156 69.232 36.2395 69.0501 36.4907C68.7298 36.933 68.4854 37.5934 68.214 38.4057L70.111 39.0394ZM69.3679 40.9178C69.4643 40.7972 69.5217 40.6626 69.5242 40.657C69.5461 40.6094 69.568 40.5569 69.5882 40.5066C69.6295 40.404 69.679 40.2728 69.7325 40.1261C69.8403 39.8308 69.9744 39.4455 70.1103 39.0414L68.2147 38.4037C68.0822 38.7975 67.9539 39.1659 67.8537 39.4405C67.8032 39.5789 67.7623 39.6868 67.7328 39.7599C67.7177 39.7975 67.7092 39.8171 67.7062 39.8235C67.7046 39.8271 67.7083 39.8187 67.7163 39.8035C67.7174 39.8016 67.7487 39.7402 67.8059 39.6687L69.3679 40.9178ZM65.4115 39.6851C65.4115 40.0575 65.6107 40.2949 65.6711 40.3626C65.7518 40.4531 65.8319 40.5107 65.8714 40.5377C65.9553 40.5949 66.0369 40.6342 66.0826 40.6553C66.1847 40.7023 66.303 40.7463 66.4111 40.7838C66.6358 40.8617 66.9217 40.9477 67.1992 41.0244C67.4774 41.1013 67.7667 41.1743 68.0001 41.2243C68.1137 41.2485 68.2333 41.2716 68.3388 41.2853C68.388 41.2917 68.4637 41.3001 68.5465 41.3002C68.5864 41.3003 68.6587 41.2987 68.7449 41.2836C68.7977 41.2744 69.0222 41.2356 69.2344 41.0553L67.9394 39.5312C68.054 39.4338 68.1656 39.384 68.2327 39.3591C68.3034 39.3328 68.3631 39.32 68.4007 39.3134C68.4738 39.3007 68.5294 39.3002 68.549 39.3002C68.5915 39.3003 68.6131 39.3041 68.5967 39.302C68.5711 39.2986 68.513 39.2887 68.4184 39.2685C68.2356 39.2294 67.9866 39.167 67.7321 39.0967C67.477 39.0262 67.2358 38.953 67.0665 38.8943C66.9777 38.8634 66.9323 38.8447 66.92 38.839C66.9085 38.8337 66.9451 38.8491 66.9985 38.8855C67.0227 38.902 67.0911 38.9499 67.1639 39.0316C67.2019 39.0742 67.258 39.1447 67.3074 39.2434C67.3573 39.3433 67.4115 39.4949 67.4115 39.6851H65.4115ZM65.877 38.1267C65.7634 38.4641 65.6597 38.7721 65.5844 38.9971C65.5469 39.1094 65.5158 39.2029 65.4938 39.2699C65.483 39.3028 65.4734 39.3325 65.466 39.3559C65.4626 39.3667 65.458 39.3817 65.4535 39.397C65.4516 39.4037 65.4473 39.4186 65.4426 39.4369C65.4405 39.4453 65.4359 39.4638 65.4312 39.4872C65.4289 39.4989 65.425 39.5189 65.4215 39.544C65.4188 39.5626 65.4115 39.6161 65.4115 39.6851H67.4115C67.4115 39.7538 67.4042 39.8071 67.4016 39.8254C67.3981 39.8501 67.3943 39.8698 67.392 39.881C67.3875 39.9036 67.3832 39.9208 67.3814 39.9279C67.3775 39.9433 67.3743 39.9544 67.3737 39.9562C67.3721 39.9618 67.3717 39.963 67.3738 39.9563C67.3775 39.9446 67.3841 39.924 67.3943 39.8929C67.4143 39.832 67.4438 39.7431 67.4812 39.6315C67.5556 39.4088 67.6586 39.1031 67.7725 38.7649L65.877 38.1267ZM65.9118 38.0233L65.877 38.1267L67.7725 38.7649L67.8072 38.6615L65.9118 38.0233ZM66.3321 36.6378C66.4297 36.687 66.4016 36.6917 66.3577 36.6311C66.302 36.5543 66.3052 36.4938 66.3063 36.5315C66.3081 36.5906 66.2972 36.7257 66.2316 36.9902C66.1676 37.2479 66.0644 37.5795 65.9139 38.0172L67.8052 38.6677C68.1006 37.8087 68.3229 37.0701 68.3055 36.4732C68.2954 36.1276 68.2067 35.7741 67.977 35.4573C67.7591 35.1567 67.475 34.9743 67.2334 34.8524L66.3321 36.6378ZM65.7607 37.9118C65.9231 37.4261 66.0565 37.0753 66.1745 36.8241C66.2326 36.7003 66.2812 36.6133 66.3202 36.5534C66.3594 36.4931 66.3806 36.473 66.3799 36.4737C66.3515 36.5003 66.2569 36.5538 66.1485 36.551C66.0993 36.5497 66.1366 36.5371 66.3248 36.6341L67.2407 34.8561C66.9618 34.7124 66.6024 34.5621 66.2001 34.5517C65.7385 34.5398 65.3345 34.7128 65.0133 35.0134C64.7294 35.279 64.5267 35.628 64.3643 35.9737C64.1964 36.331 64.034 36.7688 63.8639 37.2777L65.7607 37.9118ZM64.1593 40.1655C64.5758 40.1655 64.8292 39.9138 64.8589 39.8859C64.9365 39.8129 64.9883 39.7418 65.0127 39.7069C65.0661 39.6308 65.1082 39.5529 65.1358 39.4994C65.1955 39.3834 65.2598 39.2386 65.3228 39.0869C65.4516 38.7769 65.6064 38.3632 65.7585 37.9182L63.866 37.2713C63.7237 37.6877 63.584 38.0593 63.4759 38.3194C63.4206 38.4526 63.3807 38.539 63.3581 38.5829C63.3444 38.6094 63.3507 38.5937 63.3745 38.5597C63.3842 38.5459 63.4228 38.4909 63.489 38.4287C63.5227 38.397 63.5859 38.342 63.6777 38.2907C63.7659 38.2414 63.9338 38.1655 64.1593 38.1655V40.1655ZM62.8307 39.9934C63.1517 40.0392 63.4385 40.08 63.6511 40.1094C63.7571 40.1241 63.8482 40.1364 63.9174 40.1451C63.9438 40.1485 64.0664 40.1655 64.1593 40.1655V38.1655C64.2165 38.1655 64.2589 38.1714 64.2269 38.168C64.2165 38.1669 64.1977 38.1647 64.1685 38.161C64.111 38.1537 64.0291 38.1427 63.925 38.1283C63.7174 38.0996 63.4356 38.0594 63.1129 38.0134L62.8307 39.9934ZM62.8317 39.9936L62.8321 39.9936L63.1114 38.0132L63.111 38.0132L62.8317 39.9936ZM62.8301 39.9933L62.8305 39.9934L63.1121 38.0133L63.1117 38.0133L62.8301 39.9933ZM62.831 39.9935L62.8313 39.9935L63.1106 38.0131L63.1103 38.0131L62.831 39.9935ZM62.2783 39.9149L62.8299 39.9933L63.1115 38.0132L62.56 37.9348L62.2783 39.9149ZM60.6359 39.6736L62.2738 39.9142L62.5645 37.9355L60.9266 37.6948L60.6359 39.6736ZM59.7812 37.4678V38.6842H61.7812V37.4678H59.7812ZM59.7181 36.5939C59.812 36.6427 59.8099 36.6521 59.7843 36.6268C59.7687 36.6114 59.7523 36.5912 59.7385 36.5686C59.7252 36.547 59.7207 36.5333 59.7212 36.535C59.7254 36.5473 59.7433 36.6102 59.7574 36.7789C59.7711 36.9441 59.7781 37.1653 59.7813 37.4779L61.7812 37.4578C61.7752 36.8654 61.7608 36.3193 61.6142 35.8894C61.5268 35.6332 61.3911 35.4032 61.1915 35.2056C61.0071 35.023 60.8033 34.904 60.6411 34.8196L59.7181 36.5939ZM59.6806 36.6329C59.7375 36.5765 59.771 36.5542 59.7812 36.5481C59.7856 36.5455 59.7833 36.5473 59.7747 36.5506C59.7658 36.5541 59.7523 36.5583 59.735 36.5614C59.7177 36.5645 59.7003 36.5658 59.6841 36.5654C59.6682 36.565 59.6569 36.5632 59.6513 36.562C59.6414 36.5599 59.658 36.5617 59.7065 36.5877L60.6528 34.8258C60.2977 34.6351 59.8652 34.5064 59.3831 34.5926C58.9153 34.6762 58.552 34.9359 58.2735 35.2116L59.6806 36.6329ZM59.6058 37.4295C59.6058 37.1527 59.6067 36.9658 59.6125 36.8255C59.6153 36.7576 59.6189 36.7109 59.6225 36.6784C59.6261 36.6462 59.629 36.6353 59.6283 36.638C59.6229 36.66 59.6061 36.7008 59.5836 36.7325C59.5786 36.7397 59.5876 36.725 59.6806 36.6329L58.2735 35.2116C58.0805 35.4027 57.8048 35.6755 57.6856 36.1629C57.6017 36.506 57.6058 36.9448 57.6058 37.4295H59.6058ZM59.6058 38.5698V37.4295H57.6058V38.5698H59.6058ZM58.4756 39.6225L58.8208 39.5464L58.3907 37.5932L58.0455 37.6693L58.4756 39.6225ZM55.8547 39.8614C56.0529 39.8614 56.6294 39.8139 57.1288 39.7686C57.6422 39.7221 58.2083 39.6655 58.4119 39.6343L58.1093 37.6574C57.9803 37.6771 57.4843 37.7282 56.9484 37.7768C56.6891 37.8003 56.4333 37.822 56.2267 37.8378C56.1232 37.8456 56.0347 37.8518 55.9654 37.856C55.9308 37.8581 55.9031 37.8595 55.8821 37.8604C55.8591 37.8614 55.8517 37.8614 55.8547 37.8614V39.8614ZM54.5259 37.7748C54.593 38.1417 54.6691 38.4872 54.7409 38.7515C54.7755 38.8789 54.816 39.0134 54.8616 39.1289C54.8821 39.1806 54.92 39.2716 54.9786 39.3653C55.0063 39.4096 55.0653 39.4985 55.1612 39.5875C55.2406 39.6613 55.48 39.8614 55.8547 39.8614V37.8614C56.2215 37.8614 56.4521 38.057 56.5222 38.1221C56.6088 38.2025 56.6578 38.2784 56.6749 38.3057C56.7123 38.3656 56.7267 38.4066 56.7218 38.394C56.7166 38.3809 56.6987 38.3293 56.671 38.2272C56.618 38.0324 56.5536 37.7446 56.4932 37.4147L54.5259 37.7748ZM54.3456 36.6201C54.3711 36.6295 54.3312 36.6181 54.2826 36.5717C54.2367 36.5278 54.234 36.5011 54.2564 36.5538C54.282 36.614 54.3192 36.7273 54.367 36.9369C54.4138 37.1427 54.4637 37.4088 54.5236 37.7621L56.4954 37.4274C56.3781 36.7363 56.2698 36.1783 56.0973 35.7721C56.0013 35.5461 55.8676 35.3199 55.6641 35.1255C55.4581 34.9287 55.2343 34.816 55.0362 34.7431L54.3456 36.6201ZM54.1376 36.612C54.2164 36.5809 54.2535 36.5696 54.2691 36.5656C54.2788 36.5631 54.262 36.5681 54.2308 36.5682C54.1996 36.5682 54.1828 36.5632 54.1925 36.5656C54.2081 36.5696 54.2453 36.5809 54.3241 36.6119L55.0577 34.7513C54.8389 34.665 54.5596 34.568 54.2295 34.5682C53.8994 34.5684 53.6203 34.6658 53.4012 34.7525L54.1376 36.612ZM54.3081 37.5216C54.2096 36.9228 54.2205 36.638 54.2474 36.5189C54.2567 36.4777 54.2584 36.5017 54.2228 36.5452C54.1848 36.5915 54.1471 36.6083 54.1493 36.6073L53.3896 34.7572C53.1294 34.8641 52.8789 35.0297 52.6758 35.2776C52.475 35.5226 52.3592 35.8008 52.2966 36.0779C52.1796 36.5954 52.2289 37.2037 52.3347 37.8464L54.3081 37.5216ZM54.5208 38.8182C54.5219 38.8222 54.5198 38.8142 54.5142 38.787C54.5092 38.7625 54.5029 38.7299 54.4954 38.6893C54.4805 38.6081 54.4623 38.5035 54.4421 38.3817C54.4017 38.1385 54.3547 37.8375 54.3107 37.5385L52.332 37.8296C52.418 38.4141 52.5281 39.0973 52.5827 39.3118L54.5208 38.8182ZM53.2085 40.4486C53.3462 40.4194 53.487 40.3876 53.6119 40.3497C53.7232 40.3159 53.914 40.2515 54.0937 40.1181C54.3196 39.9503 54.4922 39.7008 54.5476 39.3888C54.5908 39.1458 54.5467 38.9358 54.5297 38.856L52.5738 39.2739C52.5825 39.3145 52.5497 39.2011 52.5785 39.0388C52.5956 38.9424 52.6327 38.8347 52.6994 38.7304C52.7647 38.6282 52.8402 38.5577 52.9014 38.5123C53.0043 38.4359 53.0815 38.4206 53.0311 38.4359C52.9944 38.447 52.9256 38.4642 52.7946 38.4919L53.2085 40.4486ZM51.4134 40.9334C52.1138 40.719 52.9139 40.505 53.189 40.4525L52.8141 38.4879C52.4241 38.5624 51.5349 38.8045 50.8278 39.0211L51.4134 40.9334ZM48.9673 40.8726C49.1813 41.1551 49.4664 41.2288 49.5352 41.2461C49.6413 41.2726 49.731 41.2773 49.7765 41.2786C49.8731 41.2813 49.9611 41.2722 50.0158 41.2655C50.1353 41.2507 50.2727 41.2241 50.4062 41.1949C50.681 41.1349 51.033 41.0433 51.3977 40.9381L50.8435 39.0164C50.5044 39.1142 50.1973 39.1934 49.9795 39.241C49.8667 39.2656 49.7994 39.277 49.771 39.2805C49.7518 39.2829 49.78 39.2779 49.833 39.2794C49.8567 39.2801 49.9286 39.2828 50.0211 39.306C50.0691 39.318 50.1459 39.3412 50.2336 39.3871C50.3202 39.4324 50.4492 39.5167 50.5615 39.6649L48.9673 40.8726ZM48.2537 39.0546C48.3889 39.4565 48.5197 39.8358 48.6245 40.124C48.6764 40.2668 48.7252 40.3963 48.7668 40.4981C48.787 40.5476 48.8105 40.6029 48.8353 40.6545C48.8474 40.6797 48.8657 40.7162 48.8889 40.756C48.9004 40.7756 48.9587 40.8783 49.0609 40.9794L50.468 39.5581C50.5637 39.6529 50.6141 39.7443 50.6163 39.7479C50.6302 39.7717 50.6376 39.7875 50.6377 39.7876C50.6383 39.7889 50.6323 39.7762 50.6183 39.7419C50.5914 39.6761 50.553 39.5752 50.5042 39.4408C50.4075 39.1747 50.2826 38.8129 50.1493 38.4169L48.2537 39.0546ZM47.7161 37.6966C47.6598 37.6406 47.6588 37.6192 47.709 37.7078C47.7481 37.7766 47.7994 37.8785 47.86 38.0138C47.9806 38.2832 48.1188 38.6423 48.2511 39.0467L50.152 38.4249C50.0025 37.9678 49.8399 37.5417 49.6854 37.1965C49.6084 37.0247 49.5286 36.862 49.4486 36.7209C49.3797 36.5995 49.2716 36.4227 49.1258 36.2779L47.7161 37.6966ZM47.6125 37.7358C47.6128 37.7349 47.6119 37.7346 47.6168 37.73C47.6243 37.7227 47.6411 37.711 47.6666 37.7037C47.6922 37.6964 47.7112 37.6979 47.7189 37.6996C47.722 37.7003 47.7221 37.7007 47.7203 37.6997C47.7181 37.6986 47.717 37.6974 47.7174 37.6979L49.1245 36.2766C48.0022 35.1654 46.0485 35.7388 45.6717 37.2528L47.6125 37.7358ZM48.0968 39.1368C47.9323 38.6727 47.8042 38.2491 47.7233 37.9316C47.6825 37.7713 47.657 37.6511 47.6442 37.5731C47.6377 37.5333 47.6367 37.5183 47.6369 37.5219C47.6371 37.5242 47.6381 37.5402 47.6373 37.566C47.6366 37.5874 47.6338 37.6444 47.6164 37.7196L45.6678 37.269C45.6289 37.4374 45.6371 37.5887 45.6411 37.651C45.6466 37.7357 45.658 37.8206 45.6707 37.8976C45.6963 38.0532 45.7364 38.2339 45.7852 38.4252C45.8834 38.811 46.0304 39.2933 46.2118 39.805L48.0968 39.1368ZM48.1648 39.3432L48.1045 39.1594L46.204 39.7824L46.2643 39.9661L48.1648 39.3432ZM48.3953 41.9168C48.6449 41.6698 48.6785 41.3791 48.6844 41.3351C48.6969 41.242 48.6936 41.1671 48.6916 41.1341C48.6873 41.0624 48.6763 41.0033 48.6713 40.9777C48.6597 40.9176 48.6439 40.857 48.6313 40.8107C48.6043 40.7115 48.5653 40.5832 48.521 40.442C48.4313 40.1561 48.3037 39.7669 48.1648 39.3431L46.2643 39.9662C46.4049 40.3951 46.5278 40.7699 46.6127 41.0407C46.6558 41.1779 46.6852 41.2761 46.7017 41.3368C46.7109 41.3705 46.7108 41.3731 46.7078 41.3579C46.7072 41.3546 46.6988 41.3133 46.6952 41.2545C46.6936 41.2278 46.6902 41.1582 46.7022 41.0691C46.7083 41.0234 46.7216 40.948 46.7542 40.8594C46.7854 40.7746 46.8512 40.6313 46.9883 40.4955L48.3953 41.9168ZM46.6833 42.8271C47.0768 42.6355 47.4385 42.4566 47.7043 42.3235C47.8369 42.2571 47.9473 42.2013 48.0266 42.1606C48.0657 42.1406 48.1003 42.1226 48.1274 42.1082C48.1401 42.1015 48.1565 42.0926 48.1728 42.0835C48.1801 42.0794 48.195 42.0709 48.2124 42.0602C48.2207 42.0551 48.2372 42.0448 48.2572 42.0311C48.2622 42.0277 48.3268 41.9847 48.3954 41.9168L46.9882 40.4956C47.0564 40.4281 47.1203 40.3856 47.1242 40.383C47.1432 40.3699 47.1584 40.3605 47.1651 40.3564C47.1792 40.3477 47.1896 40.3418 47.1913 40.3409C47.1962 40.3381 47.1966 40.338 47.1887 40.3422C47.1745 40.3497 47.15 40.3625 47.1139 40.381C47.0427 40.4175 46.9387 40.4701 46.8089 40.5351C46.5499 40.6648 46.1948 40.8405 45.8077 41.029L46.6833 42.8271ZM45.3816 43.4715L46.6891 42.8243L45.8019 41.0319L44.4943 41.6791L45.3816 43.4715ZM44.8131 43.5753H44.938V41.5753H44.8131V43.5753ZM43.176 41.5397L43.919 43.0232L45.7072 42.1275L44.9642 40.644L43.176 41.5397ZM42.3036 39.8497C42.2771 39.8467 42.2302 39.8322 42.1957 39.8088C42.1785 39.7971 42.2112 39.814 42.296 39.9291C42.4793 40.1778 42.7344 40.6414 43.1726 41.5329L44.9675 40.6507C44.5426 39.7863 44.2131 39.1592 43.9061 38.7426C43.5635 38.2777 43.1426 37.9314 42.5269 37.8622L42.3036 39.8497ZM39.724 32.3207L41.446 39.1021L43.3845 38.6098L41.6625 31.8285L39.724 32.3207ZM39.666 31.6758C39.6528 31.8793 39.6674 32.0973 39.7239 32.3204L41.6626 31.8288C41.6625 31.8285 41.6621 31.8269 41.6618 31.8233C41.6615 31.8197 41.6613 31.8138 41.6618 31.8052L39.666 31.6758ZM38.0229 29.5476C38.0229 31.038 39.0235 32.2802 40.3687 32.6959L40.9592 30.785C40.4044 30.6136 40.0229 30.1121 40.0229 29.5476H38.0229ZM41.367 26.2486C39.5405 26.2486 38.0229 27.7094 38.0229 29.5476H40.0229C40.0229 28.8503 40.6083 28.2486 41.367 28.2486V26.2486ZM44.711 29.5476C44.711 27.7094 43.1935 26.2486 41.367 26.2486V28.2486C42.1256 28.2486 42.711 28.8503 42.711 29.5476H44.711ZM43.4838 32.1001C44.2267 31.4998 44.711 30.5815 44.711 29.5476H42.711C42.711 29.9416 42.5283 30.3008 42.2268 30.5445L43.4838 32.1001ZM46.6326 33.6492L43.5582 30.611L42.1524 32.0336L45.2269 35.0718L46.6326 33.6492ZM48.8881 34.5687C48.0452 34.5687 47.2204 34.2301 46.6327 33.6492L45.2268 35.0717C46.1931 36.0268 47.5248 36.5687 48.8881 36.5687V34.5687ZM51.4267 33.3335C50.8359 34.1013 49.8871 34.5687 48.8881 34.5687V36.5687C50.4978 36.5687 52.0363 35.821 53.0118 34.5531L51.4267 33.3335ZM56.4794 26.7672L51.4267 33.3335L53.0117 34.5531L58.0644 27.9869L56.4794 26.7672ZM55.5846 25.7524C55.5846 26.6692 55.9661 27.4974 56.5719 28.0912L57.9719 26.6628C57.7288 26.4246 57.5846 26.1031 57.5846 25.7524H55.5846ZM58.9287 22.4534C57.1022 22.4534 55.5846 23.9142 55.5846 25.7524H57.5846C57.5846 25.0551 58.17 24.4534 58.9287 24.4534V22.4534ZM62.2727 25.7524C62.2727 23.9142 60.7551 22.4534 58.9287 22.4534V24.4534C59.6873 24.4534 60.2727 25.0551 60.2727 25.7524H62.2727ZM61.3379 28.036C61.9106 27.4481 62.2727 26.6439 62.2727 25.7524H60.2727C60.2727 26.0905 60.1372 26.4024 59.9053 26.6404L61.3379 28.036ZM61.443 26.7668C61.4222 26.7373 61.4033 26.7139 61.3898 26.6979C61.377 26.6827 61.3664 26.671 61.3645 26.6689C61.3639 26.6682 61.3633 26.6676 61.3634 26.6677C61.3634 26.6677 61.3635 26.6678 61.3635 26.6678C61.3636 26.6679 61.3636 26.668 61.3637 26.6681C61.3639 26.6683 61.3642 26.6686 61.3646 26.669C61.366 26.6706 61.3693 26.6743 61.3736 26.6792C61.382 26.6887 61.3977 26.7069 61.416 26.7308L59.8271 27.9455C59.8461 27.9704 59.8625 27.9894 59.8716 27.9998C59.8763 28.005 59.88 28.0092 59.8817 28.0111C59.8826 28.0121 59.8834 28.0129 59.8835 28.013C59.8838 28.0134 59.8834 28.0129 59.883 28.0125C59.8822 28.0116 59.8793 28.0084 59.8755 28.0042C59.8717 27.9998 59.8663 27.9936 59.8599 27.986C59.8471 27.9709 59.829 27.9484 59.8088 27.9198L61.443 26.7668ZM66.4375 33.3217L61.4214 26.7373L59.8304 27.9493L64.8465 34.5337L66.4375 33.3217ZM68.9809 34.5688C67.9805 34.5688 67.0284 34.0974 66.4375 33.3217L64.8465 34.5337C65.8212 35.8132 67.3653 36.5688 68.9809 36.5688V34.5688ZM71.2279 33.6576C70.6298 34.2443 69.8352 34.5688 68.9809 34.5688V36.5688C70.3531 36.5688 71.6523 36.0429 72.6285 35.0853L71.2279 33.6576ZM74.3218 30.6231L71.228 33.6575L72.6284 35.0853L75.7222 32.0509L74.3218 30.6231ZM73.1463 29.5476C73.1463 30.5953 73.6441 31.5221 74.4016 32.1213L75.6424 30.5527C75.3334 30.3082 75.1463 29.9453 75.1463 29.5476H73.1463ZM76.4903 26.2486C74.6639 26.2486 73.1463 27.7094 73.1463 29.5476H75.1463C75.1463 28.8503 75.7317 28.2486 76.4903 28.2486V26.2486ZM79.8344 29.5476C79.8344 27.7094 78.3168 26.2486 76.4903 26.2486V28.2486C77.249 28.2486 77.8344 28.8503 77.8344 29.5476H79.8344ZM77.5954 32.6586C78.8834 32.2124 79.8344 30.9999 79.8344 29.5476H77.8344C77.8344 30.0953 77.4741 30.584 76.9406 30.7689L77.5954 32.6586ZM68.434 41.7613C68.3071 41.6563 68.1592 41.5819 68.0896 41.5474C67.9936 41.4998 67.8842 41.4512 67.7733 41.4045C67.5499 41.3106 67.2828 41.2091 67.0252 41.1185C66.7695 41.0286 66.5047 40.9429 66.288 40.8844C66.1841 40.8564 66.064 40.827 65.9511 40.8098C65.8994 40.8019 65.8081 40.7899 65.7032 40.7927C65.6515 40.7941 65.559 40.7997 65.4498 40.8289C65.3549 40.8542 65.1342 40.9265 64.946 41.1392L66.444 42.4644C66.2611 42.6712 66.049 42.739 65.9657 42.7612C65.8683 42.7872 65.7907 42.7911 65.7568 42.792C65.7174 42.7931 65.6883 42.791 65.6749 42.7898C65.6601 42.7885 65.6511 42.7872 65.6493 42.7869C65.6467 42.7865 65.6555 42.7878 65.679 42.7932C65.7012 42.7982 65.7303 42.8055 65.7667 42.8153C65.917 42.8559 66.1305 42.9239 66.3618 43.0053C66.591 43.0859 66.8196 43.1731 66.998 43.2481C67.088 43.2859 67.1561 43.3169 67.2013 43.3393C67.2728 43.3748 67.2298 43.3608 67.1587 43.3019L68.434 41.7613ZM65.4442 43.5433L67.8013 43.5316L67.7914 41.5316L65.4342 41.5433L65.4442 43.5433ZM64.706 41.6027C64.6583 41.7365 64.5767 41.9654 64.4894 42.2304L66.389 42.8562C66.4681 42.616 66.5426 42.4068 66.59 42.274L64.706 41.6027ZM64.7046 41.6066L64.7045 41.6069L66.5914 42.2698L66.5915 42.2696L64.7046 41.6066ZM64.695 41.8018C64.695 41.7628 64.6973 41.7306 64.6993 41.709C64.7015 41.6865 64.704 41.6675 64.7061 41.6534C64.7103 41.626 64.7147 41.6041 64.7175 41.5912C64.7231 41.5656 64.7284 41.5461 64.7307 41.538C64.7355 41.5206 64.7395 41.5083 64.74 41.5069C64.7415 41.502 64.7415 41.5022 64.738 41.5124C64.7315 41.5311 64.7213 41.5597 64.7061 41.6025L66.59 42.2738C66.6041 42.2343 66.6174 42.197 66.6271 42.1692C66.6316 42.1562 66.6378 42.138 66.6437 42.12C66.6462 42.1121 66.6518 42.0945 66.6577 42.0732C66.6605 42.0631 66.6663 42.042 66.6721 42.0151C66.6728 42.012 66.695 41.9192 66.695 41.8018H64.695ZM64.0987 42.835C64.1191 42.7652 64.1424 42.6876 64.169 42.6002L62.2558 42.0175C62.228 42.1089 62.2022 42.1945 62.1789 42.2743L64.0987 42.835ZM60.7851 43.5664L63.1438 43.5547L63.1339 41.5547L60.7751 41.5664L60.7851 43.5664ZM59.7812 42.207C59.7812 42.3379 59.7809 42.4542 59.7801 42.5585L61.7801 42.5742C61.7809 42.4624 61.7812 42.3402 61.7812 42.207H59.7812ZM60.9475 39.877C60.3217 39.877 60.0356 40.3574 59.954 40.5406C59.8691 40.7311 59.8389 40.9289 59.8236 41.0557C59.7897 41.3345 59.7812 41.7244 59.7812 42.207H61.7812C61.7812 41.714 61.7917 41.4388 61.809 41.2965C61.8192 41.2128 61.8226 41.261 61.7808 41.3546C61.7579 41.4061 61.6959 41.5301 61.5604 41.6481C61.4036 41.7847 61.1883 41.877 60.9475 41.877V39.877ZM64.0798 40.5372C63.9513 40.431 63.8231 40.3817 63.8093 40.376C63.7665 40.3584 63.7288 40.346 63.7053 40.3387C63.6566 40.3234 63.6069 40.3104 63.5661 40.3004C63.4814 40.2794 63.3766 40.2568 63.2655 40.2341C63.0402 40.1881 62.7504 40.1344 62.4575 40.0835C62.1643 40.0325 61.8602 39.983 61.6059 39.9459C61.3878 39.914 61.1159 39.877 60.9475 39.877V41.877C60.939 41.877 61.0494 41.8859 61.3171 41.9249C61.5487 41.9587 61.834 42.0051 62.115 42.0539C62.3964 42.1028 62.6657 42.1529 62.8655 42.1937C62.9669 42.2144 63.0411 42.2308 63.0871 42.2421C63.1117 42.2482 63.1153 42.2497 63.1059 42.2467C63.1021 42.2455 63.0806 42.2388 63.0503 42.2264C63.0489 42.2258 62.9294 42.181 62.8057 42.0788L64.0798 40.5372ZM64.1626 42.6204C64.2526 42.3462 64.3287 42.0788 64.3787 41.8618C64.4029 41.7566 64.4261 41.6416 64.439 41.5342C64.4452 41.4834 64.4528 41.4046 64.4502 41.3157C64.4489 41.2714 64.4445 41.1998 64.4267 41.1154C64.4119 41.0452 64.3706 40.879 64.2437 40.7092L62.6419 41.9068C62.5766 41.8195 62.5377 41.7372 62.5147 41.6782C62.4911 41.6181 62.4778 41.566 62.4699 41.5287C62.4547 41.4566 62.4518 41.4003 62.4511 41.374C62.4502 41.3441 62.4513 41.3224 62.4519 41.3124C62.4526 41.3014 62.4534 41.2952 62.4534 41.2949C62.4535 41.2942 62.4532 41.2967 62.4522 41.3028C62.4513 41.3088 62.4498 41.3171 62.4478 41.3279C62.4437 41.3496 62.4378 41.378 62.4297 41.4129C62.3966 41.5569 62.3385 41.7645 62.2622 41.9973L64.1626 42.6204ZM59.6172 42.5279C59.6101 42.3773 59.6064 42.2076 59.6064 42.0167H57.6064C57.6064 42.2323 57.6106 42.4342 57.6195 42.6227L59.6172 42.5279ZM56.3435 43.5753H58.6184V41.5753H56.3435V43.5753ZM55.2916 42.2314C55.3146 42.4105 55.3344 42.5642 55.3511 42.6987L57.3358 42.452C57.3185 42.3125 57.2982 42.1542 57.2753 41.9763L55.2916 42.2314ZM55.2914 42.2295L55.2916 42.2309L57.2753 41.9768L57.2752 41.9754L55.2914 42.2295ZM55.2914 42.2296L55.2915 42.2307L57.275 41.9742L57.2749 41.973L55.2914 42.2296ZM55.2333 41.7757C55.2543 41.9413 55.2737 42.092 55.2913 42.2288L57.275 41.9738C57.2574 41.8369 57.2382 41.6876 57.2174 41.5238L55.2333 41.7757ZM55.1461 41.1717L55.2356 41.7924L57.2151 41.5071L57.1256 40.8864L55.1461 41.1717ZM56.9187 39.9454L56.036 40.034L56.2357 42.024L57.1184 41.9354L56.9187 39.9454ZM58.3348 39.7798C58.0348 39.8349 57.6998 39.8818 56.9376 39.9437L57.0996 41.9372C57.8985 41.8722 58.306 41.8186 58.6964 41.7468L58.3348 39.7798ZM59.6064 42.0167C59.6064 41.6533 59.5964 41.3146 59.578 41.0571C59.5692 40.9332 59.5566 40.8024 59.537 40.6896C59.5286 40.6411 59.5108 40.5466 59.4737 40.4451C59.4574 40.4005 59.4147 40.2895 59.3268 40.1717C59.2572 40.0783 58.9896 39.7572 58.503 39.7633L58.5283 41.7632C58.0481 41.7693 57.787 41.4524 57.7237 41.3675C57.642 41.258 57.6055 41.1597 57.5953 41.1316C57.5702 41.0632 57.564 41.0176 57.5666 41.0321C57.5689 41.0453 57.5758 41.0973 57.5831 41.1998C57.5971 41.3949 57.6064 41.6832 57.6064 42.0167H59.6064ZM55.1278 42.4348C55.0868 42.1461 55.0391 41.8739 54.9974 41.665C54.9767 41.5614 54.9562 41.4665 54.9373 41.3894C54.9282 41.3521 54.917 41.309 54.9043 41.2669C54.8981 41.2466 54.8884 41.2157 54.8752 41.1808C54.8701 41.1674 54.8347 41.0696 54.7638 40.9643L53.1049 42.0814C53.0642 42.0209 53.0397 41.9697 53.0297 41.9482C53.0176 41.9221 53.0093 41.901 53.0048 41.889C52.9958 41.8654 52.9909 41.8491 52.9901 41.8464C52.988 41.8396 52.9895 41.8439 52.9947 41.8649C53.0043 41.9043 53.0187 41.969 53.0361 42.0564C53.0706 42.2294 53.112 42.4647 53.1476 42.7158L55.1278 42.4348ZM50.5437 43.5753H54.1377V41.5753H50.5437V43.5753ZM49.5437 42.5773L49.5437 42.578L51.5437 42.5727L51.5437 42.5719L49.5437 42.5773ZM54.6114 40.7868C54.4339 40.6236 54.2456 40.5649 54.1591 40.5426C54.0593 40.5168 53.9724 40.5092 53.9165 40.5064C53.8043 40.5008 53.699 40.5098 53.6234 40.5184C53.465 40.5366 53.2839 40.5722 53.1077 40.6122C52.7475 40.694 52.3026 40.8183 51.875 40.9513C51.4477 41.0841 51.0137 41.233 50.6769 41.3677C50.513 41.4333 50.3451 41.5061 50.2064 41.5811C50.1418 41.616 50.0442 41.6722 49.9496 41.749C49.9032 41.7867 49.8244 41.8556 49.7494 41.9568C49.6829 42.0466 49.5437 42.263 49.5437 42.5746H51.5437C51.5437 42.8727 51.4107 43.0741 51.3564 43.1475C51.2935 43.2323 51.2328 43.2834 51.21 43.3019C51.1624 43.3405 51.134 43.3532 51.1576 43.3404C51.1952 43.3201 51.2797 43.2807 51.4197 43.2247C51.6907 43.1163 52.0708 42.9848 52.4688 42.8611C52.8665 42.7374 53.2581 42.629 53.5504 42.5626C53.7005 42.5286 53.7996 42.5113 53.8512 42.5054C53.8805 42.5021 53.8626 42.5062 53.8171 42.5039C53.7946 42.5028 53.7358 42.4989 53.6587 42.4789C53.5948 42.4625 53.4237 42.4118 53.2574 42.2588L54.6114 40.7868Z" fill="#151B26" mask="url(#path-10-inside-1_160_58)"/>
</svg>
